ISO-10303-21;
HEADER;
FILE_DESCRIPTION (( 'STEP AP203' ),
    '1' );
FILE_NAME ('TMA Single Output 15+24VIN.STEP',
    '2020-11-20T00:55:11',
    ( '' ),
    ( '' ),
    'SwSTEP 2.0',
    'SolidWorks 2020',
    '' );
FILE_SCHEMA (( 'CONFIG_CONTROL_DESIGN' ));
ENDSEC;

DATA;
#1 = DIRECTION ( 'NONE',  ( -1.000000000000000000, 0.0000000000000000000, -0.0000000000000000000 ) ) ;
#2 = DIRECTION ( 'NONE',  ( -1.000000000000000000, -0.0000000000000000000, -0.0000000000000000000 ) ) ;
#3 = AXIS2_PLACEMENT_3D ( 'NONE', #905, #336, #913 ) ;
#4 = CARTESIAN_POINT ( 'NONE',  ( -9.750000000000001776, 9.700000000000001066, -3.550000000000000266 ) ) ;
#5 = ORIENTED_EDGE ( 'NONE', *, *, #141, .T. ) ;
#6 = CALENDAR_DATE ( 2020, 20, 11 ) ;
#7 = LINE ( 'NONE', #225, #753 ) ;
#8 = LOCAL_TIME ( 8, 55, 11.00000000000000000, #936 ) ;
#9 = CARTESIAN_POINT ( 'NONE',  ( -9.250000000000001776, -0.5000000000000000000, 3.549999999999999378 ) ) ;
#10 = LINE ( 'NONE', #534, #532 ) ;
#11 = VERTEX_POINT ( 'NONE', #845 ) ;
#12 = CALENDAR_DATE ( 2020, 20, 11 ) ;
#13 = CARTESIAN_POINT ( 'NONE',  ( 9.249999999999998224, -0.5000000000000000000, 3.549999999999999378 ) ) ;
#14 = PLANE ( 'NONE',  #816 ) ;
#15 = ORIENTED_EDGE ( 'NONE', *, *, #262, .F. ) ;
#16 = APPLICATION_PROTOCOL_DEFINITION ( 'international standard', 'config_control_design', 1994, #930 ) ;
#17 = ADVANCED_FACE ( 'NONE', ( #410 ), #426, .F. ) ;
#18 = DIRECTION ( 'NONE',  ( 0.0000000000000000000, 0.0000000000000000000, -1.000000000000000000 ) ) ;
#19 = ORIENTED_EDGE ( 'NONE', *, *, #127, .F. ) ;
#20 = PRODUCT ( 'TMA Single Output 15+24VIN', 'TMA Single Output 15+24VIN', '', ( #864 ) ) ;
#21 = PERSON_AND_ORGANIZATION_ROLE ( 'design_owner' ) ;
#22 = FACE_OUTER_BOUND ( 'NONE', #542, .T. ) ;
#23 = VERTEX_POINT ( 'NONE', #131 ) ;
#24 = AXIS2_PLACEMENT_3D ( 'NONE', #866, #787, #155 ) ;
#25 = CARTESIAN_POINT ( 'NONE',  ( 9.249999999999998224, 0.0000000000000000000, -3.550000000000000266 ) ) ;
#26 = AXIS2_PLACEMENT_3D ( 'NONE', #88, #882, #81 ) ;
#27 = VERTEX_POINT ( 'NONE', #566 ) ;
#28 = VERTEX_POINT ( 'NONE', #415 ) ;
#29 = EDGE_CURVE ( 'NONE', #838, #462, #197, .T. ) ;
#30 = VECTOR ( 'NONE', #917, 1000.000000000000000 ) ;
#31 = CARTESIAN_POINT ( 'NONE',  ( -0.2800000000000007483, -3.700000000000000178, -2.250000000000000444 ) ) ;
#32 = PLANE ( 'NONE',  #459 ) ;
#33 = ORIENTED_EDGE ( 'NONE', *, *, #571, .T. ) ;
#34 = LINE ( 'NONE', #249, #718 ) ;
#35 = ORIENTED_EDGE ( 'NONE', *, *, #494, .T. ) ;
#36 = DIRECTION ( 'NONE',  ( 2.443272501375784959E-16, 0.0000000000000000000, 1.000000000000000000 ) ) ;
#37 = DIRECTION ( 'NONE',  ( -0.0000000000000000000, 1.000000000000000000, -0.0000000000000000000 ) ) ;
#38 = CARTESIAN_POINT ( 'NONE',  ( -0.2800000000000007483, -3.700000000000000178, -2.250000000000000444 ) ) ;
#39 = EDGE_LOOP ( 'NONE', ( #385, #324, #876, #232 ) ) ;
#40 = CARTESIAN_POINT ( 'NONE',  ( -9.750000000000001776, 9.700000000000001066, -3.550000000000000266 ) ) ;
#41 = DIRECTION ( 'NONE',  ( 0.0000000000000000000, 0.0000000000000000000, -1.000000000000000000 ) ) ;
#42 = CARTESIAN_POINT ( 'NONE',  ( -7.900000000000000355, -3.700000000000000178, -2.250000000000000444 ) ) ;
#43 = ORIENTED_EDGE ( 'NONE', *, *, #883, .T. ) ;
#44 = CARTESIAN_POINT ( 'NONE',  ( 9.750000000000001776, -0.5000000000000000000, 3.549999999999999378 ) ) ;
#45 = ADVANCED_FACE ( 'NONE', ( #263 ), #358, .F. ) ;
#46 = LINE ( 'NONE', #627, #674 ) ;
#47 = VERTEX_POINT ( 'NONE', #699 ) ;
#48 = VECTOR ( 'NONE', #583, 1000.000000000000000 ) ;
#49 = VECTOR ( 'NONE', #266, 1000.000000000000000 ) ;
#50 = DIRECTION ( 'NONE',  ( -0.0000000000000000000, -0.0000000000000000000, -1.000000000000000000 ) ) ;
#51 = ADVANCED_FACE ( 'NONE', ( #692 ), #349, .T. ) ;
#52 = ORIENTED_EDGE ( 'NONE', *, *, #916, .T. ) ;
#53 = CARTESIAN_POINT ( 'NONE',  ( -9.250000000000001776, -0.5000000000000000000, 3.549999999999999378 ) ) ;
#54 = DIRECTION ( 'NONE',  ( -0.0000000000000000000, 1.000000000000000000, -0.0000000000000000000 ) ) ;
#55 = EDGE_LOOP ( 'NONE', ( #138, #205, #681, #238 ) ) ;
#56 = LINE ( 'NONE', #290, #78 ) ;
#57 = DIRECTION ( 'NONE',  ( 0.0000000000000000000, 1.000000000000000000, 0.0000000000000000000 ) ) ;
#58 = VECTOR ( 'NONE', #425, 1000.000000000000000 ) ;
#59 = ADVANCED_FACE ( 'NONE', ( #63 ), #642, .F. ) ;
#60 = CARTESIAN_POINT ( 'NONE',  ( -9.750000000000001776, 0.0000000000000000000, -3.550000000000000266 ) ) ;
#61 = EDGE_LOOP ( 'NONE', ( #5, #65, #312, #514 ) ) ;
#62 = CARTESIAN_POINT ( 'NONE',  ( -9.750000000000001776, 9.700000000000001066, -3.550000000000000266 ) ) ;
#63 = FACE_OUTER_BOUND ( 'NONE', #484, .T. ) ;
#64 = DIRECTION ( 'NONE',  ( -0.0000000000000000000, -0.0000000000000000000, 1.000000000000000000 ) ) ;
#65 = ORIENTED_EDGE ( 'NONE', *, *, #311, .F. ) ;
#66 = DIRECTION ( 'NONE',  ( -2.443272501375784959E-16, 0.0000000000000000000, -1.000000000000000000 ) ) ;
#67 = ORIENTED_EDGE ( 'NONE', *, *, #633, .T. ) ;
#68 = ADVANCED_FACE ( 'NONE', ( #338 ), #277, .F. ) ;
#69 = CARTESIAN_POINT ( 'NONE',  ( 4.799999999999998934, 0.0000000000000000000, -2.250000000000000444 ) ) ;
#70 = ORIENTED_EDGE ( 'NONE', *, *, #932, .T. ) ;
#71 = ADVANCED_BREP_SHAPE_REPRESENTATION ( 'TMA Single Output 15+24VIN', ( #638, #585 ), #553 ) ;
#72 = CARTESIAN_POINT ( 'NONE',  ( -9.750000000000001776, 9.700000000000001066, -3.550000000000000266 ) ) ;
#73 = PERSON_AND_ORGANIZATION ( #319, #702 ) ;
#74 = DIRECTION ( 'NONE',  ( -0.0000000000000000000, -1.000000000000000000, -0.0000000000000000000 ) ) ;
#75 = CARTESIAN_POINT ( 'NONE',  ( -9.750000000000001776, -0.5000000000000000000, -3.550000000000000266 ) ) ;
#76 = DIRECTION ( 'NONE',  ( -0.0000000000000000000, 0.0000000000000000000, 1.000000000000000000 ) ) ;
#77 = VERTEX_POINT ( 'NONE', #136 ) ;
#78 = VECTOR ( 'NONE', #576, 1000.000000000000000 ) ;
#79 = DIRECTION ( 'NONE',  ( -0.0000000000000000000, 1.000000000000000000, -0.0000000000000000000 ) ) ;
#80 = EDGE_CURVE ( 'NONE', #339, #690, #46, .T. ) ;
#81 = DIRECTION ( 'NONE',  ( -0.0000000000000000000, 0.0000000000000000000, 1.000000000000000000 ) ) ;
#82 = CARTESIAN_POINT ( 'NONE',  ( -9.750000000000000000, 9.700000000000001066, 3.549999999999999378 ) ) ;
#83 = ORIENTED_EDGE ( 'NONE', *, *, #667, .F. ) ;
#84 =( NAMED_UNIT ( * ) SI_UNIT ( $, .STERADIAN. ) SOLID_ANGLE_UNIT ( ) );
#85 = DIRECTION ( 'NONE',  ( -1.000000000000000000, 0.0000000000000000000, 0.0000000000000000000 ) ) ;
#86 = CARTESIAN_POINT ( 'NONE',  ( 5.300000000000000711, -3.700000000000000178, -2.500000000000000444 ) ) ;
#87 = LINE ( 'NONE', #157, #654 ) ;
#88 = CARTESIAN_POINT ( 'NONE',  ( -4.859999999999997655, -3.700000000000000178, -2.250000000000000444 ) ) ;
#89 = ORIENTED_EDGE ( 'NONE', *, *, #769, .T. ) ;
#90 = APPROVAL_ROLE ( '' ) ;
#91 = CC_DESIGN_PERSON_AND_ORGANIZATION_ASSIGNMENT ( #522, #650, ( #912 ) ) ;
#92 = LINE ( 'NONE', #603, #798 ) ;
#93 = ORIENTED_EDGE ( 'NONE', *, *, #571, .F. ) ;
#94 = VECTOR ( 'NONE', #548, 1000.000000000000000 ) ;
#95 = EDGE_CURVE ( 'NONE', #187, #844, #910, .T. ) ;
#96 = LOCAL_TIME ( 8, 55, 11.00000000000000000, #525 ) ;
#97 = ORIENTED_EDGE ( 'NONE', *, *, #413, .F. ) ;
#98 = AXIS2_PLACEMENT_3D ( 'NONE', #746, #175, #393 ) ;
#99 = LINE ( 'NONE', #31, #389 ) ;
#100 = CARTESIAN_POINT ( 'NONE',  ( -9.750000000000001776, -0.5000000000000000000, -3.550000000000000266 ) ) ;
#101 = AXIS2_PLACEMENT_3D ( 'NONE', #429, #213, #219 ) ;
#102 = ORIENTED_EDGE ( 'NONE', *, *, #732, .F. ) ;
#103 = LINE ( 'NONE', #684, #244 ) ;
#104 = EDGE_LOOP ( 'NONE', ( #478, #251, #675, #454 ) ) ;
#105 = PLANE ( 'NONE',  #98 ) ;
#106 = CARTESIAN_POINT ( 'NONE',  ( -9.250000000000000000, -0.5000000000000000000, -3.550000000000000266 ) ) ;
#107 = DIRECTION ( 'NONE',  ( -0.0000000000000000000, -1.000000000000000000, -0.0000000000000000000 ) ) ;
#108 = ORIENTED_EDGE ( 'NONE', *, *, #418, .T. ) ;
#109 = DIRECTION ( 'NONE',  ( 0.0000000000000000000, 0.0000000000000000000, -1.000000000000000000 ) ) ;
#110 = CARTESIAN_POINT ( 'NONE',  ( -7.900000000000000355, -3.700000000000000178, -2.250000000000000444 ) ) ;
#111 = CARTESIAN_POINT ( 'NONE',  ( -7.399999999999998579, -3.700000000000000178, -2.500000000000000444 ) ) ;
#112 = ORIENTED_EDGE ( 'NONE', *, *, #189, .T. ) ;
#113 = ORIENTED_EDGE ( 'NONE', *, *, #114, .T. ) ;
#114 = EDGE_CURVE ( 'NONE', #462, #595, #526, .T. ) ;
#115 = LINE ( 'NONE', #341, #626 ) ;
#116 = ORIENTED_EDGE ( 'NONE', *, *, #846, .T. ) ;
#117 = ADVANCED_FACE ( 'NONE', ( #665 ), #160, .F. ) ;
#118 = CARTESIAN_POINT ( 'NONE',  ( 9.249999999999998224, -0.5000000000000000000, -3.550000000000000266 ) ) ;
#119 = CC_DESIGN_DATE_AND_TIME_ASSIGNMENT ( #295, #287, ( #912 ) ) ;
#120 = DIRECTION ( 'NONE',  ( -0.0000000000000000000, 0.0000000000000000000, 1.000000000000000000 ) ) ;
#121 = VECTOR ( 'NONE', #645, 1000.000000000000000 ) ;
#122 = VECTOR ( 'NONE', #50, 1000.000000000000000 ) ;
#123 = PLANE ( 'NONE',  #285 ) ;
#124 = ORIENTED_EDGE ( 'NONE', *, *, #95, .T. ) ;
#125 = ADVANCED_FACE ( 'NONE', ( #22 ), #593, .F. ) ;
#126 = ORIENTED_EDGE ( 'NONE', *, *, #260, .F. ) ;
#127 = EDGE_CURVE ( 'NONE', #229, #187, #163, .T. ) ;
#128 = CARTESIAN_POINT ( 'NONE',  ( 4.799999999999998934, -3.700000000000000178, -2.250000000000000444 ) ) ;
#129 = ORIENTED_EDGE ( 'NONE', *, *, #747, .F. ) ;
#130 = CARTESIAN_POINT ( 'NONE',  ( -0.2800000000000007483, 0.0000000000000000000, -2.250000000000000444 ) ) ;
#131 = CARTESIAN_POINT ( 'NONE',  ( -7.900000000000000355, 0.0000000000000000000, -2.500000000000000444 ) ) ;
#132 = FACE_BOUND ( 'NONE', #619, .T. ) ;
#133 = ADVANCED_FACE ( 'NONE', ( #377 ), #886, .T. ) ;
#134 = ORIENTED_EDGE ( 'NONE', *, *, #435, .T. ) ;
#135 = FACE_OUTER_BOUND ( 'NONE', #317, .T. ) ;
#136 = CARTESIAN_POINT ( 'NONE',  ( -9.250000000000001776, 0.0000000000000000000, -3.550000000000000266 ) ) ;
#137 = FACE_OUTER_BOUND ( 'NONE', #104, .T. ) ;
#138 = ORIENTED_EDGE ( 'NONE', *, *, #895, .F. ) ;
#139 = DIRECTION ( 'NONE',  ( -0.0000000000000000000, 1.000000000000000000, -0.0000000000000000000 ) ) ;
#140 = APPROVAL_STATUS ( 'not_yet_approved' ) ;
#141 = EDGE_CURVE ( 'NONE', #871, #23, #92, .T. ) ;
#142 = CARTESIAN_POINT ( 'NONE',  ( -0.2800000000000007483, -3.700000000000000178, -2.500000000000000444 ) ) ;
#143 = DIRECTION ( 'NONE',  ( -0.0000000000000000000, -0.0000000000000000000, 1.000000000000000000 ) ) ;
#144 = VECTOR ( 'NONE', #85, 1000.000000000000000 ) ;
#145 = CARTESIAN_POINT ( 'NONE',  ( 9.249999999999998224, -0.5000000000000000000, -3.550000000000000266 ) ) ;
#146 = VECTOR ( 'NONE', #878, 1000.000000000000000 ) ;
#147 = EDGE_LOOP ( 'NONE', ( #538, #761, #630, #154 ) ) ;
#148 = ADVANCED_FACE ( 'NONE', ( #151 ), #446, .F. ) ;
#149 = CARTESIAN_POINT ( 'NONE',  ( 0.0000000000000000000, 0.0000000000000000000, 0.0000000000000000000 ) ) ;
#150 = CARTESIAN_POINT ( 'NONE',  ( -9.250000000000000000, -0.5000000000000000000, -3.550000000000000266 ) ) ;
#151 = FACE_OUTER_BOUND ( 'NONE', #892, .T. ) ;
#152 = AXIS2_PLACEMENT_3D ( 'NONE', #841, #705, #192 ) ;
#153 = FACE_OUTER_BOUND ( 'NONE', #829, .T. ) ;
#154 = ORIENTED_EDGE ( 'NONE', *, *, #382, .T. ) ;
#155 = DIRECTION ( 'NONE',  ( 0.0000000000000000000, -0.0000000000000000000, -1.000000000000000000 ) ) ;
#156 = CARTESIAN_POINT ( 'NONE',  ( -9.750000000000001776, 9.700000000000001066, -3.550000000000000266 ) ) ;
#157 = CARTESIAN_POINT ( 'NONE',  ( 0.2200000000000014444, -3.700000000000000178, -2.500000000000000444 ) ) ;
#158 = EDGE_CURVE ( 'NONE', #255, #914, #659, .T. ) ;
#159 = DATE_AND_TIME ( #741, #421 ) ;
#160 = PLANE ( 'NONE',  #26 ) ;
#161 = ORIENTED_EDGE ( 'NONE', *, *, #80, .F. ) ;
#162 = PERSON_AND_ORGANIZATION ( #319, #702 ) ;
#163 = LINE ( 'NONE', #86, #347 ) ;
#164 = EDGE_CURVE ( 'NONE', #924, #487, #807, .T. ) ;
#165 = VERTEX_POINT ( 'NONE', #728 ) ;
#166 = AXIS2_PLACEMENT_3D ( 'NONE', #894, #76, #540 ) ;
#167 = ORIENTED_EDGE ( 'NONE', *, *, #327, .T. ) ;
#168 = VECTOR ( 'NONE', #64, 1000.000000000000000 ) ;
#169 = CARTESIAN_POINT ( 'NONE',  ( -7.900000000000000355, 0.0000000000000000000, -2.250000000000000444 ) ) ;
#170 = CARTESIAN_POINT ( 'NONE',  ( 9.250000000000001776, 0.0000000000000000000, -3.550000000000000266 ) ) ;
#171 = LOCAL_TIME ( 8, 55, 11.00000000000000000, #529 ) ;
#172 = EDGE_LOOP ( 'NONE', ( #108, #346, #521, #279 ) ) ;
#173 = CARTESIAN_POINT ( 'NONE',  ( -7.399999999999997691, -3.700000000000000178, -2.250000000000000444 ) ) ;
#174 = EDGE_LOOP ( 'NONE', ( #740, #591, #770, #342 ) ) ;
#175 = DIRECTION ( 'NONE',  ( 0.0000000000000000000, 0.0000000000000000000, -1.000000000000000000 ) ) ;
#176 = CARTESIAN_POINT ( 'NONE',  ( -7.399999999999997691, 0.0000000000000000000, -2.250000000000000444 ) ) ;
#177 = AXIS2_PLACEMENT_3D ( 'NONE', #641, #574, #204 ) ;
#178 = LINE ( 'NONE', #760, #416 ) ;
#179 = VERTEX_POINT ( 'NONE', #379 ) ;
#180 = ORIENTED_EDGE ( 'NONE', *, *, #751, .T. ) ;
#181 = DIRECTION ( 'NONE',  ( 0.0000000000000000000, 0.0000000000000000000, -1.000000000000000000 ) ) ;
#182 = CARTESIAN_POINT ( 'NONE',  ( 9.249999999999998224, -0.5000000000000000000, -3.550000000000000266 ) ) ;
#183 = DIRECTION ( 'NONE',  ( 1.000000000000000000, 0.0000000000000000000, 0.0000000000000000000 ) ) ;
#184 = ORIENTED_EDGE ( 'NONE', *, *, #296, .F. ) ;
#185 = CARTESIAN_POINT ( 'NONE',  ( -7.399999999999997691, -3.700000000000000178, -2.250000000000000444 ) ) ;
#186 = CARTESIAN_POINT ( 'NONE',  ( -5.360000000000000320, -3.700000000000000178, -2.250000000000000444 ) ) ;
#187 = VERTEX_POINT ( 'NONE', #373 ) ;
#188 = AXIS2_PLACEMENT_3D ( 'NONE', #814, #252, #325 ) ;
#189 = EDGE_CURVE ( 'NONE', #647, #773, #809, .T. ) ;
#190 = DIRECTION ( 'NONE',  ( -0.0000000000000000000, 1.000000000000000000, -0.0000000000000000000 ) ) ;
#191 = VECTOR ( 'NONE', #457, 1000.000000000000000 ) ;
#192 = DIRECTION ( 'NONE',  ( -1.000000000000000000, 0.0000000000000000000, -0.0000000000000000000 ) ) ;
#193 = EDGE_CURVE ( 'NONE', #586, #838, #735, .T. ) ;
#194 = LINE ( 'NONE', #412, #461 ) ;
#195 = VERTEX_POINT ( 'NONE', #13 ) ;
#196 = EDGE_CURVE ( 'NONE', #543, #833, #302, .T. ) ;
#197 = LINE ( 'NONE', #269, #30 ) ;
#198 = VECTOR ( 'NONE', #471, 1000.000000000000000 ) ;
#199 = ORIENTED_EDGE ( 'NONE', *, *, #551, .F. ) ;
#200 = LINE ( 'NONE', #276, #58 ) ;
#201 = ORIENTED_EDGE ( 'NONE', *, *, #554, .T. ) ;
#202 = DIRECTION ( 'NONE',  ( -0.0000000000000000000, -1.000000000000000000, -0.0000000000000000000 ) ) ;
#203 = ORIENTED_EDGE ( 'NONE', *, *, #127, .T. ) ;
#204 = DIRECTION ( 'NONE',  ( 1.000000000000000000, 0.0000000000000000000, 0.0000000000000000000 ) ) ;
#205 = ORIENTED_EDGE ( 'NONE', *, *, #214, .F. ) ;
#206 = FACE_OUTER_BOUND ( 'NONE', #147, .T. ) ;
#207 = ORIENTED_EDGE ( 'NONE', *, *, #633, .F. ) ;
#208 = PLANE ( 'NONE',  #609 ) ;
#209 = ADVANCED_FACE ( 'NONE', ( #868 ), #582, .F. ) ;
#210 = VECTOR ( 'NONE', #513, 1000.000000000000000 ) ;
#211 = VECTOR ( 'NONE', #183, 1000.000000000000000 ) ;
#212 = CARTESIAN_POINT ( 'NONE',  ( -7.399999999999997691, 0.0000000000000000000, -2.250000000000000444 ) ) ;
#213 = DIRECTION ( 'NONE',  ( -1.000000000000000000, 0.0000000000000000000, 3.469446951953611033E-15 ) ) ;
#214 = EDGE_CURVE ( 'NONE', #833, #27, #704, .T. ) ;
#215 = CC_DESIGN_APPROVAL ( #558, ( #599 ) ) ;
#216 = APPROVAL_STATUS ( 'not_yet_approved' ) ;
#217 = CC_DESIGN_PERSON_AND_ORGANIZATION_ASSIGNMENT ( #162, #21, ( #20 ) ) ;
#218 = CARTESIAN_POINT ( 'NONE',  ( 4.799999999999998934, 0.0000000000000000000, -2.500000000000000444 ) ) ;
#219 = DIRECTION ( 'NONE',  ( 3.469446951953611033E-15, 0.0000000000000000000, 1.000000000000000000 ) ) ;
#220 = VECTOR ( 'NONE', #74, 1000.000000000000000 ) ;
#221 = DIRECTION ( 'NONE',  ( 1.000000000000000000, 0.0000000000000000000, 0.0000000000000000000 ) ) ;
#222 = VECTOR ( 'NONE', #717, 1000.000000000000000 ) ;
#223 = ORIENTED_EDGE ( 'NONE', *, *, #413, .T. ) ;
#224 = PERSON_AND_ORGANIZATION_ROLE ( 'creator' ) ;
#225 = CARTESIAN_POINT ( 'NONE',  ( -5.360000000000000320, -3.700000000000000178, -2.500000000000000444 ) ) ;
#226 = CARTESIAN_POINT ( 'NONE',  ( -0.2800000000000007483, -3.700000000000000178, -2.500000000000000444 ) ) ;
#227 = EDGE_CURVE ( 'NONE', #914, #543, #200, .T. ) ;
#228 = DIRECTION ( 'NONE',  ( 0.0000000000000000000, 0.0000000000000000000, -1.000000000000000000 ) ) ;
#229 = VERTEX_POINT ( 'NONE', #712 ) ;
#230 = PERSON_AND_ORGANIZATION ( #319, #702 ) ;
#231 = DIRECTION ( 'NONE',  ( -1.000000000000000000, -0.0000000000000000000, -0.0000000000000000000 ) ) ;
#232 = ORIENTED_EDGE ( 'NONE', *, *, #455, .T. ) ;
#233 = PERSON_AND_ORGANIZATION ( #319, #702 ) ;
#234 = ADVANCED_FACE ( 'NONE', ( #492 ), #511, .F. ) ;
#235 = CARTESIAN_POINT ( 'NONE',  ( 9.249999999999998224, -0.5000000000000000000, -3.550000000000000266 ) ) ;
#236 = ORIENTED_EDGE ( 'NONE', *, *, #935, .F. ) ;
#237 = CALENDAR_DATE ( 2020, 20, 11 ) ;
#238 = ORIENTED_EDGE ( 'NONE', *, *, #227, .F. ) ;
#239 = EDGE_CURVE ( 'NONE', #28, #491, #497, .T. ) ;
#240 = PLANE ( 'NONE',  #313 ) ;
#241 = CARTESIAN_POINT ( 'NONE',  ( 0.0000000000000000000, -3.700000000000000178, 0.0000000000000000000 ) ) ;
#242 = VECTOR ( 'NONE', #616, 1000.000000000000000 ) ;
#243 = VERTEX_POINT ( 'NONE', #780 ) ;
#244 = VECTOR ( 'NONE', #202, 1000.000000000000000 ) ;
#245 = ADVANCED_FACE ( 'NONE', ( #784 ), #708, .F. ) ;
#246 = ORIENTED_EDGE ( 'NONE', *, *, #662, .F. ) ;
#247 = LINE ( 'NONE', #40, #481 ) ;
#248 = DIRECTION ( 'NONE',  ( 0.0000000000000000000, -1.000000000000000000, 0.0000000000000000000 ) ) ;
#249 = CARTESIAN_POINT ( 'NONE',  ( 0.2200000000000023048, -3.700000000000000178, -2.250000000000000444 ) ) ;
#250 = EDGE_LOOP ( 'NONE', ( #89, #129, #743, #184 ) ) ;
#251 = ORIENTED_EDGE ( 'NONE', *, *, #584, .F. ) ;
#252 = DIRECTION ( 'NONE',  ( -0.0000000000000000000, 0.0000000000000000000, 1.000000000000000000 ) ) ;
#253 = DIRECTION ( 'NONE',  ( 3.469446951953611033E-15, -0.0000000000000000000, 1.000000000000000000 ) ) ;
#254 = PLANE ( 'NONE',  #745 ) ;
#255 = VERTEX_POINT ( 'NONE', #280 ) ;
#256 = DIRECTION ( 'NONE',  ( -1.000000000000000000, 0.0000000000000000000, -0.0000000000000000000 ) ) ;
#257 = DIRECTION ( 'NONE',  ( 1.000000000000000000, 0.0000000000000000000, 0.0000000000000000000 ) ) ;
#258 = ORIENTED_EDGE ( 'NONE', *, *, #652, .F. ) ;
#259 = VECTOR ( 'NONE', #427, 1000.000000000000000 ) ;
#260 = EDGE_CURVE ( 'NONE', #28, #586, #348, .T. ) ;
#261 = LINE ( 'NONE', #44, #49 ) ;
#262 = EDGE_CURVE ( 'NONE', #487, #318, #653, .T. ) ;
#263 = FACE_OUTER_BOUND ( 'NONE', #810, .T. ) ;
#264 = ADVANCED_FACE ( 'NONE', ( #135 ), #440, .F. ) ;
#265 = VECTOR ( 'NONE', #587, 1000.000000000000000 ) ;
#266 = DIRECTION ( 'NONE',  ( -1.000000000000000000, 0.0000000000000000000, 0.0000000000000000000 ) ) ;
#267 = ORIENTED_EDGE ( 'NONE', *, *, #836, .F. ) ;
#268 = AXIS2_PLACEMENT_3D ( 'NONE', #235, #811, #874 ) ;
#269 = CARTESIAN_POINT ( 'NONE',  ( -5.360000000000000320, 0.0000000000000000000, -2.250000000000000444 ) ) ;
#270 = CLOSED_SHELL ( 'NONE', ( #678, #245, #904, #292, #234, #51, #59, #801, #125, #133, #911, #264, #562, #622, #931, #68, #17, #117, #826, #368, #700, #865, #209, #45, #813, #148, #465, #316, #515, #367 ) ) ;
#271 = ORIENTED_EDGE ( 'NONE', *, *, #260, .T. ) ;
#272 = DIRECTION ( 'NONE',  ( -1.000000000000000000, 0.0000000000000000000, 4.886545002751569919E-16 ) ) ;
#273 = ORIENTED_EDGE ( 'NONE', *, *, #455, .F. ) ;
#274 = DIRECTION ( 'NONE',  ( -1.000000000000000000, -0.0000000000000000000, -0.0000000000000000000 ) ) ;
#275 = ORIENTED_EDGE ( 'NONE', *, *, #262, .T. ) ;
#276 = CARTESIAN_POINT ( 'NONE',  ( -0.2800000000000007483, 0.0000000000000000000, -2.500000000000000444 ) ) ;
#277 = PLANE ( 'NONE',  #721 ) ;
#278 = LINE ( 'NONE', #822, #383 ) ;
#279 = ORIENTED_EDGE ( 'NONE', *, *, #281, .T. ) ;
#280 = CARTESIAN_POINT ( 'NONE',  ( -0.2800000000000007483, -3.700000000000000178, -2.500000000000000444 ) ) ;
#281 = EDGE_CURVE ( 'NONE', #527, #788, #648, .T. ) ;
#282 = PLANE ( 'NONE',  #556 ) ;
#283 = EDGE_CURVE ( 'NONE', #195, #165, #56, .T. ) ;
#284 = DIRECTION ( 'NONE',  ( 1.000000000000000000, 0.0000000000000000000, -0.0000000000000000000 ) ) ;
#285 = AXIS2_PLACEMENT_3D ( 'NONE', #552, #41, #256 ) ;
#286 = CC_DESIGN_PERSON_AND_ORGANIZATION_ASSIGNMENT ( #381, #224, ( #599 ) ) ;
#287 = DATE_TIME_ROLE ( 'classification_date' ) ;
#288 = VECTOR ( 'NONE', #546, 1000.000000000000000 ) ;
#289 = LINE ( 'NONE', #218, #265 ) ;
#290 = CARTESIAN_POINT ( 'NONE',  ( 9.249999999999998224, -0.5000000000000000000, 3.549999999999999378 ) ) ;
#291 = CARTESIAN_POINT ( 'NONE',  ( -4.859999999999997655, 0.0000000000000000000, -2.500000000000000444 ) ) ;
#292 = ADVANCED_FACE ( 'NONE', ( #856 ), #208, .F. ) ;
#293 = ORIENTED_EDGE ( 'NONE', *, *, #935, .T. ) ;
#294 = PRODUCT_DEFINITION_FORMATION_WITH_SPECIFIED_SOURCE ( 'ANY', '', #20, .NOT_KNOWN. ) ;
#295 = DATE_AND_TIME ( #237, #96 ) ;
#296 = EDGE_CURVE ( 'NONE', #690, #924, #852, .T. ) ;
#297 = FACE_OUTER_BOUND ( 'NONE', #501, .T. ) ;
#298 = DIRECTION ( 'NONE',  ( -0.0000000000000000000, 1.000000000000000000, -0.0000000000000000000 ) ) ;
#299 = FACE_OUTER_BOUND ( 'NONE', #555, .T. ) ;
#300 = ORIENTED_EDGE ( 'NONE', *, *, #29, .F. ) ;
#301 = PERSON_AND_ORGANIZATION_ROLE ( 'creator' ) ;
#302 = LINE ( 'NONE', #523, #512 ) ;
#303 = LINE ( 'NONE', #100, #414 ) ;
#304 = ORIENTED_EDGE ( 'NONE', *, *, #719, .F. ) ;
#305 = DATE_AND_TIME ( #12, #171 ) ;
#306 = CARTESIAN_POINT ( 'NONE',  ( -0.2800000000000007483, -3.700000000000000178, -2.250000000000000444 ) ) ;
#307 = VERTEX_POINT ( 'NONE', #929 ) ;
#308 = PRODUCT_DEFINITION_SHAPE ( 'NONE', 'NONE',  #599 ) ;
#309 = APPROVAL_DATE_TIME ( #159, #767 ) ;
#310 = DIRECTION ( 'NONE',  ( -0.0000000000000000000, 1.000000000000000000, -0.0000000000000000000 ) ) ;
#311 = EDGE_CURVE ( 'NONE', #307, #23, #789, .T. ) ;
#312 = ORIENTED_EDGE ( 'NONE', *, *, #883, .F. ) ;
#313 = AXIS2_PLACEMENT_3D ( 'NONE', #606, #830, #109 ) ;
#314 = VECTOR ( 'NONE', #669, 1000.000000000000000 ) ;
#315 = UNCERTAINTY_MEASURE_WITH_UNIT (LENGTH_MEASURE( 1.000000000000000082E-05 ), #460, 'distance_accuracy_value', 'NONE');
#316 = ADVANCED_FACE ( 'NONE', ( #861 ), #434, .F. ) ;
#317 = EDGE_LOOP ( 'NONE', ( #783, #304, #851, #903 ) ) ;
#318 = VERTEX_POINT ( 'NONE', #75 ) ;
#319 = PERSON ( 'UNSPECIFIED', 'UNSPECIFIED', 'UNSPECIFIED', ('UNSPECIFIED'), ('UNSPECIFIED'), ('UNSPECIFIED') ) ;
#320 = CARTESIAN_POINT ( 'NONE',  ( 0.0000000000000000000, -3.700000000000000178, 0.0000000000000000000 ) ) ;
#321 = FACE_OUTER_BOUND ( 'NONE', #174, .T. ) ;
#322 = ORIENTED_EDGE ( 'NONE', *, *, #382, .F. ) ;
#323 = DIRECTION ( 'NONE',  ( 0.0000000000000000000, 0.0000000000000000000, -1.000000000000000000 ) ) ;
#324 = ORIENTED_EDGE ( 'NONE', *, *, #239, .F. ) ;
#325 = DIRECTION ( 'NONE',  ( 1.000000000000000000, 0.0000000000000000000, 0.0000000000000000000 ) ) ;
#326 = LINE ( 'NONE', #590, #937 ) ;
#327 = EDGE_CURVE ( 'NONE', #77, #773, #365, .T. ) ;
#328 = DIRECTION ( 'NONE',  ( 0.0000000000000000000, 0.0000000000000000000, -1.000000000000000000 ) ) ;
#329 = ORIENTED_EDGE ( 'NONE', *, *, #584, .T. ) ;
#330 = DIRECTION ( 'NONE',  ( 0.0000000000000000000, -1.000000000000000000, 0.0000000000000000000 ) ) ;
#331 = LINE ( 'NONE', #839, #340 ) ;
#332 = DIRECTION ( 'NONE',  ( -1.000000000000000000, -0.0000000000000000000, -0.0000000000000000000 ) ) ;
#333 = ORIENTED_EDGE ( 'NONE', *, *, #335, .F. ) ;
#334 = ORIENTED_EDGE ( 'NONE', *, *, #769, .F. ) ;
#335 = EDGE_CURVE ( 'NONE', #635, #812, #875, .T. ) ;
#336 = DIRECTION ( 'NONE',  ( -1.000000000000000000, 0.0000000000000000000, 3.469446951953611033E-15 ) ) ;
#337 = VECTOR ( 'NONE', #442, 1000.000000000000000 ) ;
#338 = FACE_OUTER_BOUND ( 'NONE', #733, .T. ) ;
#339 = VERTEX_POINT ( 'NONE', #82 ) ;
#340 = VECTOR ( 'NONE', #835, 1000.000000000000000 ) ;
#341 = CARTESIAN_POINT ( 'NONE',  ( 4.799999999999998934, -3.700000000000000178, -2.500000000000000444 ) ) ;
#342 = ORIENTED_EDGE ( 'NONE', *, *, #158, .T. ) ;
#343 = CARTESIAN_POINT ( 'NONE',  ( -5.360000000000000320, -3.700000000000000178, -2.500000000000000444 ) ) ;
#344 = VECTOR ( 'NONE', #900, 1000.000000000000000 ) ;
#345 = PLANE ( 'NONE',  #3 ) ;
#346 = ORIENTED_EDGE ( 'NONE', *, *, #500, .F. ) ;
#347 = VECTOR ( 'NONE', #310, 1000.000000000000000 ) ;
#348 = LINE ( 'NONE', #420, #872 ) ;
#349 = PLANE ( 'NONE',  #920 ) ;
#350 = DIRECTION ( 'NONE',  ( -1.000000000000000000, -0.0000000000000000000, -0.0000000000000000000 ) ) ;
#351 = EDGE_LOOP ( 'NONE', ( #223, #134, #293, #480 ) ) ;
#352 = DIRECTION ( 'NONE',  ( -0.0000000000000000000, -1.000000000000000000, -0.0000000000000000000 ) ) ;
#353 = ORIENTED_EDGE ( 'NONE', *, *, #485, .F. ) ;
#354 = APPLICATION_CONTEXT ( 'configuration controlled 3d designs of mechanical parts and assemblies' ) ;
#355 = LINE ( 'NONE', #128, #790 ) ;
#356 = ORIENTED_EDGE ( 'NONE', *, *, #296, .T. ) ;
#357 = DIRECTION ( 'NONE',  ( 1.000000000000000000, 0.0000000000000000000, -2.443272501375784959E-16 ) ) ;
#358 = PLANE ( 'NONE',  #152 ) ;
#359 = DIRECTION ( 'NONE',  ( 0.0000000000000000000, 0.0000000000000000000, -1.000000000000000000 ) ) ;
#360 = ORIENTED_EDGE ( 'NONE', *, *, #193, .F. ) ;
#361 = CARTESIAN_POINT ( 'NONE',  ( 0.2200000000000023048, -3.700000000000000178, -2.250000000000000444 ) ) ;
#362 = PRODUCT_RELATED_PRODUCT_CATEGORY ( 'detail', '', ( #20 ) ) ;
#363 = EDGE_CURVE ( 'NONE', #844, #812, #10, .T. ) ;
#364 = CARTESIAN_POINT ( 'NONE',  ( -4.859999999999997655, 0.0000000000000000000, -2.250000000000000444 ) ) ;
#365 = LINE ( 'NONE', #736, #48 ) ;
#366 = CARTESIAN_POINT ( 'NONE',  ( 9.249999999999998224, -0.5000000000000000000, -3.550000000000000266 ) ) ;
#367 = ADVANCED_FACE ( 'NONE', ( #299 ), #32, .T. ) ;
#368 = ADVANCED_FACE ( 'NONE', ( #153 ), #14, .T. ) ;
#369 = VECTOR ( 'NONE', #901, 1000.000000000000000 ) ;
#370 = ORIENTED_EDGE ( 'NONE', *, *, #196, .T. ) ;
#371 = DATE_AND_TIME ( #6, #8 ) ;
#372 = DIRECTION ( 'NONE',  ( 1.000000000000000000, 0.0000000000000000000, 0.0000000000000000000 ) ) ;
#373 = CARTESIAN_POINT ( 'NONE',  ( 5.300000000000000711, 0.0000000000000000000, -2.500000000000000444 ) ) ;
#374 = LINE ( 'NONE', #378, #488 ) ;
#375 = EDGE_LOOP ( 'NONE', ( #428, #93, #97, #899 ) ) ;
#376 = CARTESIAN_POINT ( 'NONE',  ( -9.250000000000001776, 0.0000000000000000000, 3.549999999999999378 ) ) ;
#377 = FACE_OUTER_BOUND ( 'NONE', #853, .T. ) ;
#378 = CARTESIAN_POINT ( 'NONE',  ( -7.900000000000000355, 0.0000000000000000000, -2.250000000000000444 ) ) ;
#379 = CARTESIAN_POINT ( 'NONE',  ( 9.750000000000001776, -0.5000000000000000000, 3.549999999999999378 ) ) ;
#380 = EDGE_LOOP ( 'NONE', ( #537, #360, #126, #685 ) ) ;
#381 = PERSON_AND_ORGANIZATION ( #319, #702 ) ;
#382 = EDGE_CURVE ( 'NONE', #398, #647, #820, .T. ) ;
#383 = VECTOR ( 'NONE', #467, 1000.000000000000000 ) ;
#384 = CARTESIAN_POINT ( 'NONE',  ( 5.300000000000001599, 0.0000000000000000000, -2.250000000000000444 ) ) ;
#385 = ORIENTED_EDGE ( 'NONE', *, *, #405, .T. ) ;
#386 = LINE ( 'NONE', #470, #870 ) ;
#387 = EDGE_CURVE ( 'NONE', #563, #543, #87, .T. ) ;
#388 = EDGE_LOOP ( 'NONE', ( #275, #607, #207, #888 ) ) ;
#389 = VECTOR ( 'NONE', #544, 1000.000000000000000 ) ;
#390 = CC_DESIGN_PERSON_AND_ORGANIZATION_ASSIGNMENT ( #881, #301, ( #294 ) ) ;
#391 = ORIENTED_EDGE ( 'NONE', *, *, #887, .T. ) ;
#392 = AXIS2_PLACEMENT_3D ( 'NONE', #588, #742, #450 ) ;
#393 = DIRECTION ( 'NONE',  ( -1.000000000000000000, 0.0000000000000000000, -0.0000000000000000000 ) ) ;
#394 = CARTESIAN_POINT ( 'NONE',  ( -5.360000000000000320, 0.0000000000000000000, -2.250000000000000444 ) ) ;
#395 = DESIGN_CONTEXT ( 'detailed design', #930, 'design' ) ;
#396 = ORIENTED_EDGE ( 'NONE', *, *, #95, .F. ) ;
#397 = LINE ( 'NONE', #111, #818 ) ;
#398 = VERTEX_POINT ( 'NONE', #106 ) ;
#399 = EDGE_CURVE ( 'NONE', #773, #165, #451, .T. ) ;
#400 = CARTESIAN_POINT ( 'NONE',  ( -9.750000000000000000, 0.0000000000000000000, 3.549999999999999378 ) ) ;
#401 = LINE ( 'NONE', #60, #536 ) ;
#402 = VERTEX_POINT ( 'NONE', #752 ) ;
#403 = CARTESIAN_POINT ( 'NONE',  ( -0.2800000000000007483, 0.0000000000000000000, -2.500000000000000444 ) ) ;
#404 = LINE ( 'NONE', #545, #579 ) ;
#405 = EDGE_CURVE ( 'NONE', #595, #491, #869, .T. ) ;
#406 = CARTESIAN_POINT ( 'NONE',  ( 4.799999999999998934, -3.700000000000000178, -2.250000000000000444 ) ) ;
#407 = ORIENTED_EDGE ( 'NONE', *, *, #283, .T. ) ;
#408 = ORIENTED_EDGE ( 'NONE', *, *, #662, .T. ) ;
#409 = DIRECTION ( 'NONE',  ( -0.0000000000000000000, 1.000000000000000000, -0.0000000000000000000 ) ) ;
#410 = FACE_OUTER_BOUND ( 'NONE', #39, .T. ) ;
#411 = ORIENTED_EDGE ( 'NONE', *, *, #439, .F. ) ;
#412 = CARTESIAN_POINT ( 'NONE',  ( -0.2800000000000007483, -3.700000000000000178, -2.250000000000000444 ) ) ;
#413 = EDGE_CURVE ( 'NONE', #635, #496, #326, .T. ) ;
#414 = VECTOR ( 'NONE', #730, 1000.000000000000000 ) ;
#415 = CARTESIAN_POINT ( 'NONE',  ( -4.859999999999997655, -3.700000000000000178, -2.500000000000000444 ) ) ;
#416 = VECTOR ( 'NONE', #923, 1000.000000000000000 ) ;
#417 = CARTESIAN_POINT ( 'NONE',  ( -9.750000000000000000, -0.5000000000000000000, 3.549999999999999378 ) ) ;
#418 = EDGE_CURVE ( 'NONE', #788, #871, #374, .T. ) ;
#419 = ORIENTED_EDGE ( 'NONE', *, *, #535, .T. ) ;
#420 = CARTESIAN_POINT ( 'NONE',  ( -4.859999999999997655, -3.700000000000000178, -2.250000000000000444 ) ) ;
#421 = LOCAL_TIME ( 8, 55, 11.00000000000000000, #805 ) ;
#422 = ORIENTED_EDGE ( 'NONE', *, *, #578, .F. ) ;
#423 = LINE ( 'NONE', #173, #288 ) ;
#424 = ORIENTED_EDGE ( 'NONE', *, *, #694, .T. ) ;
#425 = DIRECTION ( 'NONE',  ( 1.000000000000000000, 0.0000000000000000000, 0.0000000000000000000 ) ) ;
#426 = PLANE ( 'NONE',  #803 ) ;
#427 = DIRECTION ( 'NONE',  ( -1.000000000000000000, -0.0000000000000000000, -0.0000000000000000000 ) ) ;
#428 = ORIENTED_EDGE ( 'NONE', *, *, #836, .T. ) ;
#429 = CARTESIAN_POINT ( 'NONE',  ( 5.300000000000001599, -3.700000000000000178, -2.250000000000000444 ) ) ;
#430 = ORIENTED_EDGE ( 'NONE', *, *, #817, .T. ) ;
#431 = CC_DESIGN_DATE_AND_TIME_ASSIGNMENT ( #305, #456, ( #599 ) ) ;
#432 = CARTESIAN_POINT ( 'NONE',  ( 0.2200000000000023048, 0.0000000000000000000, -2.250000000000000444 ) ) ;
#433 = EDGE_LOOP ( 'NONE', ( #725, #353, #35, #919, #713, #411, #15, #823 ) ) ;
#434 = PLANE ( 'NONE',  #695 ) ;
#435 = EDGE_CURVE ( 'NONE', #496, #229, #802, .T. ) ;
#436 = COORDINATED_UNIVERSAL_TIME_OFFSET ( 8, 0, .AHEAD. ) ;
#437 = AXIS2_PLACEMENT_3D ( 'NONE', #320, #330, #750 ) ;
#438 = LINE ( 'NONE', #806, #144 ) ;
#439 = EDGE_CURVE ( 'NONE', #318, #398, #303, .T. ) ;
#440 = PLANE ( 'NONE',  #177 ) ;
#441 = VECTOR ( 'NONE', #298, 1000.000000000000000 ) ;
#442 = DIRECTION ( 'NONE',  ( 1.000000000000000000, 0.0000000000000000000, 0.0000000000000000000 ) ) ;
#443 = VERTEX_POINT ( 'NONE', #170 ) ;
#444 = APPROVAL_DATE_TIME ( #797, #857 ) ;
#445 = CARTESIAN_POINT ( 'NONE',  ( 0.2200000000000023048, -3.700000000000000178, -2.250000000000000444 ) ) ;
#446 = PLANE ( 'NONE',  #918 ) ;
#447 = CARTESIAN_POINT ( 'NONE',  ( -5.360000000000000320, 0.0000000000000000000, -2.500000000000000444 ) ) ;
#448 = ORIENTED_EDGE ( 'NONE', *, *, #80, .T. ) ;
#449 = CARTESIAN_POINT ( 'NONE',  ( 9.750000000000001776, 9.700000000000001066, 3.549999999999999378 ) ) ;
#450 = DIRECTION ( 'NONE',  ( 0.0000000000000000000, -0.0000000000000000000, -1.000000000000000000 ) ) ;
#451 = LINE ( 'NONE', #400, #242 ) ;
#452 = SECURITY_CLASSIFICATION_LEVEL ( 'unclassified' ) ;
#453 = DIRECTION ( 'NONE',  ( -0.0000000000000000000, 1.000000000000000000, -0.0000000000000000000 ) ) ;
#454 = ORIENTED_EDGE ( 'NONE', *, *, #193, .T. ) ;
#455 = EDGE_CURVE ( 'NONE', #896, #595, #683, .T. ) ;
#456 = DATE_TIME_ROLE ( 'creation_date' ) ;
#457 = DIRECTION ( 'NONE',  ( 0.0000000000000000000, 0.0000000000000000000, -1.000000000000000000 ) ) ;
#458 = ORIENTED_EDGE ( 'NONE', *, *, #649, .T. ) ;
#459 = AXIS2_PLACEMENT_3D ( 'NONE', #724, #879, #660 ) ;
#460 =( LENGTH_UNIT ( ) NAMED_UNIT ( * ) SI_UNIT ( .MILLI., .METRE. ) );
#461 = VECTOR ( 'NONE', #190, 1000.000000000000000 ) ;
#462 = VERTEX_POINT ( 'NONE', #394 ) ;
#463 = FACE_OUTER_BOUND ( 'NONE', #748, .T. ) ;
#464 = DIRECTION ( 'NONE',  ( -0.0000000000000000000, 1.000000000000000000, -0.0000000000000000000 ) ) ;
#465 = ADVANCED_FACE ( 'NONE', ( #321 ), #611, .F. ) ;
#466 = EDGE_LOOP ( 'NONE', ( #716, #561, #618, #180 ) ) ;
#467 = DIRECTION ( 'NONE',  ( 4.886545002751569919E-16, 0.0000000000000000000, 1.000000000000000000 ) ) ;
#468 = ORIENTED_EDGE ( 'NONE', *, *, #564, .F. ) ;
#469 = AXIS2_PLACEMENT_3D ( 'NONE', #505, #800, #284 ) ;
#470 = CARTESIAN_POINT ( 'NONE',  ( 5.300000000000001599, -3.700000000000000178, -2.250000000000000444 ) ) ;
#471 = DIRECTION ( 'NONE',  ( 1.000000000000000000, 0.0000000000000000000, 0.0000000000000000000 ) ) ;
#472 = CARTESIAN_POINT ( 'NONE',  ( 4.799999999999998934, -3.700000000000000178, -2.250000000000000444 ) ) ;
#473 = ORIENTED_EDGE ( 'NONE', *, *, #327, .F. ) ;
#474 = VERTEX_POINT ( 'NONE', #366 ) ;
#475 = PLANE ( 'NONE',  #188 ) ;
#476 = CARTESIAN_POINT ( 'NONE',  ( -4.859999999999997655, -3.700000000000000178, -2.250000000000000444 ) ) ;
#477 = DIRECTION ( 'NONE',  ( -0.0000000000000000000, 1.000000000000000000, -0.0000000000000000000 ) ) ;
#478 = ORIENTED_EDGE ( 'NONE', *, *, #29, .T. ) ;
#479 = CARTESIAN_POINT ( 'NONE',  ( -5.360000000000000320, -3.700000000000000178, -2.250000000000000444 ) ) ;
#480 = ORIENTED_EDGE ( 'NONE', *, *, #732, .T. ) ;
#481 = VECTOR ( 'NONE', #36, 1000.000000000000000 ) ;
#482 = EDGE_CURVE ( 'NONE', #243, #788, #825, .T. ) ;
#483 = CARTESIAN_POINT ( 'NONE',  ( 4.799999999999998934, -3.700000000000000178, -2.500000000000000444 ) ) ;
#484 = EDGE_LOOP ( 'NONE', ( #167, #661, #322, #777 ) ) ;
#485 = EDGE_CURVE ( 'NONE', #474, #11, #794, .T. ) ;
#486 = LINE ( 'NONE', #909, #503 ) ;
#487 = VERTEX_POINT ( 'NONE', #4 ) ;
#488 = VECTOR ( 'NONE', #664, 1000.000000000000000 ) ;
#489 = DIRECTION ( 'NONE',  ( -1.000000000000000000, 0.0000000000000000000, -2.443272501375785452E-16 ) ) ;
#490 = LINE ( 'NONE', #38, #656 ) ;
#491 = VERTEX_POINT ( 'NONE', #291 ) ;
#492 = FACE_OUTER_BOUND ( 'NONE', #433, .T. ) ;
#493 = ORIENTED_EDGE ( 'NONE', *, *, #158, .F. ) ;
#494 = EDGE_CURVE ( 'NONE', #474, #443, #628, .T. ) ;
#495 = LINE ( 'NONE', #688, #908 ) ;
#496 = VERTEX_POINT ( 'NONE', #483 ) ;
#497 = LINE ( 'NONE', #793, #222 ) ;
#498 = DIRECTION ( 'NONE',  ( 1.000000000000000000, 0.0000000000000000000, 0.0000000000000000000 ) ) ;
#499 = PLANE ( 'NONE',  #24 ) ;
#500 = EDGE_CURVE ( 'NONE', #598, #871, #691, .T. ) ;
#501 = EDGE_LOOP ( 'NONE', ( #907, #19, #898, #33 ) ) ;
#502 = DIRECTION ( 'NONE',  ( 4.886545002751569919E-16, 0.0000000000000000000, 1.000000000000000000 ) ) ;
#503 = VECTOR ( 'NONE', #701, 1000.000000000000000 ) ;
#504 = CARTESIAN_POINT ( 'NONE',  ( 4.799999999999998934, 0.0000000000000000000, -2.500000000000000444 ) ) ;
#505 = CARTESIAN_POINT ( 'NONE',  ( -9.750000000000001776, 9.700000000000001066, -3.550000000000000266 ) ) ;
#506 = APPROVAL_PERSON_ORGANIZATION ( #508, #857, #592 ) ;
#507 = ORIENTED_EDGE ( 'NONE', *, *, #141, .F. ) ;
#508 = PERSON_AND_ORGANIZATION ( #319, #702 ) ;
#509 = VECTOR ( 'NONE', #181, 1000.000000000000000 ) ;
#510 = LINE ( 'NONE', #150, #915 ) ;
#511 = PLANE ( 'NONE',  #469 ) ;
#512 = VECTOR ( 'NONE', #925, 1000.000000000000000 ) ;
#513 = DIRECTION ( 'NONE',  ( -0.0000000000000000000, 1.000000000000000000, -0.0000000000000000000 ) ) ;
#514 = ORIENTED_EDGE ( 'NONE', *, *, #500, .T. ) ;
#515 = ADVANCED_FACE ( 'NONE', ( #772 ), #123, .F. ) ;
#516 = DIRECTION ( 'NONE',  ( 1.000000000000000000, 0.0000000000000000000, 0.0000000000000000000 ) ) ;
#517 = AXIS2_PLACEMENT_3D ( 'NONE', #53, #489, #926 ) ;
#518 = CARTESIAN_POINT ( 'NONE',  ( -5.360000000000000320, -3.700000000000000178, -2.250000000000000444 ) ) ;
#519 = DIRECTION ( 'NONE',  ( 0.0000000000000000000, 0.0000000000000000000, -1.000000000000000000 ) ) ;
#520 = CARTESIAN_POINT ( 'NONE',  ( 4.799999999999998934, -3.700000000000000178, -2.500000000000000444 ) ) ;
#521 = ORIENTED_EDGE ( 'NONE', *, *, #694, .F. ) ;
#522 = PERSON_AND_ORGANIZATION ( #319, #702 ) ;
#523 = CARTESIAN_POINT ( 'NONE',  ( 0.2200000000000023048, 0.0000000000000000000, -2.250000000000000444 ) ) ;
#524 = ORIENTED_EDGE ( 'NONE', *, *, #786, .T. ) ;
#525 = COORDINATED_UNIVERSAL_TIME_OFFSET ( 8, 0, .AHEAD. ) ;
#526 = LINE ( 'NONE', #597, #191 ) ;
#527 = VERTEX_POINT ( 'NONE', #185 ) ;
#528 = CC_DESIGN_PERSON_AND_ORGANIZATION_ASSIGNMENT ( #233, #885, ( #294 ) ) ;
#529 = COORDINATED_UNIVERSAL_TIME_OFFSET ( 8, 0, .AHEAD. ) ;
#530 = EDGE_CURVE ( 'NONE', #550, #318, #331, .T. ) ;
#531 = ORIENTED_EDGE ( 'NONE', *, *, #387, .T. ) ;
#532 = VECTOR ( 'NONE', #594, 1000.000000000000000 ) ;
#533 = FACE_OUTER_BOUND ( 'NONE', #679, .T. ) ;
#534 = CARTESIAN_POINT ( 'NONE',  ( 4.799999999999998934, 0.0000000000000000000, -2.250000000000000444 ) ) ;
#535 = EDGE_CURVE ( 'NONE', #47, #27, #194, .T. ) ;
#536 = VECTOR ( 'NONE', #350, 1000.000000000000000 ) ;
#537 = ORIENTED_EDGE ( 'NONE', *, *, #601, .T. ) ;
#538 = ORIENTED_EDGE ( 'NONE', *, *, #771, .T. ) ;
#539 = DIRECTION ( 'NONE',  ( 3.469446951953611033E-15, -0.0000000000000000000, 1.000000000000000000 ) ) ;
#540 = DIRECTION ( 'NONE',  ( 1.000000000000000000, 0.0000000000000000000, 0.0000000000000000000 ) ) ;
#541 = DIRECTION ( 'NONE',  ( -1.000000000000000000, 0.0000000000000000000, -0.0000000000000000000 ) ) ;
#542 = EDGE_LOOP ( 'NONE', ( #70, #657, #199, #407 ) ) ;
#543 = VERTEX_POINT ( 'NONE', #621 ) ;
#544 = DIRECTION ( 'NONE',  ( -1.000000000000000000, -0.0000000000000000000, -0.0000000000000000000 ) ) ;
#545 = CARTESIAN_POINT ( 'NONE',  ( -5.360000000000000320, -3.700000000000000178, -2.250000000000000444 ) ) ;
#546 = DIRECTION ( 'NONE',  ( 3.469446951953611033E-15, -0.0000000000000000000, 1.000000000000000000 ) ) ;
#547 = ORIENTED_EDGE ( 'NONE', *, *, #564, .T. ) ;
#548 = DIRECTION ( 'NONE',  ( 0.0000000000000000000, 0.0000000000000000000, -1.000000000000000000 ) ) ;
#549 = FACE_BOUND ( 'NONE', #55, .T. ) ;
#550 = VERTEX_POINT ( 'NONE', #417 ) ;
#551 = EDGE_CURVE ( 'NONE', #195, #474, #696, .T. ) ;
#552 = CARTESIAN_POINT ( 'NONE',  ( -0.2800000000000007483, -3.700000000000000178, -2.250000000000000444 ) ) ;
#553 =( GEOMETRIC_REPRESENTATION_CONTEXT ( 3 ) GLOBAL_UNCERTAINTY_ASSIGNED_CONTEXT ( ( #315 ) ) GLOBAL_UNIT_ASSIGNED_CONTEXT ( ( #460, #758, #84 ) ) REPRESENTATION_CONTEXT ( 'NONE', 'WORKASPACE' ) );
#554 = EDGE_CURVE ( 'NONE', #179, #195, #261, .T. ) ;
#555 = EDGE_LOOP ( 'NONE', ( #408, #116, #430, #391 ) ) ;
#556 = AXIS2_PLACEMENT_3D ( 'NONE', #791, #646, #799 ) ;
#557 = VECTOR ( 'NONE', #453, 1000.000000000000000 ) ;
#558 = APPROVAL ( #140, 'UNSPECIFIED' ) ;
#559 = CARTESIAN_POINT ( 'NONE',  ( 0.2200000000000014444, -3.700000000000000178, -2.500000000000000444 ) ) ;
#560 = ORIENTED_EDGE ( 'NONE', *, *, #363, .T. ) ;
#561 = ORIENTED_EDGE ( 'NONE', *, *, #535, .F. ) ;
#562 = ADVANCED_FACE ( 'NONE', ( #843 ), #345, .F. ) ;
#563 = VERTEX_POINT ( 'NONE', #559 ) ;
#564 = EDGE_CURVE ( 'NONE', #640, #896, #625, .T. ) ;
#565 = CARTESIAN_POINT ( 'NONE',  ( 9.749999999999998224, 9.700000000000001066, -3.550000000000000266 ) ) ;
#566 = CARTESIAN_POINT ( 'NONE',  ( -0.2800000000000007483, 0.0000000000000000000, -2.250000000000000444 ) ) ;
#567 = LINE ( 'NONE', #832, #211 ) ;
#568 = ORIENTED_EDGE ( 'NONE', *, *, #895, .T. ) ;
#569 = CARTESIAN_POINT ( 'NONE',  ( -7.399999999999997691, -3.700000000000000178, -2.250000000000000444 ) ) ;
#570 = CARTESIAN_POINT ( 'NONE',  ( -5.360000000000000320, -3.700000000000000178, -2.250000000000000444 ) ) ;
#571 = EDGE_CURVE ( 'NONE', #496, #855, #115, .T. ) ;
#572 = PLANE ( 'NONE',  #840 ) ;
#573 = ORIENTED_EDGE ( 'NONE', *, *, #482, .T. ) ;
#574 = DIRECTION ( 'NONE',  ( -0.0000000000000000000, 0.0000000000000000000, 1.000000000000000000 ) ) ;
#575 = DIRECTION ( 'NONE',  ( 3.469446951953611033E-15, -0.0000000000000000000, 1.000000000000000000 ) ) ;
#576 = DIRECTION ( 'NONE',  ( -0.0000000000000000000, 1.000000000000000000, -0.0000000000000000000 ) ) ;
#577 = VECTOR ( 'NONE', #54, 1000.000000000000000 ) ;
#578 = EDGE_CURVE ( 'NONE', #608, #844, #486, .T. ) ;
#579 = VECTOR ( 'NONE', #831, 1000.000000000000000 ) ;
#580 = APPROVAL_DATE_TIME ( #371, #558 ) ;
#581 = LINE ( 'NONE', #449, #220 ) ;
#582 = PLANE ( 'NONE',  #101 ) ;
#583 = DIRECTION ( 'NONE',  ( -2.443272501375784959E-16, -0.0000000000000000000, 1.000000000000000000 ) ) ;
#584 = EDGE_CURVE ( 'NONE', #640, #462, #404, .T. ) ;
#585 = AXIS2_PLACEMENT_3D ( 'NONE', #149, #720, #516 ) ;
#586 = VERTEX_POINT ( 'NONE', #476 ) ;
#587 = DIRECTION ( 'NONE',  ( 1.000000000000000000, 0.0000000000000000000, 0.0000000000000000000 ) ) ;
#588 = CARTESIAN_POINT ( 'NONE',  ( 0.0000000000000000000, -0.5000000000000000000, 0.0000000000000000000 ) ) ;
#589 = VECTOR ( 'NONE', #352, 1000.000000000000000 ) ;
#590 = CARTESIAN_POINT ( 'NONE',  ( 4.799999999999998934, -3.700000000000000178, -2.250000000000000444 ) ) ;
#591 = ORIENTED_EDGE ( 'NONE', *, *, #387, .F. ) ;
#592 = APPROVAL_ROLE ( '' ) ;
#593 = PLANE ( 'NONE',  #268 ) ;
#594 = DIRECTION ( 'NONE',  ( -1.000000000000000000, -0.0000000000000000000, -0.0000000000000000000 ) ) ;
#595 = VERTEX_POINT ( 'NONE', #763 ) ;
#596 = APPROVAL_STATUS ( 'not_yet_approved' ) ;
#597 = CARTESIAN_POINT ( 'NONE',  ( -5.360000000000000320, 0.0000000000000000000, -2.250000000000000444 ) ) ;
#598 = VERTEX_POINT ( 'NONE', #110 ) ;
#599 = PRODUCT_DEFINITION ( 'UNKNOWN', '', #294, #395 ) ;
#600 = APPROVAL_ROLE ( '' ) ;
#601 = EDGE_CURVE ( 'NONE', #491, #838, #687, .T. ) ;
#602 = VECTOR ( 'NONE', #575, 1000.000000000000000 ) ;
#603 = CARTESIAN_POINT ( 'NONE',  ( -7.900000000000000355, 0.0000000000000000000, -2.250000000000000444 ) ) ;
#604 = ORIENTED_EDGE ( 'NONE', *, *, #932, .F. ) ;
#605 = VECTOR ( 'NONE', #636, 1000.000000000000000 ) ;
#606 = CARTESIAN_POINT ( 'NONE',  ( -7.900000000000000355, -3.700000000000000178, -2.250000000000000444 ) ) ;
#607 = ORIENTED_EDGE ( 'NONE', *, *, #530, .F. ) ;
#608 = VERTEX_POINT ( 'NONE', #706 ) ;
#609 = AXIS2_PLACEMENT_3D ( 'NONE', #921, #272, #502 ) ;
#610 = DIRECTION ( 'NONE',  ( -0.0000000000000000000, -0.0000000000000000000, -1.000000000000000000 ) ) ;
#611 = PLANE ( 'NONE',  #166 ) ;
#612 = EDGE_LOOP ( 'NONE', ( #267, #711, #396, #928 ) ) ;
#613 = FACE_OUTER_BOUND ( 'NONE', #670, .T. ) ;
#614 = ORIENTED_EDGE ( 'NONE', *, *, #283, .F. ) ;
#615 = CARTESIAN_POINT ( 'NONE',  ( -0.2800000000000007483, 0.0000000000000000000, -2.250000000000000444 ) ) ;
#616 = DIRECTION ( 'NONE',  ( 1.000000000000000000, 0.0000000000000000000, 0.0000000000000000000 ) ) ;
#617 = FACE_BOUND ( 'NONE', #612, .T. ) ;
#618 = ORIENTED_EDGE ( 'NONE', *, *, #887, .F. ) ;
#619 = EDGE_LOOP ( 'NONE', ( #828, #300, #765, #880 ) ) ;
#620 = LINE ( 'NONE', #25, #632 ) ;
#621 = CARTESIAN_POINT ( 'NONE',  ( 0.2200000000000014444, 0.0000000000000000000, -2.500000000000000444 ) ) ;
#622 = ADVANCED_FACE ( 'NONE', ( #756 ), #782, .F. ) ;
#623 = CARTESIAN_POINT ( 'NONE',  ( 0.0000000000000000000, 0.0000000000000000000, 0.0000000000000000000 ) ) ;
#624 = ORIENTED_EDGE ( 'NONE', *, *, #418, .F. ) ;
#625 = LINE ( 'NONE', #479, #94 ) ;
#626 = VECTOR ( 'NONE', #768, 1000.000000000000000 ) ;
#627 = CARTESIAN_POINT ( 'NONE',  ( -9.750000000000000000, 9.700000000000001066, 3.549999999999999378 ) ) ;
#628 = LINE ( 'NONE', #118, #858 ) ;
#629 = CC_DESIGN_APPROVAL ( #857, ( #912 ) ) ;
#630 = ORIENTED_EDGE ( 'NONE', *, *, #439, .T. ) ;
#631 = DIRECTION ( 'NONE',  ( 1.000000000000000000, 0.0000000000000000000, 0.0000000000000000000 ) ) ;
#632 = VECTOR ( 'NONE', #610, 1000.000000000000000 ) ;
#633 = EDGE_CURVE ( 'NONE', #339, #550, #103, .T. ) ;
#634 = VECTOR ( 'NONE', #2, 1000.000000000000000 ) ;
#635 = VERTEX_POINT ( 'NONE', #406 ) ;
#636 = DIRECTION ( 'NONE',  ( -0.0000000000000000000, 1.000000000000000000, -0.0000000000000000000 ) ) ;
#637 = EDGE_LOOP ( 'NONE', ( #573, #884, #666, #703 ) ) ;
#638 = MANIFOLD_SOLID_BREP ( '¶ñ®Æ-¦ùªø3', #270 ) ;
#639 = CARTESIAN_POINT ( 'NONE',  ( -9.250000000000001776, -0.5000000000000000000, 3.549999999999999378 ) ) ;
#640 = VERTEX_POINT ( 'NONE', #186 ) ;
#641 = CARTESIAN_POINT ( 'NONE',  ( -7.900000000000000355, -3.700000000000000178, -2.500000000000000444 ) ) ;
#642 = PLANE ( 'NONE',  #517 ) ;
#643 = LINE ( 'NONE', #927, #668 ) ;
#644 = ORIENTED_EDGE ( 'NONE', *, *, #399, .F. ) ;
#645 = DIRECTION ( 'NONE',  ( -4.886545002751569919E-16, -0.0000000000000000000, -1.000000000000000000 ) ) ;
#646 = DIRECTION ( 'NONE',  ( 0.0000000000000000000, -1.000000000000000000, 0.0000000000000000000 ) ) ;
#647 = VERTEX_POINT ( 'NONE', #639 ) ;
#648 = LINE ( 'NONE', #569, #605 ) ;
#649 = EDGE_CURVE ( 'NONE', #586, #640, #495, .T. ) ;
#650 = PERSON_AND_ORGANIZATION_ROLE ( 'classification_officer' ) ;
#651 = DIRECTION ( 'NONE',  ( 1.000000000000000000, 0.0000000000000000000, 0.0000000000000000000 ) ) ;
#652 = EDGE_CURVE ( 'NONE', #443, #77, #401, .T. ) ;
#653 = LINE ( 'NONE', #62, #589 ) ;
#654 = VECTOR ( 'NONE', #37, 1000.000000000000000 ) ;
#655 = DIRECTION ( 'NONE',  ( 0.0000000000000000000, -0.0000000000000000000, -1.000000000000000000 ) ) ;
#656 = VECTOR ( 'NONE', #323, 1000.000000000000000 ) ;
#657 = ORIENTED_EDGE ( 'NONE', *, *, #494, .F. ) ;
#658 = CARTESIAN_POINT ( 'NONE',  ( 5.300000000000001599, 0.0000000000000000000, -2.250000000000000444 ) ) ;
#659 = LINE ( 'NONE', #226, #146 ) ;
#660 = DIRECTION ( 'NONE',  ( 0.0000000000000000000, -0.0000000000000000000, -1.000000000000000000 ) ) ;
#661 = ORIENTED_EDGE ( 'NONE', *, *, #189, .F. ) ;
#662 = EDGE_CURVE ( 'NONE', #47, #255, #490, .T. ) ;
#663 = CARTESIAN_POINT ( 'NONE',  ( -4.859999999999997655, -3.700000000000000178, -2.250000000000000444 ) ) ;
#664 = DIRECTION ( 'NONE',  ( -1.000000000000000000, -0.0000000000000000000, -0.0000000000000000000 ) ) ;
#665 = FACE_OUTER_BOUND ( 'NONE', #380, .T. ) ;
#666 = ORIENTED_EDGE ( 'NONE', *, *, #714, .F. ) ;
#667 = EDGE_CURVE ( 'NONE', #23, #243, #567, .T. ) ;
#668 = VECTOR ( 'NONE', #107, 1000.000000000000000 ) ;
#669 = DIRECTION ( 'NONE',  ( 3.469446951953611033E-15, -0.0000000000000000000, 1.000000000000000000 ) ) ;
#670 = EDGE_LOOP ( 'NONE', ( #604, #644, #473, #258 ) ) ;
#671 = LOCAL_TIME ( 8, 55, 11.00000000000000000, #436 ) ;
#672 = VECTOR ( 'NONE', #359, 1000.000000000000000 ) ;
#673 = ORIENTED_EDGE ( 'NONE', *, *, #554, .F. ) ;
#674 = VECTOR ( 'NONE', #631, 1000.000000000000000 ) ;
#675 = ORIENTED_EDGE ( 'NONE', *, *, #649, .F. ) ;
#676 = CARTESIAN_POINT ( 'NONE',  ( -7.900000000000000355, -3.700000000000000178, -2.250000000000000444 ) ) ;
#677 = CARTESIAN_POINT ( 'NONE',  ( -5.360000000000000320, -3.700000000000000178, -2.500000000000000444 ) ) ;
#678 = ADVANCED_FACE ( 'NONE', ( #617, #764, #613, #132, #549 ), #778, .F. ) ;
#679 = EDGE_LOOP ( 'NONE', ( #67, #804, #112, #776, #614, #673, #334, #161 ) ) ;
#680 = DIRECTION ( 'NONE',  ( 0.0000000000000000000, 0.0000000000000000000, -1.000000000000000000 ) ) ;
#681 = ORIENTED_EDGE ( 'NONE', *, *, #196, .F. ) ;
#682 = LINE ( 'NONE', #676, #344 ) ;
#683 = LINE ( 'NONE', #677, #729 ) ;
#684 = CARTESIAN_POINT ( 'NONE',  ( -9.750000000000000000, 9.700000000000001066, 3.549999999999999378 ) ) ;
#685 = ORIENTED_EDGE ( 'NONE', *, *, #239, .T. ) ;
#686 = CARTESIAN_POINT ( 'NONE',  ( -5.360000000000000320, -3.700000000000000178, -2.500000000000000444 ) ) ;
#687 = LINE ( 'NONE', #850, #168 ) ;
#688 = CARTESIAN_POINT ( 'NONE',  ( -5.360000000000000320, -3.700000000000000178, -2.250000000000000444 ) ) ;
#689 = ORIENTED_EDGE ( 'NONE', *, *, #751, .F. ) ;
#690 = VERTEX_POINT ( 'NONE', #827 ) ;
#691 = LINE ( 'NONE', #775, #577 ) ;
#692 = FACE_OUTER_BOUND ( 'NONE', #849, .T. ) ;
#693 = ORIENTED_EDGE ( 'NONE', *, *, #747, .T. ) ;
#694 = EDGE_CURVE ( 'NONE', #527, #598, #897, .T. ) ;
#695 = AXIS2_PLACEMENT_3D ( 'NONE', #361, #934, #723 ) ;
#696 = LINE ( 'NONE', #182, #122 ) ;
#697 = ORIENTED_EDGE ( 'NONE', *, *, #578, .T. ) ;
#698 = AXIS2_PLACEMENT_3D ( 'NONE', #623, #906, #902 ) ;
#699 = CARTESIAN_POINT ( 'NONE',  ( -0.2800000000000007483, -3.700000000000000178, -2.250000000000000444 ) ) ;
#700 = ADVANCED_FACE ( 'NONE', ( #710 ), #254, .F. ) ;
#701 = DIRECTION ( 'NONE',  ( -0.0000000000000000000, 1.000000000000000000, -0.0000000000000000000 ) ) ;
#702 = ORGANIZATION ( 'UNSPECIFIED', 'UNSPECIFIED', '' ) ;
#703 = ORIENTED_EDGE ( 'NONE', *, *, #719, .T. ) ;
#704 = LINE ( 'NONE', #130, #634 ) ;
#705 = DIRECTION ( 'NONE',  ( 0.0000000000000000000, 0.0000000000000000000, -1.000000000000000000 ) ) ;
#706 = CARTESIAN_POINT ( 'NONE',  ( 5.300000000000001599, -3.700000000000000178, -2.250000000000000444 ) ) ;
#707 = ORIENTED_EDGE ( 'NONE', *, *, #551, .T. ) ;
#708 = PLANE ( 'NONE',  #755 ) ;
#709 = DIRECTION ( 'NONE',  ( 0.0000000000000000000, -0.0000000000000000000, 1.000000000000000000 ) ) ;
#710 = FACE_OUTER_BOUND ( 'NONE', #375, .T. ) ;
#711 = ORIENTED_EDGE ( 'NONE', *, *, #363, .F. ) ;
#712 = CARTESIAN_POINT ( 'NONE',  ( 5.300000000000000711, -3.700000000000000178, -2.500000000000000444 ) ) ;
#713 = ORIENTED_EDGE ( 'NONE', *, *, #863, .F. ) ;
#714 = EDGE_CURVE ( 'NONE', #402, #527, #423, .T. ) ;
#715 = CARTESIAN_POINT ( 'NONE',  ( 0.2200000000000023048, -3.700000000000000178, -2.250000000000000444 ) ) ;
#716 = ORIENTED_EDGE ( 'NONE', *, *, #214, .T. ) ;
#717 = DIRECTION ( 'NONE',  ( -0.0000000000000000000, 1.000000000000000000, -0.0000000000000000000 ) ) ;
#718 = VECTOR ( 'NONE', #873, 1000.000000000000000 ) ;
#719 = EDGE_CURVE ( 'NONE', #402, #243, #397, .T. ) ;
#720 = DIRECTION ( 'NONE',  ( 0.0000000000000000000, 0.0000000000000000000, 1.000000000000000000 ) ) ;
#721 = AXIS2_PLACEMENT_3D ( 'NONE', #570, #498, #785 ) ;
#722 = DIRECTION ( 'NONE',  ( 0.0000000000000000000, 0.0000000000000000000, -1.000000000000000000 ) ) ;
#723 = DIRECTION ( 'NONE',  ( 3.469446951953611033E-15, 0.0000000000000000000, 1.000000000000000000 ) ) ;
#724 = CARTESIAN_POINT ( 'NONE',  ( 0.0000000000000000000, -3.700000000000000178, 0.0000000000000000000 ) ) ;
#725 = ORIENTED_EDGE ( 'NONE', *, *, #739, .T. ) ;
#726 = SHAPE_DEFINITION_REPRESENTATION ( #308, #71 ) ;
#727 = LINE ( 'NONE', #715, #602 ) ;
#728 = CARTESIAN_POINT ( 'NONE',  ( 9.249999999999998224, 0.0000000000000000000, 3.549999999999999378 ) ) ;
#729 = VECTOR ( 'NONE', #464, 1000.000000000000000 ) ;
#730 = DIRECTION ( 'NONE',  ( 1.000000000000000000, 0.0000000000000000000, 0.0000000000000000000 ) ) ;
#731 = EDGE_CURVE ( 'NONE', #307, #402, #178, .T. ) ;
#732 = EDGE_CURVE ( 'NONE', #608, #635, #355, .T. ) ;
#733 = EDGE_LOOP ( 'NONE', ( #113, #273, #468, #329 ) ) ;
#734 = CARTESIAN_POINT ( 'NONE',  ( 4.799999999999998934, 0.0000000000000000000, -2.250000000000000444 ) ) ;
#735 = LINE ( 'NONE', #663, #557 ) ;
#736 = CARTESIAN_POINT ( 'NONE',  ( -9.250000000000001776, 0.0000000000000000000, 3.549999999999999378 ) ) ;
#737 = CALENDAR_DATE ( 2020, 20, 11 ) ;
#738 = DIRECTION ( 'NONE',  ( 1.000000000000000000, 0.0000000000000000000, 0.0000000000000000000 ) ) ;
#739 = EDGE_CURVE ( 'NONE', #924, #11, #643, .T. ) ;
#740 = ORIENTED_EDGE ( 'NONE', *, *, #227, .T. ) ;
#741 = CALENDAR_DATE ( 2020, 20, 11 ) ;
#742 = DIRECTION ( 'NONE',  ( 0.0000000000000000000, -1.000000000000000000, 0.0000000000000000000 ) ) ;
#743 = ORIENTED_EDGE ( 'NONE', *, *, #739, .F. ) ;
#744 = VECTOR ( 'NONE', #253, 1000.000000000000000 ) ;
#745 = AXIS2_PLACEMENT_3D ( 'NONE', #472, #257, #680 ) ;
#746 = CARTESIAN_POINT ( 'NONE',  ( -9.750000000000000000, 9.700000000000001066, 3.549999999999999378 ) ) ;
#747 = EDGE_CURVE ( 'NONE', #11, #179, #278, .T. ) ;
#748 = EDGE_LOOP ( 'NONE', ( #43, #847, #796, #424 ) ) ;
#749 = CC_DESIGN_SECURITY_CLASSIFICATION ( #912, ( #294 ) ) ;
#750 = DIRECTION ( 'NONE',  ( 0.0000000000000000000, -0.0000000000000000000, -1.000000000000000000 ) ) ;
#751 = EDGE_CURVE ( 'NONE', #757, #833, #34, .T. ) ;
#752 = CARTESIAN_POINT ( 'NONE',  ( -7.399999999999998579, -3.700000000000000178, -2.500000000000000444 ) ) ;
#753 = VECTOR ( 'NONE', #651, 1000.000000000000000 ) ;
#754 = ORIENTED_EDGE ( 'NONE', *, *, #164, .T. ) ;
#755 = AXIS2_PLACEMENT_3D ( 'NONE', #72, #357, #66 ) ;
#756 = FACE_OUTER_BOUND ( 'NONE', #172, .T. ) ;
#757 = VERTEX_POINT ( 'NONE', #445 ) ;
#758 =( NAMED_UNIT ( * ) PLANE_ANGLE_UNIT ( ) SI_UNIT ( $, .RADIAN. ) );
#759 = CARTESIAN_POINT ( 'NONE',  ( -9.250000000000001776, -0.5000000000000000000, 3.549999999999999378 ) ) ;
#760 = CARTESIAN_POINT ( 'NONE',  ( -7.900000000000000355, -3.700000000000000178, -2.500000000000000444 ) ) ;
#761 = ORIENTED_EDGE ( 'NONE', *, *, #530, .T. ) ;
#762 = FACE_OUTER_BOUND ( 'NONE', #61, .T. ) ;
#763 = CARTESIAN_POINT ( 'NONE',  ( -5.360000000000000320, 0.0000000000000000000, -2.500000000000000444 ) ) ;
#764 = FACE_BOUND ( 'NONE', #766, .T. ) ;
#765 = ORIENTED_EDGE ( 'NONE', *, *, #601, .F. ) ;
#766 = EDGE_LOOP ( 'NONE', ( #507, #624, #834, #83 ) ) ;
#767 = APPROVAL ( #596, 'UNSPECIFIED' ) ;
#768 = DIRECTION ( 'NONE',  ( -0.0000000000000000000, 1.000000000000000000, -0.0000000000000000000 ) ) ;
#769 = EDGE_CURVE ( 'NONE', #690, #179, #581, .T. ) ;
#770 = ORIENTED_EDGE ( 'NONE', *, *, #846, .F. ) ;
#771 = EDGE_CURVE ( 'NONE', #647, #550, #438, .T. ) ;
#772 = FACE_OUTER_BOUND ( 'NONE', #466, .T. ) ;
#773 = VERTEX_POINT ( 'NONE', #376 ) ;
#774 = VECTOR ( 'NONE', #139, 1000.000000000000000 ) ;
#775 = CARTESIAN_POINT ( 'NONE',  ( -7.900000000000000355, -3.700000000000000178, -2.250000000000000444 ) ) ;
#776 = ORIENTED_EDGE ( 'NONE', *, *, #399, .T. ) ;
#777 = ORIENTED_EDGE ( 'NONE', *, *, #863, .T. ) ;
#778 = PLANE ( 'NONE',  #698 ) ;
#779 = EDGE_LOOP ( 'NONE', ( #124, #422, #236, #203 ) ) ;
#780 = CARTESIAN_POINT ( 'NONE',  ( -7.399999999999998579, 0.0000000000000000000, -2.500000000000000444 ) ) ;
#781 = CARTESIAN_POINT ( 'NONE',  ( 0.0000000000000000000, 9.700000000000001066, 0.0000000000000000000 ) ) ;
#782 = PLANE ( 'NONE',  #862 ) ;
#783 = ORIENTED_EDGE ( 'NONE', *, *, #667, .T. ) ;
#784 = FACE_OUTER_BOUND ( 'NONE', #388, .T. ) ;
#785 = DIRECTION ( 'NONE',  ( 0.0000000000000000000, 0.0000000000000000000, -1.000000000000000000 ) ) ;
#786 = EDGE_CURVE ( 'NONE', #896, #28, #7, .T. ) ;
#787 = DIRECTION ( 'NONE',  ( 0.0000000000000000000, -1.000000000000000000, 0.0000000000000000000 ) ) ;
#788 = VERTEX_POINT ( 'NONE', #212 ) ;
#789 = LINE ( 'NONE', #848, #774 ) ;
#790 = VECTOR ( 'NONE', #274, 1000.000000000000000 ) ;
#791 = CARTESIAN_POINT ( 'NONE',  ( 0.0000000000000000000, -3.700000000000000178, 0.0000000000000000000 ) ) ;
#792 = APPROVAL_PERSON_ORGANIZATION ( #230, #558, #90 ) ;
#793 = CARTESIAN_POINT ( 'NONE',  ( -4.859999999999997655, -3.700000000000000178, -2.500000000000000444 ) ) ;
#794 = LINE ( 'NONE', #145, #337 ) ;
#795 = VECTOR ( 'NONE', #372, 1000.000000000000000 ) ;
#796 = ORIENTED_EDGE ( 'NONE', *, *, #714, .T. ) ;
#797 = DATE_AND_TIME ( #737, #671 ) ;
#798 = VECTOR ( 'NONE', #18, 1000.000000000000000 ) ;
#799 = DIRECTION ( 'NONE',  ( 0.0000000000000000000, -0.0000000000000000000, -1.000000000000000000 ) ) ;
#800 = DIRECTION ( 'NONE',  ( 0.0000000000000000000, 0.0000000000000000000, 1.000000000000000000 ) ) ;
#801 = ADVANCED_FACE ( 'NONE', ( #206 ), #499, .T. ) ;
#802 = LINE ( 'NONE', #520, #198 ) ;
#803 = AXIS2_PLACEMENT_3D ( 'NONE', #343, #120, #922 ) ;
#804 = ORIENTED_EDGE ( 'NONE', *, *, #771, .F. ) ;
#805 = COORDINATED_UNIVERSAL_TIME_OFFSET ( 8, 0, .AHEAD. ) ;
#806 = CARTESIAN_POINT ( 'NONE',  ( -9.250000000000001776, -0.5000000000000000000, 3.549999999999999378 ) ) ;
#807 = LINE ( 'NONE', #156, #842 ) ;
#808 = CARTESIAN_POINT ( 'NONE',  ( 4.799999999999998934, -3.700000000000000178, -2.250000000000000444 ) ) ;
#809 = LINE ( 'NONE', #9, #441 ) ;
#810 = EDGE_LOOP ( 'NONE', ( #560, #333, #102, #697 ) ) ;
#811 = DIRECTION ( 'NONE',  ( 1.000000000000000000, 0.0000000000000000000, -0.0000000000000000000 ) ) ;
#812 = VERTEX_POINT ( 'NONE', #734 ) ;
#813 = ADVANCED_FACE ( 'NONE', ( #933 ), #282, .T. ) ;
#814 = CARTESIAN_POINT ( 'NONE',  ( 4.799999999999998934, -3.700000000000000178, -2.500000000000000444 ) ) ;
#815 = ORIENTED_EDGE ( 'NONE', *, *, #817, .F. ) ;
#816 = AXIS2_PLACEMENT_3D ( 'NONE', #241, #248, #655 ) ;
#817 = EDGE_CURVE ( 'NONE', #563, #757, #727, .T. ) ;
#818 = VECTOR ( 'NONE', #477, 1000.000000000000000 ) ;
#819 = PLANE ( 'NONE',  #437 ) ;
#820 = LINE ( 'NONE', #759, #369 ) ;
#821 = EDGE_LOOP ( 'NONE', ( #370, #689, #815, #531 ) ) ;
#822 = CARTESIAN_POINT ( 'NONE',  ( 9.749999999999998224, -0.5000000000000000000, -3.550000000000000266 ) ) ;
#823 = ORIENTED_EDGE ( 'NONE', *, *, #164, .F. ) ;
#824 = APPROVAL_PERSON_ORGANIZATION ( #73, #767, #600 ) ;
#825 = LINE ( 'NONE', #176, #744 ) ;
#826 = ADVANCED_FACE ( 'NONE', ( #137 ), #572, .F. ) ;
#827 = CARTESIAN_POINT ( 'NONE',  ( 9.750000000000001776, 9.700000000000001066, 3.549999999999999378 ) ) ;
#828 = ORIENTED_EDGE ( 'NONE', *, *, #114, .F. ) ;
#829 = EDGE_LOOP ( 'NONE', ( #547, #524, #271, #458 ) ) ;
#830 = DIRECTION ( 'NONE',  ( 1.000000000000000000, 0.0000000000000000000, 0.0000000000000000000 ) ) ;
#831 = DIRECTION ( 'NONE',  ( -0.0000000000000000000, 1.000000000000000000, -0.0000000000000000000 ) ) ;
#832 = CARTESIAN_POINT ( 'NONE',  ( -7.900000000000000355, 0.0000000000000000000, -2.500000000000000444 ) ) ;
#833 = VERTEX_POINT ( 'NONE', #432 ) ;
#834 = ORIENTED_EDGE ( 'NONE', *, *, #482, .F. ) ;
#835 = DIRECTION ( 'NONE',  ( -2.443272501375784959E-16, 0.0000000000000000000, -1.000000000000000000 ) ) ;
#836 = EDGE_CURVE ( 'NONE', #812, #855, #854, .T. ) ;
#837 = CARTESIAN_POINT ( 'NONE',  ( -7.900000000000000355, -3.700000000000000178, -2.250000000000000444 ) ) ;
#838 = VERTEX_POINT ( 'NONE', #364 ) ;
#839 = CARTESIAN_POINT ( 'NONE',  ( -9.750000000000000000, -0.5000000000000000000, 3.549999999999999378 ) ) ;
#840 = AXIS2_PLACEMENT_3D ( 'NONE', #518, #722, #1 ) ;
#841 = CARTESIAN_POINT ( 'NONE',  ( 4.799999999999998934, -3.700000000000000178, -2.250000000000000444 ) ) ;
#842 = VECTOR ( 'NONE', #231, 1000.000000000000000 ) ;
#843 = FACE_OUTER_BOUND ( 'NONE', #637, .T. ) ;
#844 = VERTEX_POINT ( 'NONE', #658 ) ;
#845 = CARTESIAN_POINT ( 'NONE',  ( 9.749999999999998224, -0.5000000000000000000, -3.550000000000000266 ) ) ;
#846 = EDGE_CURVE ( 'NONE', #255, #563, #859, .T. ) ;
#847 = ORIENTED_EDGE ( 'NONE', *, *, #731, .T. ) ;
#848 = CARTESIAN_POINT ( 'NONE',  ( -7.900000000000000355, -3.700000000000000178, -2.500000000000000444 ) ) ;
#849 = EDGE_LOOP ( 'NONE', ( #52, #448, #356, #754 ) ) ;
#850 = CARTESIAN_POINT ( 'NONE',  ( -4.859999999999997655, 0.0000000000000000000, -2.250000000000000444 ) ) ;
#851 = ORIENTED_EDGE ( 'NONE', *, *, #731, .F. ) ;
#852 = LINE ( 'NONE', #565, #121 ) ;
#853 = EDGE_LOOP ( 'NONE', ( #890, #693, #201, #707 ) ) ;
#854 = LINE ( 'NONE', #69, #672 ) ;
#855 = VERTEX_POINT ( 'NONE', #504 ) ;
#856 = FACE_OUTER_BOUND ( 'NONE', #250, .T. ) ;
#857 = APPROVAL ( #216, 'UNSPECIFIED' ) ;
#858 = VECTOR ( 'NONE', #409, 1000.000000000000000 ) ;
#859 = LINE ( 'NONE', #142, #795 ) ;
#860 = EDGE_CURVE ( 'NONE', #855, #187, #289, .T. ) ;
#861 = FACE_OUTER_BOUND ( 'NONE', #821, .T. ) ;
#862 = AXIS2_PLACEMENT_3D ( 'NONE', #42, #328, #541 ) ;
#863 = EDGE_CURVE ( 'NONE', #398, #77, #510, .T. ) ;
#864 = MECHANICAL_CONTEXT ( 'NONE', #354, 'mechanical' ) ;
#865 = ADVANCED_FACE ( 'NONE', ( #297 ), #475, .F. ) ;
#866 = CARTESIAN_POINT ( 'NONE',  ( 0.0000000000000000000, -0.5000000000000000000, 0.0000000000000000000 ) ) ;
#867 = CC_DESIGN_APPROVAL ( #767, ( #294 ) ) ;
#868 = FACE_OUTER_BOUND ( 'NONE', #779, .T. ) ;
#869 = LINE ( 'NONE', #447, #891 ) ;
#870 = VECTOR ( 'NONE', #539, 1000.000000000000000 ) ;
#871 = VERTEX_POINT ( 'NONE', #169 ) ;
#872 = VECTOR ( 'NONE', #143, 1000.000000000000000 ) ;
#873 = DIRECTION ( 'NONE',  ( -0.0000000000000000000, 1.000000000000000000, -0.0000000000000000000 ) ) ;
#874 = DIRECTION ( 'NONE',  ( -0.0000000000000000000, 0.0000000000000000000, -1.000000000000000000 ) ) ;
#875 = LINE ( 'NONE', #808, #210 ) ;
#876 = ORIENTED_EDGE ( 'NONE', *, *, #786, .F. ) ;
#877 = APPLICATION_PROTOCOL_DEFINITION ( 'international standard', 'config_control_design', 1994, #354 ) ;
#878 = DIRECTION ( 'NONE',  ( -0.0000000000000000000, 1.000000000000000000, -0.0000000000000000000 ) ) ;
#879 = DIRECTION ( 'NONE',  ( 0.0000000000000000000, -1.000000000000000000, 0.0000000000000000000 ) ) ;
#880 = ORIENTED_EDGE ( 'NONE', *, *, #405, .F. ) ;
#881 = PERSON_AND_ORGANIZATION ( #319, #702 ) ;
#882 = DIRECTION ( 'NONE',  ( -1.000000000000000000, 0.0000000000000000000, -0.0000000000000000000 ) ) ;
#883 = EDGE_CURVE ( 'NONE', #598, #307, #682, .T. ) ;
#884 = ORIENTED_EDGE ( 'NONE', *, *, #281, .F. ) ;
#885 = PERSON_AND_ORGANIZATION_ROLE ( 'design_supplier' ) ;
#886 = PLANE ( 'NONE',  #392 ) ;
#887 = EDGE_CURVE ( 'NONE', #757, #47, #99, .T. ) ;
#888 = ORIENTED_EDGE ( 'NONE', *, *, #916, .F. ) ;
#889 = CARTESIAN_POINT ( 'NONE',  ( 9.749999999999998224, 9.700000000000001066, -3.550000000000000266 ) ) ;
#890 = ORIENTED_EDGE ( 'NONE', *, *, #485, .T. ) ;
#891 = VECTOR ( 'NONE', #221, 1000.000000000000000 ) ;
#892 = EDGE_LOOP ( 'NONE', ( #568, #493, #246, #419 ) ) ;
#893 = LINE ( 'NONE', #615, #509 ) ;
#894 = CARTESIAN_POINT ( 'NONE',  ( -0.2800000000000007483, -3.700000000000000178, -2.500000000000000444 ) ) ;
#895 = EDGE_CURVE ( 'NONE', #27, #914, #893, .T. ) ;
#896 = VERTEX_POINT ( 'NONE', #686 ) ;
#897 = LINE ( 'NONE', #837, #259 ) ;
#898 = ORIENTED_EDGE ( 'NONE', *, *, #435, .F. ) ;
#899 = ORIENTED_EDGE ( 'NONE', *, *, #335, .T. ) ;
#900 = DIRECTION ( 'NONE',  ( 0.0000000000000000000, 0.0000000000000000000, -1.000000000000000000 ) ) ;
#901 = DIRECTION ( 'NONE',  ( -2.443272501375784959E-16, -0.0000000000000000000, 1.000000000000000000 ) ) ;
#902 = DIRECTION ( 'NONE',  ( 0.0000000000000000000, -0.0000000000000000000, 1.000000000000000000 ) ) ;
#903 = ORIENTED_EDGE ( 'NONE', *, *, #311, .T. ) ;
#904 = ADVANCED_FACE ( 'NONE', ( #533 ), #105, .F. ) ;
#905 = CARTESIAN_POINT ( 'NONE',  ( -7.399999999999997691, -3.700000000000000178, -2.250000000000000444 ) ) ;
#906 = DIRECTION ( 'NONE',  ( 0.0000000000000000000, 1.000000000000000000, 0.0000000000000000000 ) ) ;
#907 = ORIENTED_EDGE ( 'NONE', *, *, #860, .T. ) ;
#908 = VECTOR ( 'NONE', #332, 1000.000000000000000 ) ;
#909 = CARTESIAN_POINT ( 'NONE',  ( 5.300000000000001599, -3.700000000000000178, -2.250000000000000444 ) ) ;
#910 = LINE ( 'NONE', #384, #314 ) ;
#911 = ADVANCED_FACE ( 'NONE', ( #762 ), #240, .F. ) ;
#912 = SECURITY_CLASSIFICATION ( '', '', #452 ) ;
#913 = DIRECTION ( 'NONE',  ( 3.469446951953611033E-15, 0.0000000000000000000, 1.000000000000000000 ) ) ;
#914 = VERTEX_POINT ( 'NONE', #403 ) ;
#915 = VECTOR ( 'NONE', #79, 1000.000000000000000 ) ;
#916 = EDGE_CURVE ( 'NONE', #487, #339, #247, .T. ) ;
#917 = DIRECTION ( 'NONE',  ( -1.000000000000000000, -0.0000000000000000000, -0.0000000000000000000 ) ) ;
#918 = AXIS2_PLACEMENT_3D ( 'NONE', #306, #738, #519 ) ;
#919 = ORIENTED_EDGE ( 'NONE', *, *, #652, .T. ) ;
#920 = AXIS2_PLACEMENT_3D ( 'NONE', #781, #57, #709 ) ;
#921 = CARTESIAN_POINT ( 'NONE',  ( 9.749999999999998224, 9.700000000000001066, -3.550000000000000266 ) ) ;
#922 = DIRECTION ( 'NONE',  ( 1.000000000000000000, 0.0000000000000000000, 0.0000000000000000000 ) ) ;
#923 = DIRECTION ( 'NONE',  ( 1.000000000000000000, 0.0000000000000000000, 0.0000000000000000000 ) ) ;
#924 = VERTEX_POINT ( 'NONE', #889 ) ;
#925 = DIRECTION ( 'NONE',  ( 3.469446951953611033E-15, -0.0000000000000000000, 1.000000000000000000 ) ) ;
#926 = DIRECTION ( 'NONE',  ( -2.443272501375785452E-16, 0.0000000000000000000, 1.000000000000000000 ) ) ;
#927 = CARTESIAN_POINT ( 'NONE',  ( 9.749999999999998224, 9.700000000000001066, -3.550000000000000266 ) ) ;
#928 = ORIENTED_EDGE ( 'NONE', *, *, #860, .F. ) ;
#929 = CARTESIAN_POINT ( 'NONE',  ( -7.900000000000000355, -3.700000000000000178, -2.500000000000000444 ) ) ;
#930 = APPLICATION_CONTEXT ( 'configuration controlled 3d designs of mechanical parts and assemblies' ) ;
#931 = ADVANCED_FACE ( 'NONE', ( #463 ), #819, .T. ) ;
#932 = EDGE_CURVE ( 'NONE', #165, #443, #620, .T. ) ;
#933 = FACE_OUTER_BOUND ( 'NONE', #351, .T. ) ;
#934 = DIRECTION ( 'NONE',  ( -1.000000000000000000, 0.0000000000000000000, 3.469446951953611033E-15 ) ) ;
#935 = EDGE_CURVE ( 'NONE', #229, #608, #386, .T. ) ;
#936 = COORDINATED_UNIVERSAL_TIME_OFFSET ( 8, 0, .AHEAD. ) ;
#937 = VECTOR ( 'NONE', #228, 1000.000000000000000 ) ;
ENDSEC;
END-ISO-10303-21;
