%TF.GenerationSoftware,KiCad,Pcbnew,10.0.0*%
%TF.CreationDate,2026-05-12T14:41:54+03:00*%
%TF.ProjectId,Buck Boost,4275636b-2042-46f6-9f73-742e6b696361,rev?*%
%TF.SameCoordinates,Original*%
%TF.FileFunction,Legend,Bot*%
%TF.FilePolarity,Positive*%
%FSLAX46Y46*%
G04 Gerber Fmt 4.6, Leading zero omitted, Abs format (unit mm)*
G04 Created by KiCad (PCBNEW 10.0.0) date 2026-05-12 14:41:54*
%MOMM*%
%LPD*%
G01*
G04 APERTURE LIST*
%ADD10C,0.150000*%
G04 APERTURE END LIST*
D10*
X179402458Y-141200000D02*
X198197542Y-141200000D01*
X198197542Y-148200000D01*
X179402458Y-148200000D01*
X179402458Y-141200000D01*
X197670286Y-141959875D02*
X197479810Y-141959875D01*
X197479810Y-141959875D02*
X197384572Y-142007494D01*
X197384572Y-142007494D02*
X197289334Y-142102732D01*
X197289334Y-142102732D02*
X197241715Y-142293208D01*
X197241715Y-142293208D02*
X197241715Y-142626541D01*
X197241715Y-142626541D02*
X197289334Y-142817017D01*
X197289334Y-142817017D02*
X197384572Y-142912256D01*
X197384572Y-142912256D02*
X197479810Y-142959875D01*
X197479810Y-142959875D02*
X197670286Y-142959875D01*
X197670286Y-142959875D02*
X197765524Y-142912256D01*
X197765524Y-142912256D02*
X197860762Y-142817017D01*
X197860762Y-142817017D02*
X197908381Y-142626541D01*
X197908381Y-142626541D02*
X197908381Y-142293208D01*
X197908381Y-142293208D02*
X197860762Y-142102732D01*
X197860762Y-142102732D02*
X197765524Y-142007494D01*
X197765524Y-142007494D02*
X197670286Y-141959875D01*
X196813143Y-142959875D02*
X196813143Y-141959875D01*
X196717905Y-142578922D02*
X196432191Y-142959875D01*
X196432191Y-142293208D02*
X196813143Y-142674160D01*
X195860762Y-142959875D02*
X195956000Y-142912256D01*
X195956000Y-142912256D02*
X196003619Y-142864636D01*
X196003619Y-142864636D02*
X196051238Y-142769398D01*
X196051238Y-142769398D02*
X196051238Y-142483684D01*
X196051238Y-142483684D02*
X196003619Y-142388446D01*
X196003619Y-142388446D02*
X195956000Y-142340827D01*
X195956000Y-142340827D02*
X195860762Y-142293208D01*
X195860762Y-142293208D02*
X195717905Y-142293208D01*
X195717905Y-142293208D02*
X195622667Y-142340827D01*
X195622667Y-142340827D02*
X195575048Y-142388446D01*
X195575048Y-142388446D02*
X195527429Y-142483684D01*
X195527429Y-142483684D02*
X195527429Y-142769398D01*
X195527429Y-142769398D02*
X195575048Y-142864636D01*
X195575048Y-142864636D02*
X195622667Y-142912256D01*
X195622667Y-142912256D02*
X195717905Y-142959875D01*
X195717905Y-142959875D02*
X195860762Y-142959875D01*
X194670286Y-142912256D02*
X194765524Y-142959875D01*
X194765524Y-142959875D02*
X194956000Y-142959875D01*
X194956000Y-142959875D02*
X195051238Y-142912256D01*
X195051238Y-142912256D02*
X195098857Y-142864636D01*
X195098857Y-142864636D02*
X195146476Y-142769398D01*
X195146476Y-142769398D02*
X195146476Y-142483684D01*
X195146476Y-142483684D02*
X195098857Y-142388446D01*
X195098857Y-142388446D02*
X195051238Y-142340827D01*
X195051238Y-142340827D02*
X194956000Y-142293208D01*
X194956000Y-142293208D02*
X194765524Y-142293208D01*
X194765524Y-142293208D02*
X194670286Y-142340827D01*
X194241714Y-142959875D02*
X194241714Y-141959875D01*
X193813143Y-142959875D02*
X193813143Y-142436065D01*
X193813143Y-142436065D02*
X193860762Y-142340827D01*
X193860762Y-142340827D02*
X193956000Y-142293208D01*
X193956000Y-142293208D02*
X194098857Y-142293208D01*
X194098857Y-142293208D02*
X194194095Y-142340827D01*
X194194095Y-142340827D02*
X194241714Y-142388446D01*
X193336952Y-142959875D02*
X193336952Y-142293208D01*
X193336952Y-141959875D02*
X193384571Y-142007494D01*
X193384571Y-142007494D02*
X193336952Y-142055113D01*
X193336952Y-142055113D02*
X193289333Y-142007494D01*
X193289333Y-142007494D02*
X193336952Y-141959875D01*
X193336952Y-141959875D02*
X193336952Y-142055113D01*
X192098857Y-142959875D02*
X192098857Y-141959875D01*
X192098857Y-141959875D02*
X191527429Y-142959875D01*
X191527429Y-142959875D02*
X191527429Y-141959875D01*
X191051238Y-142959875D02*
X191051238Y-142293208D01*
X191051238Y-141959875D02*
X191098857Y-142007494D01*
X191098857Y-142007494D02*
X191051238Y-142055113D01*
X191051238Y-142055113D02*
X191003619Y-142007494D01*
X191003619Y-142007494D02*
X191051238Y-141959875D01*
X191051238Y-141959875D02*
X191051238Y-142055113D01*
X190575048Y-142959875D02*
X190575048Y-141959875D01*
X190479810Y-142578922D02*
X190194096Y-142959875D01*
X190194096Y-142293208D02*
X190575048Y-142674160D01*
X189622667Y-142959875D02*
X189717905Y-142912256D01*
X189717905Y-142912256D02*
X189765524Y-142864636D01*
X189765524Y-142864636D02*
X189813143Y-142769398D01*
X189813143Y-142769398D02*
X189813143Y-142483684D01*
X189813143Y-142483684D02*
X189765524Y-142388446D01*
X189765524Y-142388446D02*
X189717905Y-142340827D01*
X189717905Y-142340827D02*
X189622667Y-142293208D01*
X189622667Y-142293208D02*
X189479810Y-142293208D01*
X189479810Y-142293208D02*
X189384572Y-142340827D01*
X189384572Y-142340827D02*
X189336953Y-142388446D01*
X189336953Y-142388446D02*
X189289334Y-142483684D01*
X189289334Y-142483684D02*
X189289334Y-142769398D01*
X189289334Y-142769398D02*
X189336953Y-142864636D01*
X189336953Y-142864636D02*
X189384572Y-142912256D01*
X189384572Y-142912256D02*
X189479810Y-142959875D01*
X189479810Y-142959875D02*
X189622667Y-142959875D01*
X188717905Y-142959875D02*
X188813143Y-142912256D01*
X188813143Y-142912256D02*
X188860762Y-142817017D01*
X188860762Y-142817017D02*
X188860762Y-141959875D01*
X187908381Y-142959875D02*
X187908381Y-142436065D01*
X187908381Y-142436065D02*
X187956000Y-142340827D01*
X187956000Y-142340827D02*
X188051238Y-142293208D01*
X188051238Y-142293208D02*
X188241714Y-142293208D01*
X188241714Y-142293208D02*
X188336952Y-142340827D01*
X187908381Y-142912256D02*
X188003619Y-142959875D01*
X188003619Y-142959875D02*
X188241714Y-142959875D01*
X188241714Y-142959875D02*
X188336952Y-142912256D01*
X188336952Y-142912256D02*
X188384571Y-142817017D01*
X188384571Y-142817017D02*
X188384571Y-142721779D01*
X188384571Y-142721779D02*
X188336952Y-142626541D01*
X188336952Y-142626541D02*
X188241714Y-142578922D01*
X188241714Y-142578922D02*
X188003619Y-142578922D01*
X188003619Y-142578922D02*
X187908381Y-142531303D01*
X187479809Y-142912256D02*
X187384571Y-142959875D01*
X187384571Y-142959875D02*
X187194095Y-142959875D01*
X187194095Y-142959875D02*
X187098857Y-142912256D01*
X187098857Y-142912256D02*
X187051238Y-142817017D01*
X187051238Y-142817017D02*
X187051238Y-142769398D01*
X187051238Y-142769398D02*
X187098857Y-142674160D01*
X187098857Y-142674160D02*
X187194095Y-142626541D01*
X187194095Y-142626541D02*
X187336952Y-142626541D01*
X187336952Y-142626541D02*
X187432190Y-142578922D01*
X187432190Y-142578922D02*
X187479809Y-142483684D01*
X187479809Y-142483684D02*
X187479809Y-142436065D01*
X187479809Y-142436065D02*
X187432190Y-142340827D01*
X187432190Y-142340827D02*
X187336952Y-142293208D01*
X187336952Y-142293208D02*
X187194095Y-142293208D01*
X187194095Y-142293208D02*
X187098857Y-142340827D01*
X185336952Y-142007494D02*
X185432190Y-141959875D01*
X185432190Y-141959875D02*
X185575047Y-141959875D01*
X185575047Y-141959875D02*
X185717904Y-142007494D01*
X185717904Y-142007494D02*
X185813142Y-142102732D01*
X185813142Y-142102732D02*
X185860761Y-142197970D01*
X185860761Y-142197970D02*
X185908380Y-142388446D01*
X185908380Y-142388446D02*
X185908380Y-142531303D01*
X185908380Y-142531303D02*
X185860761Y-142721779D01*
X185860761Y-142721779D02*
X185813142Y-142817017D01*
X185813142Y-142817017D02*
X185717904Y-142912256D01*
X185717904Y-142912256D02*
X185575047Y-142959875D01*
X185575047Y-142959875D02*
X185479809Y-142959875D01*
X185479809Y-142959875D02*
X185336952Y-142912256D01*
X185336952Y-142912256D02*
X185289333Y-142864636D01*
X185289333Y-142864636D02*
X185289333Y-142531303D01*
X185289333Y-142531303D02*
X185479809Y-142531303D01*
X184432190Y-142959875D02*
X184432190Y-142436065D01*
X184432190Y-142436065D02*
X184479809Y-142340827D01*
X184479809Y-142340827D02*
X184575047Y-142293208D01*
X184575047Y-142293208D02*
X184765523Y-142293208D01*
X184765523Y-142293208D02*
X184860761Y-142340827D01*
X184432190Y-142912256D02*
X184527428Y-142959875D01*
X184527428Y-142959875D02*
X184765523Y-142959875D01*
X184765523Y-142959875D02*
X184860761Y-142912256D01*
X184860761Y-142912256D02*
X184908380Y-142817017D01*
X184908380Y-142817017D02*
X184908380Y-142721779D01*
X184908380Y-142721779D02*
X184860761Y-142626541D01*
X184860761Y-142626541D02*
X184765523Y-142578922D01*
X184765523Y-142578922D02*
X184527428Y-142578922D01*
X184527428Y-142578922D02*
X184432190Y-142531303D01*
X183955999Y-142959875D02*
X183955999Y-141959875D01*
X183955999Y-142340827D02*
X183860761Y-142293208D01*
X183860761Y-142293208D02*
X183670285Y-142293208D01*
X183670285Y-142293208D02*
X183575047Y-142340827D01*
X183575047Y-142340827D02*
X183527428Y-142388446D01*
X183527428Y-142388446D02*
X183479809Y-142483684D01*
X183479809Y-142483684D02*
X183479809Y-142769398D01*
X183479809Y-142769398D02*
X183527428Y-142864636D01*
X183527428Y-142864636D02*
X183575047Y-142912256D01*
X183575047Y-142912256D02*
X183670285Y-142959875D01*
X183670285Y-142959875D02*
X183860761Y-142959875D01*
X183860761Y-142959875D02*
X183955999Y-142912256D01*
X183051237Y-142959875D02*
X183051237Y-142293208D01*
X183051237Y-142483684D02*
X183003618Y-142388446D01*
X183003618Y-142388446D02*
X182955999Y-142340827D01*
X182955999Y-142340827D02*
X182860761Y-142293208D01*
X182860761Y-142293208D02*
X182765523Y-142293208D01*
X182432189Y-142959875D02*
X182432189Y-142293208D01*
X182432189Y-141959875D02*
X182479808Y-142007494D01*
X182479808Y-142007494D02*
X182432189Y-142055113D01*
X182432189Y-142055113D02*
X182384570Y-142007494D01*
X182384570Y-142007494D02*
X182432189Y-141959875D01*
X182432189Y-141959875D02*
X182432189Y-142055113D01*
X181575047Y-142912256D02*
X181670285Y-142959875D01*
X181670285Y-142959875D02*
X181860761Y-142959875D01*
X181860761Y-142959875D02*
X181955999Y-142912256D01*
X181955999Y-142912256D02*
X182003618Y-142817017D01*
X182003618Y-142817017D02*
X182003618Y-142436065D01*
X182003618Y-142436065D02*
X181955999Y-142340827D01*
X181955999Y-142340827D02*
X181860761Y-142293208D01*
X181860761Y-142293208D02*
X181670285Y-142293208D01*
X181670285Y-142293208D02*
X181575047Y-142340827D01*
X181575047Y-142340827D02*
X181527428Y-142436065D01*
X181527428Y-142436065D02*
X181527428Y-142531303D01*
X181527428Y-142531303D02*
X182003618Y-142626541D01*
X180955999Y-142959875D02*
X181051237Y-142912256D01*
X181051237Y-142912256D02*
X181098856Y-142817017D01*
X181098856Y-142817017D02*
X181098856Y-141959875D01*
X197289334Y-144569819D02*
X197622667Y-144093628D01*
X197860762Y-144569819D02*
X197860762Y-143569819D01*
X197860762Y-143569819D02*
X197479810Y-143569819D01*
X197479810Y-143569819D02*
X197384572Y-143617438D01*
X197384572Y-143617438D02*
X197336953Y-143665057D01*
X197336953Y-143665057D02*
X197289334Y-143760295D01*
X197289334Y-143760295D02*
X197289334Y-143903152D01*
X197289334Y-143903152D02*
X197336953Y-143998390D01*
X197336953Y-143998390D02*
X197384572Y-144046009D01*
X197384572Y-144046009D02*
X197479810Y-144093628D01*
X197479810Y-144093628D02*
X197860762Y-144093628D01*
X196479810Y-144522200D02*
X196575048Y-144569819D01*
X196575048Y-144569819D02*
X196765524Y-144569819D01*
X196765524Y-144569819D02*
X196860762Y-144522200D01*
X196860762Y-144522200D02*
X196908381Y-144426961D01*
X196908381Y-144426961D02*
X196908381Y-144046009D01*
X196908381Y-144046009D02*
X196860762Y-143950771D01*
X196860762Y-143950771D02*
X196765524Y-143903152D01*
X196765524Y-143903152D02*
X196575048Y-143903152D01*
X196575048Y-143903152D02*
X196479810Y-143950771D01*
X196479810Y-143950771D02*
X196432191Y-144046009D01*
X196432191Y-144046009D02*
X196432191Y-144141247D01*
X196432191Y-144141247D02*
X196908381Y-144236485D01*
X195575048Y-144522200D02*
X195670286Y-144569819D01*
X195670286Y-144569819D02*
X195860762Y-144569819D01*
X195860762Y-144569819D02*
X195956000Y-144522200D01*
X195956000Y-144522200D02*
X196003619Y-144474580D01*
X196003619Y-144474580D02*
X196051238Y-144379342D01*
X196051238Y-144379342D02*
X196051238Y-144093628D01*
X196051238Y-144093628D02*
X196003619Y-143998390D01*
X196003619Y-143998390D02*
X195956000Y-143950771D01*
X195956000Y-143950771D02*
X195860762Y-143903152D01*
X195860762Y-143903152D02*
X195670286Y-143903152D01*
X195670286Y-143903152D02*
X195575048Y-143950771D01*
X195146476Y-144569819D02*
X195146476Y-143569819D01*
X194717905Y-144569819D02*
X194717905Y-144046009D01*
X194717905Y-144046009D02*
X194765524Y-143950771D01*
X194765524Y-143950771D02*
X194860762Y-143903152D01*
X194860762Y-143903152D02*
X195003619Y-143903152D01*
X195003619Y-143903152D02*
X195098857Y-143950771D01*
X195098857Y-143950771D02*
X195146476Y-143998390D01*
X193860762Y-144522200D02*
X193956000Y-144569819D01*
X193956000Y-144569819D02*
X194146476Y-144569819D01*
X194146476Y-144569819D02*
X194241714Y-144522200D01*
X194241714Y-144522200D02*
X194289333Y-144426961D01*
X194289333Y-144426961D02*
X194289333Y-144046009D01*
X194289333Y-144046009D02*
X194241714Y-143950771D01*
X194241714Y-143950771D02*
X194146476Y-143903152D01*
X194146476Y-143903152D02*
X193956000Y-143903152D01*
X193956000Y-143903152D02*
X193860762Y-143950771D01*
X193860762Y-143950771D02*
X193813143Y-144046009D01*
X193813143Y-144046009D02*
X193813143Y-144141247D01*
X193813143Y-144141247D02*
X194289333Y-144236485D01*
X193432190Y-144522200D02*
X193336952Y-144569819D01*
X193336952Y-144569819D02*
X193146476Y-144569819D01*
X193146476Y-144569819D02*
X193051238Y-144522200D01*
X193051238Y-144522200D02*
X193003619Y-144426961D01*
X193003619Y-144426961D02*
X193003619Y-144379342D01*
X193003619Y-144379342D02*
X193051238Y-144284104D01*
X193051238Y-144284104D02*
X193146476Y-144236485D01*
X193146476Y-144236485D02*
X193289333Y-144236485D01*
X193289333Y-144236485D02*
X193384571Y-144188866D01*
X193384571Y-144188866D02*
X193432190Y-144093628D01*
X193432190Y-144093628D02*
X193432190Y-144046009D01*
X193432190Y-144046009D02*
X193384571Y-143950771D01*
X193384571Y-143950771D02*
X193289333Y-143903152D01*
X193289333Y-143903152D02*
X193146476Y-143903152D01*
X193146476Y-143903152D02*
X193051238Y-143950771D01*
X192146476Y-144569819D02*
X192146476Y-144046009D01*
X192146476Y-144046009D02*
X192194095Y-143950771D01*
X192194095Y-143950771D02*
X192289333Y-143903152D01*
X192289333Y-143903152D02*
X192479809Y-143903152D01*
X192479809Y-143903152D02*
X192575047Y-143950771D01*
X192146476Y-144522200D02*
X192241714Y-144569819D01*
X192241714Y-144569819D02*
X192479809Y-144569819D01*
X192479809Y-144569819D02*
X192575047Y-144522200D01*
X192575047Y-144522200D02*
X192622666Y-144426961D01*
X192622666Y-144426961D02*
X192622666Y-144331723D01*
X192622666Y-144331723D02*
X192575047Y-144236485D01*
X192575047Y-144236485D02*
X192479809Y-144188866D01*
X192479809Y-144188866D02*
X192241714Y-144188866D01*
X192241714Y-144188866D02*
X192146476Y-144141247D01*
X191670285Y-143903152D02*
X191670285Y-144569819D01*
X191670285Y-143998390D02*
X191622666Y-143950771D01*
X191622666Y-143950771D02*
X191527428Y-143903152D01*
X191527428Y-143903152D02*
X191384571Y-143903152D01*
X191384571Y-143903152D02*
X191289333Y-143950771D01*
X191289333Y-143950771D02*
X191241714Y-144046009D01*
X191241714Y-144046009D02*
X191241714Y-144569819D01*
X189432190Y-144569819D02*
X189765523Y-144093628D01*
X190003618Y-144569819D02*
X190003618Y-143569819D01*
X190003618Y-143569819D02*
X189622666Y-143569819D01*
X189622666Y-143569819D02*
X189527428Y-143617438D01*
X189527428Y-143617438D02*
X189479809Y-143665057D01*
X189479809Y-143665057D02*
X189432190Y-143760295D01*
X189432190Y-143760295D02*
X189432190Y-143903152D01*
X189432190Y-143903152D02*
X189479809Y-143998390D01*
X189479809Y-143998390D02*
X189527428Y-144046009D01*
X189527428Y-144046009D02*
X189622666Y-144093628D01*
X189622666Y-144093628D02*
X190003618Y-144093628D01*
X188575047Y-144569819D02*
X188575047Y-144046009D01*
X188575047Y-144046009D02*
X188622666Y-143950771D01*
X188622666Y-143950771D02*
X188717904Y-143903152D01*
X188717904Y-143903152D02*
X188908380Y-143903152D01*
X188908380Y-143903152D02*
X189003618Y-143950771D01*
X188575047Y-144522200D02*
X188670285Y-144569819D01*
X188670285Y-144569819D02*
X188908380Y-144569819D01*
X188908380Y-144569819D02*
X189003618Y-144522200D01*
X189003618Y-144522200D02*
X189051237Y-144426961D01*
X189051237Y-144426961D02*
X189051237Y-144331723D01*
X189051237Y-144331723D02*
X189003618Y-144236485D01*
X189003618Y-144236485D02*
X188908380Y-144188866D01*
X188908380Y-144188866D02*
X188670285Y-144188866D01*
X188670285Y-144188866D02*
X188575047Y-144141247D01*
X188098856Y-144569819D02*
X188098856Y-143903152D01*
X188098856Y-144093628D02*
X188051237Y-143998390D01*
X188051237Y-143998390D02*
X188003618Y-143950771D01*
X188003618Y-143950771D02*
X187908380Y-143903152D01*
X187908380Y-143903152D02*
X187813142Y-143903152D01*
X187098856Y-144522200D02*
X187194094Y-144569819D01*
X187194094Y-144569819D02*
X187384570Y-144569819D01*
X187384570Y-144569819D02*
X187479808Y-144522200D01*
X187479808Y-144522200D02*
X187527427Y-144426961D01*
X187527427Y-144426961D02*
X187527427Y-144046009D01*
X187527427Y-144046009D02*
X187479808Y-143950771D01*
X187479808Y-143950771D02*
X187384570Y-143903152D01*
X187384570Y-143903152D02*
X187194094Y-143903152D01*
X187194094Y-143903152D02*
X187098856Y-143950771D01*
X187098856Y-143950771D02*
X187051237Y-144046009D01*
X187051237Y-144046009D02*
X187051237Y-144141247D01*
X187051237Y-144141247D02*
X187527427Y-144236485D01*
X186670284Y-144522200D02*
X186575046Y-144569819D01*
X186575046Y-144569819D02*
X186384570Y-144569819D01*
X186384570Y-144569819D02*
X186289332Y-144522200D01*
X186289332Y-144522200D02*
X186241713Y-144426961D01*
X186241713Y-144426961D02*
X186241713Y-144379342D01*
X186241713Y-144379342D02*
X186289332Y-144284104D01*
X186289332Y-144284104D02*
X186384570Y-144236485D01*
X186384570Y-144236485D02*
X186527427Y-144236485D01*
X186527427Y-144236485D02*
X186622665Y-144188866D01*
X186622665Y-144188866D02*
X186670284Y-144093628D01*
X186670284Y-144093628D02*
X186670284Y-144046009D01*
X186670284Y-144046009D02*
X186622665Y-143950771D01*
X186622665Y-143950771D02*
X186527427Y-143903152D01*
X186527427Y-143903152D02*
X186384570Y-143903152D01*
X186384570Y-143903152D02*
X186289332Y-143950771D01*
M02*
