%TF.GenerationSoftware,KiCad,Pcbnew,10.0.0*%
%TF.CreationDate,2026-05-12T14:41:54+03:00*%
%TF.ProjectId,Buck Boost,4275636b-2042-46f6-9f73-742e6b696361,rev?*%
%TF.SameCoordinates,Original*%
%TF.FileFunction,Soldermask,Bot*%
%TF.FilePolarity,Negative*%
%FSLAX46Y46*%
G04 Gerber Fmt 4.6, Leading zero omitted, Abs format (unit mm)*
G04 Created by KiCad (PCBNEW 10.0.0) date 2026-05-12 14:41:54*
%MOMM*%
%LPD*%
G01*
G04 APERTURE LIST*
G04 Aperture macros list*
%AMRoundRect*
0 Rectangle with rounded corners*
0 $1 Rounding radius*
0 $2 $3 $4 $5 $6 $7 $8 $9 X,Y pos of 4 corners*
0 Add a 4 corners polygon primitive as box body*
4,1,4,$2,$3,$4,$5,$6,$7,$8,$9,$2,$3,0*
0 Add four circle primitives for the rounded corners*
1,1,$1+$1,$2,$3*
1,1,$1+$1,$4,$5*
1,1,$1+$1,$6,$7*
1,1,$1+$1,$8,$9*
0 Add four rect primitives between the rounded corners*
20,1,$1+$1,$2,$3,$4,$5,0*
20,1,$1+$1,$4,$5,$6,$7,0*
20,1,$1+$1,$6,$7,$8,$9,0*
20,1,$1+$1,$8,$9,$2,$3,0*%
G04 Aperture macros list end*
%ADD10C,3.000000*%
%ADD11RoundRect,0.250001X1.149999X-1.149999X1.149999X1.149999X-1.149999X1.149999X-1.149999X-1.149999X0*%
%ADD12C,2.800000*%
%ADD13RoundRect,0.250000X0.550000X-0.550000X0.550000X0.550000X-0.550000X0.550000X-0.550000X-0.550000X0*%
%ADD14C,1.600000*%
%ADD15C,1.400000*%
%ADD16C,2.540000*%
%ADD17R,1.800000X1.800000*%
%ADD18C,1.800000*%
%ADD19R,2.000000X2.000000*%
%ADD20C,2.000000*%
%ADD21RoundRect,0.250000X0.550000X0.550000X-0.550000X0.550000X-0.550000X-0.550000X0.550000X-0.550000X0*%
%ADD22RoundRect,0.250001X-0.949999X0.949999X-0.949999X-0.949999X0.949999X-0.949999X0.949999X0.949999X0*%
%ADD23C,2.400000*%
%ADD24RoundRect,0.250001X-1.149999X-1.149999X1.149999X-1.149999X1.149999X1.149999X-1.149999X1.149999X0*%
%ADD25RoundRect,0.250001X-0.499999X-0.499999X0.499999X-0.499999X0.499999X0.499999X-0.499999X0.499999X0*%
%ADD26C,1.500000*%
%ADD27R,2.000000X1.905000*%
%ADD28O,2.000000X1.905000*%
%ADD29RoundRect,0.170000X0.680000X-0.680000X0.680000X0.680000X-0.680000X0.680000X-0.680000X-0.680000X0*%
%ADD30C,1.700000*%
%ADD31RoundRect,0.250001X0.949999X0.949999X-0.949999X0.949999X-0.949999X-0.949999X0.949999X-0.949999X0*%
%ADD32RoundRect,0.250001X1.149999X1.149999X-1.149999X1.149999X-1.149999X-1.149999X1.149999X-1.149999X0*%
%ADD33R,1.600000X1.600000*%
%ADD34O,1.600000X1.600000*%
G04 APERTURE END LIST*
D10*
%TO.C,J5*%
X174400000Y-144400000D03*
%TD*%
%TO.C,J6*%
X162800000Y-145000000D03*
%TD*%
%TO.C,D9*%
X77800000Y-109500000D03*
%TD*%
%TO.C,D10*%
X71000000Y-109900000D03*
%TD*%
%TO.C,-Vin*%
X72800000Y-97400000D03*
%TD*%
%TO.C,+Vin*%
X68250000Y-82250000D03*
%TD*%
D11*
%TO.C,J2*%
X65967500Y-75250000D03*
D12*
X65967500Y-70250000D03*
%TD*%
D13*
%TO.C,U1*%
X101357500Y-106137500D03*
D14*
X103897500Y-106137500D03*
X106437500Y-106137500D03*
X108977500Y-106137500D03*
X108977500Y-98517500D03*
X106437500Y-98517500D03*
X103897500Y-98517500D03*
X101357500Y-98517500D03*
%TD*%
D15*
%TO.C,R11*%
X166690000Y-90000000D03*
X174310000Y-90000000D03*
%TD*%
D14*
%TO.C,C6*%
X96667500Y-66832500D03*
X94167500Y-66832500D03*
%TD*%
D16*
%TO.C,HS2*%
X142487500Y-129500000D03*
X142487500Y-106000000D03*
%TD*%
D17*
%TO.C,LED5*%
X77127500Y-139832500D03*
D18*
X79667500Y-139832500D03*
%TD*%
D15*
%TO.C,R14*%
X161500000Y-120380000D03*
X161500000Y-128000000D03*
%TD*%
%TO.C,R8*%
X148000000Y-103810000D03*
X148000000Y-96190000D03*
%TD*%
D11*
%TO.C,J1*%
X65967500Y-92750000D03*
D12*
X65967500Y-87750000D03*
%TD*%
D16*
%TO.C,HS4*%
X187262500Y-107500000D03*
X187262500Y-131000000D03*
%TD*%
D15*
%TO.C,R9*%
X158810000Y-96500000D03*
X151190000Y-96500000D03*
%TD*%
D19*
%TO.C,D3*%
X147937500Y-120040000D03*
D20*
X147937500Y-114960000D03*
%TD*%
D21*
%TO.C,C5*%
X96712388Y-62092500D03*
D14*
X94212388Y-62092500D03*
%TD*%
D15*
%TO.C,R2*%
X73857500Y-112832500D03*
X81477500Y-112832500D03*
%TD*%
D17*
%TO.C,LED2*%
X81467500Y-65607500D03*
D18*
X81467500Y-63067500D03*
%TD*%
D13*
%TO.C,C3*%
X101357500Y-91342612D03*
D14*
X101357500Y-88842612D03*
%TD*%
D21*
%TO.C,U4*%
X107477500Y-66642500D03*
D14*
X107477500Y-64102500D03*
X107477500Y-61562500D03*
X107477500Y-59022500D03*
X99857500Y-59022500D03*
X99857500Y-61562500D03*
X99857500Y-64102500D03*
X99857500Y-66642500D03*
%TD*%
D20*
%TO.C,Jos*%
X116300000Y-157500000D03*
X116300000Y-151000000D03*
X120800000Y-157500000D03*
X120800000Y-151000000D03*
%TD*%
%TO.C,Dreapta*%
X124850000Y-157500000D03*
X124850000Y-151000000D03*
X129350000Y-157500000D03*
X129350000Y-151000000D03*
%TD*%
D22*
%TO.C,C1*%
X84667500Y-93517285D03*
D23*
X84667500Y-98517285D03*
%TD*%
D24*
%TO.C,J4*%
X134025000Y-59025000D03*
D12*
X139025000Y-59025000D03*
%TD*%
D20*
%TO.C,Stanga*%
X99200000Y-157500000D03*
X99200000Y-151000000D03*
X103700000Y-157500000D03*
X103700000Y-151000000D03*
%TD*%
D15*
%TO.C,R10*%
X166690000Y-85500000D03*
X174310000Y-85500000D03*
%TD*%
D17*
%TO.C,LED6*%
X162225000Y-115500000D03*
D18*
X164765000Y-115500000D03*
%TD*%
D17*
%TO.C,LED1*%
X87437500Y-114332500D03*
D18*
X84897500Y-114332500D03*
%TD*%
D17*
%TO.C,LED3*%
X90897500Y-105332500D03*
D18*
X93437500Y-105332500D03*
%TD*%
D25*
%TO.C,U5*%
X91022500Y-59682500D03*
D26*
X91022500Y-62222500D03*
X91022500Y-67302500D03*
X91022500Y-72382500D03*
%TD*%
D15*
%TO.C,R4*%
X93667500Y-93022500D03*
X93667500Y-100642500D03*
%TD*%
D16*
%TO.C,HS3*%
X187262500Y-76500000D03*
X187262500Y-100000000D03*
%TD*%
D23*
%TO.C,L1*%
X165250000Y-55950000D03*
X165250000Y-67950000D03*
%TD*%
D16*
%TO.C,HS1*%
X142500000Y-99000000D03*
X142500000Y-75500000D03*
%TD*%
D27*
%TO.C,T2*%
X181842500Y-85460000D03*
D28*
X181842500Y-88000000D03*
X181842500Y-90540000D03*
%TD*%
D15*
%TO.C,R12*%
X167940000Y-115500000D03*
X175560000Y-115500000D03*
%TD*%
%TO.C,R6*%
X94357500Y-116332500D03*
X101977500Y-116332500D03*
%TD*%
D24*
%TO.C,J3*%
X74417500Y-147832500D03*
D12*
X79417500Y-147832500D03*
%TD*%
D19*
%TO.C,D4*%
X181770000Y-116460000D03*
D20*
X181770000Y-121540000D03*
%TD*%
D23*
%TO.C,K1*%
X79267500Y-83332500D03*
X83967500Y-83332500D03*
X88667500Y-83332500D03*
%TD*%
D29*
%TO.C,U2*%
X93667500Y-146642500D03*
D30*
X93667500Y-144102500D03*
X93667500Y-141562500D03*
X93667500Y-139022500D03*
%TD*%
D14*
%TO.C,C2*%
X94917500Y-150832500D03*
X92417500Y-150832500D03*
%TD*%
D15*
%TO.C,R3*%
X76467500Y-62832500D03*
X76467500Y-70452500D03*
%TD*%
D14*
%TO.C,C4*%
X109357500Y-91387500D03*
X109357500Y-88887500D03*
%TD*%
D31*
%TO.C,C7*%
X168815215Y-104000000D03*
D23*
X163815215Y-104000000D03*
%TD*%
D32*
%TO.C,J7*%
X169250000Y-154232500D03*
D12*
X164250000Y-154232500D03*
%TD*%
D20*
%TO.C,Sus*%
X107750000Y-157500000D03*
X107750000Y-151000000D03*
X112250000Y-157500000D03*
X112250000Y-151000000D03*
%TD*%
D15*
%TO.C,R13*%
X165690000Y-128500000D03*
X173310000Y-128500000D03*
%TD*%
D17*
%TO.C,LED4*%
X107937500Y-114332500D03*
D18*
X105397500Y-114332500D03*
%TD*%
D27*
%TO.C,T1*%
X148212500Y-90036495D03*
D28*
X148212500Y-87496495D03*
X148212500Y-84956495D03*
%TD*%
D15*
%TO.C,R1*%
X73857500Y-116332500D03*
X81477500Y-116332500D03*
%TD*%
D33*
%TO.C,U3*%
X110217500Y-119222500D03*
D34*
X107677500Y-119222500D03*
X105137500Y-119222500D03*
X102597500Y-119222500D03*
X100057500Y-119222500D03*
X97517500Y-119222500D03*
X94977500Y-119222500D03*
X92437500Y-119222500D03*
X89897500Y-119222500D03*
X87357500Y-119222500D03*
X84817500Y-119222500D03*
X82277500Y-119222500D03*
X79737500Y-119222500D03*
X77197500Y-119222500D03*
X74657500Y-119222500D03*
X74657500Y-134462500D03*
X77197500Y-134462500D03*
X79737500Y-134462500D03*
X82277500Y-134462500D03*
X84817500Y-134462500D03*
X87357500Y-134462500D03*
X89897500Y-134462500D03*
X92437500Y-134462500D03*
X94977500Y-134462500D03*
X97517500Y-134462500D03*
X100057500Y-134462500D03*
X102597500Y-134462500D03*
X105137500Y-134462500D03*
X107677500Y-134462500D03*
X110217500Y-134462500D03*
%TD*%
D15*
%TO.C,K2*%
X86417500Y-147832500D03*
X83877500Y-147832500D03*
%TD*%
%TO.C,R7*%
X89167500Y-147642500D03*
X89167500Y-140022500D03*
%TD*%
%TO.C,R5*%
X94357500Y-112832500D03*
X101977500Y-112832500D03*
%TD*%
M02*
