%TF.GenerationSoftware,KiCad,Pcbnew,10.0.0*%
%TF.CreationDate,2026-05-09T13:31:33+03:00*%
%TF.ProjectId,Buck Boost,4275636b-2042-46f6-9f73-742e6b696361,rev?*%
%TF.SameCoordinates,Original*%
%TF.FileFunction,Soldermask,Bot*%
%TF.FilePolarity,Negative*%
%FSLAX46Y46*%
G04 Gerber Fmt 4.6, Leading zero omitted, Abs format (unit mm)*
G04 Created by KiCad (PCBNEW 10.0.0) date 2026-05-09 13:31:33*
%MOMM*%
%LPD*%
G01*
G04 APERTURE LIST*
G04 Aperture macros list*
%AMRoundRect*
0 Rectangle with rounded corners*
0 $1 Rounding radius*
0 $2 $3 $4 $5 $6 $7 $8 $9 X,Y pos of 4 corners*
0 Add a 4 corners polygon primitive as box body*
4,1,4,$2,$3,$4,$5,$6,$7,$8,$9,$2,$3,0*
0 Add four circle primitives for the rounded corners*
1,1,$1+$1,$2,$3*
1,1,$1+$1,$4,$5*
1,1,$1+$1,$6,$7*
1,1,$1+$1,$8,$9*
0 Add four rect primitives between the rounded corners*
20,1,$1+$1,$2,$3,$4,$5,0*
20,1,$1+$1,$4,$5,$6,$7,0*
20,1,$1+$1,$6,$7,$8,$9,0*
20,1,$1+$1,$8,$9,$2,$3,0*%
G04 Aperture macros list end*
%ADD10C,3.000000*%
%ADD11RoundRect,0.250001X0.499999X-0.499999X0.499999X0.499999X-0.499999X0.499999X-0.499999X-0.499999X0*%
%ADD12C,1.500000*%
%ADD13RoundRect,0.102000X-0.817500X-0.817500X0.817500X-0.817500X0.817500X0.817500X-0.817500X0.817500X0*%
%ADD14C,1.839000*%
%ADD15R,1.600000X1.600000*%
%ADD16O,1.600000X1.600000*%
%ADD17C,1.400000*%
%ADD18RoundRect,0.170000X-0.680000X0.680000X-0.680000X-0.680000X0.680000X-0.680000X0.680000X0.680000X0*%
%ADD19C,1.700000*%
G04 APERTURE END LIST*
D10*
%TO.C,J1*%
X157010000Y-77590000D03*
X157010000Y-73590000D03*
%TD*%
%TO.C,J2*%
X155900000Y-37800000D03*
X155900000Y-41800000D03*
%TD*%
D11*
%TO.C,U5*%
X187600000Y-113300000D03*
D12*
X190140000Y-113300000D03*
X195220000Y-113300000D03*
X200300000Y-113300000D03*
%TD*%
D10*
%TO.C,J4*%
X157050000Y-85850000D03*
X157050000Y-81850000D03*
%TD*%
D13*
%TO.C,K1*%
X155210000Y-63390000D03*
D14*
X155210000Y-65930000D03*
X155210000Y-68470000D03*
X160290000Y-63390000D03*
X160290000Y-68470000D03*
%TD*%
D10*
%TO.C,J3*%
X238100000Y-75200000D03*
X238100000Y-79200000D03*
%TD*%
D15*
%TO.C,U2*%
X188240000Y-60040000D03*
D16*
X190780000Y-60040000D03*
X193320000Y-60040000D03*
X195860000Y-60040000D03*
X198400000Y-60040000D03*
X200940000Y-60040000D03*
X203480000Y-60040000D03*
X206020000Y-60040000D03*
X208560000Y-60040000D03*
X211100000Y-60040000D03*
X213640000Y-60040000D03*
X216180000Y-60040000D03*
X218720000Y-60040000D03*
X221260000Y-60040000D03*
X223800000Y-60040000D03*
X223800000Y-44800000D03*
X221260000Y-44800000D03*
X218720000Y-44800000D03*
X216180000Y-44800000D03*
X213640000Y-44800000D03*
X211100000Y-44800000D03*
X208560000Y-44800000D03*
X206020000Y-44800000D03*
X203480000Y-44800000D03*
X200940000Y-44800000D03*
X198400000Y-44800000D03*
X195860000Y-44800000D03*
X193320000Y-44800000D03*
X190780000Y-44800000D03*
X188240000Y-44800000D03*
%TD*%
D17*
%TO.C,K2*%
X181512500Y-49100000D03*
X178972500Y-49100000D03*
%TD*%
D18*
%TO.C,U4*%
X203600000Y-95700000D03*
D19*
X203600000Y-98240000D03*
X203600000Y-100780000D03*
X203600000Y-103320000D03*
%TD*%
M02*
