%TF.GenerationSoftware,KiCad,Pcbnew,10.0.0*%
%TF.CreationDate,2026-05-09T13:31:33+03:00*%
%TF.ProjectId,Buck Boost,4275636b-2042-46f6-9f73-742e6b696361,rev?*%
%TF.SameCoordinates,Original*%
%TF.FileFunction,Legend,Top*%
%TF.FilePolarity,Positive*%
%FSLAX46Y46*%
G04 Gerber Fmt 4.6, Leading zero omitted, Abs format (unit mm)*
G04 Created by KiCad (PCBNEW 10.0.0) date 2026-05-09 13:31:33*
%MOMM*%
%LPD*%
G01*
G04 APERTURE LIST*
%ADD10C,0.000000*%
%ADD11C,0.150000*%
%ADD12C,0.100000*%
%ADD13C,0.254000*%
%ADD14C,0.120000*%
%ADD15C,0.127000*%
%ADD16C,0.200000*%
G04 APERTURE END LIST*
D10*
G36*
X226168801Y-115800000D02*
G01*
X225883101Y-115800000D01*
X225883101Y-115017102D01*
X226168801Y-115017102D01*
X226168801Y-115800000D01*
G37*
G36*
X228344817Y-116624888D02*
G01*
X228245061Y-116624888D01*
X228245061Y-116127681D01*
X228344817Y-116127681D01*
X228344817Y-116624888D01*
G37*
G36*
X229767927Y-115800000D02*
G01*
X229482857Y-115800000D01*
X229482857Y-115017102D01*
X229767927Y-115017102D01*
X229767927Y-115800000D01*
G37*
G36*
X232004556Y-116449997D02*
G01*
X231801568Y-116449997D01*
X231801568Y-116371711D01*
X232004556Y-116371711D01*
X232004556Y-116449997D01*
G37*
G36*
X237785693Y-115800000D02*
G01*
X237500000Y-115800000D01*
X237500000Y-115017102D01*
X237785693Y-115017102D01*
X237785693Y-115800000D01*
G37*
G36*
X239237531Y-114932815D02*
G01*
X238925000Y-114932815D01*
X238925000Y-114831166D01*
X239237531Y-114831166D01*
X239237531Y-114932815D01*
G37*
G36*
X230427391Y-116535550D02*
G01*
X230593442Y-116535550D01*
X230593442Y-116624888D01*
X230327634Y-116624888D01*
X230327634Y-116127681D01*
X230427391Y-116127681D01*
X230427391Y-116535550D01*
G37*
G36*
X230514519Y-115273755D02*
G01*
X230357941Y-115273755D01*
X230357941Y-115799684D01*
X230076984Y-115799684D01*
X230076984Y-115273755D01*
X229920401Y-115273755D01*
X229920401Y-115017102D01*
X230514519Y-115017102D01*
X230514519Y-115273755D01*
G37*
G36*
X231972984Y-115273755D02*
G01*
X231816405Y-115273755D01*
X231816405Y-115799684D01*
X231535446Y-115799684D01*
X231535446Y-115273755D01*
X231378867Y-115273755D01*
X231378867Y-115017102D01*
X231972984Y-115017102D01*
X231972984Y-115273755D01*
G37*
G36*
X234727024Y-115273755D02*
G01*
X234570759Y-115273755D01*
X234570759Y-115799684D01*
X234289803Y-115799684D01*
X234289803Y-115273755D01*
X234132902Y-115273755D01*
X234132902Y-115017102D01*
X234727024Y-115017102D01*
X234727024Y-115273755D01*
G37*
G36*
X228896318Y-116493879D02*
G01*
X228896318Y-116127681D01*
X228997337Y-116127681D01*
X228997337Y-116624888D01*
X228885903Y-116624888D01*
X228658606Y-116261219D01*
X228658606Y-116624888D01*
X228558535Y-116624888D01*
X228558535Y-116127681D01*
X228673131Y-116127681D01*
X228896318Y-116493879D01*
G37*
G36*
X232552583Y-116493879D02*
G01*
X232552583Y-116127681D01*
X232653603Y-116127681D01*
X232653603Y-116624888D01*
X232542483Y-116624888D01*
X232314554Y-116261219D01*
X232314554Y-116624888D01*
X232214486Y-116624888D01*
X232214486Y-116127681D01*
X232329395Y-116127681D01*
X232552583Y-116493879D01*
G37*
G36*
X227737438Y-115229558D02*
G01*
X227489941Y-115229558D01*
X227489941Y-115305322D01*
X227714078Y-115305322D01*
X227714078Y-115505148D01*
X227489941Y-115505148D01*
X227489941Y-115587227D01*
X227743751Y-115587227D01*
X227743751Y-115800000D01*
X227213400Y-115800000D01*
X227213400Y-115017102D01*
X227737438Y-115017102D01*
X227737438Y-115229558D01*
G37*
G36*
X232644133Y-115229558D02*
G01*
X232396635Y-115229558D01*
X232396635Y-115305322D01*
X232620770Y-115305322D01*
X232620770Y-115505148D01*
X232396635Y-115505148D01*
X232396635Y-115587227D01*
X232650447Y-115587227D01*
X232650447Y-115800000D01*
X232120727Y-115800000D01*
X232120727Y-115017102D01*
X232644133Y-115017102D01*
X232644133Y-115229558D01*
G37*
G36*
X235398172Y-115229558D02*
G01*
X235150671Y-115229558D01*
X235150671Y-115305322D01*
X235374813Y-115305322D01*
X235374813Y-115505148D01*
X235150671Y-115505148D01*
X235150671Y-115587227D01*
X235405111Y-115587227D01*
X235405111Y-115800000D01*
X234874762Y-115800000D01*
X234874762Y-115017102D01*
X235398172Y-115017102D01*
X235398172Y-115229558D01*
G37*
G36*
X236308606Y-115799684D02*
G01*
X236027014Y-115799684D01*
X236027014Y-115524094D01*
X235854965Y-115524094D01*
X235854965Y-115800000D01*
X235574005Y-115800000D01*
X235574005Y-115017102D01*
X235855281Y-115016790D01*
X235855281Y-115277546D01*
X236027014Y-115277546D01*
X236027014Y-115016790D01*
X236308606Y-115016790D01*
X236308606Y-115799684D01*
G37*
G36*
X233123658Y-116128000D02*
G01*
X233351897Y-116625201D01*
X233242039Y-116625201D01*
X233183323Y-116496720D01*
X232990755Y-116496720D01*
X232930778Y-116624888D01*
X232820913Y-116624888D01*
X232919661Y-116407068D01*
X233028319Y-116407068D01*
X233143230Y-116407068D01*
X233085141Y-116257114D01*
X233028319Y-116407068D01*
X232919661Y-116407068D01*
X233046315Y-116127681D01*
X233123658Y-116128000D01*
G37*
G36*
X235698069Y-116128000D02*
G01*
X235926312Y-116625201D01*
X235816453Y-116625201D01*
X235757734Y-116496720D01*
X235565169Y-116496720D01*
X235505816Y-116624888D01*
X235395325Y-116624888D01*
X235493798Y-116407068D01*
X235602419Y-116407068D01*
X235717643Y-116407068D01*
X235659240Y-116257114D01*
X235602419Y-116407068D01*
X235493798Y-116407068D01*
X235620095Y-116127681D01*
X235698069Y-116128000D01*
G37*
G36*
X226653376Y-115300590D02*
G01*
X226661793Y-115330464D01*
X226669082Y-115357999D01*
X226675305Y-115383115D01*
X226680523Y-115405712D01*
X226682555Y-115416252D01*
X226684380Y-115426576D01*
X226686019Y-115436707D01*
X226687469Y-115446670D01*
X226688743Y-115456485D01*
X226689852Y-115466171D01*
X226690789Y-115475758D01*
X226691569Y-115485265D01*
X226696939Y-115485265D01*
X226698268Y-115475338D01*
X226699851Y-115465232D01*
X226701656Y-115454972D01*
X226703649Y-115444581D01*
X226708040Y-115423515D01*
X226712725Y-115402236D01*
X226718039Y-115379805D01*
X226723974Y-115356543D01*
X226730440Y-115332454D01*
X226737349Y-115307533D01*
X226824793Y-115017102D01*
X227122485Y-115017102D01*
X226825741Y-115800000D01*
X226563723Y-115800000D01*
X226265083Y-115017102D01*
X226570036Y-115017102D01*
X226653376Y-115300590D01*
G37*
G36*
X225677280Y-115799684D02*
G01*
X225399477Y-115799684D01*
X225158924Y-115394029D01*
X225160050Y-115400511D01*
X225161063Y-115407159D01*
X225161976Y-115413960D01*
X225162791Y-115420902D01*
X225163518Y-115427984D01*
X225164161Y-115435183D01*
X225165238Y-115449907D01*
X225166576Y-115481831D01*
X225167191Y-115499141D01*
X225167381Y-115508272D01*
X225167448Y-115517781D01*
X225167448Y-115800000D01*
X224895959Y-115800000D01*
X224895959Y-115017102D01*
X225171867Y-115017102D01*
X225414314Y-115426859D01*
X225413189Y-115420087D01*
X225412170Y-115413041D01*
X225411263Y-115405745D01*
X225410444Y-115398216D01*
X225409720Y-115390480D01*
X225409074Y-115382560D01*
X225407998Y-115366250D01*
X225406655Y-115328128D01*
X225406046Y-115305164D01*
X225405789Y-115280068D01*
X225405789Y-115016790D01*
X225677280Y-115016790D01*
X225677280Y-115799684D01*
G37*
G36*
X237294172Y-115799684D02*
G01*
X237016368Y-115799684D01*
X236775822Y-115394029D01*
X236776941Y-115400511D01*
X236777960Y-115407159D01*
X236778870Y-115413960D01*
X236779685Y-115420902D01*
X236780413Y-115427984D01*
X236781061Y-115435183D01*
X236782132Y-115449907D01*
X236783472Y-115481831D01*
X236784086Y-115499141D01*
X236784275Y-115508272D01*
X236784344Y-115517781D01*
X236784344Y-115800000D01*
X236512854Y-115800000D01*
X236512854Y-115017102D01*
X236788763Y-115017102D01*
X237031207Y-115426859D01*
X237030084Y-115420087D01*
X237029067Y-115413041D01*
X237028155Y-115405745D01*
X237027342Y-115398216D01*
X237026613Y-115390480D01*
X237025969Y-115382560D01*
X237024894Y-115366250D01*
X237023550Y-115328128D01*
X237022940Y-115305164D01*
X237022689Y-115280068D01*
X237022689Y-115016790D01*
X237294172Y-115016790D01*
X237294172Y-115799684D01*
G37*
G36*
X231378867Y-115800000D02*
G01*
X231076753Y-115800000D01*
X231051502Y-115701193D01*
X230839044Y-115701193D01*
X230815370Y-115800000D01*
X230512944Y-115800000D01*
X230614557Y-115515570D01*
X230887662Y-115515570D01*
X231004465Y-115515570D01*
X230979842Y-115427182D01*
X230975532Y-115410635D01*
X230971615Y-115395086D01*
X230968076Y-115380530D01*
X230964926Y-115366960D01*
X230962156Y-115354366D01*
X230959776Y-115342740D01*
X230957775Y-115332078D01*
X230956165Y-115322371D01*
X230954425Y-115313526D01*
X230952976Y-115304751D01*
X230951762Y-115296070D01*
X230950758Y-115287486D01*
X230949917Y-115279027D01*
X230949195Y-115270697D01*
X230947956Y-115254498D01*
X230942587Y-115254498D01*
X230942902Y-115254814D01*
X230941813Y-115270883D01*
X230941123Y-115279220D01*
X230940300Y-115287725D01*
X230939336Y-115296378D01*
X230938199Y-115305159D01*
X230936871Y-115314035D01*
X230935331Y-115323000D01*
X230931308Y-115343011D01*
X230926134Y-115367044D01*
X230923013Y-115380565D01*
X230919480Y-115395097D01*
X230915499Y-115410635D01*
X230911025Y-115427182D01*
X230887662Y-115515570D01*
X230614557Y-115515570D01*
X230792635Y-115017102D01*
X231105482Y-115017102D01*
X231378867Y-115800000D01*
G37*
G36*
X233582034Y-115800000D02*
G01*
X233279606Y-115800000D01*
X233254350Y-115701193D01*
X233041898Y-115701193D01*
X233018217Y-115800000D01*
X232715791Y-115800000D01*
X232817296Y-115515570D01*
X233089248Y-115515570D01*
X233206050Y-115515570D01*
X233182060Y-115427182D01*
X233174013Y-115395086D01*
X233170514Y-115380530D01*
X233167378Y-115366960D01*
X233164598Y-115354366D01*
X233162171Y-115342740D01*
X233160098Y-115332078D01*
X233158387Y-115322371D01*
X233156829Y-115313526D01*
X233155466Y-115304751D01*
X233154291Y-115296070D01*
X233153294Y-115287486D01*
X233152452Y-115279027D01*
X233151765Y-115270697D01*
X233151224Y-115262516D01*
X233150810Y-115254498D01*
X233145444Y-115254498D01*
X233144809Y-115254814D01*
X233143572Y-115270883D01*
X233142866Y-115279220D01*
X233142046Y-115287725D01*
X233141080Y-115296378D01*
X233139925Y-115305159D01*
X233138549Y-115314035D01*
X233136917Y-115323000D01*
X233133030Y-115343011D01*
X233127840Y-115367044D01*
X233124684Y-115380565D01*
X233121112Y-115395097D01*
X233117098Y-115410635D01*
X233112607Y-115427182D01*
X233089248Y-115515570D01*
X232817296Y-115515570D01*
X232995177Y-115017102D01*
X233308333Y-115017102D01*
X233582034Y-115800000D01*
G37*
G36*
X239511545Y-115800000D02*
G01*
X239209436Y-115800000D01*
X239184177Y-115701193D01*
X238972037Y-115701193D01*
X238948361Y-115800000D01*
X238645936Y-115800000D01*
X238747322Y-115515570D01*
X239019710Y-115515570D01*
X239136515Y-115515570D01*
X239112204Y-115427182D01*
X239107898Y-115410635D01*
X239103980Y-115395086D01*
X239100442Y-115380530D01*
X239097288Y-115366960D01*
X239094519Y-115354366D01*
X239092136Y-115342740D01*
X239090140Y-115332078D01*
X239088528Y-115322371D01*
X239086881Y-115313526D01*
X239085474Y-115304751D01*
X239084282Y-115296070D01*
X239083281Y-115287486D01*
X239082438Y-115279027D01*
X239081732Y-115270697D01*
X239080639Y-115254498D01*
X239075273Y-115254498D01*
X239075430Y-115254657D01*
X239075582Y-115254814D01*
X239074479Y-115270883D01*
X239073763Y-115279220D01*
X239072901Y-115287725D01*
X239071862Y-115296378D01*
X239070614Y-115305159D01*
X239069126Y-115314035D01*
X239067374Y-115323000D01*
X239063488Y-115343011D01*
X239058299Y-115367044D01*
X239055145Y-115380565D01*
X239051572Y-115395097D01*
X239047556Y-115410635D01*
X239043067Y-115427182D01*
X239019710Y-115515570D01*
X238747322Y-115515570D01*
X238925000Y-115017102D01*
X239237844Y-115017102D01*
X239511545Y-115800000D01*
G37*
G36*
X233463652Y-112899173D02*
G01*
X233461756Y-113005533D01*
X233455939Y-113108294D01*
X233445992Y-113207574D01*
X233431712Y-113303503D01*
X233412899Y-113396192D01*
X233389352Y-113485768D01*
X233360865Y-113572353D01*
X233327234Y-113656064D01*
X233288257Y-113737032D01*
X233266705Y-113776520D01*
X233243737Y-113815371D01*
X233219327Y-113853590D01*
X233193459Y-113891203D01*
X233166098Y-113928219D01*
X233137229Y-113964651D01*
X233106814Y-114000524D01*
X233074837Y-114035844D01*
X233006091Y-114104886D01*
X232930780Y-114171914D01*
X232848697Y-114237047D01*
X232817438Y-114259446D01*
X232784744Y-114281366D01*
X232750944Y-114302698D01*
X232716384Y-114323344D01*
X232681391Y-114343211D01*
X232646308Y-114362190D01*
X232611467Y-114380186D01*
X232577209Y-114397099D01*
X232577209Y-112344200D01*
X232577457Y-112334160D01*
X232578205Y-112324411D01*
X232579439Y-112314945D01*
X232581150Y-112305775D01*
X232583328Y-112296895D01*
X232585968Y-112288313D01*
X232589053Y-112280029D01*
X232592579Y-112272043D01*
X232596545Y-112264361D01*
X232600923Y-112256977D01*
X232605722Y-112249901D01*
X232610914Y-112243140D01*
X232616514Y-112236680D01*
X232622490Y-112230532D01*
X232628846Y-112224699D01*
X232635568Y-112219186D01*
X232642651Y-112213991D01*
X232650078Y-112209112D01*
X232657847Y-112204557D01*
X232665951Y-112200326D01*
X232674366Y-112196424D01*
X232683101Y-112192845D01*
X232701463Y-112186691D01*
X232720962Y-112181875D01*
X232741530Y-112178411D01*
X232763088Y-112176323D01*
X232785555Y-112175621D01*
X233463652Y-112175621D01*
X233463652Y-112899173D01*
G37*
G36*
X230609840Y-112175480D02*
G01*
X230620967Y-112176004D01*
X230631865Y-112176872D01*
X230642522Y-112178082D01*
X230652933Y-112179636D01*
X230663089Y-112181530D01*
X230672974Y-112183763D01*
X230682589Y-112186329D01*
X230691918Y-112189232D01*
X230700950Y-112192468D01*
X230709684Y-112196034D01*
X230718110Y-112199928D01*
X230726204Y-112204149D01*
X230733974Y-112208695D01*
X230741402Y-112213561D01*
X230748483Y-112218751D01*
X230755206Y-112224263D01*
X230761559Y-112230086D01*
X230767542Y-112236226D01*
X230773135Y-112242684D01*
X230778333Y-112249446D01*
X230783126Y-112256522D01*
X230787510Y-112263905D01*
X230791470Y-112271595D01*
X230794996Y-112279589D01*
X230798085Y-112287882D01*
X230800722Y-112296478D01*
X230802906Y-112305368D01*
X230804612Y-112314559D01*
X230805847Y-112324042D01*
X230806593Y-112333817D01*
X230806846Y-112343881D01*
X230806846Y-114396780D01*
X230772394Y-114380053D01*
X230737442Y-114362144D01*
X230702333Y-114343188D01*
X230667389Y-114323304D01*
X230632954Y-114302628D01*
X230599352Y-114281272D01*
X230566920Y-114259371D01*
X230535988Y-114237047D01*
X230453794Y-114171921D01*
X230378386Y-114104913D01*
X230309550Y-114035894D01*
X230247088Y-113964743D01*
X230190799Y-113891331D01*
X230140471Y-113815540D01*
X230095907Y-113737235D01*
X230056896Y-113656303D01*
X230023239Y-113572611D01*
X229994732Y-113486043D01*
X229971171Y-113396471D01*
X229952347Y-113303769D01*
X229938069Y-113207811D01*
X229928120Y-113108476D01*
X229922298Y-113005635D01*
X229920401Y-112899173D01*
X229920401Y-112175621D01*
X230598491Y-112175305D01*
X230609840Y-112175480D01*
G37*
G36*
X233463652Y-111980213D02*
G01*
X232611304Y-111980213D01*
X232595649Y-111980894D01*
X232580649Y-111982433D01*
X232566293Y-111984788D01*
X232552562Y-111987932D01*
X232539457Y-111991813D01*
X232526963Y-111996396D01*
X232515071Y-112001642D01*
X232503771Y-112007506D01*
X232493050Y-112013960D01*
X232482901Y-112020956D01*
X232473306Y-112028460D01*
X232464271Y-112036425D01*
X232455771Y-112044817D01*
X232447803Y-112053596D01*
X232440352Y-112062722D01*
X232433414Y-112072156D01*
X232426970Y-112081858D01*
X232421019Y-112091788D01*
X232410544Y-112112177D01*
X232401904Y-112133007D01*
X232395016Y-112153970D01*
X232389802Y-112174736D01*
X232386175Y-112195003D01*
X232384062Y-112214446D01*
X232383375Y-112232760D01*
X232383375Y-114479177D01*
X232348326Y-114493471D01*
X232312909Y-114506997D01*
X232277136Y-114519738D01*
X232241018Y-114531686D01*
X232204564Y-114542836D01*
X232167786Y-114553168D01*
X232130695Y-114562678D01*
X232093298Y-114571353D01*
X232055616Y-114579192D01*
X232017646Y-114586170D01*
X231979408Y-114592286D01*
X231940907Y-114597529D01*
X231902161Y-114601887D01*
X231863170Y-114605353D01*
X231823953Y-114607907D01*
X231784525Y-114609550D01*
X231784525Y-111967898D01*
X231785165Y-111947784D01*
X231785973Y-111938342D01*
X231787108Y-111929302D01*
X231788572Y-111920668D01*
X231790367Y-111912419D01*
X231792501Y-111904561D01*
X231794964Y-111897078D01*
X231797771Y-111889974D01*
X231800917Y-111883234D01*
X231804408Y-111876860D01*
X231808246Y-111870846D01*
X231812429Y-111865181D01*
X231816963Y-111859856D01*
X231821854Y-111854879D01*
X231827100Y-111850227D01*
X231832700Y-111845908D01*
X231838667Y-111841906D01*
X231844990Y-111838223D01*
X231851682Y-111834851D01*
X231858740Y-111831779D01*
X231866170Y-111829010D01*
X231873969Y-111826531D01*
X231882143Y-111824334D01*
X231899626Y-111820782D01*
X231918636Y-111818298D01*
X231939189Y-111816844D01*
X231961306Y-111816372D01*
X233463652Y-111816053D01*
X233463652Y-111980213D01*
G37*
G36*
X231444609Y-111816844D02*
G01*
X231465222Y-111818297D01*
X231474949Y-111819403D01*
X231484287Y-111820773D01*
X231493248Y-111822414D01*
X231501830Y-111824324D01*
X231510027Y-111826514D01*
X231517850Y-111828990D01*
X231525310Y-111831756D01*
X231532393Y-111834821D01*
X231539110Y-111838183D01*
X231545456Y-111841857D01*
X231551446Y-111845846D01*
X231557070Y-111850148D01*
X231562336Y-111854785D01*
X231567251Y-111859745D01*
X231571803Y-111865048D01*
X231576008Y-111870690D01*
X231579860Y-111876686D01*
X231583368Y-111883032D01*
X231586529Y-111889739D01*
X231589352Y-111896812D01*
X231591828Y-111904263D01*
X231593971Y-111912081D01*
X231595771Y-111920284D01*
X231597246Y-111928878D01*
X231598388Y-111937872D01*
X231599200Y-111947262D01*
X231599686Y-111957061D01*
X231599847Y-111967269D01*
X231599847Y-114609550D01*
X231560356Y-114607963D01*
X231521090Y-114605438D01*
X231482066Y-114602005D01*
X231443283Y-114597663D01*
X231404755Y-114592424D01*
X231366500Y-114586308D01*
X231328521Y-114579318D01*
X231290828Y-114571474D01*
X231253436Y-114562780D01*
X231216363Y-114553253D01*
X231179600Y-114542897D01*
X231143174Y-114531735D01*
X231107088Y-114519766D01*
X231071359Y-114507009D01*
X231035988Y-114493477D01*
X231000992Y-114479177D01*
X231000992Y-112233076D01*
X231000299Y-112214658D01*
X230998176Y-112195124D01*
X230994536Y-112174790D01*
X230989303Y-112153971D01*
X230982391Y-112132982D01*
X230973722Y-112112131D01*
X230968706Y-112101858D01*
X230963220Y-112091739D01*
X230957254Y-112081810D01*
X230950795Y-112072118D01*
X230943842Y-112062692D01*
X230936380Y-112053580D01*
X230928397Y-112044808D01*
X230919882Y-112036436D01*
X230910829Y-112028488D01*
X230901226Y-112021006D01*
X230891061Y-112014028D01*
X230880332Y-112007603D01*
X230869015Y-112001757D01*
X230857116Y-111996538D01*
X230844616Y-111991982D01*
X230831502Y-111988132D01*
X230817767Y-111985014D01*
X230803404Y-111982688D01*
X230788403Y-111981181D01*
X230772750Y-111980529D01*
X229920401Y-111980529D01*
X229920401Y-111816372D01*
X231422433Y-111816372D01*
X231444609Y-111816844D01*
G37*
G36*
X231589424Y-116498298D02*
G01*
X231589262Y-116505345D01*
X231588766Y-116512277D01*
X231587939Y-116519094D01*
X231586787Y-116525794D01*
X231585314Y-116532376D01*
X231583521Y-116538833D01*
X231581401Y-116545165D01*
X231578972Y-116551374D01*
X231576223Y-116557449D01*
X231573165Y-116563392D01*
X231569797Y-116569201D01*
X231566122Y-116574880D01*
X231562140Y-116580410D01*
X231557857Y-116585805D01*
X231553272Y-116591054D01*
X231548389Y-116596162D01*
X231543133Y-116601087D01*
X231537793Y-116605692D01*
X231532369Y-116609970D01*
X231526853Y-116613925D01*
X231521257Y-116617560D01*
X231515569Y-116620875D01*
X231509805Y-116623867D01*
X231503953Y-116626544D01*
X231498025Y-116628902D01*
X231492016Y-116630942D01*
X231485926Y-116632663D01*
X231479755Y-116634074D01*
X231473510Y-116635163D01*
X231467188Y-116635947D01*
X231460790Y-116636413D01*
X231454317Y-116636568D01*
X231445876Y-116636435D01*
X231437608Y-116636033D01*
X231429511Y-116635362D01*
X231421588Y-116634413D01*
X231413833Y-116633189D01*
X231406257Y-116631689D01*
X231398848Y-116629907D01*
X231391611Y-116627845D01*
X231384550Y-116625502D01*
X231377667Y-116622863D01*
X231370956Y-116619941D01*
X231364422Y-116616725D01*
X231358059Y-116613215D01*
X231351873Y-116609408D01*
X231345867Y-116605301D01*
X231340035Y-116600896D01*
X231334424Y-116596375D01*
X231329188Y-116591709D01*
X231324327Y-116586882D01*
X231319834Y-116581898D01*
X231315710Y-116576768D01*
X231311957Y-116571478D01*
X231308573Y-116566041D01*
X231305551Y-116560450D01*
X231302888Y-116554705D01*
X231300588Y-116548810D01*
X231298647Y-116542764D01*
X231297064Y-116536570D01*
X231295836Y-116530224D01*
X231294961Y-116523732D01*
X231294436Y-116517086D01*
X231294262Y-116510291D01*
X231393384Y-116510291D01*
X231393567Y-116512108D01*
X231393859Y-116513887D01*
X231394269Y-116515630D01*
X231394787Y-116517332D01*
X231395418Y-116518996D01*
X231396162Y-116520616D01*
X231397013Y-116522207D01*
X231397968Y-116523749D01*
X231399022Y-116525255D01*
X231400183Y-116526716D01*
X231401446Y-116528136D01*
X231402799Y-116529514D01*
X231404254Y-116530851D01*
X231405800Y-116532144D01*
X231407442Y-116533394D01*
X231409173Y-116534602D01*
X231411183Y-116535871D01*
X231413186Y-116537073D01*
X231415185Y-116538196D01*
X231417177Y-116539258D01*
X231419172Y-116540241D01*
X231421161Y-116541149D01*
X231423155Y-116541980D01*
X231425153Y-116542732D01*
X231427152Y-116543397D01*
X231429160Y-116543988D01*
X231431170Y-116544487D01*
X231433188Y-116544901D01*
X231435218Y-116545224D01*
X231437256Y-116545458D01*
X231439305Y-116545603D01*
X231441373Y-116545654D01*
X231444288Y-116545587D01*
X231447114Y-116545401D01*
X231449848Y-116545090D01*
X231452495Y-116544661D01*
X231455049Y-116544115D01*
X231457515Y-116543452D01*
X231459889Y-116542674D01*
X231462168Y-116541783D01*
X231464353Y-116540781D01*
X231466456Y-116539672D01*
X231468452Y-116538454D01*
X231470364Y-116537127D01*
X231472174Y-116535699D01*
X231473893Y-116534171D01*
X231475520Y-116532540D01*
X231477045Y-116530814D01*
X231478488Y-116528754D01*
X231479853Y-116526592D01*
X231481142Y-116524333D01*
X231482348Y-116521978D01*
X231483471Y-116519524D01*
X231484507Y-116516956D01*
X231485458Y-116514291D01*
X231486317Y-116511517D01*
X231487084Y-116508635D01*
X231487754Y-116505649D01*
X231488331Y-116502548D01*
X231488809Y-116499339D01*
X231489183Y-116496016D01*
X231489454Y-116492581D01*
X231489617Y-116489026D01*
X231489672Y-116485355D01*
X231489672Y-116127681D01*
X231589424Y-116127369D01*
X231589424Y-116498298D01*
G37*
G36*
X228285856Y-115017371D02*
G01*
X228304307Y-115018180D01*
X228322191Y-115019530D01*
X228339509Y-115021407D01*
X228356254Y-115023824D01*
X228372429Y-115026772D01*
X228388034Y-115030255D01*
X228403059Y-115034266D01*
X228417507Y-115038808D01*
X228431380Y-115043879D01*
X228444669Y-115049474D01*
X228457381Y-115055593D01*
X228469497Y-115062235D01*
X228481035Y-115069400D01*
X228491985Y-115077085D01*
X228502344Y-115085290D01*
X228512257Y-115093936D01*
X228521508Y-115103078D01*
X228530111Y-115112695D01*
X228538060Y-115122795D01*
X228545363Y-115133382D01*
X228552016Y-115144444D01*
X228558023Y-115155985D01*
X228563386Y-115168002D01*
X228568116Y-115180487D01*
X228572203Y-115193451D01*
X228575661Y-115206881D01*
X228578480Y-115220780D01*
X228580665Y-115235140D01*
X228582230Y-115249972D01*
X228583164Y-115265262D01*
X228583473Y-115281018D01*
X228583318Y-115291361D01*
X228582853Y-115301442D01*
X228582067Y-115311269D01*
X228580969Y-115320845D01*
X228579554Y-115330175D01*
X228577816Y-115339268D01*
X228575757Y-115348119D01*
X228573373Y-115356740D01*
X228570664Y-115365139D01*
X228567625Y-115373316D01*
X228564262Y-115381273D01*
X228560565Y-115389025D01*
X228556540Y-115396569D01*
X228552178Y-115403916D01*
X228547474Y-115411065D01*
X228542433Y-115418023D01*
X228537283Y-115424541D01*
X228531876Y-115430719D01*
X228526226Y-115436554D01*
X228520335Y-115442048D01*
X228514202Y-115447202D01*
X228507838Y-115452013D01*
X228501239Y-115456479D01*
X228494413Y-115460601D01*
X228487359Y-115464381D01*
X228480085Y-115467814D01*
X228472589Y-115470903D01*
X228464880Y-115473647D01*
X228456955Y-115476045D01*
X228448827Y-115478098D01*
X228440487Y-115479803D01*
X228431947Y-115481160D01*
X228641241Y-115800000D01*
X228326193Y-115800000D01*
X228189499Y-115541144D01*
X228189499Y-115800000D01*
X227913274Y-115800000D01*
X227913274Y-115371617D01*
X228188554Y-115371617D01*
X228232116Y-115371617D01*
X228236972Y-115371534D01*
X228241701Y-115371292D01*
X228246312Y-115370896D01*
X228250796Y-115370335D01*
X228255153Y-115369622D01*
X228259377Y-115368756D01*
X228263477Y-115367737D01*
X228267433Y-115366565D01*
X228271258Y-115365252D01*
X228274939Y-115363791D01*
X228278488Y-115362179D01*
X228281881Y-115360431D01*
X228285136Y-115358537D01*
X228288238Y-115356513D01*
X228291192Y-115354346D01*
X228293992Y-115352044D01*
X228296529Y-115349498D01*
X228298933Y-115346836D01*
X228301189Y-115344051D01*
X228303306Y-115341149D01*
X228305274Y-115338124D01*
X228307087Y-115334987D01*
X228308746Y-115331718D01*
X228310252Y-115328328D01*
X228311591Y-115324821D01*
X228312761Y-115321189D01*
X228313759Y-115317434D01*
X228314590Y-115313555D01*
X228315239Y-115309554D01*
X228315709Y-115305429D01*
X228315991Y-115301175D01*
X228316093Y-115296800D01*
X228315991Y-115292034D01*
X228315709Y-115287443D01*
X228315239Y-115283013D01*
X228314590Y-115278746D01*
X228313759Y-115274637D01*
X228312761Y-115270677D01*
X228311591Y-115266858D01*
X228310252Y-115263176D01*
X228308746Y-115259636D01*
X228307087Y-115256217D01*
X228305274Y-115252919D01*
X228303306Y-115249741D01*
X228301189Y-115246675D01*
X228298933Y-115243711D01*
X228296529Y-115240851D01*
X228293992Y-115238084D01*
X228291242Y-115235677D01*
X228288330Y-115233434D01*
X228285255Y-115231351D01*
X228282023Y-115229430D01*
X228278632Y-115227667D01*
X228275101Y-115226061D01*
X228271415Y-115224615D01*
X228267594Y-115223322D01*
X228263632Y-115222187D01*
X228259543Y-115221206D01*
X228255321Y-115220375D01*
X228250971Y-115219703D01*
X228246510Y-115219181D01*
X228241929Y-115218806D01*
X228237236Y-115218582D01*
X228232433Y-115218506D01*
X228189186Y-115218506D01*
X228188554Y-115371617D01*
X227913274Y-115371617D01*
X227913274Y-115017102D01*
X228266843Y-115017102D01*
X228285856Y-115017371D01*
G37*
G36*
X233672254Y-116127774D02*
G01*
X233681408Y-116128057D01*
X233690314Y-116128527D01*
X233698982Y-116129190D01*
X233707403Y-116130042D01*
X233715580Y-116131096D01*
X233723524Y-116132346D01*
X233731235Y-116133798D01*
X233738709Y-116135455D01*
X233745950Y-116137319D01*
X233752970Y-116139388D01*
X233759760Y-116141668D01*
X233766325Y-116144162D01*
X233772669Y-116146869D01*
X233778792Y-116149791D01*
X233784701Y-116152936D01*
X233790370Y-116155917D01*
X233795768Y-116158929D01*
X233800903Y-116161974D01*
X233805765Y-116165047D01*
X233810359Y-116168148D01*
X233814679Y-116171277D01*
X233818732Y-116174429D01*
X233822505Y-116177601D01*
X233826011Y-116180793D01*
X233829239Y-116184000D01*
X233832190Y-116187218D01*
X233834870Y-116190452D01*
X233837265Y-116193692D01*
X233839388Y-116196941D01*
X233841229Y-116200192D01*
X233842787Y-116203449D01*
X233845728Y-116210138D01*
X233848406Y-116216489D01*
X233850806Y-116222515D01*
X233852931Y-116228229D01*
X233854771Y-116233647D01*
X233856327Y-116238783D01*
X233857001Y-116241252D01*
X233857593Y-116243654D01*
X233858120Y-116245993D01*
X233858571Y-116248276D01*
X233859734Y-116257657D01*
X233860263Y-116262317D01*
X233860743Y-116266979D01*
X233861148Y-116271674D01*
X233861458Y-116276419D01*
X233861660Y-116281244D01*
X233861729Y-116286156D01*
X233860750Y-116294581D01*
X233859465Y-116302800D01*
X233857881Y-116310818D01*
X233855993Y-116318628D01*
X233853807Y-116326228D01*
X233851316Y-116333617D01*
X233848526Y-116340798D01*
X233845435Y-116347754D01*
X233842044Y-116354499D01*
X233838350Y-116361019D01*
X233834368Y-116367319D01*
X233830076Y-116373390D01*
X233825491Y-116379236D01*
X233820609Y-116384853D01*
X233815429Y-116390237D01*
X233809955Y-116395385D01*
X233804173Y-116400268D01*
X233798079Y-116404853D01*
X233791675Y-116409132D01*
X233784966Y-116413118D01*
X233777949Y-116416794D01*
X233770641Y-116420162D01*
X233763040Y-116423219D01*
X233755145Y-116425970D01*
X233746969Y-116428398D01*
X233738508Y-116430520D01*
X233729777Y-116432310D01*
X233720773Y-116433783D01*
X233711499Y-116434935D01*
X233701960Y-116435762D01*
X233692160Y-116436257D01*
X233682109Y-116436423D01*
X233615809Y-116436423D01*
X233615809Y-116624888D01*
X233516053Y-116624888D01*
X233516053Y-116216706D01*
X233615493Y-116216706D01*
X233616124Y-116346770D01*
X233667586Y-116346770D01*
X233673024Y-116346699D01*
X233678338Y-116346493D01*
X233683520Y-116346137D01*
X233688572Y-116345646D01*
X233693483Y-116345021D01*
X233698265Y-116344254D01*
X233702904Y-116343353D01*
X233707400Y-116342308D01*
X233711749Y-116341133D01*
X233715959Y-116339813D01*
X233720011Y-116338363D01*
X233723918Y-116336782D01*
X233727670Y-116335060D01*
X233731266Y-116333202D01*
X233734705Y-116331215D01*
X233737983Y-116329092D01*
X233740846Y-116326898D01*
X233743528Y-116324593D01*
X233746026Y-116322173D01*
X233748342Y-116319632D01*
X233750470Y-116316983D01*
X233752410Y-116314222D01*
X233754165Y-116311356D01*
X233755737Y-116308373D01*
X233757123Y-116305288D01*
X233758329Y-116302095D01*
X233759346Y-116298796D01*
X233760180Y-116295398D01*
X233760823Y-116291895D01*
X233761285Y-116288291D01*
X233761562Y-116284588D01*
X233761654Y-116280790D01*
X233761305Y-116273050D01*
X233760863Y-116269362D01*
X233760243Y-116265802D01*
X233759452Y-116262364D01*
X233758475Y-116259051D01*
X233757320Y-116255862D01*
X233755985Y-116252801D01*
X233754469Y-116249858D01*
X233752773Y-116247040D01*
X233750899Y-116244352D01*
X233748837Y-116241787D01*
X233746596Y-116239345D01*
X233744171Y-116237026D01*
X233741565Y-116234835D01*
X233738771Y-116232772D01*
X233735790Y-116230827D01*
X233732631Y-116229005D01*
X233729276Y-116227315D01*
X233725743Y-116225747D01*
X233718108Y-116222986D01*
X233709718Y-116220729D01*
X233700569Y-116218967D01*
X233690657Y-116217712D01*
X233679981Y-116216960D01*
X233668528Y-116216706D01*
X233615493Y-116216706D01*
X233516053Y-116216706D01*
X233516053Y-116127681D01*
X233662848Y-116127681D01*
X233672254Y-116127774D01*
G37*
G36*
X231123793Y-116463887D02*
G01*
X231123700Y-116469159D01*
X231123424Y-116474433D01*
X231122964Y-116479710D01*
X231122316Y-116484984D01*
X231121481Y-116490252D01*
X231120463Y-116495509D01*
X231119262Y-116500764D01*
X231117874Y-116505990D01*
X231116300Y-116511205D01*
X231114546Y-116516401D01*
X231112603Y-116521564D01*
X231110476Y-116526705D01*
X231108163Y-116531812D01*
X231105666Y-116536882D01*
X231102985Y-116541917D01*
X231100118Y-116546914D01*
X231097193Y-116552166D01*
X231094111Y-116557271D01*
X231090864Y-116562229D01*
X231087460Y-116567039D01*
X231083897Y-116571698D01*
X231080174Y-116576211D01*
X231076292Y-116580579D01*
X231072258Y-116584792D01*
X231068066Y-116588863D01*
X231063718Y-116592785D01*
X231059221Y-116596557D01*
X231054566Y-116600187D01*
X231049767Y-116603658D01*
X231044809Y-116606992D01*
X231039708Y-116610169D01*
X231034453Y-116613208D01*
X231029100Y-116616071D01*
X231023692Y-116618753D01*
X231018229Y-116621252D01*
X231012702Y-116623565D01*
X231007111Y-116625693D01*
X231001459Y-116627635D01*
X230995739Y-116629391D01*
X230989941Y-116630965D01*
X230984077Y-116632347D01*
X230978131Y-116633555D01*
X230972108Y-116634568D01*
X230966001Y-116635405D01*
X230959809Y-116636054D01*
X230953528Y-116636512D01*
X230947159Y-116636790D01*
X230940696Y-116636884D01*
X230936090Y-116636832D01*
X230931510Y-116636690D01*
X230926958Y-116636448D01*
X230922430Y-116636110D01*
X230917934Y-116635671D01*
X230913479Y-116635135D01*
X230909052Y-116634497D01*
X230904667Y-116633766D01*
X230900327Y-116632931D01*
X230896020Y-116631995D01*
X230891765Y-116630964D01*
X230887556Y-116629826D01*
X230883399Y-116628587D01*
X230879292Y-116627245D01*
X230875239Y-116625800D01*
X230871244Y-116624257D01*
X230867080Y-116622557D01*
X230862872Y-116620661D01*
X230858610Y-116618557D01*
X230854308Y-116616249D01*
X230849957Y-116613739D01*
X230845553Y-116611023D01*
X230841099Y-116608097D01*
X230836598Y-116604962D01*
X230832042Y-116601613D01*
X230827434Y-116598055D01*
X230822773Y-116594283D01*
X230818061Y-116590296D01*
X230813290Y-116586091D01*
X230808465Y-116581672D01*
X230803581Y-116577027D01*
X230798639Y-116572166D01*
X230793659Y-116567240D01*
X230789031Y-116562047D01*
X230784739Y-116556593D01*
X230780788Y-116550876D01*
X230777172Y-116544897D01*
X230773885Y-116538660D01*
X230770923Y-116532159D01*
X230768293Y-116525408D01*
X230765979Y-116518396D01*
X230763990Y-116511137D01*
X230762311Y-116503622D01*
X230760949Y-116495855D01*
X230759889Y-116487844D01*
X230759142Y-116479577D01*
X230758693Y-116471065D01*
X230758544Y-116462311D01*
X230758544Y-116127681D01*
X230857986Y-116128000D01*
X230857986Y-116462620D01*
X230858079Y-116467411D01*
X230858355Y-116472066D01*
X230858820Y-116476595D01*
X230859473Y-116480989D01*
X230860320Y-116485269D01*
X230861348Y-116489414D01*
X230862570Y-116493440D01*
X230863980Y-116497350D01*
X230865589Y-116501137D01*
X230867389Y-116504810D01*
X230869384Y-116508368D01*
X230871565Y-116511812D01*
X230873957Y-116515145D01*
X230876539Y-116518369D01*
X230879313Y-116521488D01*
X230882294Y-116524498D01*
X230885289Y-116527250D01*
X230888362Y-116529823D01*
X230891505Y-116532222D01*
X230894727Y-116534443D01*
X230898017Y-116536486D01*
X230901385Y-116538350D01*
X230904826Y-116540033D01*
X230908339Y-116541546D01*
X230911926Y-116542879D01*
X230915589Y-116544032D01*
X230919326Y-116545011D01*
X230923137Y-116545804D01*
X230927018Y-116546429D01*
X230930980Y-116546877D01*
X230935012Y-116547136D01*
X230939118Y-116547228D01*
X230941301Y-116547205D01*
X230943478Y-116547142D01*
X230945640Y-116547032D01*
X230947777Y-116546883D01*
X230949902Y-116546695D01*
X230951991Y-116546460D01*
X230954055Y-116546192D01*
X230956087Y-116545887D01*
X230958077Y-116545543D01*
X230960030Y-116545162D01*
X230961943Y-116544748D01*
X230963800Y-116544298D01*
X230965610Y-116543817D01*
X230967359Y-116543300D01*
X230969053Y-116542755D01*
X230970688Y-116542177D01*
X230972534Y-116541479D01*
X230974404Y-116540689D01*
X230976298Y-116539807D01*
X230978217Y-116538837D01*
X230980165Y-116537786D01*
X230982143Y-116536655D01*
X230986192Y-116534165D01*
X230990376Y-116531398D01*
X230994700Y-116528372D01*
X230999184Y-116525119D01*
X231003831Y-116521658D01*
X231006020Y-116519496D01*
X231008092Y-116517146D01*
X231010038Y-116514620D01*
X231011853Y-116511914D01*
X231013544Y-116509033D01*
X231015100Y-116505981D01*
X231016518Y-116502760D01*
X231017801Y-116499362D01*
X231018946Y-116495804D01*
X231019943Y-116492076D01*
X231020797Y-116488189D01*
X231021502Y-116484144D01*
X231022051Y-116479944D01*
X231022453Y-116475584D01*
X231022692Y-116471073D01*
X231022775Y-116466413D01*
X231022775Y-116127681D01*
X231123793Y-116127681D01*
X231123793Y-116463887D01*
G37*
G36*
X224255432Y-115017419D02*
G01*
X224255432Y-115444226D01*
X224255495Y-115453277D01*
X224255686Y-115461983D01*
X224256009Y-115470330D01*
X224256453Y-115478318D01*
X224257036Y-115485955D01*
X224257746Y-115493235D01*
X224258593Y-115500161D01*
X224259578Y-115506730D01*
X224260692Y-115512944D01*
X224261951Y-115518808D01*
X224263349Y-115524311D01*
X224264884Y-115529463D01*
X224266567Y-115534254D01*
X224268394Y-115538695D01*
X224270362Y-115542776D01*
X224272476Y-115546506D01*
X224274929Y-115549791D01*
X224277544Y-115552895D01*
X224280327Y-115555809D01*
X224283285Y-115558540D01*
X224286410Y-115561071D01*
X224289711Y-115563407D01*
X224293197Y-115565535D01*
X224296863Y-115567457D01*
X224300719Y-115569173D01*
X224304761Y-115570675D01*
X224308987Y-115571952D01*
X224313410Y-115573012D01*
X224318030Y-115573839D01*
X224322847Y-115574438D01*
X224327870Y-115574800D01*
X224333091Y-115574918D01*
X224338315Y-115574800D01*
X224340850Y-115574646D01*
X224343335Y-115574436D01*
X224345768Y-115574163D01*
X224348148Y-115573832D01*
X224350479Y-115573442D01*
X224352762Y-115572994D01*
X224354992Y-115572488D01*
X224357178Y-115571924D01*
X224359308Y-115571304D01*
X224361392Y-115570621D01*
X224363424Y-115569891D01*
X224365410Y-115569096D01*
X224367346Y-115568247D01*
X224369239Y-115567342D01*
X224371076Y-115566384D01*
X224372866Y-115565370D01*
X224374613Y-115564297D01*
X224376314Y-115563172D01*
X224377964Y-115561995D01*
X224379569Y-115560762D01*
X224381123Y-115559477D01*
X224382631Y-115558138D01*
X224384098Y-115556745D01*
X224385517Y-115555301D01*
X224386888Y-115553806D01*
X224388215Y-115552261D01*
X224389495Y-115550661D01*
X224390733Y-115549012D01*
X224391924Y-115547310D01*
X224393074Y-115545559D01*
X224395362Y-115541831D01*
X224397512Y-115537750D01*
X224399513Y-115533314D01*
X224401358Y-115528534D01*
X224403058Y-115523404D01*
X224404613Y-115517924D01*
X224406023Y-115512102D01*
X224407279Y-115505941D01*
X224408387Y-115499437D01*
X224409351Y-115492598D01*
X224410164Y-115485418D01*
X224410831Y-115477904D01*
X224411346Y-115470060D01*
X224411713Y-115461883D01*
X224412011Y-115444538D01*
X224412011Y-115017739D01*
X224692974Y-115017739D01*
X224692974Y-115442645D01*
X224692811Y-115462725D01*
X224692313Y-115481988D01*
X224691491Y-115500408D01*
X224690328Y-115517978D01*
X224688823Y-115534673D01*
X224686982Y-115550477D01*
X224684782Y-115565374D01*
X224682239Y-115579338D01*
X224679127Y-115592671D01*
X224677454Y-115599126D01*
X224675700Y-115605435D01*
X224673867Y-115611604D01*
X224671945Y-115617635D01*
X224669936Y-115623516D01*
X224667832Y-115629254D01*
X224665644Y-115634850D01*
X224663357Y-115640300D01*
X224660974Y-115645609D01*
X224658491Y-115650768D01*
X224655901Y-115655781D01*
X224653217Y-115660648D01*
X224650416Y-115665368D01*
X224647511Y-115669941D01*
X224641347Y-115678826D01*
X224634936Y-115687483D01*
X224628275Y-115695906D01*
X224621362Y-115704093D01*
X224614200Y-115712034D01*
X224606792Y-115719726D01*
X224599142Y-115727163D01*
X224591244Y-115734341D01*
X224583102Y-115741250D01*
X224574716Y-115747883D01*
X224566087Y-115754249D01*
X224557217Y-115760325D01*
X224548108Y-115766113D01*
X224538756Y-115771610D01*
X224529169Y-115776801D01*
X224519346Y-115781691D01*
X224509019Y-115786456D01*
X224498511Y-115790911D01*
X224487828Y-115795065D01*
X224476967Y-115798914D01*
X224465935Y-115802454D01*
X224454728Y-115805691D01*
X224443344Y-115808624D01*
X224431783Y-115811248D01*
X224420048Y-115813567D01*
X224408142Y-115815575D01*
X224396063Y-115817277D01*
X224383812Y-115818672D01*
X224371390Y-115819757D01*
X224358792Y-115820533D01*
X224346026Y-115821001D01*
X224333091Y-115821150D01*
X224320255Y-115821001D01*
X224307559Y-115820533D01*
X224295005Y-115819757D01*
X224282600Y-115818672D01*
X224270351Y-115817277D01*
X224258265Y-115815575D01*
X224246342Y-115813567D01*
X224234597Y-115811248D01*
X224223025Y-115808624D01*
X224211639Y-115805691D01*
X224200440Y-115802454D01*
X224189435Y-115798914D01*
X224178630Y-115795065D01*
X224168031Y-115790911D01*
X224157641Y-115786456D01*
X224147468Y-115781691D01*
X224137588Y-115776753D01*
X224127953Y-115771516D01*
X224118559Y-115765992D01*
X224109414Y-115760185D01*
X224100516Y-115754098D01*
X224091859Y-115747733D01*
X224083454Y-115741094D01*
X224075294Y-115734181D01*
X224067387Y-115727006D01*
X224059721Y-115719566D01*
X224052308Y-115711869D01*
X224045147Y-115703914D01*
X224038225Y-115695713D01*
X224031564Y-115687259D01*
X224025148Y-115678562D01*
X224018984Y-115669625D01*
X224016190Y-115665005D01*
X224013493Y-115660257D01*
X224010892Y-115655379D01*
X224008383Y-115650377D01*
X224005972Y-115645244D01*
X224003650Y-115639976D01*
X224001426Y-115634587D01*
X223999291Y-115629063D01*
X223997252Y-115623397D01*
X223995306Y-115617604D01*
X223991680Y-115605608D01*
X223988422Y-115593064D01*
X223985519Y-115579968D01*
X223983133Y-115566185D01*
X223980949Y-115551354D01*
X223979008Y-115535516D01*
X223977355Y-115518689D01*
X223976003Y-115500897D01*
X223975002Y-115482171D01*
X223974373Y-115462536D01*
X223974157Y-115442018D01*
X223974157Y-115017102D01*
X224255432Y-115017419D01*
G37*
G36*
X227736595Y-116127803D02*
G01*
X227753228Y-116128175D01*
X227769338Y-116128818D01*
X227784911Y-116129737D01*
X227799936Y-116130949D01*
X227814401Y-116132477D01*
X227828299Y-116134326D01*
X227841616Y-116136521D01*
X227854386Y-116138919D01*
X227867109Y-116141849D01*
X227879789Y-116145313D01*
X227892397Y-116149307D01*
X227904945Y-116153835D01*
X227917395Y-116158898D01*
X227929756Y-116164489D01*
X227942005Y-116170616D01*
X227947942Y-116174073D01*
X227953676Y-116177563D01*
X227959218Y-116181099D01*
X227964552Y-116184690D01*
X227969692Y-116188333D01*
X227974635Y-116192031D01*
X227979371Y-116195791D01*
X227983912Y-116199618D01*
X227988249Y-116203519D01*
X227992388Y-116207491D01*
X227996332Y-116211541D01*
X228000070Y-116215673D01*
X228003611Y-116219896D01*
X228006950Y-116224209D01*
X228010091Y-116228616D01*
X228013032Y-116233121D01*
X228018745Y-116242129D01*
X228024032Y-116250924D01*
X228028890Y-116259486D01*
X228033314Y-116267811D01*
X228037295Y-116275878D01*
X228040822Y-116283684D01*
X228043892Y-116291223D01*
X228045251Y-116294882D01*
X228046496Y-116298472D01*
X228048846Y-116305868D01*
X228050921Y-116313384D01*
X228052705Y-116321019D01*
X228054191Y-116328774D01*
X228055366Y-116336645D01*
X228056219Y-116344640D01*
X228056522Y-116348681D01*
X228056733Y-116352749D01*
X228056871Y-116356845D01*
X228056912Y-116360978D01*
X228057377Y-116366895D01*
X228057778Y-116372813D01*
X228057942Y-116375775D01*
X228058069Y-116378729D01*
X228058147Y-116381693D01*
X228058175Y-116384651D01*
X228058084Y-116390195D01*
X228057808Y-116395822D01*
X228057340Y-116401535D01*
X228056688Y-116407336D01*
X228055845Y-116413220D01*
X228054813Y-116419192D01*
X228053590Y-116425258D01*
X228052176Y-116431413D01*
X228050575Y-116437656D01*
X228048773Y-116443997D01*
X228046779Y-116450436D01*
X228044592Y-116456965D01*
X228042204Y-116463595D01*
X228039624Y-116470327D01*
X228036848Y-116477156D01*
X228033868Y-116484093D01*
X228030733Y-116491082D01*
X228027252Y-116497959D01*
X228023416Y-116504728D01*
X228019227Y-116511387D01*
X228014680Y-116517929D01*
X228009784Y-116524373D01*
X228004527Y-116530704D01*
X227998907Y-116536929D01*
X227992922Y-116543049D01*
X227986576Y-116549054D01*
X227979865Y-116554961D01*
X227972784Y-116560758D01*
X227965332Y-116566451D01*
X227957509Y-116572040D01*
X227949313Y-116577523D01*
X227940741Y-116582900D01*
X227931777Y-116588003D01*
X227922408Y-116592771D01*
X227912634Y-116597209D01*
X227902464Y-116601315D01*
X227891890Y-116605087D01*
X227880921Y-116608531D01*
X227869550Y-116611646D01*
X227857798Y-116614431D01*
X227845642Y-116616887D01*
X227833101Y-116619010D01*
X227820167Y-116620808D01*
X227806849Y-116622280D01*
X227793148Y-116623423D01*
X227779065Y-116624235D01*
X227764596Y-116624724D01*
X227749753Y-116624888D01*
X227624110Y-116624888D01*
X227624110Y-116534284D01*
X227724184Y-116534284D01*
X227738126Y-116534156D01*
X227751547Y-116533777D01*
X227764470Y-116533155D01*
X227776899Y-116532314D01*
X227788860Y-116531267D01*
X227800358Y-116530025D01*
X227811412Y-116528607D01*
X227822042Y-116527024D01*
X227827108Y-116526058D01*
X227832235Y-116524924D01*
X227837425Y-116523631D01*
X227842675Y-116522178D01*
X227847982Y-116520564D01*
X227853346Y-116518783D01*
X227858762Y-116516850D01*
X227864228Y-116514754D01*
X227869740Y-116512499D01*
X227875299Y-116510084D01*
X227880901Y-116507511D01*
X227886542Y-116504787D01*
X227892227Y-116501897D01*
X227897950Y-116498853D01*
X227909490Y-116492301D01*
X227915221Y-116488524D01*
X227920590Y-116484308D01*
X227925578Y-116479648D01*
X227930206Y-116474540D01*
X227934460Y-116468993D01*
X227938342Y-116463002D01*
X227941860Y-116456562D01*
X227945002Y-116449680D01*
X227947775Y-116442359D01*
X227950182Y-116434588D01*
X227952213Y-116426373D01*
X227953883Y-116417718D01*
X227955175Y-116408618D01*
X227956101Y-116399071D01*
X227956659Y-116389084D01*
X227956838Y-116378654D01*
X227956731Y-116372589D01*
X227956402Y-116366594D01*
X227955858Y-116360666D01*
X227955106Y-116354808D01*
X227954144Y-116349019D01*
X227952977Y-116343307D01*
X227951611Y-116337659D01*
X227950053Y-116332087D01*
X227948299Y-116326592D01*
X227946357Y-116321172D01*
X227944233Y-116315821D01*
X227941923Y-116310553D01*
X227939438Y-116305359D01*
X227936780Y-116300249D01*
X227933948Y-116295218D01*
X227930956Y-116290260D01*
X227927608Y-116285509D01*
X227924203Y-116280953D01*
X227920727Y-116276594D01*
X227917183Y-116272436D01*
X227913564Y-116268469D01*
X227909866Y-116264703D01*
X227906088Y-116261127D01*
X227902223Y-116257745D01*
X227898275Y-116254559D01*
X227894231Y-116251562D01*
X227890088Y-116248750D01*
X227885849Y-116246136D01*
X227881507Y-116243707D01*
X227877056Y-116241465D01*
X227872498Y-116239408D01*
X227867818Y-116237540D01*
X227858580Y-116234259D01*
X227849575Y-116231282D01*
X227840793Y-116228624D01*
X227832220Y-116226294D01*
X227823859Y-116224311D01*
X227815698Y-116222670D01*
X227807732Y-116221394D01*
X227803815Y-116220901D01*
X227799947Y-116220494D01*
X227783234Y-116219106D01*
X227765220Y-116217892D01*
X227755691Y-116217406D01*
X227745784Y-116217032D01*
X227735501Y-116216790D01*
X227724812Y-116216706D01*
X227724184Y-116534284D01*
X227624110Y-116534284D01*
X227624110Y-116127681D01*
X227719447Y-116127681D01*
X227736595Y-116127803D01*
G37*
G36*
X238384550Y-114999109D02*
G01*
X238396388Y-114999256D01*
X238408228Y-114999699D01*
X238420067Y-115000438D01*
X238431905Y-115001476D01*
X238443744Y-115002807D01*
X238455582Y-115004434D01*
X238467415Y-115006357D01*
X238479258Y-115008581D01*
X238490801Y-115011225D01*
X238502244Y-115014189D01*
X238513596Y-115017449D01*
X238524870Y-115021009D01*
X238536093Y-115024849D01*
X238547265Y-115028954D01*
X238558410Y-115033321D01*
X238569543Y-115037941D01*
X238569543Y-115328368D01*
X238559666Y-115319193D01*
X238549886Y-115310622D01*
X238545019Y-115306561D01*
X238540159Y-115302656D01*
X238535299Y-115298900D01*
X238530435Y-115295301D01*
X238525565Y-115291853D01*
X238520670Y-115288572D01*
X238515753Y-115285438D01*
X238510812Y-115282465D01*
X238505828Y-115279653D01*
X238500812Y-115276998D01*
X238495742Y-115274507D01*
X238490627Y-115272178D01*
X238485624Y-115270104D01*
X238480588Y-115268156D01*
X238475512Y-115266324D01*
X238470395Y-115264619D01*
X238465237Y-115263044D01*
X238460039Y-115261590D01*
X238454810Y-115260268D01*
X238449545Y-115259075D01*
X238444242Y-115258016D01*
X238438913Y-115257098D01*
X238433551Y-115256308D01*
X238428160Y-115255663D01*
X238422739Y-115255153D01*
X238417298Y-115254788D01*
X238411826Y-115254572D01*
X238406327Y-115254498D01*
X238397792Y-115254669D01*
X238389455Y-115255180D01*
X238381324Y-115256026D01*
X238373401Y-115257209D01*
X238365687Y-115258735D01*
X238358196Y-115260593D01*
X238350916Y-115262781D01*
X238343868Y-115265309D01*
X238337037Y-115268170D01*
X238330444Y-115271363D01*
X238324077Y-115274883D01*
X238317945Y-115278738D01*
X238312058Y-115282921D01*
X238306407Y-115287431D01*
X238301002Y-115292267D01*
X238295843Y-115297431D01*
X238290572Y-115302759D01*
X238285661Y-115308320D01*
X238281098Y-115314120D01*
X238276881Y-115320150D01*
X238273017Y-115326414D01*
X238269498Y-115332912D01*
X238266321Y-115339640D01*
X238263486Y-115346597D01*
X238260996Y-115353789D01*
X238258834Y-115361203D01*
X238257017Y-115368847D01*
X238255536Y-115376718D01*
X238254385Y-115384812D01*
X238253565Y-115393135D01*
X238253075Y-115401680D01*
X238252907Y-115410449D01*
X238253063Y-115419013D01*
X238253532Y-115427312D01*
X238254318Y-115435355D01*
X238255406Y-115443142D01*
X238256812Y-115450694D01*
X238258533Y-115458011D01*
X238260577Y-115465096D01*
X238262936Y-115471965D01*
X238265611Y-115478623D01*
X238268603Y-115485078D01*
X238271917Y-115491339D01*
X238275551Y-115497413D01*
X238279508Y-115503307D01*
X238283790Y-115509026D01*
X238288393Y-115514587D01*
X238293316Y-115519990D01*
X238298346Y-115525030D01*
X238303602Y-115529726D01*
X238309086Y-115534092D01*
X238314792Y-115538123D01*
X238320729Y-115541818D01*
X238326888Y-115545184D01*
X238333275Y-115548217D01*
X238339880Y-115550928D01*
X238346711Y-115553307D01*
X238353760Y-115555371D01*
X238361034Y-115557107D01*
X238368521Y-115558523D01*
X238376228Y-115559622D01*
X238384152Y-115560401D01*
X238392294Y-115560871D01*
X238400651Y-115561028D01*
X238405749Y-115560966D01*
X238410860Y-115560775D01*
X238415981Y-115560454D01*
X238421112Y-115560007D01*
X238426252Y-115559427D01*
X238431395Y-115558714D01*
X238436543Y-115557865D01*
X238441694Y-115556885D01*
X238446840Y-115555765D01*
X238451987Y-115554508D01*
X238457129Y-115553114D01*
X238462269Y-115551575D01*
X238467399Y-115549890D01*
X238472521Y-115548066D01*
X238477633Y-115546096D01*
X238482732Y-115543979D01*
X238488083Y-115541818D01*
X238493486Y-115539472D01*
X238498944Y-115536944D01*
X238504446Y-115534239D01*
X238510005Y-115531360D01*
X238515611Y-115528304D01*
X238526965Y-115521687D01*
X238538513Y-115514400D01*
X238550252Y-115506465D01*
X238562177Y-115497909D01*
X238574281Y-115488736D01*
X238565756Y-115782954D01*
X238554178Y-115787544D01*
X238542650Y-115791835D01*
X238531149Y-115795831D01*
X238519662Y-115799527D01*
X238508182Y-115802935D01*
X238496677Y-115806040D01*
X238485146Y-115808850D01*
X238473573Y-115811367D01*
X238462026Y-115813586D01*
X238450560Y-115815509D01*
X238439137Y-115817139D01*
X238427722Y-115818471D01*
X238416271Y-115819505D01*
X238404766Y-115820245D01*
X238393148Y-115820688D01*
X238381393Y-115820839D01*
X238367260Y-115820615D01*
X238353255Y-115819965D01*
X238339360Y-115818890D01*
X238325559Y-115817402D01*
X238311828Y-115815515D01*
X238298158Y-115813247D01*
X238284519Y-115810598D01*
X238270904Y-115807577D01*
X238258030Y-115804027D01*
X238245453Y-115800231D01*
X238233167Y-115796179D01*
X238221182Y-115791873D01*
X238209492Y-115787301D01*
X238198100Y-115782452D01*
X238187001Y-115777324D01*
X238176198Y-115771905D01*
X238163531Y-115764311D01*
X238151238Y-115756436D01*
X238139315Y-115748291D01*
X238127762Y-115739885D01*
X238116598Y-115731219D01*
X238105808Y-115722296D01*
X238095406Y-115713127D01*
X238085402Y-115703717D01*
X238075789Y-115694073D01*
X238066576Y-115684195D01*
X238057763Y-115674087D01*
X238049365Y-115663764D01*
X238041379Y-115653226D01*
X238033809Y-115642477D01*
X238026655Y-115631525D01*
X238019934Y-115620377D01*
X238013401Y-115608733D01*
X238007297Y-115596893D01*
X238001616Y-115584857D01*
X237996364Y-115572615D01*
X237991540Y-115560178D01*
X237987142Y-115547546D01*
X237983162Y-115534714D01*
X237979603Y-115521687D01*
X237976471Y-115508462D01*
X237973761Y-115495043D01*
X237971467Y-115481429D01*
X237969593Y-115467623D01*
X237968136Y-115453618D01*
X237967097Y-115439421D01*
X237966474Y-115425031D01*
X237966267Y-115410449D01*
X237966381Y-115399547D01*
X237966728Y-115388739D01*
X237967304Y-115378027D01*
X237968115Y-115367406D01*
X237969163Y-115356889D01*
X237970448Y-115346457D01*
X237971962Y-115336125D01*
X237973722Y-115325883D01*
X237975724Y-115315731D01*
X237977969Y-115305673D01*
X237980451Y-115295711D01*
X237983182Y-115285834D01*
X237986159Y-115276049D01*
X237989376Y-115266358D01*
X237992852Y-115256752D01*
X237996574Y-115247238D01*
X238000362Y-115238065D01*
X238004388Y-115229010D01*
X238008644Y-115220078D01*
X238013137Y-115211267D01*
X238017861Y-115202590D01*
X238022823Y-115194032D01*
X238028007Y-115185606D01*
X238033426Y-115177313D01*
X238039077Y-115169151D01*
X238044953Y-115161126D01*
X238051061Y-115153239D01*
X238057392Y-115145488D01*
X238063951Y-115137878D01*
X238070734Y-115130411D01*
X238077739Y-115123092D01*
X238084964Y-115115912D01*
X238092217Y-115108846D01*
X238099652Y-115101991D01*
X238107255Y-115095335D01*
X238115029Y-115088889D01*
X238122962Y-115082648D01*
X238131048Y-115076617D01*
X238139289Y-115070803D01*
X238147667Y-115065206D01*
X238156186Y-115059824D01*
X238164830Y-115054664D01*
X238173604Y-115049729D01*
X238182493Y-115045016D01*
X238191499Y-115040531D01*
X238200608Y-115036276D01*
X238209823Y-115032257D01*
X238219127Y-115028465D01*
X238228778Y-115024852D01*
X238238542Y-115021471D01*
X238248415Y-115018316D01*
X238258397Y-115015393D01*
X238268480Y-115012697D01*
X238278662Y-115010238D01*
X238288944Y-115008011D01*
X238299314Y-115006017D01*
X238309777Y-115004251D01*
X238320321Y-115002726D01*
X238330949Y-115001428D01*
X238341659Y-115000367D01*
X238352432Y-114999541D01*
X238363286Y-114998953D01*
X238374201Y-114998594D01*
X238385183Y-114998478D01*
X238384550Y-114999109D01*
G37*
G36*
X229067574Y-114999994D02*
G01*
X229084369Y-115000763D01*
X229101074Y-115002070D01*
X229117690Y-115003925D01*
X229134219Y-115006336D01*
X229150660Y-115009329D01*
X229167013Y-115012909D01*
X229183277Y-115017102D01*
X229199796Y-115022042D01*
X229216226Y-115027399D01*
X229232598Y-115033222D01*
X229248937Y-115039553D01*
X229265278Y-115046439D01*
X229281651Y-115053906D01*
X229298082Y-115062005D01*
X229314601Y-115070769D01*
X229229367Y-115275332D01*
X229219018Y-115268110D01*
X229208793Y-115261340D01*
X229198660Y-115255008D01*
X229188601Y-115249093D01*
X229178587Y-115243576D01*
X229168591Y-115238444D01*
X229158585Y-115233672D01*
X229148550Y-115229241D01*
X229138204Y-115225797D01*
X229127987Y-115222797D01*
X229117882Y-115220249D01*
X229112863Y-115219146D01*
X229107869Y-115218155D01*
X229102890Y-115217282D01*
X229097927Y-115216521D01*
X229092980Y-115215874D01*
X229088045Y-115215349D01*
X229083119Y-115214936D01*
X229078193Y-115214644D01*
X229073280Y-115214465D01*
X229068370Y-115214408D01*
X229064739Y-115214444D01*
X229061207Y-115214555D01*
X229057773Y-115214740D01*
X229054439Y-115214996D01*
X229051204Y-115215331D01*
X229048080Y-115215740D01*
X229045064Y-115216219D01*
X229042165Y-115216773D01*
X229039382Y-115217405D01*
X229036725Y-115218112D01*
X229034190Y-115218883D01*
X229031784Y-115219733D01*
X229029516Y-115220657D01*
X229027385Y-115221655D01*
X229025389Y-115222733D01*
X229023540Y-115223879D01*
X229021691Y-115225145D01*
X229019932Y-115226454D01*
X229018272Y-115227816D01*
X229016713Y-115229232D01*
X229015253Y-115230697D01*
X229013903Y-115232221D01*
X229012668Y-115233800D01*
X229011539Y-115235438D01*
X229010540Y-115237141D01*
X229009653Y-115238910D01*
X229008896Y-115240748D01*
X229008271Y-115242655D01*
X229007775Y-115244637D01*
X229007414Y-115246688D01*
X229007198Y-115248816D01*
X229007123Y-115251027D01*
X229007589Y-115255196D01*
X229008970Y-115259298D01*
X229011279Y-115263333D01*
X229014503Y-115267307D01*
X229018655Y-115271207D01*
X229023720Y-115275042D01*
X229029703Y-115278814D01*
X229036602Y-115282517D01*
X229044413Y-115286152D01*
X229053136Y-115289722D01*
X229062765Y-115293224D01*
X229073318Y-115296663D01*
X229084765Y-115300034D01*
X229097122Y-115303335D01*
X229110389Y-115306576D01*
X229124558Y-115309745D01*
X229128969Y-115310872D01*
X229133173Y-115311882D01*
X229137157Y-115312794D01*
X229140898Y-115313611D01*
X229147552Y-115314980D01*
X229152970Y-115316056D01*
X229162845Y-115318457D01*
X229172472Y-115321162D01*
X229181842Y-115324165D01*
X229190955Y-115327469D01*
X229199813Y-115331073D01*
X229208413Y-115334977D01*
X229216753Y-115339183D01*
X229224828Y-115343680D01*
X229232643Y-115348470D01*
X229240195Y-115353563D01*
X229247480Y-115358946D01*
X229254498Y-115364622D01*
X229261249Y-115370591D01*
X229267728Y-115376851D01*
X229273935Y-115383404D01*
X229279872Y-115390245D01*
X229285602Y-115397259D01*
X229290948Y-115404476D01*
X229295912Y-115411886D01*
X229300494Y-115419490D01*
X229304700Y-115427283D01*
X229308526Y-115435275D01*
X229311987Y-115443460D01*
X229315075Y-115451840D01*
X229317791Y-115460420D01*
X229320139Y-115469195D01*
X229322120Y-115478164D01*
X229323735Y-115487331D01*
X229324990Y-115496697D01*
X229325884Y-115506261D01*
X229326418Y-115516024D01*
X229326599Y-115525987D01*
X229326224Y-115541976D01*
X229325119Y-115557618D01*
X229323274Y-115572917D01*
X229320686Y-115587862D01*
X229317368Y-115602451D01*
X229313312Y-115616684D01*
X229308522Y-115630551D01*
X229302997Y-115644053D01*
X229296741Y-115657187D01*
X229289756Y-115669948D01*
X229282038Y-115682328D01*
X229273593Y-115694327D01*
X229264414Y-115705944D01*
X229254505Y-115717170D01*
X229243880Y-115728007D01*
X229232522Y-115738446D01*
X229220590Y-115748363D01*
X229208235Y-115757653D01*
X229195449Y-115766298D01*
X229182232Y-115774308D01*
X229168575Y-115781680D01*
X229154478Y-115788412D01*
X229139940Y-115794509D01*
X229124953Y-115799963D01*
X229109516Y-115804777D01*
X229093621Y-115808950D01*
X229077270Y-115812486D01*
X229060455Y-115815377D01*
X229043172Y-115817628D01*
X229025425Y-115819233D01*
X229007202Y-115820202D01*
X228988497Y-115820520D01*
X228969347Y-115820156D01*
X228950232Y-115819068D01*
X228931147Y-115817277D01*
X228912065Y-115814800D01*
X228892966Y-115811656D01*
X228873830Y-115807872D01*
X228854643Y-115803452D01*
X228835393Y-115798425D01*
X228816194Y-115792726D01*
X228796974Y-115786288D01*
X228777707Y-115779112D01*
X228758403Y-115771196D01*
X228739054Y-115762539D01*
X228719656Y-115753142D01*
X228700210Y-115743008D01*
X228680704Y-115732134D01*
X228770676Y-115514308D01*
X228785634Y-115524190D01*
X228800188Y-115533467D01*
X228814319Y-115542119D01*
X228828012Y-115550137D01*
X228841245Y-115557505D01*
X228854004Y-115564202D01*
X228866262Y-115570229D01*
X228878008Y-115575550D01*
X228883901Y-115577956D01*
X228889756Y-115580196D01*
X228895564Y-115582281D01*
X228901328Y-115584202D01*
X228907050Y-115585965D01*
X228912724Y-115587571D01*
X228918355Y-115589018D01*
X228923944Y-115590306D01*
X228929482Y-115591447D01*
X228934980Y-115592425D01*
X228940431Y-115593254D01*
X228945841Y-115593930D01*
X228951204Y-115594450D01*
X228956523Y-115594828D01*
X228961800Y-115595050D01*
X228967031Y-115595123D01*
X228970649Y-115595084D01*
X228974164Y-115594971D01*
X228977578Y-115594777D01*
X228980896Y-115594507D01*
X228984105Y-115594149D01*
X228987223Y-115593708D01*
X228990237Y-115593178D01*
X228993155Y-115592561D01*
X228995980Y-115591847D01*
X228998706Y-115591037D01*
X229001341Y-115590132D01*
X229003880Y-115589126D01*
X229006328Y-115588025D01*
X229008682Y-115586816D01*
X229010949Y-115585499D01*
X229013120Y-115584072D01*
X229015018Y-115582630D01*
X229016791Y-115581141D01*
X229018448Y-115579604D01*
X229019986Y-115578016D01*
X229021399Y-115576378D01*
X229022694Y-115574682D01*
X229023868Y-115572935D01*
X229024920Y-115571131D01*
X229025852Y-115569264D01*
X229026663Y-115567338D01*
X229027343Y-115565355D01*
X229027907Y-115563299D01*
X229028345Y-115561173D01*
X229028653Y-115558990D01*
X229028842Y-115556728D01*
X229028907Y-115554400D01*
X229028590Y-115550431D01*
X229027632Y-115546573D01*
X229026030Y-115542824D01*
X229023795Y-115539194D01*
X229020902Y-115535677D01*
X229017371Y-115532265D01*
X229013184Y-115528970D01*
X229008348Y-115525790D01*
X229002854Y-115522723D01*
X228996705Y-115519777D01*
X228989897Y-115516942D01*
X228982428Y-115514226D01*
X228974292Y-115511620D01*
X228965492Y-115509138D01*
X228956020Y-115506770D01*
X228945880Y-115504519D01*
X228933342Y-115501985D01*
X228922283Y-115499630D01*
X228912765Y-115497505D01*
X228904843Y-115495687D01*
X228894152Y-115492891D01*
X228883758Y-115489852D01*
X228873666Y-115486554D01*
X228863869Y-115483000D01*
X228854374Y-115479191D01*
X228845196Y-115475123D01*
X228836325Y-115470794D01*
X228827775Y-115466203D01*
X228819547Y-115461355D01*
X228811645Y-115456237D01*
X228804069Y-115450856D01*
X228796834Y-115445207D01*
X228789935Y-115439289D01*
X228783376Y-115433103D01*
X228777166Y-115426647D01*
X228771305Y-115419915D01*
X228765574Y-115413103D01*
X228760209Y-115406043D01*
X228755216Y-115398746D01*
X228750590Y-115391204D01*
X228746335Y-115383437D01*
X228742454Y-115375444D01*
X228738937Y-115367225D01*
X228735794Y-115358790D01*
X228733021Y-115350149D01*
X228730613Y-115341302D01*
X228728577Y-115332250D01*
X228726913Y-115323006D01*
X228725620Y-115313573D01*
X228724696Y-115303952D01*
X228724139Y-115294150D01*
X228723956Y-115284173D01*
X228724314Y-115268550D01*
X228725388Y-115253290D01*
X228727175Y-115238397D01*
X228729675Y-115223866D01*
X228732886Y-115209704D01*
X228736806Y-115195909D01*
X228741433Y-115182478D01*
X228746762Y-115169422D01*
X228752799Y-115156732D01*
X228759531Y-115144415D01*
X228766966Y-115132467D01*
X228775092Y-115120893D01*
X228783924Y-115109693D01*
X228793443Y-115098870D01*
X228803651Y-115088422D01*
X228814557Y-115078347D01*
X228826135Y-115068884D01*
X228838139Y-115060027D01*
X228850579Y-115051782D01*
X228863449Y-115044140D01*
X228876743Y-115037109D01*
X228890467Y-115030686D01*
X228904620Y-115024873D01*
X228919204Y-115019669D01*
X228934219Y-115015076D01*
X228949661Y-115011095D01*
X228965529Y-115007726D01*
X228981832Y-115004962D01*
X228998562Y-115002818D01*
X229015718Y-115001284D01*
X229033302Y-115000364D01*
X229051319Y-115000058D01*
X229050686Y-114999742D01*
X229067574Y-114999994D01*
G37*
G36*
X229899567Y-116118214D02*
G01*
X229905721Y-116118280D01*
X229911881Y-116118474D01*
X229918046Y-116118830D01*
X229924227Y-116119356D01*
X229930419Y-116120080D01*
X229936636Y-116121008D01*
X229942866Y-116122171D01*
X229949128Y-116123579D01*
X229955345Y-116124731D01*
X229962151Y-116126272D01*
X229969549Y-116128184D01*
X229977540Y-116130445D01*
X229986123Y-116133031D01*
X229995300Y-116135921D01*
X230015423Y-116142522D01*
X230020564Y-116144538D01*
X230025697Y-116146682D01*
X230030817Y-116148957D01*
X230035929Y-116151372D01*
X230041030Y-116153920D01*
X230046132Y-116156608D01*
X230051242Y-116159433D01*
X230056342Y-116162409D01*
X230061452Y-116165533D01*
X230066564Y-116168807D01*
X230071686Y-116172235D01*
X230076817Y-116175817D01*
X230081963Y-116179558D01*
X230087125Y-116183460D01*
X230092302Y-116187532D01*
X230097499Y-116191770D01*
X230102658Y-116196117D01*
X230107597Y-116200529D01*
X230112320Y-116205002D01*
X230116826Y-116209542D01*
X230121123Y-116214142D01*
X230125213Y-116218810D01*
X230129094Y-116223547D01*
X230132776Y-116228347D01*
X230136263Y-116233222D01*
X230139544Y-116238169D01*
X230142637Y-116243190D01*
X230145533Y-116248280D01*
X230148242Y-116253448D01*
X230150767Y-116258698D01*
X230153113Y-116264023D01*
X230155270Y-116269427D01*
X230042569Y-116269427D01*
X230034639Y-116262023D01*
X230026586Y-116255089D01*
X230018413Y-116248622D01*
X230010122Y-116242628D01*
X230001699Y-116237102D01*
X229993152Y-116232055D01*
X229984486Y-116227480D01*
X229975686Y-116223378D01*
X229966755Y-116219756D01*
X229957697Y-116216610D01*
X229948506Y-116213944D01*
X229939180Y-116211760D01*
X229929715Y-116210057D01*
X229920119Y-116208840D01*
X229910386Y-116208111D01*
X229900515Y-116207867D01*
X229894597Y-116207948D01*
X229888693Y-116208187D01*
X229882822Y-116208617D01*
X229876996Y-116209250D01*
X229871229Y-116210104D01*
X229868369Y-116210623D01*
X229865533Y-116211197D01*
X229862716Y-116211841D01*
X229859925Y-116212554D01*
X229857163Y-116213332D01*
X229854423Y-116214182D01*
X229848802Y-116215795D01*
X229842844Y-116217779D01*
X229836555Y-116220123D01*
X229829957Y-116222820D01*
X229823061Y-116225862D01*
X229815890Y-116229231D01*
X229808447Y-116232915D01*
X229800755Y-116236910D01*
X229796813Y-116239235D01*
X229792915Y-116241722D01*
X229789063Y-116244363D01*
X229785262Y-116247166D01*
X229781510Y-116250128D01*
X229777810Y-116253256D01*
X229774161Y-116256542D01*
X229770569Y-116259995D01*
X229767033Y-116263616D01*
X229763548Y-116267403D01*
X229760125Y-116271363D01*
X229756764Y-116275489D01*
X229753462Y-116279788D01*
X229750217Y-116284261D01*
X229747046Y-116288905D01*
X229743931Y-116293735D01*
X229740944Y-116298506D01*
X229738136Y-116303350D01*
X229735508Y-116308251D01*
X229733061Y-116313218D01*
X229730798Y-116318239D01*
X229728725Y-116323309D01*
X229726841Y-116328430D01*
X229725149Y-116333590D01*
X229723648Y-116338787D01*
X229722340Y-116344018D01*
X229721229Y-116349273D01*
X229720315Y-116354553D01*
X229719600Y-116359850D01*
X229719089Y-116365166D01*
X229718782Y-116370485D01*
X229718679Y-116375812D01*
X229718899Y-116384900D01*
X229719565Y-116393803D01*
X229720677Y-116402534D01*
X229722230Y-116411074D01*
X229724229Y-116419438D01*
X229726668Y-116427613D01*
X229729553Y-116435604D01*
X229732886Y-116443408D01*
X229736655Y-116451021D01*
X229740876Y-116458448D01*
X229745538Y-116465682D01*
X229750642Y-116472724D01*
X229756190Y-116479570D01*
X229762186Y-116486220D01*
X229768621Y-116492675D01*
X229775500Y-116498929D01*
X229782590Y-116504833D01*
X229789770Y-116510341D01*
X229797040Y-116515463D01*
X229804408Y-116520196D01*
X229811871Y-116524538D01*
X229819431Y-116528499D01*
X229827087Y-116532081D01*
X229834848Y-116535270D01*
X229842718Y-116538088D01*
X229850687Y-116540521D01*
X229858766Y-116542577D01*
X229866953Y-116544257D01*
X229875247Y-116545561D01*
X229883659Y-116546484D01*
X229892186Y-116547044D01*
X229900828Y-116547229D01*
X229905765Y-116547177D01*
X229910656Y-116547018D01*
X229915483Y-116546754D01*
X229920256Y-116546385D01*
X229924968Y-116545897D01*
X229929627Y-116545299D01*
X229934237Y-116544585D01*
X229938788Y-116543759D01*
X229943291Y-116542810D01*
X229947744Y-116541744D01*
X229952143Y-116540555D01*
X229956497Y-116539239D01*
X229960799Y-116537800D01*
X229965060Y-116536232D01*
X229969269Y-116534540D01*
X229973434Y-116532708D01*
X229977618Y-116530924D01*
X229981755Y-116528999D01*
X229985845Y-116526944D01*
X229989898Y-116524760D01*
X229993903Y-116522452D01*
X229997867Y-116520025D01*
X230001792Y-116517484D01*
X230005674Y-116514832D01*
X230009516Y-116512072D01*
X230013317Y-116509208D01*
X230017082Y-116506240D01*
X230020803Y-116503186D01*
X230024487Y-116500038D01*
X230028133Y-116496806D01*
X230031740Y-116493488D01*
X230035314Y-116490090D01*
X230152743Y-116490090D01*
X230149411Y-116496651D01*
X230145910Y-116503077D01*
X230142249Y-116509365D01*
X230138424Y-116515510D01*
X230134442Y-116521512D01*
X230130299Y-116527371D01*
X230125993Y-116533073D01*
X230121533Y-116538627D01*
X230116911Y-116544026D01*
X230112131Y-116549261D01*
X230107189Y-116554339D01*
X230102091Y-116559258D01*
X230096838Y-116564001D01*
X230091426Y-116568578D01*
X230085860Y-116572986D01*
X230080135Y-116577220D01*
X230074261Y-116581495D01*
X230068474Y-116585570D01*
X230062768Y-116589430D01*
X230057142Y-116593092D01*
X230051594Y-116596547D01*
X230046125Y-116599804D01*
X230040719Y-116602859D01*
X230035391Y-116605707D01*
X230030125Y-116608359D01*
X230024925Y-116610816D01*
X230019785Y-116613072D01*
X230014705Y-116615132D01*
X230009672Y-116616991D01*
X230004702Y-116618659D01*
X229999777Y-116620137D01*
X229994904Y-116621414D01*
X229985762Y-116623695D01*
X229977031Y-116625787D01*
X229968726Y-116627684D01*
X229960852Y-116629387D01*
X229953400Y-116630878D01*
X229946383Y-116632157D01*
X229939801Y-116633212D01*
X229933660Y-116634040D01*
X229927796Y-116634696D01*
X229922028Y-116635233D01*
X229916335Y-116635672D01*
X229910696Y-116636016D01*
X229905078Y-116636267D01*
X229899476Y-116636436D01*
X229893856Y-116636537D01*
X229888201Y-116636568D01*
X229878789Y-116635755D01*
X229869502Y-116634736D01*
X229860333Y-116633504D01*
X229851288Y-116632070D01*
X229842377Y-116630425D01*
X229833594Y-116628576D01*
X229824940Y-116626521D01*
X229816425Y-116624257D01*
X229808043Y-116621786D01*
X229799800Y-116619109D01*
X229791704Y-116616218D01*
X229783742Y-116613127D01*
X229775935Y-116609826D01*
X229768274Y-116606321D01*
X229760762Y-116602607D01*
X229753406Y-116598682D01*
X229746074Y-116594564D01*
X229739017Y-116590367D01*
X229732215Y-116586089D01*
X229725673Y-116581733D01*
X229719385Y-116577288D01*
X229713351Y-116572765D01*
X229707565Y-116568150D01*
X229702024Y-116563446D01*
X229696735Y-116558648D01*
X229691676Y-116553757D01*
X229686865Y-116548770D01*
X229682286Y-116543682D01*
X229677941Y-116538495D01*
X229673826Y-116533198D01*
X229669936Y-116527800D01*
X229666274Y-116522292D01*
X229660097Y-116511296D01*
X229654350Y-116500581D01*
X229649060Y-116490153D01*
X229644256Y-116480026D01*
X229639950Y-116470210D01*
X229636174Y-116460717D01*
X229634491Y-116456091D01*
X229632945Y-116451551D01*
X229631545Y-116447104D01*
X229630285Y-116442739D01*
X229627921Y-116433800D01*
X229625814Y-116424737D01*
X229623979Y-116415554D01*
X229622432Y-116406237D01*
X229621203Y-116396789D01*
X229620300Y-116387201D01*
X229619742Y-116377473D01*
X229619553Y-116367605D01*
X229619621Y-116362807D01*
X229619842Y-116358100D01*
X229620185Y-116353459D01*
X229620658Y-116348858D01*
X229621249Y-116344275D01*
X229621952Y-116339679D01*
X229622756Y-116335049D01*
X229623657Y-116330352D01*
X229624778Y-116325591D01*
X229626254Y-116320311D01*
X229628061Y-116314527D01*
X229630208Y-116308257D01*
X229632680Y-116301509D01*
X229635464Y-116294305D01*
X229638562Y-116286659D01*
X229641965Y-116278581D01*
X229643729Y-116274300D01*
X229645679Y-116269971D01*
X229647824Y-116265604D01*
X229650159Y-116261199D01*
X229652684Y-116256755D01*
X229655388Y-116252278D01*
X229658280Y-116247765D01*
X229661342Y-116243225D01*
X229664581Y-116238651D01*
X229667989Y-116234054D01*
X229671566Y-116229427D01*
X229675305Y-116224773D01*
X229679207Y-116220104D01*
X229683268Y-116215409D01*
X229687478Y-116210704D01*
X229691847Y-116205976D01*
X229696350Y-116201280D01*
X229700980Y-116196683D01*
X229705739Y-116192178D01*
X229710639Y-116187763D01*
X229715674Y-116183447D01*
X229720843Y-116179226D01*
X229726161Y-116175107D01*
X229731621Y-116171088D01*
X229737230Y-116167177D01*
X229742990Y-116163366D01*
X229748899Y-116159664D01*
X229754974Y-116156077D01*
X229761199Y-116152597D01*
X229767592Y-116149222D01*
X229774145Y-116145971D01*
X229780869Y-116142836D01*
X229787431Y-116139845D01*
X229794113Y-116137038D01*
X229800899Y-116134412D01*
X229807792Y-116131964D01*
X229814792Y-116129704D01*
X229821898Y-116127631D01*
X229829114Y-116125745D01*
X229836430Y-116124055D01*
X229843851Y-116122549D01*
X229851374Y-116121244D01*
X229858996Y-116120133D01*
X229866723Y-116119217D01*
X229874549Y-116118503D01*
X229882476Y-116117991D01*
X229890497Y-116117683D01*
X229898619Y-116117582D01*
X229899567Y-116118214D01*
G37*
G36*
X235010187Y-116118214D02*
G01*
X235016346Y-116118280D01*
X235022506Y-116118474D01*
X235028678Y-116118830D01*
X235034857Y-116119356D01*
X235041046Y-116120080D01*
X235047259Y-116121008D01*
X235053496Y-116122171D01*
X235059755Y-116123579D01*
X235065969Y-116124731D01*
X235072779Y-116126272D01*
X235080174Y-116128184D01*
X235088165Y-116130445D01*
X235096747Y-116133031D01*
X235105924Y-116135921D01*
X235126047Y-116142522D01*
X235131189Y-116144538D01*
X235136333Y-116146682D01*
X235141467Y-116148957D01*
X235146597Y-116151372D01*
X235151721Y-116153920D01*
X235156846Y-116156608D01*
X235161966Y-116159433D01*
X235167086Y-116162409D01*
X235172207Y-116165533D01*
X235177327Y-116168807D01*
X235182450Y-116172235D01*
X235187575Y-116175817D01*
X235192705Y-116179558D01*
X235197841Y-116183460D01*
X235202979Y-116187532D01*
X235208126Y-116191770D01*
X235213337Y-116196117D01*
X235218309Y-116200529D01*
X235223062Y-116205002D01*
X235227585Y-116209542D01*
X235231884Y-116214142D01*
X235235978Y-116218810D01*
X235239852Y-116223547D01*
X235243520Y-116228347D01*
X235246983Y-116233222D01*
X235250253Y-116238169D01*
X235253320Y-116243190D01*
X235256204Y-116248280D01*
X235258898Y-116253448D01*
X235261408Y-116258698D01*
X235263740Y-116264023D01*
X235265895Y-116269427D01*
X235152880Y-116269427D01*
X235145057Y-116262023D01*
X235137092Y-116255089D01*
X235128986Y-116248622D01*
X235120753Y-116242628D01*
X235112372Y-116237102D01*
X235103859Y-116232055D01*
X235095210Y-116227480D01*
X235086428Y-116223378D01*
X235077513Y-116219756D01*
X235068469Y-116216610D01*
X235059288Y-116213944D01*
X235049979Y-116211760D01*
X235040537Y-116210057D01*
X235030972Y-116208840D01*
X235021275Y-116208111D01*
X235011454Y-116207867D01*
X235005535Y-116207948D01*
X234999637Y-116208187D01*
X234993763Y-116208617D01*
X234987936Y-116209250D01*
X234982166Y-116210104D01*
X234979310Y-116210623D01*
X234976473Y-116211197D01*
X234973656Y-116211841D01*
X234970865Y-116212554D01*
X234968102Y-116213332D01*
X234965363Y-116214182D01*
X234959836Y-116215795D01*
X234953918Y-116217779D01*
X234947633Y-116220123D01*
X234941015Y-116222820D01*
X234934087Y-116225862D01*
X234926875Y-116229231D01*
X234919404Y-116232915D01*
X234911695Y-116236910D01*
X234907756Y-116239235D01*
X234903865Y-116241722D01*
X234900030Y-116244363D01*
X234896247Y-116247166D01*
X234892515Y-116250128D01*
X234888831Y-116253256D01*
X234885206Y-116256542D01*
X234881628Y-116259995D01*
X234878104Y-116263616D01*
X234874627Y-116267403D01*
X234871208Y-116271363D01*
X234867837Y-116275489D01*
X234864518Y-116279788D01*
X234861253Y-116284261D01*
X234858035Y-116288905D01*
X234854874Y-116293735D01*
X234851884Y-116298506D01*
X234849079Y-116303350D01*
X234846448Y-116308251D01*
X234844003Y-116313218D01*
X234841741Y-116318239D01*
X234839668Y-116323309D01*
X234837787Y-116328430D01*
X234836093Y-116333590D01*
X234834588Y-116338787D01*
X234833284Y-116344018D01*
X234832172Y-116349273D01*
X234831257Y-116354553D01*
X234830545Y-116359850D01*
X234830032Y-116365166D01*
X234829721Y-116370485D01*
X234829620Y-116375812D01*
X234829849Y-116384900D01*
X234830533Y-116393803D01*
X234831673Y-116402534D01*
X234833260Y-116411074D01*
X234835296Y-116419438D01*
X234837773Y-116427613D01*
X234840697Y-116435604D01*
X234844063Y-116443408D01*
X234847858Y-116451021D01*
X234852094Y-116458448D01*
X234856758Y-116465682D01*
X234861848Y-116472724D01*
X234867363Y-116479570D01*
X234873305Y-116486220D01*
X234879666Y-116492675D01*
X234886444Y-116498929D01*
X234893532Y-116504833D01*
X234900710Y-116510341D01*
X234907979Y-116515463D01*
X234915345Y-116520196D01*
X234922807Y-116524538D01*
X234930370Y-116528499D01*
X234938026Y-116532081D01*
X234945791Y-116535270D01*
X234953656Y-116538088D01*
X234961628Y-116540521D01*
X234969704Y-116542577D01*
X234977895Y-116544257D01*
X234986187Y-116545561D01*
X234994601Y-116546484D01*
X235003124Y-116547044D01*
X235011771Y-116547229D01*
X235016769Y-116547177D01*
X235021712Y-116547018D01*
X235026596Y-116546754D01*
X235031412Y-116546385D01*
X235036176Y-116545897D01*
X235040877Y-116545299D01*
X235045510Y-116544585D01*
X235050088Y-116543759D01*
X235054600Y-116542810D01*
X235059045Y-116541744D01*
X235063430Y-116540555D01*
X235067745Y-116539239D01*
X235072001Y-116537800D01*
X235076192Y-116536232D01*
X235080319Y-116534540D01*
X235084376Y-116532708D01*
X235088561Y-116530924D01*
X235092708Y-116528999D01*
X235096818Y-116526944D01*
X235100887Y-116524760D01*
X235104915Y-116522452D01*
X235108908Y-116520025D01*
X235112861Y-116517484D01*
X235116773Y-116514832D01*
X235120642Y-116512072D01*
X235124474Y-116509208D01*
X235128263Y-116506240D01*
X235132010Y-116503186D01*
X235135716Y-116500038D01*
X235139376Y-116496806D01*
X235142994Y-116493488D01*
X235146567Y-116490090D01*
X235263371Y-116490090D01*
X235260089Y-116496651D01*
X235256636Y-116503077D01*
X235253025Y-116509365D01*
X235249238Y-116515510D01*
X235245292Y-116521512D01*
X235241177Y-116527371D01*
X235236909Y-116533073D01*
X235232473Y-116538627D01*
X235227878Y-116544026D01*
X235223130Y-116549261D01*
X235218224Y-116554339D01*
X235213160Y-116559258D01*
X235207946Y-116564001D01*
X235202581Y-116568578D01*
X235197065Y-116572986D01*
X235191396Y-116577220D01*
X235185515Y-116581495D01*
X235179706Y-116585570D01*
X235173971Y-116589430D01*
X235168310Y-116593092D01*
X235162723Y-116596547D01*
X235157212Y-116599804D01*
X235151773Y-116602859D01*
X235146412Y-116605707D01*
X235141118Y-116608359D01*
X235135901Y-116610816D01*
X235130760Y-116613072D01*
X235125694Y-116615132D01*
X235120696Y-116616991D01*
X235115777Y-116618659D01*
X235110930Y-116620137D01*
X235106162Y-116621414D01*
X235097017Y-116623695D01*
X235088286Y-116625787D01*
X235079987Y-116627684D01*
X235072104Y-116629387D01*
X235064654Y-116630878D01*
X235057634Y-116632157D01*
X235051055Y-116633212D01*
X235044916Y-116634040D01*
X235039068Y-116634696D01*
X235033333Y-116635233D01*
X235027692Y-116635672D01*
X235022108Y-116636016D01*
X235016556Y-116636267D01*
X235011000Y-116636436D01*
X235005414Y-116636537D01*
X234999772Y-116636568D01*
X234990311Y-116635755D01*
X234980982Y-116634736D01*
X234971787Y-116633504D01*
X234962731Y-116632070D01*
X234953808Y-116630425D01*
X234945025Y-116628576D01*
X234936384Y-116626521D01*
X234927879Y-116624257D01*
X234919515Y-116621786D01*
X234911289Y-116619109D01*
X234903211Y-116616218D01*
X234895273Y-116613127D01*
X234887479Y-116609826D01*
X234879832Y-116606321D01*
X234872330Y-116602607D01*
X234864975Y-116598682D01*
X234857699Y-116594564D01*
X234850666Y-116590367D01*
X234843881Y-116586089D01*
X234837344Y-116581733D01*
X234831041Y-116577288D01*
X234824995Y-116572765D01*
X234819193Y-116568150D01*
X234813639Y-116563446D01*
X234808331Y-116558648D01*
X234803273Y-116553757D01*
X234798460Y-116548770D01*
X234793903Y-116543682D01*
X234789592Y-116538495D01*
X234785530Y-116533198D01*
X234781722Y-116527800D01*
X234778164Y-116522292D01*
X234771878Y-116511296D01*
X234766053Y-116500581D01*
X234760710Y-116490153D01*
X234755870Y-116480026D01*
X234751542Y-116470210D01*
X234747753Y-116460717D01*
X234746068Y-116456091D01*
X234744520Y-116451551D01*
X234743118Y-116447104D01*
X234741859Y-116442739D01*
X234739507Y-116433800D01*
X234737432Y-116424737D01*
X234735649Y-116415554D01*
X234734163Y-116406237D01*
X234732987Y-116396789D01*
X234732136Y-116387201D01*
X234731617Y-116377473D01*
X234731442Y-116367605D01*
X234731491Y-116362807D01*
X234731640Y-116358100D01*
X234731910Y-116353459D01*
X234732310Y-116348858D01*
X234732859Y-116344275D01*
X234733573Y-116339679D01*
X234734462Y-116335049D01*
X234735547Y-116330352D01*
X234736668Y-116325591D01*
X234738142Y-116320311D01*
X234739952Y-116314527D01*
X234742100Y-116308257D01*
X234744566Y-116301509D01*
X234747355Y-116294305D01*
X234750454Y-116286659D01*
X234753854Y-116278581D01*
X234755720Y-116274300D01*
X234757759Y-116269971D01*
X234759977Y-116265604D01*
X234762371Y-116261199D01*
X234764933Y-116256755D01*
X234767672Y-116252278D01*
X234770582Y-116247765D01*
X234773666Y-116243225D01*
X234776916Y-116238651D01*
X234780336Y-116234054D01*
X234783927Y-116229427D01*
X234787683Y-116224773D01*
X234791607Y-116220104D01*
X234795696Y-116215409D01*
X234799948Y-116210704D01*
X234804367Y-116205976D01*
X234808816Y-116201280D01*
X234813394Y-116196683D01*
X234818114Y-116192178D01*
X234822972Y-116187763D01*
X234827967Y-116183447D01*
X234833110Y-116179226D01*
X234838394Y-116175107D01*
X234843823Y-116171088D01*
X234849406Y-116167177D01*
X234855132Y-116163366D01*
X234861013Y-116159664D01*
X234867045Y-116156077D01*
X234873238Y-116152597D01*
X234879586Y-116149222D01*
X234886091Y-116145971D01*
X234892761Y-116142836D01*
X234899377Y-116139845D01*
X234906102Y-116137038D01*
X234912928Y-116134412D01*
X234919857Y-116131964D01*
X234926882Y-116129704D01*
X234934008Y-116127631D01*
X234941234Y-116125745D01*
X234948554Y-116124055D01*
X234955969Y-116122549D01*
X234963486Y-116121244D01*
X234971092Y-116120133D01*
X234978790Y-116119217D01*
X234986583Y-116118503D01*
X234994467Y-116117991D01*
X235002441Y-116117683D01*
X235010508Y-116117582D01*
X235010187Y-116118214D01*
G37*
G36*
X234292327Y-116117896D02*
G01*
X234299523Y-116117990D01*
X234306678Y-116118266D01*
X234313795Y-116118726D01*
X234320875Y-116119367D01*
X234327914Y-116120193D01*
X234334920Y-116121194D01*
X234341892Y-116122377D01*
X234348831Y-116123737D01*
X234355740Y-116125276D01*
X234362624Y-116126993D01*
X234369482Y-116128887D01*
X234376315Y-116130947D01*
X234383126Y-116133192D01*
X234389918Y-116135601D01*
X234396688Y-116138184D01*
X234403446Y-116140943D01*
X234410075Y-116143843D01*
X234416598Y-116146863D01*
X234423008Y-116150005D01*
X234429303Y-116153262D01*
X234435492Y-116156649D01*
X234441560Y-116160152D01*
X234447519Y-116163784D01*
X234453362Y-116167539D01*
X234459093Y-116171420D01*
X234464705Y-116175427D01*
X234470205Y-116179560D01*
X234475587Y-116183824D01*
X234480852Y-116188219D01*
X234485999Y-116192743D01*
X234491027Y-116197395D01*
X234495940Y-116202190D01*
X234500710Y-116206922D01*
X234505290Y-116211657D01*
X234509694Y-116216390D01*
X234513913Y-116221127D01*
X234517952Y-116225862D01*
X234521800Y-116230597D01*
X234525459Y-116235334D01*
X234528932Y-116240067D01*
X234532206Y-116244805D01*
X234535292Y-116249539D01*
X234538176Y-116254276D01*
X234540869Y-116259009D01*
X234543356Y-116263743D01*
X234545643Y-116268480D01*
X234547728Y-116273216D01*
X234549607Y-116277950D01*
X234553123Y-116286839D01*
X234556332Y-116295493D01*
X234559197Y-116303889D01*
X234561722Y-116312004D01*
X234563871Y-116319805D01*
X234565637Y-116327269D01*
X234566365Y-116330870D01*
X234566985Y-116334376D01*
X234567507Y-116337779D01*
X234567916Y-116341086D01*
X234568935Y-116347836D01*
X234569855Y-116354577D01*
X234570666Y-116361315D01*
X234571351Y-116368040D01*
X234571903Y-116374747D01*
X234572310Y-116381440D01*
X234572568Y-116388111D01*
X234572651Y-116394754D01*
X234571906Y-116400495D01*
X234570966Y-116406350D01*
X234569829Y-116412322D01*
X234568499Y-116418401D01*
X234566972Y-116424587D01*
X234565248Y-116430877D01*
X234563325Y-116437268D01*
X234561209Y-116443765D01*
X234558889Y-116450350D01*
X234556368Y-116457031D01*
X234553647Y-116463806D01*
X234550722Y-116470663D01*
X234547592Y-116477608D01*
X234544261Y-116484638D01*
X234540723Y-116491748D01*
X234536980Y-116498929D01*
X234533117Y-116505936D01*
X234529109Y-116512749D01*
X234524954Y-116519368D01*
X234520664Y-116525792D01*
X234516226Y-116532024D01*
X234511654Y-116538048D01*
X234506940Y-116543886D01*
X234502094Y-116549520D01*
X234497120Y-116554956D01*
X234492005Y-116560184D01*
X234486767Y-116565218D01*
X234481397Y-116570050D01*
X234475904Y-116574674D01*
X234470288Y-116579095D01*
X234464550Y-116583314D01*
X234458690Y-116587322D01*
X234446791Y-116594701D01*
X234435238Y-116601446D01*
X234424031Y-116607529D01*
X234418546Y-116610314D01*
X234413154Y-116612932D01*
X234407837Y-116615375D01*
X234402597Y-116617639D01*
X234397443Y-116619729D01*
X234392368Y-116621637D01*
X234387365Y-116623361D01*
X234382440Y-116624900D01*
X234377594Y-116626254D01*
X234372824Y-116627413D01*
X234363191Y-116629634D01*
X234353228Y-116631559D01*
X234342948Y-116633185D01*
X234332333Y-116634516D01*
X234321396Y-116635553D01*
X234310137Y-116636295D01*
X234298550Y-116636739D01*
X234286639Y-116636887D01*
X234278402Y-116636790D01*
X234270256Y-116636512D01*
X234262198Y-116636047D01*
X234254227Y-116635398D01*
X234246349Y-116634550D01*
X234238549Y-116633521D01*
X234230830Y-116632298D01*
X234223190Y-116630883D01*
X234215617Y-116629280D01*
X234208120Y-116627481D01*
X234200693Y-116625487D01*
X234193327Y-116623299D01*
X234186021Y-116620914D01*
X234178781Y-116618329D01*
X234171600Y-116615554D01*
X234164470Y-116612578D01*
X234157841Y-116609386D01*
X234151333Y-116606093D01*
X234144956Y-116602698D01*
X234138704Y-116599204D01*
X234132582Y-116595604D01*
X234126604Y-116591905D01*
X234120762Y-116588101D01*
X234115063Y-116584202D01*
X234109520Y-116580205D01*
X234104119Y-116576104D01*
X234098878Y-116571901D01*
X234093796Y-116567607D01*
X234088876Y-116563211D01*
X234084128Y-116558717D01*
X234079543Y-116554127D01*
X234075131Y-116549439D01*
X234070891Y-116544573D01*
X234066800Y-116539686D01*
X234062864Y-116534768D01*
X234059080Y-116529821D01*
X234055452Y-116524846D01*
X234051969Y-116519833D01*
X234048638Y-116514787D01*
X234045457Y-116509697D01*
X234042422Y-116504576D01*
X234039536Y-116499408D01*
X234036796Y-116494193D01*
X234034202Y-116488932D01*
X234031749Y-116483619D01*
X234029446Y-116478253D01*
X234027277Y-116472837D01*
X234025257Y-116467360D01*
X234023192Y-116462048D01*
X234021273Y-116456763D01*
X234019490Y-116451507D01*
X234017845Y-116446279D01*
X234016340Y-116441072D01*
X234014967Y-116435897D01*
X234013728Y-116430743D01*
X234012624Y-116425611D01*
X234011659Y-116420502D01*
X234010820Y-116415418D01*
X234010112Y-116410348D01*
X234009538Y-116405298D01*
X234009092Y-116400269D01*
X234008776Y-116395258D01*
X234008585Y-116390264D01*
X234008524Y-116385282D01*
X234008579Y-116380859D01*
X234107961Y-116380859D01*
X234108080Y-116387052D01*
X234108232Y-116390090D01*
X234108441Y-116393098D01*
X234108712Y-116396078D01*
X234109045Y-116399032D01*
X234109440Y-116401972D01*
X234109897Y-116404895D01*
X234110417Y-116407806D01*
X234111001Y-116410709D01*
X234111649Y-116413610D01*
X234112358Y-116416508D01*
X234113980Y-116422335D01*
X234115855Y-116428213D01*
X234118192Y-116433689D01*
X234120954Y-116439437D01*
X234124148Y-116445442D01*
X234127774Y-116451694D01*
X234131846Y-116458168D01*
X234136365Y-116464840D01*
X234141347Y-116471697D01*
X234146794Y-116478723D01*
X234149581Y-116482236D01*
X234152512Y-116485683D01*
X234155575Y-116489055D01*
X234158776Y-116492362D01*
X234162131Y-116495608D01*
X234165624Y-116498786D01*
X234169273Y-116501907D01*
X234173074Y-116504963D01*
X234177030Y-116507971D01*
X234181142Y-116510925D01*
X234185417Y-116513825D01*
X234189854Y-116516681D01*
X234194457Y-116519490D01*
X234199231Y-116522252D01*
X234204176Y-116524974D01*
X234209300Y-116527655D01*
X234214328Y-116529950D01*
X234219344Y-116532095D01*
X234224348Y-116534090D01*
X234229337Y-116535939D01*
X234234315Y-116537644D01*
X234239269Y-116539197D01*
X234244206Y-116540602D01*
X234249113Y-116541860D01*
X234254000Y-116542973D01*
X234258853Y-116543934D01*
X234263682Y-116544748D01*
X234268475Y-116545412D01*
X234273231Y-116545932D01*
X234277955Y-116546304D01*
X234282634Y-116546522D01*
X234287274Y-116546597D01*
X234296485Y-116546463D01*
X234305434Y-116546059D01*
X234314101Y-116545382D01*
X234322493Y-116544427D01*
X234330623Y-116543189D01*
X234338475Y-116541669D01*
X234346058Y-116539859D01*
X234353373Y-116537759D01*
X234360411Y-116535362D01*
X234367182Y-116532663D01*
X234373685Y-116529659D01*
X234379920Y-116526353D01*
X234385888Y-116522736D01*
X234391585Y-116518802D01*
X234397022Y-116514554D01*
X234402185Y-116509976D01*
X234407168Y-116505287D01*
X234411937Y-116500680D01*
X234416496Y-116496156D01*
X234420838Y-116491706D01*
X234424974Y-116487324D01*
X234428898Y-116483013D01*
X234432610Y-116478766D01*
X234436119Y-116474580D01*
X234439420Y-116470450D01*
X234442511Y-116466372D01*
X234445404Y-116462335D01*
X234448087Y-116458351D01*
X234450566Y-116454396D01*
X234452843Y-116450479D01*
X234454918Y-116446595D01*
X234456795Y-116442739D01*
X234458728Y-116438835D01*
X234460500Y-116434929D01*
X234462124Y-116431029D01*
X234463593Y-116427117D01*
X234464920Y-116423188D01*
X234466109Y-116419247D01*
X234467158Y-116415278D01*
X234468080Y-116411285D01*
X234468879Y-116407256D01*
X234469553Y-116403191D01*
X234470112Y-116399085D01*
X234470559Y-116394924D01*
X234470895Y-116390715D01*
X234471135Y-116386443D01*
X234471276Y-116382107D01*
X234471316Y-116377707D01*
X234471168Y-116369684D01*
X234470704Y-116361724D01*
X234470356Y-116357767D01*
X234469921Y-116353821D01*
X234469395Y-116349895D01*
X234468792Y-116345980D01*
X234468095Y-116342079D01*
X234467312Y-116338196D01*
X234466428Y-116334326D01*
X234465457Y-116330470D01*
X234464389Y-116326633D01*
X234463222Y-116322803D01*
X234461954Y-116318994D01*
X234460584Y-116315197D01*
X234459008Y-116311389D01*
X234457356Y-116307640D01*
X234455631Y-116303957D01*
X234453825Y-116300345D01*
X234451945Y-116296796D01*
X234449987Y-116293316D01*
X234447946Y-116289899D01*
X234445827Y-116286550D01*
X234443625Y-116283270D01*
X234441344Y-116280052D01*
X234438975Y-116276906D01*
X234436523Y-116273827D01*
X234433988Y-116270811D01*
X234431367Y-116267865D01*
X234428655Y-116264980D01*
X234425862Y-116262166D01*
X234423126Y-116259140D01*
X234420354Y-116256220D01*
X234417554Y-116253402D01*
X234414730Y-116250690D01*
X234411877Y-116248091D01*
X234408992Y-116245594D01*
X234406073Y-116243209D01*
X234403131Y-116240931D01*
X234400156Y-116238772D01*
X234397152Y-116236719D01*
X234394118Y-116234780D01*
X234391054Y-116232954D01*
X234387963Y-116231240D01*
X234384840Y-116229647D01*
X234381687Y-116228172D01*
X234378509Y-116226806D01*
X234372416Y-116224399D01*
X234366475Y-116222139D01*
X234360719Y-116220029D01*
X234355184Y-116218085D01*
X234349901Y-116216308D01*
X234344901Y-116214688D01*
X234340217Y-116213245D01*
X234335891Y-116211974D01*
X234331164Y-116210768D01*
X234326452Y-116209765D01*
X234321731Y-116208944D01*
X234316987Y-116208302D01*
X234312193Y-116207818D01*
X234307345Y-116207486D01*
X234302409Y-116207300D01*
X234297682Y-116207239D01*
X234289338Y-116207372D01*
X234280853Y-116207779D01*
X234272557Y-116208465D01*
X234264449Y-116209420D01*
X234256530Y-116210648D01*
X234248790Y-116212146D01*
X234241241Y-116213916D01*
X234233883Y-116215956D01*
X234226707Y-116218265D01*
X234219728Y-116220844D01*
X234212937Y-116223695D01*
X234206334Y-116226814D01*
X234199924Y-116230201D01*
X234193698Y-116233849D01*
X234187672Y-116237771D01*
X234181830Y-116241960D01*
X234176057Y-116246219D01*
X234170582Y-116250466D01*
X234165385Y-116254705D01*
X234160475Y-116258931D01*
X234155839Y-116263149D01*
X234151481Y-116267348D01*
X234147385Y-116271530D01*
X234143557Y-116275703D01*
X234139985Y-116279849D01*
X234136671Y-116283976D01*
X234133602Y-116288083D01*
X234130781Y-116292169D01*
X234128201Y-116296228D01*
X234125856Y-116300268D01*
X234123742Y-116304272D01*
X234121854Y-116308251D01*
X234120083Y-116312148D01*
X234118446Y-116316127D01*
X234116937Y-116320193D01*
X234115553Y-116324349D01*
X234114296Y-116328591D01*
X234113157Y-116332918D01*
X234112138Y-116337337D01*
X234111239Y-116341834D01*
X234110453Y-116346418D01*
X234109777Y-116351090D01*
X234109210Y-116355844D01*
X234108758Y-116360683D01*
X234108405Y-116365605D01*
X234108158Y-116370612D01*
X234107961Y-116380859D01*
X234008579Y-116380859D01*
X234008647Y-116374799D01*
X234009024Y-116364649D01*
X234009643Y-116354833D01*
X234010516Y-116345348D01*
X234011627Y-116336189D01*
X234012983Y-116327349D01*
X234014581Y-116318829D01*
X234016413Y-116310620D01*
X234018483Y-116302729D01*
X234020790Y-116295140D01*
X234023332Y-116287852D01*
X234026106Y-116280871D01*
X234029103Y-116274175D01*
X234032331Y-116267787D01*
X234035783Y-116261676D01*
X234039462Y-116255851D01*
X234047083Y-116244828D01*
X234050848Y-116239576D01*
X234054577Y-116234497D01*
X234058280Y-116229598D01*
X234061963Y-116224869D01*
X234065618Y-116220325D01*
X234069255Y-116215957D01*
X234072870Y-116211769D01*
X234076469Y-116207767D01*
X234080057Y-116203948D01*
X234083629Y-116200317D01*
X234087197Y-116196871D01*
X234090753Y-116193611D01*
X234094311Y-116190541D01*
X234097859Y-116187661D01*
X234101267Y-116184711D01*
X234104861Y-116181771D01*
X234108638Y-116178842D01*
X234112601Y-116175921D01*
X234121080Y-116170104D01*
X234130301Y-116164305D01*
X234140257Y-116158503D01*
X234150954Y-116152682D01*
X234162393Y-116146836D01*
X234174574Y-116140942D01*
X234180861Y-116138182D01*
X234187296Y-116135588D01*
X234193880Y-116133158D01*
X234200605Y-116130896D01*
X234207477Y-116128808D01*
X234214494Y-116126886D01*
X234221654Y-116125146D01*
X234228948Y-116123579D01*
X234236389Y-116122191D01*
X234243969Y-116120978D01*
X234251689Y-116119946D01*
X234259539Y-116119102D01*
X234267536Y-116118441D01*
X234275665Y-116117963D01*
X234283926Y-116117676D01*
X234292327Y-116117582D01*
X234292327Y-116117896D01*
G37*
D11*
X210405967Y-111094924D02*
X210072634Y-110618733D01*
X209834539Y-111094924D02*
X209834539Y-110094924D01*
X209834539Y-110094924D02*
X210215491Y-110094924D01*
X210215491Y-110094924D02*
X210310729Y-110142543D01*
X210310729Y-110142543D02*
X210358348Y-110190162D01*
X210358348Y-110190162D02*
X210405967Y-110285400D01*
X210405967Y-110285400D02*
X210405967Y-110428257D01*
X210405967Y-110428257D02*
X210358348Y-110523495D01*
X210358348Y-110523495D02*
X210310729Y-110571114D01*
X210310729Y-110571114D02*
X210215491Y-110618733D01*
X210215491Y-110618733D02*
X209834539Y-110618733D01*
X211215491Y-111047305D02*
X211120253Y-111094924D01*
X211120253Y-111094924D02*
X210929777Y-111094924D01*
X210929777Y-111094924D02*
X210834539Y-111047305D01*
X210834539Y-111047305D02*
X210786920Y-110952066D01*
X210786920Y-110952066D02*
X210786920Y-110571114D01*
X210786920Y-110571114D02*
X210834539Y-110475876D01*
X210834539Y-110475876D02*
X210929777Y-110428257D01*
X210929777Y-110428257D02*
X211120253Y-110428257D01*
X211120253Y-110428257D02*
X211215491Y-110475876D01*
X211215491Y-110475876D02*
X211263110Y-110571114D01*
X211263110Y-110571114D02*
X211263110Y-110666352D01*
X211263110Y-110666352D02*
X210786920Y-110761590D01*
X212120253Y-111047305D02*
X212025015Y-111094924D01*
X212025015Y-111094924D02*
X211834539Y-111094924D01*
X211834539Y-111094924D02*
X211739301Y-111047305D01*
X211739301Y-111047305D02*
X211691682Y-110999685D01*
X211691682Y-110999685D02*
X211644063Y-110904447D01*
X211644063Y-110904447D02*
X211644063Y-110618733D01*
X211644063Y-110618733D02*
X211691682Y-110523495D01*
X211691682Y-110523495D02*
X211739301Y-110475876D01*
X211739301Y-110475876D02*
X211834539Y-110428257D01*
X211834539Y-110428257D02*
X212025015Y-110428257D01*
X212025015Y-110428257D02*
X212120253Y-110475876D01*
X212548825Y-111094924D02*
X212548825Y-110094924D01*
X212977396Y-111094924D02*
X212977396Y-110571114D01*
X212977396Y-110571114D02*
X212929777Y-110475876D01*
X212929777Y-110475876D02*
X212834539Y-110428257D01*
X212834539Y-110428257D02*
X212691682Y-110428257D01*
X212691682Y-110428257D02*
X212596444Y-110475876D01*
X212596444Y-110475876D02*
X212548825Y-110523495D01*
X213834539Y-111047305D02*
X213739301Y-111094924D01*
X213739301Y-111094924D02*
X213548825Y-111094924D01*
X213548825Y-111094924D02*
X213453587Y-111047305D01*
X213453587Y-111047305D02*
X213405968Y-110952066D01*
X213405968Y-110952066D02*
X213405968Y-110571114D01*
X213405968Y-110571114D02*
X213453587Y-110475876D01*
X213453587Y-110475876D02*
X213548825Y-110428257D01*
X213548825Y-110428257D02*
X213739301Y-110428257D01*
X213739301Y-110428257D02*
X213834539Y-110475876D01*
X213834539Y-110475876D02*
X213882158Y-110571114D01*
X213882158Y-110571114D02*
X213882158Y-110666352D01*
X213882158Y-110666352D02*
X213405968Y-110761590D01*
X214263111Y-111047305D02*
X214358349Y-111094924D01*
X214358349Y-111094924D02*
X214548825Y-111094924D01*
X214548825Y-111094924D02*
X214644063Y-111047305D01*
X214644063Y-111047305D02*
X214691682Y-110952066D01*
X214691682Y-110952066D02*
X214691682Y-110904447D01*
X214691682Y-110904447D02*
X214644063Y-110809209D01*
X214644063Y-110809209D02*
X214548825Y-110761590D01*
X214548825Y-110761590D02*
X214405968Y-110761590D01*
X214405968Y-110761590D02*
X214310730Y-110713971D01*
X214310730Y-110713971D02*
X214263111Y-110618733D01*
X214263111Y-110618733D02*
X214263111Y-110571114D01*
X214263111Y-110571114D02*
X214310730Y-110475876D01*
X214310730Y-110475876D02*
X214405968Y-110428257D01*
X214405968Y-110428257D02*
X214548825Y-110428257D01*
X214548825Y-110428257D02*
X214644063Y-110475876D01*
X215548825Y-111094924D02*
X215548825Y-110571114D01*
X215548825Y-110571114D02*
X215501206Y-110475876D01*
X215501206Y-110475876D02*
X215405968Y-110428257D01*
X215405968Y-110428257D02*
X215215492Y-110428257D01*
X215215492Y-110428257D02*
X215120254Y-110475876D01*
X215548825Y-111047305D02*
X215453587Y-111094924D01*
X215453587Y-111094924D02*
X215215492Y-111094924D01*
X215215492Y-111094924D02*
X215120254Y-111047305D01*
X215120254Y-111047305D02*
X215072635Y-110952066D01*
X215072635Y-110952066D02*
X215072635Y-110856828D01*
X215072635Y-110856828D02*
X215120254Y-110761590D01*
X215120254Y-110761590D02*
X215215492Y-110713971D01*
X215215492Y-110713971D02*
X215453587Y-110713971D01*
X215453587Y-110713971D02*
X215548825Y-110666352D01*
X216025016Y-110428257D02*
X216025016Y-111094924D01*
X216025016Y-110523495D02*
X216072635Y-110475876D01*
X216072635Y-110475876D02*
X216167873Y-110428257D01*
X216167873Y-110428257D02*
X216310730Y-110428257D01*
X216310730Y-110428257D02*
X216405968Y-110475876D01*
X216405968Y-110475876D02*
X216453587Y-110571114D01*
X216453587Y-110571114D02*
X216453587Y-111094924D01*
X218263111Y-111094924D02*
X217929778Y-110618733D01*
X217691683Y-111094924D02*
X217691683Y-110094924D01*
X217691683Y-110094924D02*
X218072635Y-110094924D01*
X218072635Y-110094924D02*
X218167873Y-110142543D01*
X218167873Y-110142543D02*
X218215492Y-110190162D01*
X218215492Y-110190162D02*
X218263111Y-110285400D01*
X218263111Y-110285400D02*
X218263111Y-110428257D01*
X218263111Y-110428257D02*
X218215492Y-110523495D01*
X218215492Y-110523495D02*
X218167873Y-110571114D01*
X218167873Y-110571114D02*
X218072635Y-110618733D01*
X218072635Y-110618733D02*
X217691683Y-110618733D01*
X219120254Y-111094924D02*
X219120254Y-110571114D01*
X219120254Y-110571114D02*
X219072635Y-110475876D01*
X219072635Y-110475876D02*
X218977397Y-110428257D01*
X218977397Y-110428257D02*
X218786921Y-110428257D01*
X218786921Y-110428257D02*
X218691683Y-110475876D01*
X219120254Y-111047305D02*
X219025016Y-111094924D01*
X219025016Y-111094924D02*
X218786921Y-111094924D01*
X218786921Y-111094924D02*
X218691683Y-111047305D01*
X218691683Y-111047305D02*
X218644064Y-110952066D01*
X218644064Y-110952066D02*
X218644064Y-110856828D01*
X218644064Y-110856828D02*
X218691683Y-110761590D01*
X218691683Y-110761590D02*
X218786921Y-110713971D01*
X218786921Y-110713971D02*
X219025016Y-110713971D01*
X219025016Y-110713971D02*
X219120254Y-110666352D01*
X219596445Y-111094924D02*
X219596445Y-110428257D01*
X219596445Y-110618733D02*
X219644064Y-110523495D01*
X219644064Y-110523495D02*
X219691683Y-110475876D01*
X219691683Y-110475876D02*
X219786921Y-110428257D01*
X219786921Y-110428257D02*
X219882159Y-110428257D01*
X220596445Y-111047305D02*
X220501207Y-111094924D01*
X220501207Y-111094924D02*
X220310731Y-111094924D01*
X220310731Y-111094924D02*
X220215493Y-111047305D01*
X220215493Y-111047305D02*
X220167874Y-110952066D01*
X220167874Y-110952066D02*
X220167874Y-110571114D01*
X220167874Y-110571114D02*
X220215493Y-110475876D01*
X220215493Y-110475876D02*
X220310731Y-110428257D01*
X220310731Y-110428257D02*
X220501207Y-110428257D01*
X220501207Y-110428257D02*
X220596445Y-110475876D01*
X220596445Y-110475876D02*
X220644064Y-110571114D01*
X220644064Y-110571114D02*
X220644064Y-110666352D01*
X220644064Y-110666352D02*
X220167874Y-110761590D01*
X221025017Y-111047305D02*
X221120255Y-111094924D01*
X221120255Y-111094924D02*
X221310731Y-111094924D01*
X221310731Y-111094924D02*
X221405969Y-111047305D01*
X221405969Y-111047305D02*
X221453588Y-110952066D01*
X221453588Y-110952066D02*
X221453588Y-110904447D01*
X221453588Y-110904447D02*
X221405969Y-110809209D01*
X221405969Y-110809209D02*
X221310731Y-110761590D01*
X221310731Y-110761590D02*
X221167874Y-110761590D01*
X221167874Y-110761590D02*
X221072636Y-110713971D01*
X221072636Y-110713971D02*
X221025017Y-110618733D01*
X221025017Y-110618733D02*
X221025017Y-110571114D01*
X221025017Y-110571114D02*
X221072636Y-110475876D01*
X221072636Y-110475876D02*
X221167874Y-110428257D01*
X221167874Y-110428257D02*
X221310731Y-110428257D01*
X221310731Y-110428257D02*
X221405969Y-110475876D01*
X210025015Y-111704868D02*
X210215491Y-111704868D01*
X210215491Y-111704868D02*
X210310729Y-111752487D01*
X210310729Y-111752487D02*
X210405967Y-111847725D01*
X210405967Y-111847725D02*
X210453586Y-112038201D01*
X210453586Y-112038201D02*
X210453586Y-112371534D01*
X210453586Y-112371534D02*
X210405967Y-112562010D01*
X210405967Y-112562010D02*
X210310729Y-112657249D01*
X210310729Y-112657249D02*
X210215491Y-112704868D01*
X210215491Y-112704868D02*
X210025015Y-112704868D01*
X210025015Y-112704868D02*
X209929777Y-112657249D01*
X209929777Y-112657249D02*
X209834539Y-112562010D01*
X209834539Y-112562010D02*
X209786920Y-112371534D01*
X209786920Y-112371534D02*
X209786920Y-112038201D01*
X209786920Y-112038201D02*
X209834539Y-111847725D01*
X209834539Y-111847725D02*
X209929777Y-111752487D01*
X209929777Y-111752487D02*
X210025015Y-111704868D01*
X210882158Y-112704868D02*
X210882158Y-111704868D01*
X210977396Y-112323915D02*
X211263110Y-112704868D01*
X211263110Y-112038201D02*
X210882158Y-112419153D01*
X211834539Y-112704868D02*
X211739301Y-112657249D01*
X211739301Y-112657249D02*
X211691682Y-112609629D01*
X211691682Y-112609629D02*
X211644063Y-112514391D01*
X211644063Y-112514391D02*
X211644063Y-112228677D01*
X211644063Y-112228677D02*
X211691682Y-112133439D01*
X211691682Y-112133439D02*
X211739301Y-112085820D01*
X211739301Y-112085820D02*
X211834539Y-112038201D01*
X211834539Y-112038201D02*
X211977396Y-112038201D01*
X211977396Y-112038201D02*
X212072634Y-112085820D01*
X212072634Y-112085820D02*
X212120253Y-112133439D01*
X212120253Y-112133439D02*
X212167872Y-112228677D01*
X212167872Y-112228677D02*
X212167872Y-112514391D01*
X212167872Y-112514391D02*
X212120253Y-112609629D01*
X212120253Y-112609629D02*
X212072634Y-112657249D01*
X212072634Y-112657249D02*
X211977396Y-112704868D01*
X211977396Y-112704868D02*
X211834539Y-112704868D01*
X213025015Y-112657249D02*
X212929777Y-112704868D01*
X212929777Y-112704868D02*
X212739301Y-112704868D01*
X212739301Y-112704868D02*
X212644063Y-112657249D01*
X212644063Y-112657249D02*
X212596444Y-112609629D01*
X212596444Y-112609629D02*
X212548825Y-112514391D01*
X212548825Y-112514391D02*
X212548825Y-112228677D01*
X212548825Y-112228677D02*
X212596444Y-112133439D01*
X212596444Y-112133439D02*
X212644063Y-112085820D01*
X212644063Y-112085820D02*
X212739301Y-112038201D01*
X212739301Y-112038201D02*
X212929777Y-112038201D01*
X212929777Y-112038201D02*
X213025015Y-112085820D01*
X213453587Y-112704868D02*
X213453587Y-111704868D01*
X213882158Y-112704868D02*
X213882158Y-112181058D01*
X213882158Y-112181058D02*
X213834539Y-112085820D01*
X213834539Y-112085820D02*
X213739301Y-112038201D01*
X213739301Y-112038201D02*
X213596444Y-112038201D01*
X213596444Y-112038201D02*
X213501206Y-112085820D01*
X213501206Y-112085820D02*
X213453587Y-112133439D01*
X214358349Y-112704868D02*
X214358349Y-112038201D01*
X214358349Y-111704868D02*
X214310730Y-111752487D01*
X214310730Y-111752487D02*
X214358349Y-111800106D01*
X214358349Y-111800106D02*
X214405968Y-111752487D01*
X214405968Y-111752487D02*
X214358349Y-111704868D01*
X214358349Y-111704868D02*
X214358349Y-111800106D01*
X215596444Y-112704868D02*
X215596444Y-111704868D01*
X215596444Y-111704868D02*
X216167872Y-112704868D01*
X216167872Y-112704868D02*
X216167872Y-111704868D01*
X216644063Y-112704868D02*
X216644063Y-112038201D01*
X216644063Y-111704868D02*
X216596444Y-111752487D01*
X216596444Y-111752487D02*
X216644063Y-111800106D01*
X216644063Y-111800106D02*
X216691682Y-111752487D01*
X216691682Y-111752487D02*
X216644063Y-111704868D01*
X216644063Y-111704868D02*
X216644063Y-111800106D01*
X217120253Y-112704868D02*
X217120253Y-111704868D01*
X217215491Y-112323915D02*
X217501205Y-112704868D01*
X217501205Y-112038201D02*
X217120253Y-112419153D01*
X218072634Y-112704868D02*
X217977396Y-112657249D01*
X217977396Y-112657249D02*
X217929777Y-112609629D01*
X217929777Y-112609629D02*
X217882158Y-112514391D01*
X217882158Y-112514391D02*
X217882158Y-112228677D01*
X217882158Y-112228677D02*
X217929777Y-112133439D01*
X217929777Y-112133439D02*
X217977396Y-112085820D01*
X217977396Y-112085820D02*
X218072634Y-112038201D01*
X218072634Y-112038201D02*
X218215491Y-112038201D01*
X218215491Y-112038201D02*
X218310729Y-112085820D01*
X218310729Y-112085820D02*
X218358348Y-112133439D01*
X218358348Y-112133439D02*
X218405967Y-112228677D01*
X218405967Y-112228677D02*
X218405967Y-112514391D01*
X218405967Y-112514391D02*
X218358348Y-112609629D01*
X218358348Y-112609629D02*
X218310729Y-112657249D01*
X218310729Y-112657249D02*
X218215491Y-112704868D01*
X218215491Y-112704868D02*
X218072634Y-112704868D01*
X218977396Y-112704868D02*
X218882158Y-112657249D01*
X218882158Y-112657249D02*
X218834539Y-112562010D01*
X218834539Y-112562010D02*
X218834539Y-111704868D01*
X219786920Y-112704868D02*
X219786920Y-112181058D01*
X219786920Y-112181058D02*
X219739301Y-112085820D01*
X219739301Y-112085820D02*
X219644063Y-112038201D01*
X219644063Y-112038201D02*
X219453587Y-112038201D01*
X219453587Y-112038201D02*
X219358349Y-112085820D01*
X219786920Y-112657249D02*
X219691682Y-112704868D01*
X219691682Y-112704868D02*
X219453587Y-112704868D01*
X219453587Y-112704868D02*
X219358349Y-112657249D01*
X219358349Y-112657249D02*
X219310730Y-112562010D01*
X219310730Y-112562010D02*
X219310730Y-112466772D01*
X219310730Y-112466772D02*
X219358349Y-112371534D01*
X219358349Y-112371534D02*
X219453587Y-112323915D01*
X219453587Y-112323915D02*
X219691682Y-112323915D01*
X219691682Y-112323915D02*
X219786920Y-112276296D01*
X220215492Y-112657249D02*
X220310730Y-112704868D01*
X220310730Y-112704868D02*
X220501206Y-112704868D01*
X220501206Y-112704868D02*
X220596444Y-112657249D01*
X220596444Y-112657249D02*
X220644063Y-112562010D01*
X220644063Y-112562010D02*
X220644063Y-112514391D01*
X220644063Y-112514391D02*
X220596444Y-112419153D01*
X220596444Y-112419153D02*
X220501206Y-112371534D01*
X220501206Y-112371534D02*
X220358349Y-112371534D01*
X220358349Y-112371534D02*
X220263111Y-112323915D01*
X220263111Y-112323915D02*
X220215492Y-112228677D01*
X220215492Y-112228677D02*
X220215492Y-112181058D01*
X220215492Y-112181058D02*
X220263111Y-112085820D01*
X220263111Y-112085820D02*
X220358349Y-112038201D01*
X220358349Y-112038201D02*
X220501206Y-112038201D01*
X220501206Y-112038201D02*
X220596444Y-112085820D01*
X210453586Y-115448565D02*
X210405967Y-115400946D01*
X210405967Y-115400946D02*
X210310729Y-115353327D01*
X210310729Y-115353327D02*
X210215491Y-115353327D01*
X210215491Y-115353327D02*
X210120253Y-115400946D01*
X210120253Y-115400946D02*
X210072634Y-115448565D01*
X210072634Y-115448565D02*
X210025015Y-115543803D01*
X210025015Y-115543803D02*
X210025015Y-115639041D01*
X210025015Y-115639041D02*
X210072634Y-115734279D01*
X210072634Y-115734279D02*
X210120253Y-115781898D01*
X210120253Y-115781898D02*
X210215491Y-115829517D01*
X210215491Y-115829517D02*
X210310729Y-115829517D01*
X210310729Y-115829517D02*
X210405967Y-115781898D01*
X210405967Y-115781898D02*
X210453586Y-115734279D01*
X210453586Y-115353327D02*
X210453586Y-115734279D01*
X210453586Y-115734279D02*
X210501205Y-115781898D01*
X210501205Y-115781898D02*
X210548824Y-115781898D01*
X210548824Y-115781898D02*
X210644063Y-115734279D01*
X210644063Y-115734279D02*
X210691682Y-115639041D01*
X210691682Y-115639041D02*
X210691682Y-115400946D01*
X210691682Y-115400946D02*
X210596444Y-115258089D01*
X210596444Y-115258089D02*
X210453586Y-115162851D01*
X210453586Y-115162851D02*
X210263110Y-115115232D01*
X210263110Y-115115232D02*
X210072634Y-115162851D01*
X210072634Y-115162851D02*
X209929777Y-115258089D01*
X209929777Y-115258089D02*
X209834539Y-115400946D01*
X209834539Y-115400946D02*
X209786920Y-115591422D01*
X209786920Y-115591422D02*
X209834539Y-115781898D01*
X209834539Y-115781898D02*
X209929777Y-115924756D01*
X209929777Y-115924756D02*
X210072634Y-116019994D01*
X210072634Y-116019994D02*
X210263110Y-116067613D01*
X210263110Y-116067613D02*
X210453586Y-116019994D01*
X210453586Y-116019994D02*
X210596444Y-115924756D01*
X211453586Y-115400946D02*
X211120253Y-115400946D01*
X211120253Y-115924756D02*
X211120253Y-114924756D01*
X211120253Y-114924756D02*
X211596443Y-114924756D01*
X211977396Y-115829517D02*
X212025015Y-115877137D01*
X212025015Y-115877137D02*
X211977396Y-115924756D01*
X211977396Y-115924756D02*
X211929777Y-115877137D01*
X211929777Y-115877137D02*
X211977396Y-115829517D01*
X211977396Y-115829517D02*
X211977396Y-115924756D01*
X212453586Y-115924756D02*
X212453586Y-114924756D01*
X212929776Y-115829517D02*
X212977395Y-115877137D01*
X212977395Y-115877137D02*
X212929776Y-115924756D01*
X212929776Y-115924756D02*
X212882157Y-115877137D01*
X212882157Y-115877137D02*
X212929776Y-115829517D01*
X212929776Y-115829517D02*
X212929776Y-115924756D01*
X213405966Y-115400946D02*
X213739299Y-115400946D01*
X213882156Y-115924756D02*
X213405966Y-115924756D01*
X213405966Y-115924756D02*
X213405966Y-114924756D01*
X213405966Y-114924756D02*
X213882156Y-114924756D01*
X215072633Y-114924756D02*
X215072633Y-115734279D01*
X215072633Y-115734279D02*
X215120252Y-115829517D01*
X215120252Y-115829517D02*
X215167871Y-115877137D01*
X215167871Y-115877137D02*
X215263109Y-115924756D01*
X215263109Y-115924756D02*
X215453585Y-115924756D01*
X215453585Y-115924756D02*
X215548823Y-115877137D01*
X215548823Y-115877137D02*
X215596442Y-115829517D01*
X215596442Y-115829517D02*
X215644061Y-115734279D01*
X215644061Y-115734279D02*
X215644061Y-114924756D01*
X215977395Y-114924756D02*
X216548823Y-114924756D01*
X216263109Y-115924756D02*
X216263109Y-114924756D01*
X217453585Y-115829517D02*
X217405966Y-115877137D01*
X217405966Y-115877137D02*
X217263109Y-115924756D01*
X217263109Y-115924756D02*
X217167871Y-115924756D01*
X217167871Y-115924756D02*
X217025014Y-115877137D01*
X217025014Y-115877137D02*
X216929776Y-115781898D01*
X216929776Y-115781898D02*
X216882157Y-115686660D01*
X216882157Y-115686660D02*
X216834538Y-115496184D01*
X216834538Y-115496184D02*
X216834538Y-115353327D01*
X216834538Y-115353327D02*
X216882157Y-115162851D01*
X216882157Y-115162851D02*
X216929776Y-115067613D01*
X216929776Y-115067613D02*
X217025014Y-114972375D01*
X217025014Y-114972375D02*
X217167871Y-114924756D01*
X217167871Y-114924756D02*
X217263109Y-114924756D01*
X217263109Y-114924756D02*
X217405966Y-114972375D01*
X217405966Y-114972375D02*
X217453585Y-115019994D01*
X217882157Y-115924756D02*
X217882157Y-114924756D01*
X217882157Y-114924756D02*
X218453585Y-115924756D01*
X218453585Y-115924756D02*
X218453585Y-114924756D01*
X219644062Y-115019994D02*
X219691681Y-114972375D01*
X219691681Y-114972375D02*
X219786919Y-114924756D01*
X219786919Y-114924756D02*
X220025014Y-114924756D01*
X220025014Y-114924756D02*
X220120252Y-114972375D01*
X220120252Y-114972375D02*
X220167871Y-115019994D01*
X220167871Y-115019994D02*
X220215490Y-115115232D01*
X220215490Y-115115232D02*
X220215490Y-115210470D01*
X220215490Y-115210470D02*
X220167871Y-115353327D01*
X220167871Y-115353327D02*
X219596443Y-115924756D01*
X219596443Y-115924756D02*
X220215490Y-115924756D01*
X220834538Y-114924756D02*
X220929776Y-114924756D01*
X220929776Y-114924756D02*
X221025014Y-114972375D01*
X221025014Y-114972375D02*
X221072633Y-115019994D01*
X221072633Y-115019994D02*
X221120252Y-115115232D01*
X221120252Y-115115232D02*
X221167871Y-115305708D01*
X221167871Y-115305708D02*
X221167871Y-115543803D01*
X221167871Y-115543803D02*
X221120252Y-115734279D01*
X221120252Y-115734279D02*
X221072633Y-115829517D01*
X221072633Y-115829517D02*
X221025014Y-115877137D01*
X221025014Y-115877137D02*
X220929776Y-115924756D01*
X220929776Y-115924756D02*
X220834538Y-115924756D01*
X220834538Y-115924756D02*
X220739300Y-115877137D01*
X220739300Y-115877137D02*
X220691681Y-115829517D01*
X220691681Y-115829517D02*
X220644062Y-115734279D01*
X220644062Y-115734279D02*
X220596443Y-115543803D01*
X220596443Y-115543803D02*
X220596443Y-115305708D01*
X220596443Y-115305708D02*
X220644062Y-115115232D01*
X220644062Y-115115232D02*
X220691681Y-115019994D01*
X220691681Y-115019994D02*
X220739300Y-114972375D01*
X220739300Y-114972375D02*
X220834538Y-114924756D01*
X221548824Y-115019994D02*
X221596443Y-114972375D01*
X221596443Y-114972375D02*
X221691681Y-114924756D01*
X221691681Y-114924756D02*
X221929776Y-114924756D01*
X221929776Y-114924756D02*
X222025014Y-114972375D01*
X222025014Y-114972375D02*
X222072633Y-115019994D01*
X222072633Y-115019994D02*
X222120252Y-115115232D01*
X222120252Y-115115232D02*
X222120252Y-115210470D01*
X222120252Y-115210470D02*
X222072633Y-115353327D01*
X222072633Y-115353327D02*
X221501205Y-115924756D01*
X221501205Y-115924756D02*
X222120252Y-115924756D01*
X222977395Y-114924756D02*
X222786919Y-114924756D01*
X222786919Y-114924756D02*
X222691681Y-114972375D01*
X222691681Y-114972375D02*
X222644062Y-115019994D01*
X222644062Y-115019994D02*
X222548824Y-115162851D01*
X222548824Y-115162851D02*
X222501205Y-115353327D01*
X222501205Y-115353327D02*
X222501205Y-115734279D01*
X222501205Y-115734279D02*
X222548824Y-115829517D01*
X222548824Y-115829517D02*
X222596443Y-115877137D01*
X222596443Y-115877137D02*
X222691681Y-115924756D01*
X222691681Y-115924756D02*
X222882157Y-115924756D01*
X222882157Y-115924756D02*
X222977395Y-115877137D01*
X222977395Y-115877137D02*
X223025014Y-115829517D01*
X223025014Y-115829517D02*
X223072633Y-115734279D01*
X223072633Y-115734279D02*
X223072633Y-115496184D01*
X223072633Y-115496184D02*
X223025014Y-115400946D01*
X223025014Y-115400946D02*
X222977395Y-115353327D01*
X222977395Y-115353327D02*
X222882157Y-115305708D01*
X222882157Y-115305708D02*
X222691681Y-115305708D01*
X222691681Y-115305708D02*
X222596443Y-115353327D01*
X222596443Y-115353327D02*
X222548824Y-115400946D01*
X222548824Y-115400946D02*
X222501205Y-115496184D01*
X209834539Y-117439461D02*
X209882158Y-117487081D01*
X209882158Y-117487081D02*
X209834539Y-117534700D01*
X209834539Y-117534700D02*
X209786920Y-117487081D01*
X209786920Y-117487081D02*
X209834539Y-117439461D01*
X209834539Y-117439461D02*
X209834539Y-117534700D01*
X209834539Y-116915652D02*
X209882158Y-116963271D01*
X209882158Y-116963271D02*
X209834539Y-117010890D01*
X209834539Y-117010890D02*
X209786920Y-116963271D01*
X209786920Y-116963271D02*
X209834539Y-116915652D01*
X209834539Y-116915652D02*
X209834539Y-117010890D01*
X210215491Y-117915652D02*
X210263110Y-117868033D01*
X210263110Y-117868033D02*
X210358348Y-117725176D01*
X210358348Y-117725176D02*
X210405967Y-117629938D01*
X210405967Y-117629938D02*
X210453586Y-117487081D01*
X210453586Y-117487081D02*
X210501205Y-117248985D01*
X210501205Y-117248985D02*
X210501205Y-117058509D01*
X210501205Y-117058509D02*
X210453586Y-116820414D01*
X210453586Y-116820414D02*
X210405967Y-116677557D01*
X210405967Y-116677557D02*
X210358348Y-116582319D01*
X210358348Y-116582319D02*
X210263110Y-116439461D01*
X210263110Y-116439461D02*
X210215491Y-116391842D01*
D12*
X208545260Y-109102605D02*
X239606846Y-109102605D01*
X239606846Y-119243881D01*
X208545260Y-119243881D01*
X208545260Y-109102605D01*
D11*
X166354819Y-83138094D02*
X165354819Y-83138094D01*
X165354819Y-83138094D02*
X165354819Y-82899999D01*
X165354819Y-82899999D02*
X165402438Y-82757142D01*
X165402438Y-82757142D02*
X165497676Y-82661904D01*
X165497676Y-82661904D02*
X165592914Y-82614285D01*
X165592914Y-82614285D02*
X165783390Y-82566666D01*
X165783390Y-82566666D02*
X165926247Y-82566666D01*
X165926247Y-82566666D02*
X166116723Y-82614285D01*
X166116723Y-82614285D02*
X166211961Y-82661904D01*
X166211961Y-82661904D02*
X166307200Y-82757142D01*
X166307200Y-82757142D02*
X166354819Y-82899999D01*
X166354819Y-82899999D02*
X166354819Y-83138094D01*
X166354819Y-81614285D02*
X166354819Y-82185713D01*
X166354819Y-81899999D02*
X165354819Y-81899999D01*
X165354819Y-81899999D02*
X165497676Y-81995237D01*
X165497676Y-81995237D02*
X165592914Y-82090475D01*
X165592914Y-82090475D02*
X165640533Y-82185713D01*
X152924819Y-55451904D02*
X153734342Y-55451904D01*
X153734342Y-55451904D02*
X153829580Y-55404285D01*
X153829580Y-55404285D02*
X153877200Y-55356666D01*
X153877200Y-55356666D02*
X153924819Y-55261428D01*
X153924819Y-55261428D02*
X153924819Y-55070952D01*
X153924819Y-55070952D02*
X153877200Y-54975714D01*
X153877200Y-54975714D02*
X153829580Y-54928095D01*
X153829580Y-54928095D02*
X153734342Y-54880476D01*
X153734342Y-54880476D02*
X152924819Y-54880476D01*
X153924819Y-53880476D02*
X153924819Y-54451904D01*
X153924819Y-54166190D02*
X152924819Y-54166190D01*
X152924819Y-54166190D02*
X153067676Y-54261428D01*
X153067676Y-54261428D02*
X153162914Y-54356666D01*
X153162914Y-54356666D02*
X153210533Y-54451904D01*
X189504819Y-91117857D02*
X189028628Y-91451190D01*
X189504819Y-91689285D02*
X188504819Y-91689285D01*
X188504819Y-91689285D02*
X188504819Y-91308333D01*
X188504819Y-91308333D02*
X188552438Y-91213095D01*
X188552438Y-91213095D02*
X188600057Y-91165476D01*
X188600057Y-91165476D02*
X188695295Y-91117857D01*
X188695295Y-91117857D02*
X188838152Y-91117857D01*
X188838152Y-91117857D02*
X188933390Y-91165476D01*
X188933390Y-91165476D02*
X188981009Y-91213095D01*
X188981009Y-91213095D02*
X189028628Y-91308333D01*
X189028628Y-91308333D02*
X189028628Y-91689285D01*
X189504819Y-90165476D02*
X189504819Y-90736904D01*
X189504819Y-90451190D02*
X188504819Y-90451190D01*
X188504819Y-90451190D02*
X188647676Y-90546428D01*
X188647676Y-90546428D02*
X188742914Y-90641666D01*
X188742914Y-90641666D02*
X188790533Y-90736904D01*
X188504819Y-89546428D02*
X188504819Y-89451190D01*
X188504819Y-89451190D02*
X188552438Y-89355952D01*
X188552438Y-89355952D02*
X188600057Y-89308333D01*
X188600057Y-89308333D02*
X188695295Y-89260714D01*
X188695295Y-89260714D02*
X188885771Y-89213095D01*
X188885771Y-89213095D02*
X189123866Y-89213095D01*
X189123866Y-89213095D02*
X189314342Y-89260714D01*
X189314342Y-89260714D02*
X189409580Y-89308333D01*
X189409580Y-89308333D02*
X189457200Y-89355952D01*
X189457200Y-89355952D02*
X189504819Y-89451190D01*
X189504819Y-89451190D02*
X189504819Y-89546428D01*
X189504819Y-89546428D02*
X189457200Y-89641666D01*
X189457200Y-89641666D02*
X189409580Y-89689285D01*
X189409580Y-89689285D02*
X189314342Y-89736904D01*
X189314342Y-89736904D02*
X189123866Y-89784523D01*
X189123866Y-89784523D02*
X188885771Y-89784523D01*
X188885771Y-89784523D02*
X188695295Y-89736904D01*
X188695295Y-89736904D02*
X188600057Y-89689285D01*
X188600057Y-89689285D02*
X188552438Y-89641666D01*
X188552438Y-89641666D02*
X188504819Y-89546428D01*
X189359580Y-94466666D02*
X189407200Y-94514285D01*
X189407200Y-94514285D02*
X189454819Y-94657142D01*
X189454819Y-94657142D02*
X189454819Y-94752380D01*
X189454819Y-94752380D02*
X189407200Y-94895237D01*
X189407200Y-94895237D02*
X189311961Y-94990475D01*
X189311961Y-94990475D02*
X189216723Y-95038094D01*
X189216723Y-95038094D02*
X189026247Y-95085713D01*
X189026247Y-95085713D02*
X188883390Y-95085713D01*
X188883390Y-95085713D02*
X188692914Y-95038094D01*
X188692914Y-95038094D02*
X188597676Y-94990475D01*
X188597676Y-94990475D02*
X188502438Y-94895237D01*
X188502438Y-94895237D02*
X188454819Y-94752380D01*
X188454819Y-94752380D02*
X188454819Y-94657142D01*
X188454819Y-94657142D02*
X188502438Y-94514285D01*
X188502438Y-94514285D02*
X188550057Y-94466666D01*
X188454819Y-93561904D02*
X188454819Y-94038094D01*
X188454819Y-94038094D02*
X188931009Y-94085713D01*
X188931009Y-94085713D02*
X188883390Y-94038094D01*
X188883390Y-94038094D02*
X188835771Y-93942856D01*
X188835771Y-93942856D02*
X188835771Y-93704761D01*
X188835771Y-93704761D02*
X188883390Y-93609523D01*
X188883390Y-93609523D02*
X188931009Y-93561904D01*
X188931009Y-93561904D02*
X189026247Y-93514285D01*
X189026247Y-93514285D02*
X189264342Y-93514285D01*
X189264342Y-93514285D02*
X189359580Y-93561904D01*
X189359580Y-93561904D02*
X189407200Y-93609523D01*
X189407200Y-93609523D02*
X189454819Y-93704761D01*
X189454819Y-93704761D02*
X189454819Y-93942856D01*
X189454819Y-93942856D02*
X189407200Y-94038094D01*
X189407200Y-94038094D02*
X189359580Y-94085713D01*
X173655952Y-48004819D02*
X173179762Y-48004819D01*
X173179762Y-48004819D02*
X173179762Y-47004819D01*
X173989286Y-47481009D02*
X174322619Y-47481009D01*
X174465476Y-48004819D02*
X173989286Y-48004819D01*
X173989286Y-48004819D02*
X173989286Y-47004819D01*
X173989286Y-47004819D02*
X174465476Y-47004819D01*
X174894048Y-48004819D02*
X174894048Y-47004819D01*
X174894048Y-47004819D02*
X175132143Y-47004819D01*
X175132143Y-47004819D02*
X175275000Y-47052438D01*
X175275000Y-47052438D02*
X175370238Y-47147676D01*
X175370238Y-47147676D02*
X175417857Y-47242914D01*
X175417857Y-47242914D02*
X175465476Y-47433390D01*
X175465476Y-47433390D02*
X175465476Y-47576247D01*
X175465476Y-47576247D02*
X175417857Y-47766723D01*
X175417857Y-47766723D02*
X175370238Y-47861961D01*
X175370238Y-47861961D02*
X175275000Y-47957200D01*
X175275000Y-47957200D02*
X175132143Y-48004819D01*
X175132143Y-48004819D02*
X174894048Y-48004819D01*
X176370238Y-47004819D02*
X175894048Y-47004819D01*
X175894048Y-47004819D02*
X175846429Y-47481009D01*
X175846429Y-47481009D02*
X175894048Y-47433390D01*
X175894048Y-47433390D02*
X175989286Y-47385771D01*
X175989286Y-47385771D02*
X176227381Y-47385771D01*
X176227381Y-47385771D02*
X176322619Y-47433390D01*
X176322619Y-47433390D02*
X176370238Y-47481009D01*
X176370238Y-47481009D02*
X176417857Y-47576247D01*
X176417857Y-47576247D02*
X176417857Y-47814342D01*
X176417857Y-47814342D02*
X176370238Y-47909580D01*
X176370238Y-47909580D02*
X176322619Y-47957200D01*
X176322619Y-47957200D02*
X176227381Y-48004819D01*
X176227381Y-48004819D02*
X175989286Y-48004819D01*
X175989286Y-48004819D02*
X175894048Y-47957200D01*
X175894048Y-47957200D02*
X175846429Y-47909580D01*
X182857142Y-36804819D02*
X182523809Y-36328628D01*
X182285714Y-36804819D02*
X182285714Y-35804819D01*
X182285714Y-35804819D02*
X182666666Y-35804819D01*
X182666666Y-35804819D02*
X182761904Y-35852438D01*
X182761904Y-35852438D02*
X182809523Y-35900057D01*
X182809523Y-35900057D02*
X182857142Y-35995295D01*
X182857142Y-35995295D02*
X182857142Y-36138152D01*
X182857142Y-36138152D02*
X182809523Y-36233390D01*
X182809523Y-36233390D02*
X182761904Y-36281009D01*
X182761904Y-36281009D02*
X182666666Y-36328628D01*
X182666666Y-36328628D02*
X182285714Y-36328628D01*
X183809523Y-36804819D02*
X183238095Y-36804819D01*
X183523809Y-36804819D02*
X183523809Y-35804819D01*
X183523809Y-35804819D02*
X183428571Y-35947676D01*
X183428571Y-35947676D02*
X183333333Y-36042914D01*
X183333333Y-36042914D02*
X183238095Y-36090533D01*
X184142857Y-35804819D02*
X184761904Y-35804819D01*
X184761904Y-35804819D02*
X184428571Y-36185771D01*
X184428571Y-36185771D02*
X184571428Y-36185771D01*
X184571428Y-36185771D02*
X184666666Y-36233390D01*
X184666666Y-36233390D02*
X184714285Y-36281009D01*
X184714285Y-36281009D02*
X184761904Y-36376247D01*
X184761904Y-36376247D02*
X184761904Y-36614342D01*
X184761904Y-36614342D02*
X184714285Y-36709580D01*
X184714285Y-36709580D02*
X184666666Y-36757200D01*
X184666666Y-36757200D02*
X184571428Y-36804819D01*
X184571428Y-36804819D02*
X184285714Y-36804819D01*
X184285714Y-36804819D02*
X184190476Y-36757200D01*
X184190476Y-36757200D02*
X184142857Y-36709580D01*
X194520833Y-94504819D02*
X194187500Y-94028628D01*
X193949405Y-94504819D02*
X193949405Y-93504819D01*
X193949405Y-93504819D02*
X194330357Y-93504819D01*
X194330357Y-93504819D02*
X194425595Y-93552438D01*
X194425595Y-93552438D02*
X194473214Y-93600057D01*
X194473214Y-93600057D02*
X194520833Y-93695295D01*
X194520833Y-93695295D02*
X194520833Y-93838152D01*
X194520833Y-93838152D02*
X194473214Y-93933390D01*
X194473214Y-93933390D02*
X194425595Y-93981009D01*
X194425595Y-93981009D02*
X194330357Y-94028628D01*
X194330357Y-94028628D02*
X193949405Y-94028628D01*
X194854167Y-93504819D02*
X195520833Y-93504819D01*
X195520833Y-93504819D02*
X195092262Y-94504819D01*
D13*
X168988333Y-102474318D02*
X168383571Y-102474318D01*
X168383571Y-102474318D02*
X168383571Y-101204318D01*
X170076905Y-102474318D02*
X169351190Y-102474318D01*
X169714047Y-102474318D02*
X169714047Y-101204318D01*
X169714047Y-101204318D02*
X169593095Y-101385746D01*
X169593095Y-101385746D02*
X169472143Y-101506699D01*
X169472143Y-101506699D02*
X169351190Y-101567175D01*
D11*
X152764819Y-75823333D02*
X153479104Y-75823333D01*
X153479104Y-75823333D02*
X153621961Y-75870952D01*
X153621961Y-75870952D02*
X153717200Y-75966190D01*
X153717200Y-75966190D02*
X153764819Y-76109047D01*
X153764819Y-76109047D02*
X153764819Y-76204285D01*
X153764819Y-74823333D02*
X153764819Y-75394761D01*
X153764819Y-75109047D02*
X152764819Y-75109047D01*
X152764819Y-75109047D02*
X152907676Y-75204285D01*
X152907676Y-75204285D02*
X153002914Y-75299523D01*
X153002914Y-75299523D02*
X153050533Y-75394761D01*
X194545833Y-90204819D02*
X194212500Y-89728628D01*
X193974405Y-90204819D02*
X193974405Y-89204819D01*
X193974405Y-89204819D02*
X194355357Y-89204819D01*
X194355357Y-89204819D02*
X194450595Y-89252438D01*
X194450595Y-89252438D02*
X194498214Y-89300057D01*
X194498214Y-89300057D02*
X194545833Y-89395295D01*
X194545833Y-89395295D02*
X194545833Y-89538152D01*
X194545833Y-89538152D02*
X194498214Y-89633390D01*
X194498214Y-89633390D02*
X194450595Y-89681009D01*
X194450595Y-89681009D02*
X194355357Y-89728628D01*
X194355357Y-89728628D02*
X193974405Y-89728628D01*
X195117262Y-89633390D02*
X195022024Y-89585771D01*
X195022024Y-89585771D02*
X194974405Y-89538152D01*
X194974405Y-89538152D02*
X194926786Y-89442914D01*
X194926786Y-89442914D02*
X194926786Y-89395295D01*
X194926786Y-89395295D02*
X194974405Y-89300057D01*
X194974405Y-89300057D02*
X195022024Y-89252438D01*
X195022024Y-89252438D02*
X195117262Y-89204819D01*
X195117262Y-89204819D02*
X195307738Y-89204819D01*
X195307738Y-89204819D02*
X195402976Y-89252438D01*
X195402976Y-89252438D02*
X195450595Y-89300057D01*
X195450595Y-89300057D02*
X195498214Y-89395295D01*
X195498214Y-89395295D02*
X195498214Y-89442914D01*
X195498214Y-89442914D02*
X195450595Y-89538152D01*
X195450595Y-89538152D02*
X195402976Y-89585771D01*
X195402976Y-89585771D02*
X195307738Y-89633390D01*
X195307738Y-89633390D02*
X195117262Y-89633390D01*
X195117262Y-89633390D02*
X195022024Y-89681009D01*
X195022024Y-89681009D02*
X194974405Y-89728628D01*
X194974405Y-89728628D02*
X194926786Y-89823866D01*
X194926786Y-89823866D02*
X194926786Y-90014342D01*
X194926786Y-90014342D02*
X194974405Y-90109580D01*
X194974405Y-90109580D02*
X195022024Y-90157200D01*
X195022024Y-90157200D02*
X195117262Y-90204819D01*
X195117262Y-90204819D02*
X195307738Y-90204819D01*
X195307738Y-90204819D02*
X195402976Y-90157200D01*
X195402976Y-90157200D02*
X195450595Y-90109580D01*
X195450595Y-90109580D02*
X195498214Y-90014342D01*
X195498214Y-90014342D02*
X195498214Y-89823866D01*
X195498214Y-89823866D02*
X195450595Y-89728628D01*
X195450595Y-89728628D02*
X195402976Y-89681009D01*
X195402976Y-89681009D02*
X195307738Y-89633390D01*
X184759580Y-94566666D02*
X184807200Y-94614285D01*
X184807200Y-94614285D02*
X184854819Y-94757142D01*
X184854819Y-94757142D02*
X184854819Y-94852380D01*
X184854819Y-94852380D02*
X184807200Y-94995237D01*
X184807200Y-94995237D02*
X184711961Y-95090475D01*
X184711961Y-95090475D02*
X184616723Y-95138094D01*
X184616723Y-95138094D02*
X184426247Y-95185713D01*
X184426247Y-95185713D02*
X184283390Y-95185713D01*
X184283390Y-95185713D02*
X184092914Y-95138094D01*
X184092914Y-95138094D02*
X183997676Y-95090475D01*
X183997676Y-95090475D02*
X183902438Y-94995237D01*
X183902438Y-94995237D02*
X183854819Y-94852380D01*
X183854819Y-94852380D02*
X183854819Y-94757142D01*
X183854819Y-94757142D02*
X183902438Y-94614285D01*
X183902438Y-94614285D02*
X183950057Y-94566666D01*
X184188152Y-93709523D02*
X184854819Y-93709523D01*
X183807200Y-93947618D02*
X184521485Y-94185713D01*
X184521485Y-94185713D02*
X184521485Y-93566666D01*
X175445833Y-54104819D02*
X175112500Y-53628628D01*
X174874405Y-54104819D02*
X174874405Y-53104819D01*
X174874405Y-53104819D02*
X175255357Y-53104819D01*
X175255357Y-53104819D02*
X175350595Y-53152438D01*
X175350595Y-53152438D02*
X175398214Y-53200057D01*
X175398214Y-53200057D02*
X175445833Y-53295295D01*
X175445833Y-53295295D02*
X175445833Y-53438152D01*
X175445833Y-53438152D02*
X175398214Y-53533390D01*
X175398214Y-53533390D02*
X175350595Y-53581009D01*
X175350595Y-53581009D02*
X175255357Y-53628628D01*
X175255357Y-53628628D02*
X174874405Y-53628628D01*
X175826786Y-53200057D02*
X175874405Y-53152438D01*
X175874405Y-53152438D02*
X175969643Y-53104819D01*
X175969643Y-53104819D02*
X176207738Y-53104819D01*
X176207738Y-53104819D02*
X176302976Y-53152438D01*
X176302976Y-53152438D02*
X176350595Y-53200057D01*
X176350595Y-53200057D02*
X176398214Y-53295295D01*
X176398214Y-53295295D02*
X176398214Y-53390533D01*
X176398214Y-53390533D02*
X176350595Y-53533390D01*
X176350595Y-53533390D02*
X175779167Y-54104819D01*
X175779167Y-54104819D02*
X176398214Y-54104819D01*
X183932319Y-105971904D02*
X184741842Y-105971904D01*
X184741842Y-105971904D02*
X184837080Y-105924285D01*
X184837080Y-105924285D02*
X184884700Y-105876666D01*
X184884700Y-105876666D02*
X184932319Y-105781428D01*
X184932319Y-105781428D02*
X184932319Y-105590952D01*
X184932319Y-105590952D02*
X184884700Y-105495714D01*
X184884700Y-105495714D02*
X184837080Y-105448095D01*
X184837080Y-105448095D02*
X184741842Y-105400476D01*
X184741842Y-105400476D02*
X183932319Y-105400476D01*
X183932319Y-105019523D02*
X183932319Y-104400476D01*
X183932319Y-104400476D02*
X184313271Y-104733809D01*
X184313271Y-104733809D02*
X184313271Y-104590952D01*
X184313271Y-104590952D02*
X184360890Y-104495714D01*
X184360890Y-104495714D02*
X184408509Y-104448095D01*
X184408509Y-104448095D02*
X184503747Y-104400476D01*
X184503747Y-104400476D02*
X184741842Y-104400476D01*
X184741842Y-104400476D02*
X184837080Y-104448095D01*
X184837080Y-104448095D02*
X184884700Y-104495714D01*
X184884700Y-104495714D02*
X184932319Y-104590952D01*
X184932319Y-104590952D02*
X184932319Y-104876666D01*
X184932319Y-104876666D02*
X184884700Y-104971904D01*
X184884700Y-104971904D02*
X184837080Y-105019523D01*
X165949580Y-76006666D02*
X165997200Y-76054285D01*
X165997200Y-76054285D02*
X166044819Y-76197142D01*
X166044819Y-76197142D02*
X166044819Y-76292380D01*
X166044819Y-76292380D02*
X165997200Y-76435237D01*
X165997200Y-76435237D02*
X165901961Y-76530475D01*
X165901961Y-76530475D02*
X165806723Y-76578094D01*
X165806723Y-76578094D02*
X165616247Y-76625713D01*
X165616247Y-76625713D02*
X165473390Y-76625713D01*
X165473390Y-76625713D02*
X165282914Y-76578094D01*
X165282914Y-76578094D02*
X165187676Y-76530475D01*
X165187676Y-76530475D02*
X165092438Y-76435237D01*
X165092438Y-76435237D02*
X165044819Y-76292380D01*
X165044819Y-76292380D02*
X165044819Y-76197142D01*
X165044819Y-76197142D02*
X165092438Y-76054285D01*
X165092438Y-76054285D02*
X165140057Y-76006666D01*
X166044819Y-75054285D02*
X166044819Y-75625713D01*
X166044819Y-75339999D02*
X165044819Y-75339999D01*
X165044819Y-75339999D02*
X165187676Y-75435237D01*
X165187676Y-75435237D02*
X165282914Y-75530475D01*
X165282914Y-75530475D02*
X165330533Y-75625713D01*
X151734819Y-40133333D02*
X152449104Y-40133333D01*
X152449104Y-40133333D02*
X152591961Y-40180952D01*
X152591961Y-40180952D02*
X152687200Y-40276190D01*
X152687200Y-40276190D02*
X152734819Y-40419047D01*
X152734819Y-40419047D02*
X152734819Y-40514285D01*
X151830057Y-39704761D02*
X151782438Y-39657142D01*
X151782438Y-39657142D02*
X151734819Y-39561904D01*
X151734819Y-39561904D02*
X151734819Y-39323809D01*
X151734819Y-39323809D02*
X151782438Y-39228571D01*
X151782438Y-39228571D02*
X151830057Y-39180952D01*
X151830057Y-39180952D02*
X151925295Y-39133333D01*
X151925295Y-39133333D02*
X152020533Y-39133333D01*
X152020533Y-39133333D02*
X152163390Y-39180952D01*
X152163390Y-39180952D02*
X152734819Y-39752380D01*
X152734819Y-39752380D02*
X152734819Y-39133333D01*
X184854819Y-90466666D02*
X184378628Y-90799999D01*
X184854819Y-91038094D02*
X183854819Y-91038094D01*
X183854819Y-91038094D02*
X183854819Y-90657142D01*
X183854819Y-90657142D02*
X183902438Y-90561904D01*
X183902438Y-90561904D02*
X183950057Y-90514285D01*
X183950057Y-90514285D02*
X184045295Y-90466666D01*
X184045295Y-90466666D02*
X184188152Y-90466666D01*
X184188152Y-90466666D02*
X184283390Y-90514285D01*
X184283390Y-90514285D02*
X184331009Y-90561904D01*
X184331009Y-90561904D02*
X184378628Y-90657142D01*
X184378628Y-90657142D02*
X184378628Y-91038094D01*
X184854819Y-89990475D02*
X184854819Y-89799999D01*
X184854819Y-89799999D02*
X184807200Y-89704761D01*
X184807200Y-89704761D02*
X184759580Y-89657142D01*
X184759580Y-89657142D02*
X184616723Y-89561904D01*
X184616723Y-89561904D02*
X184426247Y-89514285D01*
X184426247Y-89514285D02*
X184045295Y-89514285D01*
X184045295Y-89514285D02*
X183950057Y-89561904D01*
X183950057Y-89561904D02*
X183902438Y-89609523D01*
X183902438Y-89609523D02*
X183854819Y-89704761D01*
X183854819Y-89704761D02*
X183854819Y-89895237D01*
X183854819Y-89895237D02*
X183902438Y-89990475D01*
X183902438Y-89990475D02*
X183950057Y-90038094D01*
X183950057Y-90038094D02*
X184045295Y-90085713D01*
X184045295Y-90085713D02*
X184283390Y-90085713D01*
X184283390Y-90085713D02*
X184378628Y-90038094D01*
X184378628Y-90038094D02*
X184426247Y-89990475D01*
X184426247Y-89990475D02*
X184473866Y-89895237D01*
X184473866Y-89895237D02*
X184473866Y-89704761D01*
X184473866Y-89704761D02*
X184426247Y-89609523D01*
X184426247Y-89609523D02*
X184378628Y-89561904D01*
X184378628Y-89561904D02*
X184283390Y-89514285D01*
X178618452Y-36804819D02*
X178142262Y-36804819D01*
X178142262Y-36804819D02*
X178142262Y-35804819D01*
X178951786Y-36281009D02*
X179285119Y-36281009D01*
X179427976Y-36804819D02*
X178951786Y-36804819D01*
X178951786Y-36804819D02*
X178951786Y-35804819D01*
X178951786Y-35804819D02*
X179427976Y-35804819D01*
X179856548Y-36804819D02*
X179856548Y-35804819D01*
X179856548Y-35804819D02*
X180094643Y-35804819D01*
X180094643Y-35804819D02*
X180237500Y-35852438D01*
X180237500Y-35852438D02*
X180332738Y-35947676D01*
X180332738Y-35947676D02*
X180380357Y-36042914D01*
X180380357Y-36042914D02*
X180427976Y-36233390D01*
X180427976Y-36233390D02*
X180427976Y-36376247D01*
X180427976Y-36376247D02*
X180380357Y-36566723D01*
X180380357Y-36566723D02*
X180332738Y-36661961D01*
X180332738Y-36661961D02*
X180237500Y-36757200D01*
X180237500Y-36757200D02*
X180094643Y-36804819D01*
X180094643Y-36804819D02*
X179856548Y-36804819D01*
X181285119Y-36138152D02*
X181285119Y-36804819D01*
X181047024Y-35757200D02*
X180808929Y-36471485D01*
X180808929Y-36471485D02*
X181427976Y-36471485D01*
X178405952Y-57554819D02*
X177929762Y-57554819D01*
X177929762Y-57554819D02*
X177929762Y-56554819D01*
X178739286Y-57031009D02*
X179072619Y-57031009D01*
X179215476Y-57554819D02*
X178739286Y-57554819D01*
X178739286Y-57554819D02*
X178739286Y-56554819D01*
X178739286Y-56554819D02*
X179215476Y-56554819D01*
X179644048Y-57554819D02*
X179644048Y-56554819D01*
X179644048Y-56554819D02*
X179882143Y-56554819D01*
X179882143Y-56554819D02*
X180025000Y-56602438D01*
X180025000Y-56602438D02*
X180120238Y-56697676D01*
X180120238Y-56697676D02*
X180167857Y-56792914D01*
X180167857Y-56792914D02*
X180215476Y-56983390D01*
X180215476Y-56983390D02*
X180215476Y-57126247D01*
X180215476Y-57126247D02*
X180167857Y-57316723D01*
X180167857Y-57316723D02*
X180120238Y-57411961D01*
X180120238Y-57411961D02*
X180025000Y-57507200D01*
X180025000Y-57507200D02*
X179882143Y-57554819D01*
X179882143Y-57554819D02*
X179644048Y-57554819D01*
X181167857Y-57554819D02*
X180596429Y-57554819D01*
X180882143Y-57554819D02*
X180882143Y-56554819D01*
X180882143Y-56554819D02*
X180786905Y-56697676D01*
X180786905Y-56697676D02*
X180691667Y-56792914D01*
X180691667Y-56792914D02*
X180596429Y-56840533D01*
X187288095Y-101809819D02*
X187288095Y-102619342D01*
X187288095Y-102619342D02*
X187335714Y-102714580D01*
X187335714Y-102714580D02*
X187383333Y-102762200D01*
X187383333Y-102762200D02*
X187478571Y-102809819D01*
X187478571Y-102809819D02*
X187669047Y-102809819D01*
X187669047Y-102809819D02*
X187764285Y-102762200D01*
X187764285Y-102762200D02*
X187811904Y-102714580D01*
X187811904Y-102714580D02*
X187859523Y-102619342D01*
X187859523Y-102619342D02*
X187859523Y-101809819D01*
X188811904Y-101809819D02*
X188335714Y-101809819D01*
X188335714Y-101809819D02*
X188288095Y-102286009D01*
X188288095Y-102286009D02*
X188335714Y-102238390D01*
X188335714Y-102238390D02*
X188430952Y-102190771D01*
X188430952Y-102190771D02*
X188669047Y-102190771D01*
X188669047Y-102190771D02*
X188764285Y-102238390D01*
X188764285Y-102238390D02*
X188811904Y-102286009D01*
X188811904Y-102286009D02*
X188859523Y-102381247D01*
X188859523Y-102381247D02*
X188859523Y-102619342D01*
X188859523Y-102619342D02*
X188811904Y-102714580D01*
X188811904Y-102714580D02*
X188764285Y-102762200D01*
X188764285Y-102762200D02*
X188669047Y-102809819D01*
X188669047Y-102809819D02*
X188430952Y-102809819D01*
X188430952Y-102809819D02*
X188335714Y-102762200D01*
X188335714Y-102762200D02*
X188288095Y-102714580D01*
X152884819Y-84183333D02*
X153599104Y-84183333D01*
X153599104Y-84183333D02*
X153741961Y-84230952D01*
X153741961Y-84230952D02*
X153837200Y-84326190D01*
X153837200Y-84326190D02*
X153884819Y-84469047D01*
X153884819Y-84469047D02*
X153884819Y-84564285D01*
X153218152Y-83278571D02*
X153884819Y-83278571D01*
X152837200Y-83516666D02*
X153551485Y-83754761D01*
X153551485Y-83754761D02*
X153551485Y-83135714D01*
X164801725Y-61844932D02*
X164801725Y-60844688D01*
X165373293Y-61844932D02*
X164944617Y-61273364D01*
X165373293Y-60844688D02*
X164801725Y-61416256D01*
X166325906Y-61844932D02*
X165754338Y-61844932D01*
X166040122Y-61844932D02*
X166040122Y-60844688D01*
X166040122Y-60844688D02*
X165944861Y-60987580D01*
X165944861Y-60987580D02*
X165849600Y-61082842D01*
X165849600Y-61082842D02*
X165754338Y-61130472D01*
X178754819Y-84661904D02*
X178754819Y-84090476D01*
X179754819Y-84376190D02*
X178754819Y-84376190D01*
X178850057Y-83804761D02*
X178802438Y-83757142D01*
X178802438Y-83757142D02*
X178754819Y-83661904D01*
X178754819Y-83661904D02*
X178754819Y-83423809D01*
X178754819Y-83423809D02*
X178802438Y-83328571D01*
X178802438Y-83328571D02*
X178850057Y-83280952D01*
X178850057Y-83280952D02*
X178945295Y-83233333D01*
X178945295Y-83233333D02*
X179040533Y-83233333D01*
X179040533Y-83233333D02*
X179183390Y-83280952D01*
X179183390Y-83280952D02*
X179754819Y-83852380D01*
X179754819Y-83852380D02*
X179754819Y-83233333D01*
X179545833Y-40904819D02*
X179212500Y-40428628D01*
X178974405Y-40904819D02*
X178974405Y-39904819D01*
X178974405Y-39904819D02*
X179355357Y-39904819D01*
X179355357Y-39904819D02*
X179450595Y-39952438D01*
X179450595Y-39952438D02*
X179498214Y-40000057D01*
X179498214Y-40000057D02*
X179545833Y-40095295D01*
X179545833Y-40095295D02*
X179545833Y-40238152D01*
X179545833Y-40238152D02*
X179498214Y-40333390D01*
X179498214Y-40333390D02*
X179450595Y-40381009D01*
X179450595Y-40381009D02*
X179355357Y-40428628D01*
X179355357Y-40428628D02*
X178974405Y-40428628D01*
X180402976Y-39904819D02*
X180212500Y-39904819D01*
X180212500Y-39904819D02*
X180117262Y-39952438D01*
X180117262Y-39952438D02*
X180069643Y-40000057D01*
X180069643Y-40000057D02*
X179974405Y-40142914D01*
X179974405Y-40142914D02*
X179926786Y-40333390D01*
X179926786Y-40333390D02*
X179926786Y-40714342D01*
X179926786Y-40714342D02*
X179974405Y-40809580D01*
X179974405Y-40809580D02*
X180022024Y-40857200D01*
X180022024Y-40857200D02*
X180117262Y-40904819D01*
X180117262Y-40904819D02*
X180307738Y-40904819D01*
X180307738Y-40904819D02*
X180402976Y-40857200D01*
X180402976Y-40857200D02*
X180450595Y-40809580D01*
X180450595Y-40809580D02*
X180498214Y-40714342D01*
X180498214Y-40714342D02*
X180498214Y-40476247D01*
X180498214Y-40476247D02*
X180450595Y-40381009D01*
X180450595Y-40381009D02*
X180402976Y-40333390D01*
X180402976Y-40333390D02*
X180307738Y-40285771D01*
X180307738Y-40285771D02*
X180117262Y-40285771D01*
X180117262Y-40285771D02*
X180022024Y-40333390D01*
X180022024Y-40333390D02*
X179974405Y-40381009D01*
X179974405Y-40381009D02*
X179926786Y-40476247D01*
X193454819Y-85038094D02*
X192454819Y-85038094D01*
X192454819Y-85038094D02*
X192454819Y-84799999D01*
X192454819Y-84799999D02*
X192502438Y-84657142D01*
X192502438Y-84657142D02*
X192597676Y-84561904D01*
X192597676Y-84561904D02*
X192692914Y-84514285D01*
X192692914Y-84514285D02*
X192883390Y-84466666D01*
X192883390Y-84466666D02*
X193026247Y-84466666D01*
X193026247Y-84466666D02*
X193216723Y-84514285D01*
X193216723Y-84514285D02*
X193311961Y-84561904D01*
X193311961Y-84561904D02*
X193407200Y-84657142D01*
X193407200Y-84657142D02*
X193454819Y-84799999D01*
X193454819Y-84799999D02*
X193454819Y-85038094D01*
X192550057Y-84085713D02*
X192502438Y-84038094D01*
X192502438Y-84038094D02*
X192454819Y-83942856D01*
X192454819Y-83942856D02*
X192454819Y-83704761D01*
X192454819Y-83704761D02*
X192502438Y-83609523D01*
X192502438Y-83609523D02*
X192550057Y-83561904D01*
X192550057Y-83561904D02*
X192645295Y-83514285D01*
X192645295Y-83514285D02*
X192740533Y-83514285D01*
X192740533Y-83514285D02*
X192883390Y-83561904D01*
X192883390Y-83561904D02*
X193454819Y-84133332D01*
X193454819Y-84133332D02*
X193454819Y-83514285D01*
X160066666Y-87854819D02*
X159590476Y-87854819D01*
X159590476Y-87854819D02*
X159590476Y-86854819D01*
X160400000Y-87331009D02*
X160733333Y-87331009D01*
X160876190Y-87854819D02*
X160400000Y-87854819D01*
X160400000Y-87854819D02*
X160400000Y-86854819D01*
X160400000Y-86854819D02*
X160876190Y-86854819D01*
X161304762Y-87854819D02*
X161304762Y-86854819D01*
X161304762Y-86854819D02*
X161542857Y-86854819D01*
X161542857Y-86854819D02*
X161685714Y-86902438D01*
X161685714Y-86902438D02*
X161780952Y-86997676D01*
X161780952Y-86997676D02*
X161828571Y-87092914D01*
X161828571Y-87092914D02*
X161876190Y-87283390D01*
X161876190Y-87283390D02*
X161876190Y-87426247D01*
X161876190Y-87426247D02*
X161828571Y-87616723D01*
X161828571Y-87616723D02*
X161780952Y-87711961D01*
X161780952Y-87711961D02*
X161685714Y-87807200D01*
X161685714Y-87807200D02*
X161542857Y-87854819D01*
X161542857Y-87854819D02*
X161304762Y-87854819D01*
X162066667Y-87950057D02*
X162828571Y-87950057D01*
X162923810Y-86854819D02*
X163495238Y-86854819D01*
X163209524Y-87854819D02*
X163209524Y-86854819D01*
X164400000Y-87854819D02*
X164066667Y-87378628D01*
X163828572Y-87854819D02*
X163828572Y-86854819D01*
X163828572Y-86854819D02*
X164209524Y-86854819D01*
X164209524Y-86854819D02*
X164304762Y-86902438D01*
X164304762Y-86902438D02*
X164352381Y-86950057D01*
X164352381Y-86950057D02*
X164400000Y-87045295D01*
X164400000Y-87045295D02*
X164400000Y-87188152D01*
X164400000Y-87188152D02*
X164352381Y-87283390D01*
X164352381Y-87283390D02*
X164304762Y-87331009D01*
X164304762Y-87331009D02*
X164209524Y-87378628D01*
X164209524Y-87378628D02*
X163828572Y-87378628D01*
X164780953Y-87569104D02*
X165257143Y-87569104D01*
X164685715Y-87854819D02*
X165019048Y-86854819D01*
X165019048Y-86854819D02*
X165352381Y-87854819D01*
X166257143Y-87759580D02*
X166209524Y-87807200D01*
X166209524Y-87807200D02*
X166066667Y-87854819D01*
X166066667Y-87854819D02*
X165971429Y-87854819D01*
X165971429Y-87854819D02*
X165828572Y-87807200D01*
X165828572Y-87807200D02*
X165733334Y-87711961D01*
X165733334Y-87711961D02*
X165685715Y-87616723D01*
X165685715Y-87616723D02*
X165638096Y-87426247D01*
X165638096Y-87426247D02*
X165638096Y-87283390D01*
X165638096Y-87283390D02*
X165685715Y-87092914D01*
X165685715Y-87092914D02*
X165733334Y-86997676D01*
X165733334Y-86997676D02*
X165828572Y-86902438D01*
X165828572Y-86902438D02*
X165971429Y-86854819D01*
X165971429Y-86854819D02*
X166066667Y-86854819D01*
X166066667Y-86854819D02*
X166209524Y-86902438D01*
X166209524Y-86902438D02*
X166257143Y-86950057D01*
X166876191Y-86854819D02*
X167066667Y-86854819D01*
X167066667Y-86854819D02*
X167161905Y-86902438D01*
X167161905Y-86902438D02*
X167257143Y-86997676D01*
X167257143Y-86997676D02*
X167304762Y-87188152D01*
X167304762Y-87188152D02*
X167304762Y-87521485D01*
X167304762Y-87521485D02*
X167257143Y-87711961D01*
X167257143Y-87711961D02*
X167161905Y-87807200D01*
X167161905Y-87807200D02*
X167066667Y-87854819D01*
X167066667Y-87854819D02*
X166876191Y-87854819D01*
X166876191Y-87854819D02*
X166780953Y-87807200D01*
X166780953Y-87807200D02*
X166685715Y-87711961D01*
X166685715Y-87711961D02*
X166638096Y-87521485D01*
X166638096Y-87521485D02*
X166638096Y-87188152D01*
X166638096Y-87188152D02*
X166685715Y-86997676D01*
X166685715Y-86997676D02*
X166780953Y-86902438D01*
X166780953Y-86902438D02*
X166876191Y-86854819D01*
X168257143Y-87854819D02*
X167685715Y-87854819D01*
X167971429Y-87854819D02*
X167971429Y-86854819D01*
X167971429Y-86854819D02*
X167876191Y-86997676D01*
X167876191Y-86997676D02*
X167780953Y-87092914D01*
X167780953Y-87092914D02*
X167685715Y-87140533D01*
X192789580Y-66166666D02*
X192837200Y-66214285D01*
X192837200Y-66214285D02*
X192884819Y-66357142D01*
X192884819Y-66357142D02*
X192884819Y-66452380D01*
X192884819Y-66452380D02*
X192837200Y-66595237D01*
X192837200Y-66595237D02*
X192741961Y-66690475D01*
X192741961Y-66690475D02*
X192646723Y-66738094D01*
X192646723Y-66738094D02*
X192456247Y-66785713D01*
X192456247Y-66785713D02*
X192313390Y-66785713D01*
X192313390Y-66785713D02*
X192122914Y-66738094D01*
X192122914Y-66738094D02*
X192027676Y-66690475D01*
X192027676Y-66690475D02*
X191932438Y-66595237D01*
X191932438Y-66595237D02*
X191884819Y-66452380D01*
X191884819Y-66452380D02*
X191884819Y-66357142D01*
X191884819Y-66357142D02*
X191932438Y-66214285D01*
X191932438Y-66214285D02*
X191980057Y-66166666D01*
X191884819Y-65833332D02*
X191884819Y-65214285D01*
X191884819Y-65214285D02*
X192265771Y-65547618D01*
X192265771Y-65547618D02*
X192265771Y-65404761D01*
X192265771Y-65404761D02*
X192313390Y-65309523D01*
X192313390Y-65309523D02*
X192361009Y-65261904D01*
X192361009Y-65261904D02*
X192456247Y-65214285D01*
X192456247Y-65214285D02*
X192694342Y-65214285D01*
X192694342Y-65214285D02*
X192789580Y-65261904D01*
X192789580Y-65261904D02*
X192837200Y-65309523D01*
X192837200Y-65309523D02*
X192884819Y-65404761D01*
X192884819Y-65404761D02*
X192884819Y-65690475D01*
X192884819Y-65690475D02*
X192837200Y-65785713D01*
X192837200Y-65785713D02*
X192789580Y-65833332D01*
X173979580Y-41216666D02*
X174027200Y-41264285D01*
X174027200Y-41264285D02*
X174074819Y-41407142D01*
X174074819Y-41407142D02*
X174074819Y-41502380D01*
X174074819Y-41502380D02*
X174027200Y-41645237D01*
X174027200Y-41645237D02*
X173931961Y-41740475D01*
X173931961Y-41740475D02*
X173836723Y-41788094D01*
X173836723Y-41788094D02*
X173646247Y-41835713D01*
X173646247Y-41835713D02*
X173503390Y-41835713D01*
X173503390Y-41835713D02*
X173312914Y-41788094D01*
X173312914Y-41788094D02*
X173217676Y-41740475D01*
X173217676Y-41740475D02*
X173122438Y-41645237D01*
X173122438Y-41645237D02*
X173074819Y-41502380D01*
X173074819Y-41502380D02*
X173074819Y-41407142D01*
X173074819Y-41407142D02*
X173122438Y-41264285D01*
X173122438Y-41264285D02*
X173170057Y-41216666D01*
X173074819Y-40359523D02*
X173074819Y-40549999D01*
X173074819Y-40549999D02*
X173122438Y-40645237D01*
X173122438Y-40645237D02*
X173170057Y-40692856D01*
X173170057Y-40692856D02*
X173312914Y-40788094D01*
X173312914Y-40788094D02*
X173503390Y-40835713D01*
X173503390Y-40835713D02*
X173884342Y-40835713D01*
X173884342Y-40835713D02*
X173979580Y-40788094D01*
X173979580Y-40788094D02*
X174027200Y-40740475D01*
X174027200Y-40740475D02*
X174074819Y-40645237D01*
X174074819Y-40645237D02*
X174074819Y-40454761D01*
X174074819Y-40454761D02*
X174027200Y-40359523D01*
X174027200Y-40359523D02*
X173979580Y-40311904D01*
X173979580Y-40311904D02*
X173884342Y-40264285D01*
X173884342Y-40264285D02*
X173646247Y-40264285D01*
X173646247Y-40264285D02*
X173551009Y-40311904D01*
X173551009Y-40311904D02*
X173503390Y-40359523D01*
X173503390Y-40359523D02*
X173455771Y-40454761D01*
X173455771Y-40454761D02*
X173455771Y-40645237D01*
X173455771Y-40645237D02*
X173503390Y-40740475D01*
X173503390Y-40740475D02*
X173551009Y-40788094D01*
X173551009Y-40788094D02*
X173646247Y-40835713D01*
X237854819Y-72833333D02*
X238569104Y-72833333D01*
X238569104Y-72833333D02*
X238711961Y-72880952D01*
X238711961Y-72880952D02*
X238807200Y-72976190D01*
X238807200Y-72976190D02*
X238854819Y-73119047D01*
X238854819Y-73119047D02*
X238854819Y-73214285D01*
X237854819Y-72452380D02*
X237854819Y-71833333D01*
X237854819Y-71833333D02*
X238235771Y-72166666D01*
X238235771Y-72166666D02*
X238235771Y-72023809D01*
X238235771Y-72023809D02*
X238283390Y-71928571D01*
X238283390Y-71928571D02*
X238331009Y-71880952D01*
X238331009Y-71880952D02*
X238426247Y-71833333D01*
X238426247Y-71833333D02*
X238664342Y-71833333D01*
X238664342Y-71833333D02*
X238759580Y-71880952D01*
X238759580Y-71880952D02*
X238807200Y-71928571D01*
X238807200Y-71928571D02*
X238854819Y-72023809D01*
X238854819Y-72023809D02*
X238854819Y-72309523D01*
X238854819Y-72309523D02*
X238807200Y-72404761D01*
X238807200Y-72404761D02*
X238759580Y-72452380D01*
X182769642Y-41004819D02*
X182436309Y-40528628D01*
X182198214Y-41004819D02*
X182198214Y-40004819D01*
X182198214Y-40004819D02*
X182579166Y-40004819D01*
X182579166Y-40004819D02*
X182674404Y-40052438D01*
X182674404Y-40052438D02*
X182722023Y-40100057D01*
X182722023Y-40100057D02*
X182769642Y-40195295D01*
X182769642Y-40195295D02*
X182769642Y-40338152D01*
X182769642Y-40338152D02*
X182722023Y-40433390D01*
X182722023Y-40433390D02*
X182674404Y-40481009D01*
X182674404Y-40481009D02*
X182579166Y-40528628D01*
X182579166Y-40528628D02*
X182198214Y-40528628D01*
X183722023Y-41004819D02*
X183150595Y-41004819D01*
X183436309Y-41004819D02*
X183436309Y-40004819D01*
X183436309Y-40004819D02*
X183341071Y-40147676D01*
X183341071Y-40147676D02*
X183245833Y-40242914D01*
X183245833Y-40242914D02*
X183150595Y-40290533D01*
X184102976Y-40100057D02*
X184150595Y-40052438D01*
X184150595Y-40052438D02*
X184245833Y-40004819D01*
X184245833Y-40004819D02*
X184483928Y-40004819D01*
X184483928Y-40004819D02*
X184579166Y-40052438D01*
X184579166Y-40052438D02*
X184626785Y-40100057D01*
X184626785Y-40100057D02*
X184674404Y-40195295D01*
X184674404Y-40195295D02*
X184674404Y-40290533D01*
X184674404Y-40290533D02*
X184626785Y-40433390D01*
X184626785Y-40433390D02*
X184055357Y-41004819D01*
X184055357Y-41004819D02*
X184674404Y-41004819D01*
X160619047Y-80154819D02*
X160285714Y-79678628D01*
X160047619Y-80154819D02*
X160047619Y-79154819D01*
X160047619Y-79154819D02*
X160428571Y-79154819D01*
X160428571Y-79154819D02*
X160523809Y-79202438D01*
X160523809Y-79202438D02*
X160571428Y-79250057D01*
X160571428Y-79250057D02*
X160619047Y-79345295D01*
X160619047Y-79345295D02*
X160619047Y-79488152D01*
X160619047Y-79488152D02*
X160571428Y-79583390D01*
X160571428Y-79583390D02*
X160523809Y-79631009D01*
X160523809Y-79631009D02*
X160428571Y-79678628D01*
X160428571Y-79678628D02*
X160047619Y-79678628D01*
X160809524Y-80250057D02*
X161571428Y-80250057D01*
X161666667Y-79154819D02*
X162238095Y-79154819D01*
X161952381Y-80154819D02*
X161952381Y-79154819D01*
X163142857Y-80154819D02*
X162809524Y-79678628D01*
X162571429Y-80154819D02*
X162571429Y-79154819D01*
X162571429Y-79154819D02*
X162952381Y-79154819D01*
X162952381Y-79154819D02*
X163047619Y-79202438D01*
X163047619Y-79202438D02*
X163095238Y-79250057D01*
X163095238Y-79250057D02*
X163142857Y-79345295D01*
X163142857Y-79345295D02*
X163142857Y-79488152D01*
X163142857Y-79488152D02*
X163095238Y-79583390D01*
X163095238Y-79583390D02*
X163047619Y-79631009D01*
X163047619Y-79631009D02*
X162952381Y-79678628D01*
X162952381Y-79678628D02*
X162571429Y-79678628D01*
X163523810Y-79869104D02*
X164000000Y-79869104D01*
X163428572Y-80154819D02*
X163761905Y-79154819D01*
X163761905Y-79154819D02*
X164095238Y-80154819D01*
X165000000Y-80059580D02*
X164952381Y-80107200D01*
X164952381Y-80107200D02*
X164809524Y-80154819D01*
X164809524Y-80154819D02*
X164714286Y-80154819D01*
X164714286Y-80154819D02*
X164571429Y-80107200D01*
X164571429Y-80107200D02*
X164476191Y-80011961D01*
X164476191Y-80011961D02*
X164428572Y-79916723D01*
X164428572Y-79916723D02*
X164380953Y-79726247D01*
X164380953Y-79726247D02*
X164380953Y-79583390D01*
X164380953Y-79583390D02*
X164428572Y-79392914D01*
X164428572Y-79392914D02*
X164476191Y-79297676D01*
X164476191Y-79297676D02*
X164571429Y-79202438D01*
X164571429Y-79202438D02*
X164714286Y-79154819D01*
X164714286Y-79154819D02*
X164809524Y-79154819D01*
X164809524Y-79154819D02*
X164952381Y-79202438D01*
X164952381Y-79202438D02*
X165000000Y-79250057D01*
X165619048Y-79154819D02*
X165809524Y-79154819D01*
X165809524Y-79154819D02*
X165904762Y-79202438D01*
X165904762Y-79202438D02*
X166000000Y-79297676D01*
X166000000Y-79297676D02*
X166047619Y-79488152D01*
X166047619Y-79488152D02*
X166047619Y-79821485D01*
X166047619Y-79821485D02*
X166000000Y-80011961D01*
X166000000Y-80011961D02*
X165904762Y-80107200D01*
X165904762Y-80107200D02*
X165809524Y-80154819D01*
X165809524Y-80154819D02*
X165619048Y-80154819D01*
X165619048Y-80154819D02*
X165523810Y-80107200D01*
X165523810Y-80107200D02*
X165428572Y-80011961D01*
X165428572Y-80011961D02*
X165380953Y-79821485D01*
X165380953Y-79821485D02*
X165380953Y-79488152D01*
X165380953Y-79488152D02*
X165428572Y-79297676D01*
X165428572Y-79297676D02*
X165523810Y-79202438D01*
X165523810Y-79202438D02*
X165619048Y-79154819D01*
X167000000Y-80154819D02*
X166428572Y-80154819D01*
X166714286Y-80154819D02*
X166714286Y-79154819D01*
X166714286Y-79154819D02*
X166619048Y-79297676D01*
X166619048Y-79297676D02*
X166523810Y-79392914D01*
X166523810Y-79392914D02*
X166428572Y-79440533D01*
X204929819Y-79286904D02*
X204929819Y-78715476D01*
X205929819Y-79001190D02*
X204929819Y-79001190D01*
X204929819Y-78477380D02*
X204929819Y-77858333D01*
X204929819Y-77858333D02*
X205310771Y-78191666D01*
X205310771Y-78191666D02*
X205310771Y-78048809D01*
X205310771Y-78048809D02*
X205358390Y-77953571D01*
X205358390Y-77953571D02*
X205406009Y-77905952D01*
X205406009Y-77905952D02*
X205501247Y-77858333D01*
X205501247Y-77858333D02*
X205739342Y-77858333D01*
X205739342Y-77858333D02*
X205834580Y-77905952D01*
X205834580Y-77905952D02*
X205882200Y-77953571D01*
X205882200Y-77953571D02*
X205929819Y-78048809D01*
X205929819Y-78048809D02*
X205929819Y-78334523D01*
X205929819Y-78334523D02*
X205882200Y-78429761D01*
X205882200Y-78429761D02*
X205834580Y-78477380D01*
X179145833Y-50904819D02*
X178812500Y-50428628D01*
X178574405Y-50904819D02*
X178574405Y-49904819D01*
X178574405Y-49904819D02*
X178955357Y-49904819D01*
X178955357Y-49904819D02*
X179050595Y-49952438D01*
X179050595Y-49952438D02*
X179098214Y-50000057D01*
X179098214Y-50000057D02*
X179145833Y-50095295D01*
X179145833Y-50095295D02*
X179145833Y-50238152D01*
X179145833Y-50238152D02*
X179098214Y-50333390D01*
X179098214Y-50333390D02*
X179050595Y-50381009D01*
X179050595Y-50381009D02*
X178955357Y-50428628D01*
X178955357Y-50428628D02*
X178574405Y-50428628D01*
X180098214Y-50904819D02*
X179526786Y-50904819D01*
X179812500Y-50904819D02*
X179812500Y-49904819D01*
X179812500Y-49904819D02*
X179717262Y-50047676D01*
X179717262Y-50047676D02*
X179622024Y-50142914D01*
X179622024Y-50142914D02*
X179526786Y-50190533D01*
X182614819Y-53181904D02*
X183424342Y-53181904D01*
X183424342Y-53181904D02*
X183519580Y-53134285D01*
X183519580Y-53134285D02*
X183567200Y-53086666D01*
X183567200Y-53086666D02*
X183614819Y-52991428D01*
X183614819Y-52991428D02*
X183614819Y-52800952D01*
X183614819Y-52800952D02*
X183567200Y-52705714D01*
X183567200Y-52705714D02*
X183519580Y-52658095D01*
X183519580Y-52658095D02*
X183424342Y-52610476D01*
X183424342Y-52610476D02*
X182614819Y-52610476D01*
X182710057Y-52181904D02*
X182662438Y-52134285D01*
X182662438Y-52134285D02*
X182614819Y-52039047D01*
X182614819Y-52039047D02*
X182614819Y-51800952D01*
X182614819Y-51800952D02*
X182662438Y-51705714D01*
X182662438Y-51705714D02*
X182710057Y-51658095D01*
X182710057Y-51658095D02*
X182805295Y-51610476D01*
X182805295Y-51610476D02*
X182900533Y-51610476D01*
X182900533Y-51610476D02*
X183043390Y-51658095D01*
X183043390Y-51658095D02*
X183614819Y-52229523D01*
X183614819Y-52229523D02*
X183614819Y-51610476D01*
X223254819Y-53681904D02*
X224064342Y-53681904D01*
X224064342Y-53681904D02*
X224159580Y-53634285D01*
X224159580Y-53634285D02*
X224207200Y-53586666D01*
X224207200Y-53586666D02*
X224254819Y-53491428D01*
X224254819Y-53491428D02*
X224254819Y-53300952D01*
X224254819Y-53300952D02*
X224207200Y-53205714D01*
X224207200Y-53205714D02*
X224159580Y-53158095D01*
X224159580Y-53158095D02*
X224064342Y-53110476D01*
X224064342Y-53110476D02*
X223254819Y-53110476D01*
X224207200Y-52681904D02*
X224254819Y-52539047D01*
X224254819Y-52539047D02*
X224254819Y-52300952D01*
X224254819Y-52300952D02*
X224207200Y-52205714D01*
X224207200Y-52205714D02*
X224159580Y-52158095D01*
X224159580Y-52158095D02*
X224064342Y-52110476D01*
X224064342Y-52110476D02*
X223969104Y-52110476D01*
X223969104Y-52110476D02*
X223873866Y-52158095D01*
X223873866Y-52158095D02*
X223826247Y-52205714D01*
X223826247Y-52205714D02*
X223778628Y-52300952D01*
X223778628Y-52300952D02*
X223731009Y-52491428D01*
X223731009Y-52491428D02*
X223683390Y-52586666D01*
X223683390Y-52586666D02*
X223635771Y-52634285D01*
X223635771Y-52634285D02*
X223540533Y-52681904D01*
X223540533Y-52681904D02*
X223445295Y-52681904D01*
X223445295Y-52681904D02*
X223350057Y-52634285D01*
X223350057Y-52634285D02*
X223302438Y-52586666D01*
X223302438Y-52586666D02*
X223254819Y-52491428D01*
X223254819Y-52491428D02*
X223254819Y-52253333D01*
X223254819Y-52253333D02*
X223302438Y-52110476D01*
X223731009Y-51348571D02*
X223778628Y-51205714D01*
X223778628Y-51205714D02*
X223826247Y-51158095D01*
X223826247Y-51158095D02*
X223921485Y-51110476D01*
X223921485Y-51110476D02*
X224064342Y-51110476D01*
X224064342Y-51110476D02*
X224159580Y-51158095D01*
X224159580Y-51158095D02*
X224207200Y-51205714D01*
X224207200Y-51205714D02*
X224254819Y-51300952D01*
X224254819Y-51300952D02*
X224254819Y-51681904D01*
X224254819Y-51681904D02*
X223254819Y-51681904D01*
X223254819Y-51681904D02*
X223254819Y-51348571D01*
X223254819Y-51348571D02*
X223302438Y-51253333D01*
X223302438Y-51253333D02*
X223350057Y-51205714D01*
X223350057Y-51205714D02*
X223445295Y-51158095D01*
X223445295Y-51158095D02*
X223540533Y-51158095D01*
X223540533Y-51158095D02*
X223635771Y-51205714D01*
X223635771Y-51205714D02*
X223683390Y-51253333D01*
X223683390Y-51253333D02*
X223731009Y-51348571D01*
X223731009Y-51348571D02*
X223731009Y-51681904D01*
X179734405Y-51554819D02*
X179734405Y-50554819D01*
X180305833Y-51554819D02*
X179877262Y-50983390D01*
X180305833Y-50554819D02*
X179734405Y-51126247D01*
X180686786Y-50650057D02*
X180734405Y-50602438D01*
X180734405Y-50602438D02*
X180829643Y-50554819D01*
X180829643Y-50554819D02*
X181067738Y-50554819D01*
X181067738Y-50554819D02*
X181162976Y-50602438D01*
X181162976Y-50602438D02*
X181210595Y-50650057D01*
X181210595Y-50650057D02*
X181258214Y-50745295D01*
X181258214Y-50745295D02*
X181258214Y-50840533D01*
X181258214Y-50840533D02*
X181210595Y-50983390D01*
X181210595Y-50983390D02*
X180639167Y-51554819D01*
X180639167Y-51554819D02*
X181258214Y-51554819D01*
X174257142Y-47104819D02*
X173923809Y-46628628D01*
X173685714Y-47104819D02*
X173685714Y-46104819D01*
X173685714Y-46104819D02*
X174066666Y-46104819D01*
X174066666Y-46104819D02*
X174161904Y-46152438D01*
X174161904Y-46152438D02*
X174209523Y-46200057D01*
X174209523Y-46200057D02*
X174257142Y-46295295D01*
X174257142Y-46295295D02*
X174257142Y-46438152D01*
X174257142Y-46438152D02*
X174209523Y-46533390D01*
X174209523Y-46533390D02*
X174161904Y-46581009D01*
X174161904Y-46581009D02*
X174066666Y-46628628D01*
X174066666Y-46628628D02*
X173685714Y-46628628D01*
X175209523Y-47104819D02*
X174638095Y-47104819D01*
X174923809Y-47104819D02*
X174923809Y-46104819D01*
X174923809Y-46104819D02*
X174828571Y-46247676D01*
X174828571Y-46247676D02*
X174733333Y-46342914D01*
X174733333Y-46342914D02*
X174638095Y-46390533D01*
X176161904Y-47104819D02*
X175590476Y-47104819D01*
X175876190Y-47104819D02*
X175876190Y-46104819D01*
X175876190Y-46104819D02*
X175780952Y-46247676D01*
X175780952Y-46247676D02*
X175685714Y-46342914D01*
X175685714Y-46342914D02*
X175590476Y-46390533D01*
X200633333Y-109139580D02*
X200585714Y-109187200D01*
X200585714Y-109187200D02*
X200442857Y-109234819D01*
X200442857Y-109234819D02*
X200347619Y-109234819D01*
X200347619Y-109234819D02*
X200204762Y-109187200D01*
X200204762Y-109187200D02*
X200109524Y-109091961D01*
X200109524Y-109091961D02*
X200061905Y-108996723D01*
X200061905Y-108996723D02*
X200014286Y-108806247D01*
X200014286Y-108806247D02*
X200014286Y-108663390D01*
X200014286Y-108663390D02*
X200061905Y-108472914D01*
X200061905Y-108472914D02*
X200109524Y-108377676D01*
X200109524Y-108377676D02*
X200204762Y-108282438D01*
X200204762Y-108282438D02*
X200347619Y-108234819D01*
X200347619Y-108234819D02*
X200442857Y-108234819D01*
X200442857Y-108234819D02*
X200585714Y-108282438D01*
X200585714Y-108282438D02*
X200633333Y-108330057D01*
X201109524Y-109234819D02*
X201300000Y-109234819D01*
X201300000Y-109234819D02*
X201395238Y-109187200D01*
X201395238Y-109187200D02*
X201442857Y-109139580D01*
X201442857Y-109139580D02*
X201538095Y-108996723D01*
X201538095Y-108996723D02*
X201585714Y-108806247D01*
X201585714Y-108806247D02*
X201585714Y-108425295D01*
X201585714Y-108425295D02*
X201538095Y-108330057D01*
X201538095Y-108330057D02*
X201490476Y-108282438D01*
X201490476Y-108282438D02*
X201395238Y-108234819D01*
X201395238Y-108234819D02*
X201204762Y-108234819D01*
X201204762Y-108234819D02*
X201109524Y-108282438D01*
X201109524Y-108282438D02*
X201061905Y-108330057D01*
X201061905Y-108330057D02*
X201014286Y-108425295D01*
X201014286Y-108425295D02*
X201014286Y-108663390D01*
X201014286Y-108663390D02*
X201061905Y-108758628D01*
X201061905Y-108758628D02*
X201109524Y-108806247D01*
X201109524Y-108806247D02*
X201204762Y-108853866D01*
X201204762Y-108853866D02*
X201395238Y-108853866D01*
X201395238Y-108853866D02*
X201490476Y-108806247D01*
X201490476Y-108806247D02*
X201538095Y-108758628D01*
X201538095Y-108758628D02*
X201585714Y-108663390D01*
X187120833Y-100304819D02*
X186787500Y-99828628D01*
X186549405Y-100304819D02*
X186549405Y-99304819D01*
X186549405Y-99304819D02*
X186930357Y-99304819D01*
X186930357Y-99304819D02*
X187025595Y-99352438D01*
X187025595Y-99352438D02*
X187073214Y-99400057D01*
X187073214Y-99400057D02*
X187120833Y-99495295D01*
X187120833Y-99495295D02*
X187120833Y-99638152D01*
X187120833Y-99638152D02*
X187073214Y-99733390D01*
X187073214Y-99733390D02*
X187025595Y-99781009D01*
X187025595Y-99781009D02*
X186930357Y-99828628D01*
X186930357Y-99828628D02*
X186549405Y-99828628D01*
X187977976Y-99638152D02*
X187977976Y-100304819D01*
X187739881Y-99257200D02*
X187501786Y-99971485D01*
X187501786Y-99971485D02*
X188120833Y-99971485D01*
D14*
%TO.C,D1*%
X169285000Y-85040000D02*
X168815000Y-85380000D01*
X168815000Y-84700000D01*
X169285000Y-85040000D01*
G36*
X169285000Y-85040000D02*
G01*
X168815000Y-85380000D01*
X168815000Y-84700000D01*
X169285000Y-85040000D01*
G37*
X177835000Y-82215000D02*
X176025000Y-82215000D01*
X177835000Y-80850000D02*
X177835000Y-82215000D01*
X167435000Y-82215000D02*
X169245000Y-82215000D01*
X167435000Y-80850000D02*
X167435000Y-82215000D01*
%TO.C,U1*%
X154470000Y-52240000D02*
X154470000Y-53690000D01*
X154470000Y-55690000D02*
X154470000Y-57140000D01*
X154470000Y-57140000D02*
X164750000Y-57140000D01*
X164750000Y-52240000D02*
X154470000Y-52240000D01*
X164750000Y-57140000D02*
X164750000Y-52240000D01*
X154470000Y-53690000D02*
G75*
G02*
X154470000Y-55690000I0J-1000000D01*
G01*
%TO.C,R10*%
X189965000Y-90702064D02*
X189965000Y-90247936D01*
X191435000Y-90702064D02*
X191435000Y-90247936D01*
%TO.C,C5*%
X189965000Y-94811252D02*
X189965000Y-94288748D01*
X191435000Y-94811252D02*
X191435000Y-94288748D01*
%TO.C,LED5*%
X173090000Y-48240000D02*
X173090000Y-50160000D01*
X173090000Y-50160000D02*
X175775000Y-50160000D01*
X175775000Y-48240000D02*
X173090000Y-48240000D01*
%TO.C,R13*%
X183272936Y-37265000D02*
X183727064Y-37265000D01*
X183272936Y-38735000D02*
X183727064Y-38735000D01*
%TO.C,R7*%
X194460436Y-94965000D02*
X194914564Y-94965000D01*
X194460436Y-96435000D02*
X194914564Y-96435000D01*
%TO.C,L1*%
D12*
X155200000Y-89400000D02*
X155200000Y-114400000D01*
X155200000Y-114400000D02*
X164200000Y-114400000D01*
X164200000Y-89400000D02*
X155200000Y-89400000D01*
X174200000Y-114400000D02*
X183200000Y-114400000D01*
X183200000Y-89400000D02*
X174200000Y-89400000D01*
X183200000Y-114400000D02*
X183200000Y-89400000D01*
%TO.C,J1*%
D14*
X154390000Y-72970000D02*
X155130000Y-72970000D01*
X154390000Y-78210000D02*
X154390000Y-72970000D01*
X155130000Y-78210000D02*
X154390000Y-78210000D01*
X158890000Y-72970000D02*
X159630000Y-72970000D01*
X159630000Y-72970000D02*
X159630000Y-78210000D01*
X159630000Y-78210000D02*
X158890000Y-78210000D01*
%TO.C,R8*%
X194485436Y-90665000D02*
X194939564Y-90665000D01*
X194485436Y-92135000D02*
X194939564Y-92135000D01*
%TO.C,C4*%
X185365000Y-94861252D02*
X185365000Y-94338748D01*
X186835000Y-94861252D02*
X186835000Y-94338748D01*
%TO.C,R2*%
X175839564Y-51265000D02*
X175385436Y-51265000D01*
X175839564Y-52735000D02*
X175385436Y-52735000D01*
%TO.C,C2*%
X185265000Y-65738748D02*
X185265000Y-66261252D01*
X186735000Y-65738748D02*
X186735000Y-66261252D01*
%TO.C,U3*%
X185477500Y-102760000D02*
X185477500Y-104210000D01*
X185477500Y-106210000D02*
X185477500Y-107660000D01*
X185477500Y-107660000D02*
X195757500Y-107660000D01*
X195757500Y-102760000D02*
X185477500Y-102760000D01*
X195757500Y-107660000D02*
X195757500Y-102760000D01*
X185477500Y-104210000D02*
G75*
G02*
X185477500Y-106210000I0J-1000000D01*
G01*
%TO.C,C1*%
X163175000Y-75578748D02*
X163175000Y-76101252D01*
X164645000Y-75578748D02*
X164645000Y-76101252D01*
%TO.C,J2*%
X153280000Y-37180000D02*
X154020000Y-37180000D01*
X153280000Y-42420000D02*
X153280000Y-37180000D01*
X154020000Y-42420000D02*
X153280000Y-42420000D01*
X157780000Y-37180000D02*
X158520000Y-37180000D01*
X158520000Y-37180000D02*
X158520000Y-42420000D01*
X158520000Y-42420000D02*
X157780000Y-42420000D01*
%TO.C,R9*%
X185465000Y-90627064D02*
X185465000Y-90172936D01*
X186935000Y-90627064D02*
X186935000Y-90172936D01*
%TO.C,LED4*%
X178052500Y-37040000D02*
X178052500Y-38960000D01*
X178052500Y-38960000D02*
X180737500Y-38960000D01*
X180737500Y-37040000D02*
X178052500Y-37040000D01*
%TO.C,LED1*%
X177777500Y-54440000D02*
X177777500Y-56360000D01*
X177777500Y-56360000D02*
X180462500Y-56360000D01*
X180462500Y-54440000D02*
X177777500Y-54440000D01*
%TO.C,U5*%
X185390000Y-112015000D02*
X205110000Y-112015000D01*
X185390000Y-119335000D02*
X185390000Y-112015000D01*
X187304000Y-119335000D02*
X185390000Y-119335000D01*
X205110000Y-112015000D02*
X205110000Y-119335000D01*
X205110000Y-119335000D02*
X187896000Y-119335000D01*
X187940000Y-119805000D02*
X187260000Y-119805000D01*
X187600000Y-119335000D01*
X187940000Y-119805000D01*
G36*
X187940000Y-119805000D02*
G01*
X187260000Y-119805000D01*
X187600000Y-119335000D01*
X187940000Y-119805000D01*
G37*
%TO.C,J4*%
X154430000Y-81230000D02*
X155170000Y-81230000D01*
X154430000Y-86470000D02*
X154430000Y-81230000D01*
X155170000Y-86470000D02*
X154430000Y-86470000D01*
X158930000Y-81230000D02*
X159670000Y-81230000D01*
X159670000Y-81230000D02*
X159670000Y-86470000D01*
X159670000Y-86470000D02*
X158930000Y-86470000D01*
%TO.C,K1*%
D15*
X154320000Y-61880000D02*
X163900000Y-61880000D01*
X163900000Y-61880000D02*
X163900000Y-62360000D01*
X163900000Y-62360000D02*
X163900000Y-69500000D01*
X163900000Y-62360000D02*
X171800000Y-62360000D01*
X163900000Y-69500000D02*
X163900000Y-69980000D01*
X163900000Y-69980000D02*
X154320000Y-69980000D01*
X171800000Y-62360000D02*
X171800000Y-69500000D01*
X171800000Y-69500000D02*
X163900000Y-69500000D01*
D16*
X153580000Y-63390000D02*
G75*
G02*
X153380000Y-63390000I-100000J0D01*
G01*
X153380000Y-63390000D02*
G75*
G02*
X153580000Y-63390000I100000J0D01*
G01*
%TO.C,T2*%
D14*
X180875000Y-80935000D02*
X180875000Y-82300000D01*
X180875000Y-82300000D02*
X182685000Y-82300000D01*
X191275000Y-80935000D02*
X191275000Y-82300000D01*
X191275000Y-82300000D02*
X189465000Y-82300000D01*
X182725000Y-85125000D02*
X182255000Y-85465000D01*
X182255000Y-84785000D01*
X182725000Y-85125000D01*
G36*
X182725000Y-85125000D02*
G01*
X182255000Y-85465000D01*
X182255000Y-84785000D01*
X182725000Y-85125000D01*
G37*
%TO.C,R6*%
X179485436Y-41365000D02*
X179939564Y-41365000D01*
X179485436Y-42835000D02*
X179939564Y-42835000D01*
%TO.C,R3*%
X194560436Y-97765000D02*
X195014564Y-97765000D01*
X194560436Y-99235000D02*
X195014564Y-99235000D01*
%TO.C,D2*%
X194325000Y-80835000D02*
X194325000Y-82200000D01*
X194325000Y-82200000D02*
X196135000Y-82200000D01*
X204725000Y-80835000D02*
X204725000Y-82200000D01*
X204725000Y-82200000D02*
X202915000Y-82200000D01*
X196175000Y-85025000D02*
X195705000Y-85365000D01*
X195705000Y-84685000D01*
X196175000Y-85025000D01*
G36*
X196175000Y-85025000D02*
G01*
X195705000Y-85365000D01*
X195705000Y-84685000D01*
X196175000Y-85025000D01*
G37*
%TO.C,LED_TRACO1*%
X161590000Y-84590000D02*
X161590000Y-86510000D01*
X161590000Y-86510000D02*
X164275000Y-86510000D01*
X164275000Y-84590000D02*
X161590000Y-84590000D01*
%TO.C,C3*%
X190015000Y-65738748D02*
X190015000Y-66261252D01*
X191485000Y-65738748D02*
X191485000Y-66261252D01*
%TO.C,C6*%
X174565000Y-41311252D02*
X174565000Y-40788748D01*
X176035000Y-41311252D02*
X176035000Y-40788748D01*
%TO.C,J3*%
X235480000Y-74580000D02*
X236220000Y-74580000D01*
X235480000Y-79820000D02*
X235480000Y-74580000D01*
X236220000Y-79820000D02*
X235480000Y-79820000D01*
X239980000Y-74580000D02*
X240720000Y-74580000D01*
X240720000Y-74580000D02*
X240720000Y-79820000D01*
X240720000Y-79820000D02*
X239980000Y-79820000D01*
%TO.C,R12*%
X183185436Y-41465000D02*
X183639564Y-41465000D01*
X183185436Y-42935000D02*
X183639564Y-42935000D01*
%TO.C,R_TRACO1*%
X163022936Y-80715000D02*
X163477064Y-80715000D01*
X163022936Y-82185000D02*
X163477064Y-82185000D01*
%TO.C,LED2*%
X197737500Y-92260000D02*
X200422500Y-92260000D01*
X200422500Y-90340000D02*
X197737500Y-90340000D01*
X200422500Y-92260000D02*
X200422500Y-90340000D01*
%TO.C,T3*%
X207775000Y-80785000D02*
X207775000Y-82150000D01*
X207775000Y-82150000D02*
X209585000Y-82150000D01*
X218175000Y-80785000D02*
X218175000Y-82150000D01*
X218175000Y-82150000D02*
X216365000Y-82150000D01*
X209625000Y-84975000D02*
X209155000Y-85315000D01*
X209155000Y-84635000D01*
X209625000Y-84975000D01*
G36*
X209625000Y-84975000D02*
G01*
X209155000Y-85315000D01*
X209155000Y-84635000D01*
X209625000Y-84975000D01*
G37*
%TO.C,R1*%
X179085436Y-51365000D02*
X179539564Y-51365000D01*
X179085436Y-52835000D02*
X179539564Y-52835000D01*
%TO.C,U2*%
X184300000Y-43400000D02*
X184300000Y-61440000D01*
X184300000Y-61440000D02*
X186970000Y-61440000D01*
X186970000Y-46070000D02*
X186970000Y-43400000D01*
X186970000Y-46070000D02*
X225070000Y-46070000D01*
X186970000Y-58770000D02*
X186970000Y-61440000D01*
X189510000Y-58770000D02*
X186970000Y-58770000D01*
X189510000Y-58770000D02*
X189510000Y-61440000D01*
X189510000Y-58770000D02*
X225070000Y-58770000D01*
X189510000Y-61440000D02*
X227740000Y-61440000D01*
X219860000Y-48480000D02*
X230280000Y-48480000D01*
X219860000Y-56360000D02*
X219860000Y-48480000D01*
X225070000Y-46070000D02*
X225070000Y-43400000D01*
X225070000Y-58770000D02*
X225070000Y-61440000D01*
X227740000Y-43400000D02*
X184300000Y-43400000D01*
X227740000Y-43400000D02*
X227740000Y-48480000D01*
X227740000Y-61440000D02*
X227740000Y-56360000D01*
X230280000Y-48480000D02*
X230280000Y-56360000D01*
X230280000Y-56360000D02*
X219860000Y-56360000D01*
%TO.C,K2*%
D11*
X177942500Y-48700000D02*
X178442500Y-48200000D01*
X177942500Y-49500000D02*
X177942500Y-48700000D01*
X178442500Y-48200000D02*
X182042500Y-48200000D01*
X178442500Y-50000000D02*
X177942500Y-49500000D01*
X182042500Y-48200000D02*
X182542500Y-48700000D01*
X182042500Y-50000000D02*
X178442500Y-50000000D01*
X182542500Y-48700000D02*
X182542500Y-49500000D01*
X182542500Y-49500000D02*
X182042500Y-50000000D01*
%TO.C,R11*%
D14*
X175127064Y-44265000D02*
X174672936Y-44265000D01*
X175127064Y-45735000D02*
X174672936Y-45735000D01*
%TO.C,C9*%
X201061252Y-106365000D02*
X200538748Y-106365000D01*
X201061252Y-107835000D02*
X200538748Y-107835000D01*
%TO.C,R4*%
X187514564Y-97465000D02*
X187060436Y-97465000D01*
X187514564Y-98935000D02*
X187060436Y-98935000D01*
%TD*%
M02*
