M48
; DRILL file KiCad 10.0.0 date 2026-05-09T13:31:41
; FORMAT={-:-/ absolute / metric / decimal}
; #@! TF.CreationDate,2026-05-09T13:31:41+03:00
; #@! TF.GenerationSoftware,Kicad,Pcbnew,10.0.0
; #@! TF.FileFunction,Plated,1,2,PTH
FMAT,2
METRIC
; #@! TA.AperFunction,Plated,PTH,ViaDrill
T1C0.300
; #@! TA.AperFunction,Plated,PTH,ViaDrill
T2C0.800
; #@! TA.AperFunction,Plated,PTH,ComponentDrill
T3C0.800
; #@! TA.AperFunction,Plated,PTH,ComponentDrill
T4C1.000
; #@! TA.AperFunction,Plated,PTH,ComponentDrill
T5C1.090
; #@! TA.AperFunction,Plated,PTH,ComponentDrill
T6C1.500
; #@! TA.AperFunction,Plated,PTH,ViaDrill
T7C2.000
; #@! TA.AperFunction,Plated,PTH,ViaDrill
T8C2.300
%
G90
G05
T1
X165.785Y-71.767
T2
X154.71Y-83.0
X155.8Y-50.88
X156.7Y-63.2
X156.8Y-88.1
X158.4Y-58.5
X161.9Y-116.2
X162.4Y-60.6
X163.42Y-50.88
X168.2Y-99.5
X169.2Y-93.4
X169.2Y-110.4
X171.4Y-43.7
X171.7Y-119.55
X173.838Y-49.2
X174.1Y-69.8
X174.5Y-52.1
X175.3Y-40.1
X175.9Y-63.8
X178.525Y-55.4
X178.6Y-97.8
X179.4Y-71.7
X179.4Y-78.5
X185.6Y-47.15
X186.075Y-75.975
X186.375Y-98.2
X186.8Y-118.5
X188.2Y-98.2
X189.3Y-108.9
X190.7Y-91.388
X193.8Y-98.6
X194.1Y-40.9
X194.427Y-101.4
X195.197Y-112.05
X195.6Y-95.7
X195.625Y-91.4
X197.8Y-91.3
X197.8Y-95.3
X199.7Y-91.3
X199.7Y-95.1
X205.2Y-99.33
T3
X178.972Y-49.1
X181.512Y-49.1
T4
X187.6Y-113.3
X188.24Y-44.8
X188.24Y-60.04
X190.14Y-113.3
X190.78Y-44.8
X190.78Y-60.04
X193.32Y-44.8
X193.32Y-60.04
X195.22Y-113.3
X195.86Y-44.8
X195.86Y-60.04
X198.4Y-44.8
X198.4Y-60.04
X200.3Y-113.3
X200.94Y-44.8
X200.94Y-60.04
X203.48Y-44.8
X203.48Y-60.04
X203.6Y-95.7
X203.6Y-98.24
X203.6Y-100.78
X203.6Y-103.32
X206.02Y-44.8
X206.02Y-60.04
X208.56Y-44.8
X208.56Y-60.04
X211.1Y-44.8
X211.1Y-60.04
X213.64Y-44.8
X213.64Y-60.04
X216.18Y-44.8
X216.18Y-60.04
X218.72Y-44.8
X218.72Y-60.04
X221.26Y-44.8
X221.26Y-60.04
X223.8Y-44.8
X223.8Y-60.04
T5
X155.21Y-63.39
X155.21Y-65.93
X155.21Y-68.47
X160.29Y-63.39
X160.29Y-68.47
T6
X155.9Y-37.8
X155.9Y-41.8
X157.01Y-73.59
X157.01Y-77.59
X157.05Y-81.85
X157.05Y-85.85
X238.1Y-75.2
X238.1Y-79.2
T7
X170.7Y-100.8
X174.8Y-105.1
X194.65Y-80.75
X200.3Y-111.6
X202.1Y-85.0
X208.7Y-88.7
X238.1Y-83.2
X238.3Y-88.7
T8
X175.175Y-85.04
M30
