%TF.GenerationSoftware,KiCad,Pcbnew,10.0.0*%
%TF.CreationDate,2026-05-09T13:31:33+03:00*%
%TF.ProjectId,Buck Boost,4275636b-2042-46f6-9f73-742e6b696361,rev?*%
%TF.SameCoordinates,Original*%
%TF.FileFunction,Paste,Top*%
%TF.FilePolarity,Positive*%
%FSLAX46Y46*%
G04 Gerber Fmt 4.6, Leading zero omitted, Abs format (unit mm)*
G04 Created by KiCad (PCBNEW 10.0.0) date 2026-05-09 13:31:33*
%MOMM*%
%LPD*%
G01*
G04 APERTURE LIST*
G04 Aperture macros list*
%AMRoundRect*
0 Rectangle with rounded corners*
0 $1 Rounding radius*
0 $2 $3 $4 $5 $6 $7 $8 $9 X,Y pos of 4 corners*
0 Add a 4 corners polygon primitive as box body*
4,1,4,$2,$3,$4,$5,$6,$7,$8,$9,$2,$3,0*
0 Add four circle primitives for the rounded corners*
1,1,$1+$1,$2,$3*
1,1,$1+$1,$4,$5*
1,1,$1+$1,$6,$7*
1,1,$1+$1,$8,$9*
0 Add four rect primitives between the rounded corners*
20,1,$1+$1,$2,$3,$4,$5,0*
20,1,$1+$1,$4,$5,$6,$7,0*
20,1,$1+$1,$6,$7,$8,$9,0*
20,1,$1+$1,$8,$9,$2,$3,0*%
G04 Aperture macros list end*
%ADD10RoundRect,0.250000X0.300000X-2.050000X0.300000X2.050000X-0.300000X2.050000X-0.300000X-2.050000X0*%
%ADD11RoundRect,0.250000X2.375000X-2.025000X2.375000X2.025000X-2.375000X2.025000X-2.375000X-2.025000X0*%
%ADD12RoundRect,0.249999X0.640001X-0.750001X0.640001X0.750001X-0.640001X0.750001X-0.640001X-0.750001X0*%
%ADD13RoundRect,0.250000X0.450000X-0.262500X0.450000X0.262500X-0.450000X0.262500X-0.450000X-0.262500X0*%
%ADD14RoundRect,0.250000X0.475000X-0.250000X0.475000X0.250000X-0.475000X0.250000X-0.475000X-0.250000X0*%
%ADD15RoundRect,0.243750X-0.243750X-0.456250X0.243750X-0.456250X0.243750X0.456250X-0.243750X0.456250X0*%
%ADD16RoundRect,0.250000X-0.262500X-0.450000X0.262500X-0.450000X0.262500X0.450000X-0.262500X0.450000X0*%
%ADD17R,8.000000X8.500000*%
%ADD18RoundRect,0.250000X0.262500X0.450000X-0.262500X0.450000X-0.262500X-0.450000X0.262500X-0.450000X0*%
%ADD19RoundRect,0.250000X-0.475000X0.250000X-0.475000X-0.250000X0.475000X-0.250000X0.475000X0.250000X0*%
%ADD20RoundRect,0.243750X0.243750X0.456250X-0.243750X0.456250X-0.243750X-0.456250X0.243750X-0.456250X0*%
%ADD21RoundRect,0.250000X0.250000X0.475000X-0.250000X0.475000X-0.250000X-0.475000X0.250000X-0.475000X0*%
G04 APERTURE END LIST*
D10*
%TO.C,D1*%
X175175000Y-85040000D03*
X170095000Y-85040000D03*
D11*
X175410000Y-73465000D03*
X169860000Y-73465000D03*
X175410000Y-78315000D03*
X169860000Y-78315000D03*
%TD*%
D12*
%TO.C,U1*%
X155800000Y-58500000D03*
X158340000Y-58500000D03*
X160880000Y-58500000D03*
X163420000Y-58500000D03*
X163420000Y-50880000D03*
X160880000Y-50880000D03*
X158340000Y-50880000D03*
X155800000Y-50880000D03*
%TD*%
D13*
%TO.C,R10*%
X190700000Y-91387500D03*
X190700000Y-89562500D03*
%TD*%
D14*
%TO.C,C5*%
X190700000Y-95500000D03*
X190700000Y-93600000D03*
%TD*%
D15*
%TO.C,LED5*%
X173837500Y-49200000D03*
X175712500Y-49200000D03*
%TD*%
D16*
%TO.C,R13*%
X182587500Y-38000000D03*
X184412500Y-38000000D03*
%TD*%
%TO.C,R7*%
X193775000Y-95700000D03*
X195600000Y-95700000D03*
%TD*%
D17*
%TO.C,L1*%
X169200000Y-93400000D03*
X169200000Y-110400000D03*
%TD*%
D16*
%TO.C,R8*%
X193800000Y-91400000D03*
X195625000Y-91400000D03*
%TD*%
D14*
%TO.C,C4*%
X186100000Y-95550000D03*
X186100000Y-93650000D03*
%TD*%
D18*
%TO.C,R2*%
X176525000Y-52000000D03*
X174700000Y-52000000D03*
%TD*%
D19*
%TO.C,C2*%
X186000000Y-65050000D03*
X186000000Y-66950000D03*
%TD*%
D12*
%TO.C,U3*%
X186807500Y-109020000D03*
X189347500Y-109020000D03*
X191887500Y-109020000D03*
X194427500Y-109020000D03*
X194427500Y-101400000D03*
X191887500Y-101400000D03*
X189347500Y-101400000D03*
X186807500Y-101400000D03*
%TD*%
D19*
%TO.C,C1*%
X163910000Y-74890000D03*
X163910000Y-76790000D03*
%TD*%
D13*
%TO.C,R9*%
X186200000Y-91312500D03*
X186200000Y-89487500D03*
%TD*%
D15*
%TO.C,LED4*%
X178800000Y-38000000D03*
X180675000Y-38000000D03*
%TD*%
%TO.C,LED1*%
X178525000Y-55400000D03*
X180400000Y-55400000D03*
%TD*%
D11*
%TO.C,T2*%
X183300000Y-78400000D03*
X188850000Y-78400000D03*
X183300000Y-73550000D03*
X188850000Y-73550000D03*
D10*
X183535000Y-85125000D03*
X188615000Y-85125000D03*
%TD*%
D16*
%TO.C,R6*%
X178800000Y-42100000D03*
X180625000Y-42100000D03*
%TD*%
%TO.C,R3*%
X193875000Y-98500000D03*
X195700000Y-98500000D03*
%TD*%
D11*
%TO.C,D2*%
X196750000Y-78300000D03*
X202300000Y-78300000D03*
X196750000Y-73450000D03*
X202300000Y-73450000D03*
D10*
X196985000Y-85025000D03*
X202065000Y-85025000D03*
%TD*%
D15*
%TO.C,LED_TRACO1*%
X162337500Y-85550000D03*
X164212500Y-85550000D03*
%TD*%
D19*
%TO.C,C3*%
X190750000Y-65050000D03*
X190750000Y-66950000D03*
%TD*%
D14*
%TO.C,C6*%
X175300000Y-42000000D03*
X175300000Y-40100000D03*
%TD*%
D16*
%TO.C,R12*%
X182500000Y-42200000D03*
X184325000Y-42200000D03*
%TD*%
%TO.C,R_TRACO1*%
X162337500Y-81450000D03*
X164162500Y-81450000D03*
%TD*%
D20*
%TO.C,LED2*%
X199675000Y-91300000D03*
X197800000Y-91300000D03*
%TD*%
D11*
%TO.C,T3*%
X210200000Y-78250000D03*
X215750000Y-78250000D03*
X210200000Y-73400000D03*
X215750000Y-73400000D03*
D10*
X210435000Y-84975000D03*
X215515000Y-84975000D03*
%TD*%
D16*
%TO.C,R1*%
X178400000Y-52100000D03*
X180225000Y-52100000D03*
%TD*%
D18*
%TO.C,R11*%
X175812500Y-45000000D03*
X173987500Y-45000000D03*
%TD*%
D21*
%TO.C,C9*%
X201750000Y-107100000D03*
X199850000Y-107100000D03*
%TD*%
D18*
%TO.C,R4*%
X188200000Y-98200000D03*
X186375000Y-98200000D03*
%TD*%
M02*
