%TF.GenerationSoftware,KiCad,Pcbnew,10.0.0*%
%TF.CreationDate,2026-05-09T13:31:33+03:00*%
%TF.ProjectId,Buck Boost,4275636b-2042-46f6-9f73-742e6b696361,rev?*%
%TF.SameCoordinates,Original*%
%TF.FileFunction,Copper,L1,Top*%
%TF.FilePolarity,Positive*%
%FSLAX46Y46*%
G04 Gerber Fmt 4.6, Leading zero omitted, Abs format (unit mm)*
G04 Created by KiCad (PCBNEW 10.0.0) date 2026-05-09 13:31:33*
%MOMM*%
%LPD*%
G01*
G04 APERTURE LIST*
G04 Aperture macros list*
%AMRoundRect*
0 Rectangle with rounded corners*
0 $1 Rounding radius*
0 $2 $3 $4 $5 $6 $7 $8 $9 X,Y pos of 4 corners*
0 Add a 4 corners polygon primitive as box body*
4,1,4,$2,$3,$4,$5,$6,$7,$8,$9,$2,$3,0*
0 Add four circle primitives for the rounded corners*
1,1,$1+$1,$2,$3*
1,1,$1+$1,$4,$5*
1,1,$1+$1,$6,$7*
1,1,$1+$1,$8,$9*
0 Add four rect primitives between the rounded corners*
20,1,$1+$1,$2,$3,$4,$5,0*
20,1,$1+$1,$4,$5,$6,$7,0*
20,1,$1+$1,$6,$7,$8,$9,0*
20,1,$1+$1,$8,$9,$2,$3,0*%
G04 Aperture macros list end*
%TA.AperFunction,SMDPad,CuDef*%
%ADD10RoundRect,0.250000X0.300000X-2.050000X0.300000X2.050000X-0.300000X2.050000X-0.300000X-2.050000X0*%
%TD*%
%TA.AperFunction,SMDPad,CuDef*%
%ADD11RoundRect,0.250002X5.149998X-4.449998X5.149998X4.449998X-5.149998X4.449998X-5.149998X-4.449998X0*%
%TD*%
%TA.AperFunction,SMDPad,CuDef*%
%ADD12RoundRect,0.249999X0.640001X-0.750001X0.640001X0.750001X-0.640001X0.750001X-0.640001X-0.750001X0*%
%TD*%
%TA.AperFunction,SMDPad,CuDef*%
%ADD13RoundRect,0.250000X0.450000X-0.262500X0.450000X0.262500X-0.450000X0.262500X-0.450000X-0.262500X0*%
%TD*%
%TA.AperFunction,SMDPad,CuDef*%
%ADD14RoundRect,0.250000X0.475000X-0.250000X0.475000X0.250000X-0.475000X0.250000X-0.475000X-0.250000X0*%
%TD*%
%TA.AperFunction,SMDPad,CuDef*%
%ADD15RoundRect,0.243750X-0.243750X-0.456250X0.243750X-0.456250X0.243750X0.456250X-0.243750X0.456250X0*%
%TD*%
%TA.AperFunction,SMDPad,CuDef*%
%ADD16RoundRect,0.250000X-0.262500X-0.450000X0.262500X-0.450000X0.262500X0.450000X-0.262500X0.450000X0*%
%TD*%
%TA.AperFunction,SMDPad,CuDef*%
%ADD17R,8.000000X8.500000*%
%TD*%
%TA.AperFunction,ComponentPad*%
%ADD18C,3.000000*%
%TD*%
%TA.AperFunction,SMDPad,CuDef*%
%ADD19RoundRect,0.250000X0.262500X0.450000X-0.262500X0.450000X-0.262500X-0.450000X0.262500X-0.450000X0*%
%TD*%
%TA.AperFunction,SMDPad,CuDef*%
%ADD20RoundRect,0.250000X-0.475000X0.250000X-0.475000X-0.250000X0.475000X-0.250000X0.475000X0.250000X0*%
%TD*%
%TA.AperFunction,ComponentPad*%
%ADD21RoundRect,0.250001X0.499999X-0.499999X0.499999X0.499999X-0.499999X0.499999X-0.499999X-0.499999X0*%
%TD*%
%TA.AperFunction,ComponentPad*%
%ADD22C,1.500000*%
%TD*%
%TA.AperFunction,ComponentPad*%
%ADD23R,1.635000X1.635000*%
%TD*%
%TA.AperFunction,ComponentPad*%
%ADD24C,1.635000*%
%TD*%
%TA.AperFunction,SMDPad,CuDef*%
%ADD25RoundRect,0.243750X0.243750X0.456250X-0.243750X0.456250X-0.243750X-0.456250X0.243750X-0.456250X0*%
%TD*%
%TA.AperFunction,ComponentPad*%
%ADD26R,1.600000X1.600000*%
%TD*%
%TA.AperFunction,ComponentPad*%
%ADD27O,1.600000X1.600000*%
%TD*%
%TA.AperFunction,ComponentPad*%
%ADD28C,1.400000*%
%TD*%
%TA.AperFunction,SMDPad,CuDef*%
%ADD29RoundRect,0.250000X0.250000X0.475000X-0.250000X0.475000X-0.250000X-0.475000X0.250000X-0.475000X0*%
%TD*%
%TA.AperFunction,ComponentPad*%
%ADD30RoundRect,0.170000X-0.680000X0.680000X-0.680000X-0.680000X0.680000X-0.680000X0.680000X0.680000X0*%
%TD*%
%TA.AperFunction,ComponentPad*%
%ADD31C,1.700000*%
%TD*%
%TA.AperFunction,ViaPad*%
%ADD32C,2.500000*%
%TD*%
%TA.AperFunction,ViaPad*%
%ADD33C,0.600000*%
%TD*%
%TA.AperFunction,ViaPad*%
%ADD34C,1.000000*%
%TD*%
%TA.AperFunction,Conductor*%
%ADD35C,2.000000*%
%TD*%
%TA.AperFunction,Conductor*%
%ADD36C,2.500000*%
%TD*%
%TA.AperFunction,Conductor*%
%ADD37C,1.000000*%
%TD*%
%TA.AperFunction,Conductor*%
%ADD38C,1.500000*%
%TD*%
G04 APERTURE END LIST*
D10*
%TO.P,D1,3*%
%TO.N,N/C*%
X175175000Y-85040000D03*
D11*
%TO.P,D1,2,A_2*%
%TO.N,Net-(D1-A)*%
X172635000Y-75890000D03*
D10*
%TO.P,D1,1,K_1*%
%TO.N,Net-(D1-K)*%
X170095000Y-85040000D03*
%TD*%
D12*
%TO.P,U1,1,NC_1*%
%TO.N,unconnected-(U1-NC-Pad1)*%
X155800000Y-58500000D03*
%TO.P,U1,2,A_2*%
%TO.N,Net-(U1-A)*%
X158340000Y-58500000D03*
%TO.P,U1,3,C_3*%
%TO.N,Net-(J2-Pin_1)*%
X160880000Y-58500000D03*
%TO.P,U1,4,NC_4*%
%TO.N,unconnected-(U1-NC-Pad4)*%
X163420000Y-58500000D03*
%TO.P,U1,5,VEE_5*%
%TO.N,Net-(D1-A)*%
X163420000Y-50880000D03*
%TO.P,U1,6,VO_6*%
%TO.N,Net-(R9-Pad1)*%
X160880000Y-50880000D03*
%TO.P,U1,7,VO_7*%
X158340000Y-50880000D03*
%TO.P,U1,8,VCC_8*%
%TO.N,Net-(K1-A)*%
X155800000Y-50880000D03*
%TD*%
D13*
%TO.P,R10,1*%
%TO.N,Net-(D1-A)*%
X190700000Y-91387500D03*
%TO.P,R10,2*%
%TO.N,Net-(T2-G)*%
X190700000Y-89562500D03*
%TD*%
D14*
%TO.P,C5,1*%
%TO.N,Net-(U3-VCC)*%
X190700000Y-95500000D03*
%TO.P,C5,2*%
%TO.N,Net-(D1-K)*%
X190700000Y-93600000D03*
%TD*%
D15*
%TO.P,LED5,1,K_1*%
%TO.N,Net-(J2-Pin_1)*%
X173837500Y-49200000D03*
%TO.P,LED5,2,A_2*%
%TO.N,Net-(LED5-A)*%
X175712500Y-49200000D03*
%TD*%
D16*
%TO.P,R13,1*%
%TO.N,Net-(D1-A)*%
X182587500Y-38000000D03*
%TO.P,R13,2*%
%TO.N,Net-(U2-A0)*%
X184412500Y-38000000D03*
%TD*%
%TO.P,R7,1*%
%TO.N,Net-(R7-Pad1)*%
X193775000Y-95700000D03*
%TO.P,R7,2*%
%TO.N,Net-(T3-G)*%
X195600000Y-95700000D03*
%TD*%
D17*
%TO.P,L1,1,1_1*%
%TO.N,Net-(D1-K)*%
X169200000Y-93400000D03*
%TO.P,L1,2,2_2*%
%TO.N,Net-(D2-A)*%
X169200000Y-110400000D03*
%TD*%
D18*
%TO.P,J1,1,Pin_1_1*%
%TO.N,Net-(D1-A)*%
X157010000Y-77590000D03*
%TO.P,J1,2,Pin_2_2*%
%TO.N,Net-(J1-Pin_2)*%
X157010000Y-73590000D03*
%TD*%
D16*
%TO.P,R8,1*%
%TO.N,Net-(D1-A)*%
X193800000Y-91400000D03*
%TO.P,R8,2*%
%TO.N,Net-(T3-G)*%
X195625000Y-91400000D03*
%TD*%
D14*
%TO.P,C4,1*%
%TO.N,Net-(U3-VCC)*%
X186100000Y-95550000D03*
%TO.P,C4,2*%
%TO.N,Net-(D1-K)*%
X186100000Y-93650000D03*
%TD*%
D19*
%TO.P,R2,1*%
%TO.N,Net-(U2-D10)*%
X176525000Y-52000000D03*
%TO.P,R2,2*%
%TO.N,Net-(U1-A)*%
X174700000Y-52000000D03*
%TD*%
D20*
%TO.P,C2,1*%
%TO.N,Net-(K1-A)*%
X186000000Y-65050000D03*
%TO.P,C2,2*%
%TO.N,Net-(D1-A)*%
X186000000Y-66950000D03*
%TD*%
D12*
%TO.P,U3,1,NC_1*%
%TO.N,unconnected-(U3-NC-Pad1)*%
X186807500Y-109020000D03*
%TO.P,U3,2,A_2*%
%TO.N,Net-(U3-A)*%
X189347500Y-109020000D03*
%TO.P,U3,3,C_3*%
%TO.N,Net-(J2-Pin_1)*%
X191887500Y-109020000D03*
%TO.P,U3,4,NC_4*%
%TO.N,unconnected-(U3-NC-Pad4)*%
X194427500Y-109020000D03*
%TO.P,U3,5,VEE_5*%
%TO.N,Net-(D1-K)*%
X194427500Y-101400000D03*
%TO.P,U3,6,VO_6*%
%TO.N,Net-(R7-Pad1)*%
X191887500Y-101400000D03*
%TO.P,U3,7,VO_7*%
X189347500Y-101400000D03*
%TO.P,U3,8,VCC_8*%
%TO.N,Net-(U3-VCC)*%
X186807500Y-101400000D03*
%TD*%
D20*
%TO.P,C1,1*%
%TO.N,Net-(J1-Pin_2)*%
X163910000Y-74890000D03*
%TO.P,C1,2*%
%TO.N,Net-(D1-A)*%
X163910000Y-76790000D03*
%TD*%
D18*
%TO.P,J2,1,Pin_1_1*%
%TO.N,Net-(J2-Pin_1)*%
X155900000Y-37800000D03*
%TO.P,J2,2,Pin_2_2*%
%TO.N,Net-(J2-Pin_2)*%
X155900000Y-41800000D03*
%TD*%
D13*
%TO.P,R9,1*%
%TO.N,Net-(R9-Pad1)*%
X186200000Y-91312500D03*
%TO.P,R9,2*%
%TO.N,Net-(T2-G)*%
X186200000Y-89487500D03*
%TD*%
D15*
%TO.P,LED4,1,K_1*%
%TO.N,Net-(D1-A)*%
X178800000Y-38000000D03*
%TO.P,LED4,2,A_2*%
%TO.N,Net-(LED4-A)*%
X180675000Y-38000000D03*
%TD*%
%TO.P,LED1,1,K_1*%
%TO.N,Net-(J2-Pin_1)*%
X178525000Y-55400000D03*
%TO.P,LED1,2,A_2*%
%TO.N,Net-(LED1-A)*%
X180400000Y-55400000D03*
%TD*%
D21*
%TO.P,U5,1,+Vin_1*%
%TO.N,Net-(J4-Pin_2)*%
X187600000Y-113300000D03*
D22*
%TO.P,U5,2,-Vin_2*%
%TO.N,Net-(J4-Pin_1)*%
X190140000Y-113300000D03*
%TO.P,U5,4,-Vout_4*%
%TO.N,Net-(D1-K)*%
X195220000Y-113300000D03*
%TO.P,U5,6,+Vout_6*%
%TO.N,Net-(U3-VCC)*%
X200300000Y-113300000D03*
%TD*%
D18*
%TO.P,J4,1,Pin_1_1*%
%TO.N,Net-(J4-Pin_1)*%
X157050000Y-85850000D03*
%TO.P,J4,2,Pin_2_2*%
%TO.N,Net-(J4-Pin_2)*%
X157050000Y-81850000D03*
%TD*%
D23*
%TO.P,K1,1,A_1*%
%TO.N,Net-(K1-A)*%
X155210000Y-63390000D03*
D24*
%TO.P,K1,2,B_2*%
%TO.N,Net-(J1-Pin_2)*%
X155210000Y-65930000D03*
%TO.P,K1,3,C_3*%
%TO.N,unconnected-(K1-C-Pad3)*%
X155210000Y-68470000D03*
%TO.P,K1,SH1*%
%TO.N,N/C*%
X160290000Y-63390000D03*
%TO.P,K1,SH2*%
X160290000Y-68470000D03*
%TD*%
D10*
%TO.P,T2,1,G_1*%
%TO.N,Net-(T2-G)*%
X183535000Y-85125000D03*
D11*
%TO.P,T2,2,D_2*%
%TO.N,Net-(D1-A)*%
X186075000Y-75975000D03*
D10*
%TO.P,T2,3,S_3*%
%TO.N,Net-(D2-A)*%
X188615000Y-85125000D03*
%TD*%
D16*
%TO.P,R6,1*%
%TO.N,Net-(LED4-A)*%
X178800000Y-42100000D03*
%TO.P,R6,2*%
%TO.N,Net-(D2-K)*%
X180625000Y-42100000D03*
%TD*%
%TO.P,R3,1*%
%TO.N,Net-(U2-D9)*%
X193875000Y-98500000D03*
%TO.P,R3,2*%
%TO.N,Net-(LED2-A)*%
X195700000Y-98500000D03*
%TD*%
D10*
%TO.P,D2,1,K_1*%
%TO.N,Net-(D2-K)*%
X196985000Y-85025000D03*
D11*
%TO.P,D2,2,A_2*%
%TO.N,Net-(D2-A)*%
X199525000Y-75875000D03*
D10*
%TO.P,D2,3*%
%TO.N,N/C*%
X202065000Y-85025000D03*
%TD*%
D15*
%TO.P,LED_TRACO1,1,K_1*%
%TO.N,Net-(J4-Pin_1)*%
X162337500Y-85550000D03*
%TO.P,LED_TRACO1,2,A_2*%
%TO.N,Net-(LED_TRACO1-A)*%
X164212500Y-85550000D03*
%TD*%
D20*
%TO.P,C3,1*%
%TO.N,Net-(K1-A)*%
X190750000Y-65050000D03*
%TO.P,C3,2*%
%TO.N,Net-(D1-A)*%
X190750000Y-66950000D03*
%TD*%
D14*
%TO.P,C6,1*%
%TO.N,Net-(D2-K)*%
X175300000Y-42000000D03*
%TO.P,C6,2*%
%TO.N,Net-(D1-A)*%
X175300000Y-40100000D03*
%TD*%
D18*
%TO.P,J3,1,Pin_1_1*%
%TO.N,Net-(D2-K)*%
X238100000Y-75200000D03*
%TO.P,J3,2,Pin_2_2*%
%TO.N,Net-(D1-A)*%
X238100000Y-79200000D03*
%TD*%
D16*
%TO.P,R12,1*%
%TO.N,Net-(U2-A0)*%
X182500000Y-42200000D03*
%TO.P,R12,2*%
%TO.N,Net-(D2-K)*%
X184325000Y-42200000D03*
%TD*%
%TO.P,R_TRACO1,1*%
%TO.N,Net-(J4-Pin_2)*%
X162337500Y-81450000D03*
%TO.P,R_TRACO1,2*%
%TO.N,Net-(LED_TRACO1-A)*%
X164162500Y-81450000D03*
%TD*%
D25*
%TO.P,LED2,1,K_1*%
%TO.N,Net-(J2-Pin_1)*%
X199675000Y-91300000D03*
%TO.P,LED2,2,A_2*%
%TO.N,Net-(LED2-A)*%
X197800000Y-91300000D03*
%TD*%
D10*
%TO.P,T3,1,G_1*%
%TO.N,Net-(T3-G)*%
X210435000Y-84975000D03*
D11*
%TO.P,T3,2,D_2*%
%TO.N,Net-(K1-A)*%
X212975000Y-75825000D03*
D10*
%TO.P,T3,3,S_3*%
%TO.N,Net-(D1-K)*%
X215515000Y-84975000D03*
%TD*%
D16*
%TO.P,R1,1*%
%TO.N,Net-(U2-D10)*%
X178400000Y-52100000D03*
%TO.P,R1,2*%
%TO.N,Net-(LED1-A)*%
X180225000Y-52100000D03*
%TD*%
D26*
%TO.P,U2,1,TX1_1*%
%TO.N,unconnected-(U2-TX1-Pad1)*%
X188240000Y-60040000D03*
D27*
%TO.P,U2,2,RX0_2*%
%TO.N,unconnected-(U2-RX0-Pad2)*%
X190780000Y-60040000D03*
%TO.P,U2,3,RST_3*%
%TO.N,unconnected-(U2-RST-Pad3)*%
X193320000Y-60040000D03*
%TO.P,U2,4,GND_4*%
%TO.N,unconnected-(U2-GND-Pad4)*%
X195860000Y-60040000D03*
%TO.P,U2,5,D2_5*%
%TO.N,unconnected-(U2-D2-Pad5)*%
X198400000Y-60040000D03*
%TO.P,U2,6,D3_6*%
%TO.N,unconnected-(U2-D3-Pad6)*%
X200940000Y-60040000D03*
%TO.P,U2,7,D4_7*%
%TO.N,unconnected-(U2-D4-Pad7)*%
X203480000Y-60040000D03*
%TO.P,U2,8,D5_8*%
%TO.N,unconnected-(U2-D5-Pad8)*%
X206020000Y-60040000D03*
%TO.P,U2,9,D6_9*%
%TO.N,unconnected-(U2-D6-Pad9)*%
X208560000Y-60040000D03*
%TO.P,U2,10,D7_10*%
%TO.N,unconnected-(U2-D7-Pad10)*%
X211100000Y-60040000D03*
%TO.P,U2,11,D8_11*%
%TO.N,unconnected-(U2-D8-Pad11)*%
X213640000Y-60040000D03*
%TO.P,U2,12,D9_12*%
%TO.N,Net-(U2-D9)*%
X216180000Y-60040000D03*
%TO.P,U2,13,D10_13*%
%TO.N,Net-(U2-D10)*%
X218720000Y-60040000D03*
%TO.P,U2,14,D11_14*%
%TO.N,unconnected-(U2-D11-Pad14)*%
X221260000Y-60040000D03*
%TO.P,U2,15,D12_15*%
%TO.N,unconnected-(U2-D12-Pad15)*%
X223800000Y-60040000D03*
%TO.P,U2,16,VIN_16*%
%TO.N,Net-(K2-A)*%
X223800000Y-44800000D03*
%TO.P,U2,17,GND_17*%
%TO.N,Net-(J2-Pin_1)*%
X221260000Y-44800000D03*
%TO.P,U2,18,RST_18*%
%TO.N,unconnected-(U2-RST-Pad18)*%
X218720000Y-44800000D03*
%TO.P,U2,19,5V_19*%
%TO.N,unconnected-(U2-5V-Pad19)*%
X216180000Y-44800000D03*
%TO.P,U2,20,A7_20*%
%TO.N,unconnected-(U2-A7-Pad20)*%
X213640000Y-44800000D03*
%TO.P,U2,21,A6_21*%
%TO.N,unconnected-(U2-A6-Pad21)*%
X211100000Y-44800000D03*
%TO.P,U2,22,A5_22*%
%TO.N,Net-(U2-A5)*%
X208560000Y-44800000D03*
%TO.P,U2,23,A4_23*%
%TO.N,Net-(U2-A4)*%
X206020000Y-44800000D03*
%TO.P,U2,24,A3_24*%
%TO.N,unconnected-(U2-A3-Pad24)*%
X203480000Y-44800000D03*
%TO.P,U2,25,A2_25*%
%TO.N,unconnected-(U2-A2-Pad25)*%
X200940000Y-44800000D03*
%TO.P,U2,26,A1_26*%
%TO.N,unconnected-(U2-A1-Pad26)*%
X198400000Y-44800000D03*
%TO.P,U2,27,A0_27*%
%TO.N,Net-(U2-A0)*%
X195860000Y-44800000D03*
%TO.P,U2,28,REF_28*%
%TO.N,unconnected-(U2-REF-Pad28)*%
X193320000Y-44800000D03*
%TO.P,U2,29,3V3_29*%
%TO.N,Net-(U2-3V3)*%
X190780000Y-44800000D03*
%TO.P,U2,30,D13_30*%
%TO.N,unconnected-(U2-D13-Pad30)*%
X188240000Y-44800000D03*
%TD*%
D28*
%TO.P,K2,1,A_1*%
%TO.N,Net-(K2-A)*%
X181512500Y-49100000D03*
%TO.P,K2,2,B_2*%
%TO.N,Net-(J2-Pin_2)*%
X178972500Y-49100000D03*
%TD*%
D19*
%TO.P,R11,1*%
%TO.N,Net-(K2-A)*%
X175812500Y-45000000D03*
%TO.P,R11,2*%
%TO.N,Net-(LED5-A)*%
X173987500Y-45000000D03*
%TD*%
D29*
%TO.P,C9,1*%
%TO.N,Net-(U2-3V3)*%
X201750000Y-107100000D03*
%TO.P,C9,2*%
%TO.N,Net-(J2-Pin_1)*%
X199850000Y-107100000D03*
%TD*%
D19*
%TO.P,R4,1*%
%TO.N,Net-(U2-D9)*%
X188200000Y-98200000D03*
%TO.P,R4,2*%
%TO.N,Net-(U3-A)*%
X186375000Y-98200000D03*
%TD*%
D30*
%TO.P,U4,1,GND_1*%
%TO.N,Net-(J2-Pin_1)*%
X203600000Y-95700000D03*
D31*
%TO.P,U4,2,VCC_2*%
%TO.N,Net-(U2-3V3)*%
X203600000Y-98240000D03*
%TO.P,U4,3,SCL_3*%
%TO.N,Net-(U2-A5)*%
X203600000Y-100780000D03*
%TO.P,U4,4,SDA_4*%
%TO.N,Net-(U2-A4)*%
X203600000Y-103320000D03*
%TD*%
D32*
%TO.N,*%
X202100000Y-85000000D03*
D33*
X165785000Y-71766623D03*
D32*
X175175000Y-85040000D03*
D34*
%TO.N,Net-(U1-A)*%
X175900000Y-63800000D03*
X174500000Y-52100000D03*
X158400000Y-58500000D03*
X162400000Y-60600000D03*
%TO.N,Net-(J2-Pin_1)*%
X178525000Y-55400000D03*
X173837500Y-49200000D03*
X199700000Y-91300000D03*
X199700000Y-95100000D03*
D32*
%TO.N,Net-(D1-A)*%
X238100000Y-83200000D03*
D34*
X186075000Y-75975000D03*
X175300000Y-40100000D03*
X190700000Y-91387500D03*
X163420000Y-50880000D03*
X174100000Y-69800000D03*
%TO.N,Net-(R9-Pad1)*%
X179400000Y-71700000D03*
X179400000Y-78500000D03*
%TO.N,Net-(K1-A)*%
X156700000Y-63200000D03*
X155800000Y-50880000D03*
D32*
%TO.N,Net-(U3-VCC)*%
X174800000Y-105100000D03*
X170700000Y-100800000D03*
X200300000Y-111600000D03*
D34*
%TO.N,Net-(D1-K)*%
X169200000Y-93400000D03*
X194427500Y-101400000D03*
X195197276Y-112050206D03*
%TO.N,Net-(T3-G)*%
X195625000Y-91400000D03*
X195600000Y-95700000D03*
%TO.N,Net-(D2-A)*%
X169200000Y-110400000D03*
X168200000Y-99500000D03*
D32*
X194650000Y-80750000D03*
D34*
X178600000Y-97800000D03*
%TO.N,Net-(U3-A)*%
X189300000Y-108900000D03*
X186375000Y-98200000D03*
%TO.N,Net-(J2-Pin_2)*%
X171400000Y-43700000D03*
%TO.N,Net-(J4-Pin_2)*%
X154710000Y-83000000D03*
%TO.N,Net-(J4-Pin_1)*%
X161900000Y-116200000D03*
X171700000Y-119550000D03*
X156800000Y-88100000D03*
X186800000Y-118500000D03*
D32*
%TO.N,Net-(D2-K)*%
X208700000Y-88700000D03*
X238300000Y-88700000D03*
D34*
X185600000Y-47150000D03*
%TO.N,Net-(U2-D9)*%
X193800000Y-98600000D03*
X188200000Y-98200000D03*
X205200000Y-99330000D03*
%TO.N,Net-(LED2-A)*%
X197800000Y-91300000D03*
X197800000Y-95300000D03*
%TO.N,Net-(U2-3V3)*%
X194100000Y-40900000D03*
%TD*%
%TO.N,*%
D35*
X202065000Y-85025000D02*
X202075000Y-85025000D01*
X202075000Y-85025000D02*
X202100000Y-85000000D01*
D36*
X162488377Y-68470000D02*
X165785000Y-71766623D01*
X160290000Y-68470000D02*
X162488377Y-68470000D01*
%TO.N,Net-(U1-A)*%
D37*
X174700000Y-52000000D02*
X174600000Y-52000000D01*
X172400000Y-63700000D02*
X175800000Y-63700000D01*
X162400000Y-60600000D02*
X169300000Y-60600000D01*
X175800000Y-63700000D02*
X175900000Y-63800000D01*
X169300000Y-60600000D02*
X172400000Y-63700000D01*
X174600000Y-52000000D02*
X174500000Y-52100000D01*
%TO.N,Net-(J2-Pin_1)*%
X199700000Y-95100000D02*
X199700000Y-99800000D01*
X157881194Y-44780000D02*
X169417500Y-44780000D01*
D38*
X153450000Y-42814824D02*
X155165176Y-44530000D01*
X153450000Y-40250000D02*
X153450000Y-42814824D01*
D37*
X187375000Y-103100000D02*
X169250000Y-103100000D01*
X153260000Y-62305000D02*
X153260000Y-49401194D01*
X191887500Y-109020000D02*
X191887500Y-107612500D01*
X199850000Y-99950000D02*
X199850000Y-107100000D01*
X199700000Y-99800000D02*
X191887500Y-107612500D01*
X169417500Y-44780000D02*
X173837500Y-49200000D01*
X199675000Y-91300000D02*
X199700000Y-91300000D01*
X169250000Y-103100000D02*
X153260000Y-87110000D01*
X160880000Y-59499999D02*
X160880000Y-58500000D01*
X160179999Y-60200000D02*
X160880000Y-59499999D01*
X153260000Y-62305000D02*
X155365000Y-60200000D01*
X155365000Y-60200000D02*
X160179999Y-60200000D01*
X203600000Y-95700000D02*
X201510000Y-97790000D01*
X199850000Y-99950000D02*
X201510000Y-98290000D01*
X153260000Y-87110000D02*
X153260000Y-62305000D01*
D38*
X155165176Y-44530000D02*
X159200000Y-44530000D01*
D37*
X153260000Y-49401194D02*
X157881194Y-44780000D01*
X191887500Y-107612500D02*
X187375000Y-103100000D01*
X201510000Y-97790000D02*
X201510000Y-98290000D01*
X199700000Y-99800000D02*
X199850000Y-99950000D01*
D38*
X155900000Y-37800000D02*
X153450000Y-40250000D01*
%TO.N,Net-(D1-A)*%
D36*
X185990000Y-75890000D02*
X186075000Y-75975000D01*
D38*
X179930030Y-36350000D02*
X178800000Y-37480030D01*
D37*
X175300000Y-40100000D02*
X175200000Y-40000000D01*
D36*
X157010000Y-77590000D02*
X163890000Y-77590000D01*
D38*
X182587500Y-37300000D02*
X181637500Y-36350000D01*
D36*
X186075000Y-75975000D02*
X186075000Y-68425000D01*
D37*
X175300000Y-40100000D02*
X176700000Y-40100000D01*
X186000000Y-75900000D02*
X186075000Y-75975000D01*
D38*
X182587500Y-38000000D02*
X182587500Y-37300000D01*
X181637500Y-36350000D02*
X179930030Y-36350000D01*
D36*
X170925000Y-77600000D02*
X172635000Y-75890000D01*
X163900000Y-77600000D02*
X170925000Y-77600000D01*
D35*
X174100000Y-69800000D02*
X174100000Y-74425000D01*
D36*
X189875000Y-68425000D02*
X186075000Y-68425000D01*
D38*
X178800000Y-37480030D02*
X178800000Y-38000000D01*
D36*
X238100000Y-79200000D02*
X238100000Y-83200000D01*
D35*
X174100000Y-74425000D02*
X172635000Y-75890000D01*
D36*
X190500000Y-67800000D02*
X189875000Y-68425000D01*
X172635000Y-75890000D02*
X185990000Y-75890000D01*
D35*
X190700000Y-91387500D02*
X193787500Y-91387500D01*
D36*
X163890000Y-77590000D02*
X163900000Y-77600000D01*
D35*
X193787500Y-91387500D02*
X193800000Y-91400000D01*
D37*
X176700000Y-40100000D02*
X178800000Y-38000000D01*
%TO.N,Net-(R9-Pad1)*%
D38*
X160880000Y-50220000D02*
X160880000Y-50880000D01*
X179400000Y-85212500D02*
X179400000Y-78500000D01*
X186200000Y-91312500D02*
X185500000Y-91312500D01*
X179400000Y-63766016D02*
X164563984Y-48930000D01*
X164563984Y-48930000D02*
X162170000Y-48930000D01*
X158340000Y-50880000D02*
X160880000Y-50880000D01*
X162170000Y-48930000D02*
X160880000Y-50220000D01*
X185500000Y-91312500D02*
X179400000Y-85212500D01*
X179400000Y-71700000D02*
X179400000Y-63766016D01*
%TO.N,Net-(K1-A)*%
D36*
X158688910Y-46730000D02*
X165530000Y-46730000D01*
X165530000Y-46730000D02*
X182500000Y-63700000D01*
D35*
X156510000Y-63390000D02*
X156700000Y-63200000D01*
D36*
X182500000Y-63700000D02*
X200850000Y-63700000D01*
X155800000Y-49618910D02*
X158688910Y-46730000D01*
X200850000Y-63700000D02*
X212975000Y-75825000D01*
D37*
X155800000Y-49880001D02*
X155800000Y-50880000D01*
D36*
X155800000Y-50880000D02*
X155800000Y-49618910D01*
D35*
X155210000Y-63390000D02*
X156510000Y-63390000D01*
%TO.N,Net-(T2-G)*%
D36*
X186200000Y-87790000D02*
X186200000Y-88600000D01*
X186200000Y-88600000D02*
X186500000Y-88900000D01*
X186500000Y-88900000D02*
X190800000Y-88900000D01*
X183535000Y-85125000D02*
X186200000Y-87790000D01*
%TO.N,Net-(U3-VCC)*%
X200300000Y-113300000D02*
X200300000Y-111600000D01*
X185700000Y-116000000D02*
X174800000Y-105100000D01*
X184550000Y-101150000D02*
X186807500Y-101150000D01*
X184868377Y-95850000D02*
X186100000Y-95850000D01*
X182059188Y-98659188D02*
X184550000Y-101150000D01*
X200300000Y-113300000D02*
X197600000Y-116000000D01*
X182059188Y-98659188D02*
X184868377Y-95850000D01*
X170700000Y-100800000D02*
X179918377Y-100800000D01*
D38*
X190650000Y-95550000D02*
X190700000Y-95500000D01*
X186100000Y-95550000D02*
X190650000Y-95550000D01*
D36*
X197600000Y-116000000D02*
X185700000Y-116000000D01*
X179918377Y-100800000D02*
X182059188Y-98659188D01*
%TO.N,Net-(D1-K)*%
X195220000Y-113300000D02*
X195220000Y-112072930D01*
D38*
X190650000Y-93650000D02*
X190700000Y-93600000D01*
D36*
X170095000Y-85040000D02*
X170095000Y-92505000D01*
D38*
X190700000Y-93600000D02*
X206890000Y-93600000D01*
X183750000Y-93650000D02*
X186100000Y-93650000D01*
X183500000Y-93400000D02*
X183750000Y-93650000D01*
D36*
X170095000Y-92505000D02*
X169200000Y-93400000D01*
X169200000Y-93400000D02*
X183500000Y-93400000D01*
D38*
X206890000Y-93600000D02*
X215515000Y-84975000D01*
D36*
X195220000Y-112072930D02*
X195197276Y-112050206D01*
D38*
X186100000Y-93650000D02*
X190650000Y-93650000D01*
%TO.N,Net-(LED5-A)*%
X175712500Y-48680030D02*
X175712500Y-49200000D01*
X173987500Y-46955030D02*
X175712500Y-48680030D01*
X173987500Y-45000000D02*
X173987500Y-46955030D01*
%TO.N,Net-(U2-A0)*%
X183608516Y-40500000D02*
X182500000Y-41608516D01*
X186560000Y-40500000D02*
X183608516Y-40500000D01*
X189060000Y-38000000D02*
X184412500Y-38000000D01*
X195860000Y-44800000D02*
X189060000Y-38000000D01*
X182500000Y-41608516D02*
X182500000Y-42150000D01*
X189060000Y-38000000D02*
X186560000Y-40500000D01*
%TO.N,Net-(R7-Pad1)*%
D37*
X189347500Y-101400000D02*
X191887500Y-101400000D01*
X193775000Y-95700000D02*
X191887500Y-97587500D01*
X191887500Y-97587500D02*
X191887500Y-101400000D01*
%TO.N,Net-(T3-G)*%
X196284570Y-82025000D02*
X207485000Y-82025000D01*
X195625000Y-91400000D02*
X195625000Y-86069164D01*
X195625000Y-86069164D02*
X195285000Y-85729164D01*
X195285000Y-85729164D02*
X195285000Y-83024570D01*
X207485000Y-82025000D02*
X210435000Y-84975000D01*
X195285000Y-83024570D02*
X196284570Y-82025000D01*
%TO.N,Net-(D2-A)*%
D36*
X190275000Y-85125000D02*
X199525000Y-75875000D01*
X188615000Y-85125000D02*
X190275000Y-85125000D01*
D38*
X169100000Y-98600000D02*
X168200000Y-99500000D01*
X177800000Y-98600000D02*
X169100000Y-98600000D01*
X178600000Y-97800000D02*
X177800000Y-98600000D01*
%TO.N,Net-(J1-Pin_2)*%
D36*
X157477500Y-73122500D02*
X157477500Y-71200000D01*
X157010000Y-73590000D02*
X157477500Y-73122500D01*
X163790000Y-73590000D02*
X163800000Y-73600000D01*
X157477500Y-71200000D02*
X157477500Y-67041381D01*
X157477500Y-67041381D02*
X156366119Y-65930000D01*
X156366119Y-65930000D02*
X155210000Y-65930000D01*
X160300000Y-73590000D02*
X159867500Y-73590000D01*
X160300000Y-73590000D02*
X163790000Y-73590000D01*
X159867500Y-73590000D02*
X157477500Y-71200000D01*
X157010000Y-73590000D02*
X160300000Y-73590000D01*
%TO.N,Net-(U2-D10)*%
D37*
X176525000Y-52000000D02*
X178300000Y-52000000D01*
X179100000Y-50700000D02*
X178400000Y-51400000D01*
X218720000Y-60040000D02*
X209380000Y-50700000D01*
X178400000Y-51400000D02*
X178400000Y-52100000D01*
X209380000Y-50700000D02*
X179100000Y-50700000D01*
X178300000Y-52000000D02*
X178400000Y-52100000D01*
%TO.N,Net-(U3-A)*%
X189347500Y-109020000D02*
X189347500Y-108947500D01*
X189347500Y-108947500D02*
X189300000Y-108900000D01*
%TO.N,Net-(J2-Pin_2)*%
D38*
X155900000Y-41800000D02*
X169500000Y-41800000D01*
X169500000Y-41800000D02*
X171400000Y-43700000D01*
%TO.N,Net-(LED4-A)*%
X178800000Y-42100000D02*
X178800000Y-40404163D01*
X178800000Y-40404163D02*
X180675000Y-38529163D01*
X180675000Y-38529163D02*
X180675000Y-38050000D01*
%TO.N,Net-(LED1-A)*%
D37*
X180400000Y-55400000D02*
X180400000Y-52275000D01*
X180400000Y-52275000D02*
X180225000Y-52100000D01*
%TO.N,Net-(J4-Pin_2)*%
D38*
X157050000Y-81850000D02*
X155860000Y-81850000D01*
X162337500Y-81450000D02*
X157450000Y-81450000D01*
X155860000Y-81850000D02*
X154710000Y-83000000D01*
X157450000Y-81450000D02*
X157050000Y-81850000D01*
%TO.N,Net-(J4-Pin_1)*%
X161900000Y-116200000D02*
X168350000Y-116200000D01*
X162337500Y-85550000D02*
X159700000Y-85550000D01*
X185750000Y-119550000D02*
X186800000Y-118500000D01*
X171700000Y-119550000D02*
X185750000Y-119550000D01*
X157350000Y-85550000D02*
X157050000Y-85850000D01*
X159700000Y-85550000D02*
X157350000Y-85550000D01*
X159350000Y-85550000D02*
X156800000Y-88100000D01*
X168350000Y-116200000D02*
X171700000Y-119550000D01*
X159700000Y-85550000D02*
X159350000Y-85550000D01*
%TO.N,Net-(D2-K)*%
D37*
X180625000Y-42691484D02*
X179766484Y-43550000D01*
D36*
X235150000Y-77978069D02*
X235150000Y-85550000D01*
D35*
X196985000Y-85025000D02*
X200660000Y-88700000D01*
D36*
X237928069Y-75200000D02*
X235150000Y-77978069D01*
D38*
X183266484Y-43850000D02*
X181733516Y-43850000D01*
D37*
X180625000Y-42100000D02*
X180625000Y-42691484D01*
D35*
X185550000Y-47100000D02*
X185600000Y-47150000D01*
D37*
X176850000Y-43550000D02*
X175300000Y-42000000D01*
D35*
X184000000Y-47100000D02*
X185550000Y-47100000D01*
D38*
X184325000Y-42200000D02*
X184325000Y-42791484D01*
D37*
X179766484Y-43550000D02*
X176850000Y-43550000D01*
D38*
X183266484Y-46366484D02*
X184000000Y-47100000D01*
D35*
X200660000Y-88700000D02*
X208700000Y-88700000D01*
D36*
X238100000Y-75200000D02*
X237928069Y-75200000D01*
D38*
X183266484Y-43850000D02*
X183266484Y-46366484D01*
X181733516Y-43850000D02*
X180625000Y-42741484D01*
X184325000Y-42791484D02*
X183266484Y-43850000D01*
X180625000Y-42741484D02*
X180625000Y-42100000D01*
D36*
X235150000Y-85550000D02*
X238300000Y-88700000D01*
%TO.N,Net-(U2-D9)*%
D37*
X216180000Y-60040000D02*
X219400000Y-63260000D01*
X193875000Y-98500000D02*
X193875000Y-98525000D01*
X193875000Y-98525000D02*
X193800000Y-98600000D01*
X219400000Y-63260000D02*
X219400000Y-85130000D01*
X219400000Y-85130000D02*
X205200000Y-99330000D01*
%TO.N,Net-(LED2-A)*%
X195700000Y-98500000D02*
X197800000Y-96400000D01*
X197800000Y-96400000D02*
X197800000Y-95300000D01*
%TO.N,Net-(LED_TRACO1-A)*%
D38*
X164212500Y-85550000D02*
X164212500Y-81500000D01*
X164212500Y-81500000D02*
X164162500Y-81450000D01*
%TO.N,Net-(K2-A)*%
X219500000Y-49100000D02*
X223800000Y-44800000D01*
X182000000Y-49100000D02*
X219500000Y-49100000D01*
X175812500Y-45000000D02*
X177900000Y-45000000D01*
X177900000Y-45000000D02*
X182000000Y-49100000D01*
X181512500Y-49100000D02*
X182000000Y-49100000D01*
%TO.N,Net-(U2-A5)*%
X210310000Y-43050000D02*
X224524874Y-43050000D01*
X224524874Y-43050000D02*
X225550000Y-44075126D01*
X225550000Y-44075126D02*
X225550000Y-85360000D01*
X208560000Y-44800000D02*
X210310000Y-43050000D01*
X225550000Y-85360000D02*
X210130000Y-100780000D01*
X210130000Y-100780000D02*
X203600000Y-100780000D01*
%TO.N,Net-(U2-A4)*%
X227250000Y-43370962D02*
X225229037Y-41350000D01*
X227250000Y-86064163D02*
X227250000Y-43370962D01*
D37*
X209994163Y-103320000D02*
X227250000Y-86064163D01*
X203600000Y-103320000D02*
X209994163Y-103320000D01*
D38*
X225229037Y-41350000D02*
X209470000Y-41350000D01*
X209470000Y-41350000D02*
X206020000Y-44800000D01*
%TO.N,Net-(U2-3V3)*%
D37*
X201750000Y-100090000D02*
X201750000Y-107100000D01*
X228700001Y-42770352D02*
X225829646Y-39900000D01*
X201750000Y-107100000D02*
X208264773Y-107100000D01*
X195100000Y-39900000D02*
X194100000Y-40900000D01*
X203600000Y-98240000D02*
X201750000Y-100090000D01*
X208264773Y-107100000D02*
X228700000Y-86664773D01*
X225829646Y-39900000D02*
X195100000Y-39900000D01*
X228700000Y-86664773D02*
X228700001Y-42770352D01*
%TD*%
%TA.AperFunction,Conductor*%
%TO.N,Net-(D1-A)*%
G36*
X189701765Y-69287210D02*
G01*
X189767397Y-69311170D01*
X189809658Y-69366810D01*
X189815128Y-69436466D01*
X189801443Y-69472474D01*
X187612392Y-73303313D01*
X187562040Y-73351754D01*
X187493493Y-73365282D01*
X187428513Y-73339603D01*
X187394887Y-73299329D01*
X185784776Y-70225482D01*
X185382248Y-69457020D01*
X185368579Y-69388501D01*
X185394124Y-69323469D01*
X185450773Y-69282571D01*
X185475696Y-69276573D01*
X186787859Y-69101618D01*
X186812217Y-69100788D01*
X189701765Y-69287210D01*
G37*
%TD.AperFunction*%
%TD*%
M02*
