%TF.GenerationSoftware,KiCad,Pcbnew,10.0.0*%
%TF.CreationDate,2026-05-09T13:31:33+03:00*%
%TF.ProjectId,Buck Boost,4275636b-2042-46f6-9f73-742e6b696361,rev?*%
%TF.SameCoordinates,Original*%
%TF.FileFunction,Copper,L2,Bot*%
%TF.FilePolarity,Positive*%
%FSLAX46Y46*%
G04 Gerber Fmt 4.6, Leading zero omitted, Abs format (unit mm)*
G04 Created by KiCad (PCBNEW 10.0.0) date 2026-05-09 13:31:33*
%MOMM*%
%LPD*%
G01*
G04 APERTURE LIST*
G04 Aperture macros list*
%AMRoundRect*
0 Rectangle with rounded corners*
0 $1 Rounding radius*
0 $2 $3 $4 $5 $6 $7 $8 $9 X,Y pos of 4 corners*
0 Add a 4 corners polygon primitive as box body*
4,1,4,$2,$3,$4,$5,$6,$7,$8,$9,$2,$3,0*
0 Add four circle primitives for the rounded corners*
1,1,$1+$1,$2,$3*
1,1,$1+$1,$4,$5*
1,1,$1+$1,$6,$7*
1,1,$1+$1,$8,$9*
0 Add four rect primitives between the rounded corners*
20,1,$1+$1,$2,$3,$4,$5,0*
20,1,$1+$1,$4,$5,$6,$7,0*
20,1,$1+$1,$6,$7,$8,$9,0*
20,1,$1+$1,$8,$9,$2,$3,0*%
G04 Aperture macros list end*
%TA.AperFunction,ComponentPad*%
%ADD10C,3.000000*%
%TD*%
%TA.AperFunction,ComponentPad*%
%ADD11RoundRect,0.250001X0.499999X-0.499999X0.499999X0.499999X-0.499999X0.499999X-0.499999X-0.499999X0*%
%TD*%
%TA.AperFunction,ComponentPad*%
%ADD12C,1.500000*%
%TD*%
%TA.AperFunction,ComponentPad*%
%ADD13R,1.635000X1.635000*%
%TD*%
%TA.AperFunction,ComponentPad*%
%ADD14C,1.635000*%
%TD*%
%TA.AperFunction,ComponentPad*%
%ADD15R,1.600000X1.600000*%
%TD*%
%TA.AperFunction,ComponentPad*%
%ADD16O,1.600000X1.600000*%
%TD*%
%TA.AperFunction,ComponentPad*%
%ADD17C,1.400000*%
%TD*%
%TA.AperFunction,ComponentPad*%
%ADD18RoundRect,0.170000X-0.680000X0.680000X-0.680000X-0.680000X0.680000X-0.680000X0.680000X0.680000X0*%
%TD*%
%TA.AperFunction,ComponentPad*%
%ADD19C,1.700000*%
%TD*%
%TA.AperFunction,ViaPad*%
%ADD20C,2.500000*%
%TD*%
%TA.AperFunction,ViaPad*%
%ADD21C,0.600000*%
%TD*%
%TA.AperFunction,ViaPad*%
%ADD22C,1.000000*%
%TD*%
%TA.AperFunction,Conductor*%
%ADD23C,2.000000*%
%TD*%
%TA.AperFunction,Conductor*%
%ADD24C,2.500000*%
%TD*%
%TA.AperFunction,Conductor*%
%ADD25C,1.000000*%
%TD*%
%TA.AperFunction,Conductor*%
%ADD26C,1.500000*%
%TD*%
%TA.AperFunction,Conductor*%
%ADD27C,3.000000*%
%TD*%
G04 APERTURE END LIST*
D10*
%TO.P,J1,1,Pin_1_1*%
%TO.N,Net-(D1-A)*%
X157010000Y-77590000D03*
%TO.P,J1,2,Pin_2_2*%
%TO.N,Net-(J1-Pin_2)*%
X157010000Y-73590000D03*
%TD*%
%TO.P,J2,1,Pin_1_1*%
%TO.N,Net-(J2-Pin_1)*%
X155900000Y-37800000D03*
%TO.P,J2,2,Pin_2_2*%
%TO.N,Net-(J2-Pin_2)*%
X155900000Y-41800000D03*
%TD*%
D11*
%TO.P,U5,1,+Vin_1*%
%TO.N,Net-(J4-Pin_2)*%
X187600000Y-113300000D03*
D12*
%TO.P,U5,2,-Vin_2*%
%TO.N,Net-(J4-Pin_1)*%
X190140000Y-113300000D03*
%TO.P,U5,4,-Vout_4*%
%TO.N,Net-(D1-K)*%
X195220000Y-113300000D03*
%TO.P,U5,6,+Vout_6*%
%TO.N,Net-(U3-VCC)*%
X200300000Y-113300000D03*
%TD*%
D10*
%TO.P,J4,1,Pin_1_1*%
%TO.N,Net-(J4-Pin_1)*%
X157050000Y-85850000D03*
%TO.P,J4,2,Pin_2_2*%
%TO.N,Net-(J4-Pin_2)*%
X157050000Y-81850000D03*
%TD*%
D13*
%TO.P,K1,1,A_1*%
%TO.N,Net-(K1-A)*%
X155210000Y-63390000D03*
D14*
%TO.P,K1,2,B_2*%
%TO.N,Net-(J1-Pin_2)*%
X155210000Y-65930000D03*
%TO.P,K1,3,C_3*%
%TO.N,unconnected-(K1-C-Pad3)*%
X155210000Y-68470000D03*
%TO.P,K1,SH1*%
%TO.N,N/C*%
X160290000Y-63390000D03*
%TO.P,K1,SH2*%
X160290000Y-68470000D03*
%TD*%
D10*
%TO.P,J3,1,Pin_1_1*%
%TO.N,Net-(D2-K)*%
X238100000Y-75200000D03*
%TO.P,J3,2,Pin_2_2*%
%TO.N,Net-(D1-A)*%
X238100000Y-79200000D03*
%TD*%
D15*
%TO.P,U2,1,TX1_1*%
%TO.N,unconnected-(U2-TX1-Pad1)*%
X188240000Y-60040000D03*
D16*
%TO.P,U2,2,RX0_2*%
%TO.N,unconnected-(U2-RX0-Pad2)*%
X190780000Y-60040000D03*
%TO.P,U2,3,RST_3*%
%TO.N,unconnected-(U2-RST-Pad3)*%
X193320000Y-60040000D03*
%TO.P,U2,4,GND_4*%
%TO.N,unconnected-(U2-GND-Pad4)*%
X195860000Y-60040000D03*
%TO.P,U2,5,D2_5*%
%TO.N,unconnected-(U2-D2-Pad5)*%
X198400000Y-60040000D03*
%TO.P,U2,6,D3_6*%
%TO.N,unconnected-(U2-D3-Pad6)*%
X200940000Y-60040000D03*
%TO.P,U2,7,D4_7*%
%TO.N,unconnected-(U2-D4-Pad7)*%
X203480000Y-60040000D03*
%TO.P,U2,8,D5_8*%
%TO.N,unconnected-(U2-D5-Pad8)*%
X206020000Y-60040000D03*
%TO.P,U2,9,D6_9*%
%TO.N,unconnected-(U2-D6-Pad9)*%
X208560000Y-60040000D03*
%TO.P,U2,10,D7_10*%
%TO.N,unconnected-(U2-D7-Pad10)*%
X211100000Y-60040000D03*
%TO.P,U2,11,D8_11*%
%TO.N,unconnected-(U2-D8-Pad11)*%
X213640000Y-60040000D03*
%TO.P,U2,12,D9_12*%
%TO.N,Net-(U2-D9)*%
X216180000Y-60040000D03*
%TO.P,U2,13,D10_13*%
%TO.N,Net-(U2-D10)*%
X218720000Y-60040000D03*
%TO.P,U2,14,D11_14*%
%TO.N,unconnected-(U2-D11-Pad14)*%
X221260000Y-60040000D03*
%TO.P,U2,15,D12_15*%
%TO.N,unconnected-(U2-D12-Pad15)*%
X223800000Y-60040000D03*
%TO.P,U2,16,VIN_16*%
%TO.N,Net-(K2-A)*%
X223800000Y-44800000D03*
%TO.P,U2,17,GND_17*%
%TO.N,Net-(J2-Pin_1)*%
X221260000Y-44800000D03*
%TO.P,U2,18,RST_18*%
%TO.N,unconnected-(U2-RST-Pad18)*%
X218720000Y-44800000D03*
%TO.P,U2,19,5V_19*%
%TO.N,unconnected-(U2-5V-Pad19)*%
X216180000Y-44800000D03*
%TO.P,U2,20,A7_20*%
%TO.N,unconnected-(U2-A7-Pad20)*%
X213640000Y-44800000D03*
%TO.P,U2,21,A6_21*%
%TO.N,unconnected-(U2-A6-Pad21)*%
X211100000Y-44800000D03*
%TO.P,U2,22,A5_22*%
%TO.N,Net-(U2-A5)*%
X208560000Y-44800000D03*
%TO.P,U2,23,A4_23*%
%TO.N,Net-(U2-A4)*%
X206020000Y-44800000D03*
%TO.P,U2,24,A3_24*%
%TO.N,unconnected-(U2-A3-Pad24)*%
X203480000Y-44800000D03*
%TO.P,U2,25,A2_25*%
%TO.N,unconnected-(U2-A2-Pad25)*%
X200940000Y-44800000D03*
%TO.P,U2,26,A1_26*%
%TO.N,unconnected-(U2-A1-Pad26)*%
X198400000Y-44800000D03*
%TO.P,U2,27,A0_27*%
%TO.N,Net-(U2-A0)*%
X195860000Y-44800000D03*
%TO.P,U2,28,REF_28*%
%TO.N,unconnected-(U2-REF-Pad28)*%
X193320000Y-44800000D03*
%TO.P,U2,29,3V3_29*%
%TO.N,Net-(U2-3V3)*%
X190780000Y-44800000D03*
%TO.P,U2,30,D13_30*%
%TO.N,unconnected-(U2-D13-Pad30)*%
X188240000Y-44800000D03*
%TD*%
D17*
%TO.P,K2,1,A_1*%
%TO.N,Net-(K2-A)*%
X181512500Y-49100000D03*
%TO.P,K2,2,B_2*%
%TO.N,Net-(J2-Pin_2)*%
X178972500Y-49100000D03*
%TD*%
D18*
%TO.P,U4,1,GND_1*%
%TO.N,Net-(J2-Pin_1)*%
X203600000Y-95700000D03*
D19*
%TO.P,U4,2,VCC_2*%
%TO.N,Net-(U2-3V3)*%
X203600000Y-98240000D03*
%TO.P,U4,3,SCL_3*%
%TO.N,Net-(U2-A5)*%
X203600000Y-100780000D03*
%TO.P,U4,4,SDA_4*%
%TO.N,Net-(U2-A4)*%
X203600000Y-103320000D03*
%TD*%
D20*
%TO.N,*%
X202100000Y-85000000D03*
D21*
X165785000Y-71766623D03*
D20*
X175175000Y-85040000D03*
D22*
%TO.N,Net-(U1-A)*%
X175900000Y-63800000D03*
X174500000Y-52100000D03*
X158400000Y-58500000D03*
X162400000Y-60600000D03*
%TO.N,Net-(J2-Pin_1)*%
X178525000Y-55400000D03*
X173837500Y-49200000D03*
X199700000Y-91300000D03*
X199700000Y-95100000D03*
D20*
%TO.N,Net-(D1-A)*%
X238100000Y-83200000D03*
D22*
X186075000Y-75975000D03*
X175300000Y-40100000D03*
X190700000Y-91387500D03*
X163420000Y-50880000D03*
X174100000Y-69800000D03*
%TO.N,Net-(R9-Pad1)*%
X179400000Y-71700000D03*
X179400000Y-78500000D03*
%TO.N,Net-(K1-A)*%
X156700000Y-63200000D03*
X155800000Y-50880000D03*
D20*
%TO.N,Net-(U3-VCC)*%
X174800000Y-105100000D03*
X170700000Y-100800000D03*
X200300000Y-111600000D03*
D22*
%TO.N,Net-(D1-K)*%
X169200000Y-93400000D03*
X194427500Y-101400000D03*
X195197276Y-112050206D03*
%TO.N,Net-(T3-G)*%
X195625000Y-91400000D03*
X195600000Y-95700000D03*
%TO.N,Net-(D2-A)*%
X169200000Y-110400000D03*
X168200000Y-99500000D03*
D20*
X194650000Y-80750000D03*
D22*
X178600000Y-97800000D03*
%TO.N,Net-(U3-A)*%
X189300000Y-108900000D03*
X186375000Y-98200000D03*
%TO.N,Net-(J2-Pin_2)*%
X171400000Y-43700000D03*
%TO.N,Net-(J4-Pin_2)*%
X154710000Y-83000000D03*
%TO.N,Net-(J4-Pin_1)*%
X161900000Y-116200000D03*
X171700000Y-119550000D03*
X156800000Y-88100000D03*
X186800000Y-118500000D03*
D20*
%TO.N,Net-(D2-K)*%
X208700000Y-88700000D03*
X238300000Y-88700000D03*
D22*
X185600000Y-47150000D03*
%TO.N,Net-(U2-D9)*%
X193800000Y-98600000D03*
X188200000Y-98200000D03*
X205200000Y-99330000D03*
%TO.N,Net-(LED2-A)*%
X197800000Y-91300000D03*
X197800000Y-95300000D03*
%TO.N,Net-(U2-3V3)*%
X194100000Y-40900000D03*
%TD*%
%TO.N,*%
D23*
X202100000Y-85000000D02*
X202060000Y-85040000D01*
X202060000Y-85040000D02*
X175175000Y-85040000D01*
D24*
X165785000Y-71766623D02*
X165785000Y-75650000D01*
X165785000Y-75650000D02*
X175175000Y-85040000D01*
%TO.N,Net-(U1-A)*%
D25*
X175900000Y-53500000D02*
X175900000Y-63800000D01*
X162400000Y-60600000D02*
X160500000Y-60600000D01*
X174500000Y-52100000D02*
X175900000Y-53500000D01*
X160500000Y-60600000D02*
X158400000Y-58500000D01*
%TO.N,Net-(J2-Pin_1)*%
X173837500Y-49200000D02*
X178525000Y-53887500D01*
D26*
X214260000Y-37800000D02*
X155900000Y-37800000D01*
D25*
X178525000Y-53887500D02*
X178525000Y-55400000D01*
X199700000Y-91300000D02*
X199700000Y-95100000D01*
D26*
X221260000Y-44800000D02*
X214260000Y-37800000D01*
%TO.N,Net-(D1-A)*%
D23*
X174100000Y-61560000D02*
X169170000Y-56630000D01*
X174150000Y-69750000D02*
X174100000Y-69800000D01*
X190700000Y-91387500D02*
X170807500Y-91387500D01*
X170807500Y-91387500D02*
X157010000Y-77590000D01*
X169170000Y-43172284D02*
X172242284Y-40100000D01*
D24*
X230875000Y-75975000D02*
X186075000Y-75975000D01*
D23*
X174100000Y-69800000D02*
X174100000Y-61560000D01*
D24*
X238100000Y-83200000D02*
X230875000Y-75975000D01*
D23*
X169170000Y-56630000D02*
X169170000Y-43172284D01*
X172242284Y-40100000D02*
X175300000Y-40100000D01*
X169170000Y-56630000D02*
X163420000Y-50880000D01*
%TO.N,Net-(R9-Pad1)*%
D26*
X179400000Y-78500000D02*
X179400000Y-71700000D01*
%TO.N,Net-(K1-A)*%
D23*
X156700000Y-63200000D02*
X156700000Y-51780000D01*
X156700000Y-51780000D02*
X155800000Y-50880000D01*
%TO.N,Net-(U3-VCC)*%
D24*
X174800000Y-105100000D02*
X174800000Y-104900000D01*
X174800000Y-104900000D02*
X170700000Y-100800000D01*
%TO.N,Net-(D1-K)*%
X195197276Y-106600000D02*
X190947276Y-110850000D01*
X195197276Y-102169776D02*
X194427500Y-101400000D01*
X195197276Y-106600000D02*
X195197276Y-102169776D01*
X186650000Y-110850000D02*
X169200000Y-93400000D01*
X190947276Y-110850000D02*
X186650000Y-110850000D01*
X195197276Y-112050206D02*
X195197276Y-106600000D01*
%TO.N,Net-(T3-G)*%
D25*
X195600000Y-95700000D02*
X195600000Y-91425000D01*
X195600000Y-91425000D02*
X195625000Y-91400000D01*
%TO.N,Net-(D2-A)*%
D23*
X168200000Y-109400000D02*
X169200000Y-110400000D01*
D27*
X178385177Y-69250000D02*
X176850000Y-70785177D01*
X194650000Y-80750000D02*
X186678070Y-80750000D01*
X174600000Y-88687500D02*
X191818377Y-88687500D01*
X186678070Y-80750000D02*
X183125000Y-77196930D01*
X193400000Y-90269123D02*
X193400000Y-92505877D01*
X181412500Y-94987500D02*
X178600000Y-97800000D01*
X162835000Y-70544693D02*
X162835000Y-76922500D01*
X175218376Y-72500000D02*
X170690307Y-72500000D01*
D23*
X168200000Y-99500000D02*
X168200000Y-109400000D01*
D27*
X164563070Y-68816623D02*
X162835000Y-70544693D01*
X183125000Y-71960177D02*
X180414823Y-69250000D01*
X193400000Y-92505877D02*
X190918377Y-94987500D01*
X167006930Y-68816623D02*
X164563070Y-68816623D01*
X170690307Y-72500000D02*
X167006930Y-68816623D01*
X190918377Y-94987500D02*
X181412500Y-94987500D01*
X183125000Y-77196930D02*
X183125000Y-71960177D01*
X191818377Y-88687500D02*
X193400000Y-90269123D01*
X176850000Y-70868376D02*
X175218376Y-72500000D01*
X180414823Y-69250000D02*
X178385177Y-69250000D01*
X162835000Y-76922500D02*
X174600000Y-88687500D01*
X176850000Y-70785177D02*
X176850000Y-70868376D01*
%TO.N,Net-(U3-A)*%
D25*
X186375000Y-105975000D02*
X186375000Y-98200000D01*
X189300000Y-108900000D02*
X186375000Y-105975000D01*
%TO.N,Net-(J2-Pin_2)*%
D26*
X171400000Y-43700000D02*
X173572500Y-43700000D01*
X173572500Y-43700000D02*
X178972500Y-49100000D01*
%TO.N,Net-(J4-Pin_2)*%
X184100000Y-117900000D02*
X187600000Y-114400000D01*
X187600000Y-114400000D02*
X187600000Y-113300000D01*
X154710000Y-83000000D02*
X154600000Y-83110000D01*
X154600000Y-83110000D02*
X154600000Y-114100000D01*
X158400000Y-117900000D02*
X184100000Y-117900000D01*
X154600000Y-114100000D02*
X158400000Y-117900000D01*
%TO.N,Net-(J4-Pin_1)*%
X186800000Y-118500000D02*
X190140000Y-115160000D01*
X156800000Y-88100000D02*
X156800000Y-113895836D01*
X156800000Y-113895836D02*
X159104164Y-116200000D01*
X190140000Y-115160000D02*
X190140000Y-113300000D01*
X159104164Y-116200000D02*
X161900000Y-116200000D01*
%TO.N,Net-(D2-K)*%
D27*
X235925000Y-73025000D02*
X238100000Y-75200000D01*
X185600000Y-62400000D02*
X196225000Y-73025000D01*
X196225000Y-73025000D02*
X235925000Y-73025000D01*
X185600000Y-47150000D02*
X185600000Y-62400000D01*
D23*
X208700000Y-88700000D02*
X238300000Y-88700000D01*
%TO.N,Net-(U2-D9)*%
D25*
X204242032Y-104870000D02*
X200655216Y-104870000D01*
X194385216Y-98600000D02*
X193800000Y-98600000D01*
X200655216Y-104870000D02*
X194385216Y-98600000D01*
X205200000Y-103912032D02*
X204242032Y-104870000D01*
X193800000Y-98600000D02*
X188600000Y-98600000D01*
X188600000Y-98600000D02*
X188200000Y-98200000D01*
X205200000Y-99330000D02*
X205200000Y-103912032D01*
%TO.N,Net-(LED2-A)*%
X197800000Y-95300000D02*
X197800000Y-91300000D01*
%TO.N,Net-(U2-3V3)*%
X194100000Y-41480000D02*
X190780000Y-44800000D01*
X194100000Y-40900000D02*
X194100000Y-41480000D01*
%TD*%
M02*
