M48
; DRILL file KiCad 10.0.0 date 2026-04-29T15:27:47
; FORMAT={-:-/ absolute / metric / decimal}
; #@! TF.CreationDate,2026-04-29T15:27:47+03:00
; #@! TF.GenerationSoftware,Kicad,Pcbnew,10.0.0
; #@! TF.FileFunction,Plated,1,2,PTH
FMAT,2
METRIC
; #@! TA.AperFunction,Plated,PTH,ViaDrill
T1C0.400
; #@! TA.AperFunction,Plated,PTH,ComponentDrill
T2C0.700
; #@! TA.AperFunction,Plated,PTH,ComponentDrill
T3C0.800
; #@! TA.AperFunction,Plated,PTH,ComponentDrill
T4C0.900
; #@! TA.AperFunction,Plated,PTH,ComponentDrill
T5C1.000
; #@! TA.AperFunction,Plated,PTH,ComponentDrill
T6C1.100
; #@! TA.AperFunction,Plated,PTH,ViaDrill
T7C1.200
; #@! TA.AperFunction,Plated,PTH,ComponentDrill
T8C1.200
; #@! TA.AperFunction,Plated,PTH,ComponentDrill
T9C1.300
%
G90
G05
T1
X79.0Y-70.5
X83.0Y-73.5
X90.667Y-116.332
X97.0Y-81.032
X109.167Y-64.332
X113.25Y-108.25
X115.167Y-67.332
T2
X73.858Y-112.832
X73.858Y-116.332
X76.468Y-62.832
X76.468Y-70.453
X81.477Y-112.832
X81.477Y-116.332
X89.167Y-140.022
X89.167Y-147.642
X93.667Y-93.022
X93.667Y-100.642
X94.358Y-112.832
X94.358Y-116.332
X101.977Y-112.832
X101.977Y-116.332
X148.0Y-96.19
X148.0Y-103.81
X151.19Y-96.5
X158.81Y-96.5
X161.5Y-120.38
X161.5Y-128.0
X165.69Y-128.5
X166.69Y-85.5
X166.69Y-90.0
X167.94Y-115.5
X173.31Y-128.5
X174.31Y-85.5
X174.31Y-90.0
X175.56Y-115.5
T3
X83.877Y-147.832
X86.417Y-147.832
X92.417Y-150.832
X94.167Y-66.832
X94.212Y-62.092
X94.917Y-150.832
X96.667Y-66.832
X96.712Y-62.092
X99.858Y-59.023
X99.858Y-61.562
X99.858Y-64.102
X99.858Y-66.642
X101.358Y-88.843
X101.358Y-91.343
X101.358Y-98.517
X101.358Y-106.137
X103.897Y-98.517
X103.897Y-106.137
X106.438Y-98.517
X106.438Y-106.137
X107.477Y-59.023
X107.477Y-61.562
X107.477Y-64.102
X107.477Y-66.642
X108.977Y-98.517
X108.977Y-106.137
X109.358Y-88.888
X109.358Y-91.388
X165.25Y-55.95
X165.25Y-67.95
T4
X77.127Y-139.832
X79.667Y-139.832
X81.468Y-63.067
X81.468Y-65.608
X84.897Y-114.332
X87.438Y-114.332
X90.897Y-105.332
X93.438Y-105.332
X105.397Y-114.332
X107.938Y-114.332
X162.225Y-115.5
X164.765Y-115.5
T5
X74.657Y-119.222
X74.657Y-134.463
X77.197Y-119.222
X77.197Y-134.463
X79.737Y-119.222
X79.737Y-134.463
X82.277Y-119.222
X82.277Y-134.463
X84.817Y-119.222
X84.817Y-134.463
X87.358Y-119.222
X87.358Y-134.463
X89.897Y-119.222
X89.897Y-134.463
X91.022Y-59.682
X91.022Y-62.222
X91.022Y-67.302
X91.022Y-72.382
X92.438Y-119.222
X92.438Y-134.463
X93.667Y-139.022
X93.667Y-141.562
X93.667Y-144.102
X93.667Y-146.642
X94.977Y-119.222
X94.977Y-134.463
X97.517Y-119.222
X97.517Y-134.463
X100.057Y-119.222
X100.057Y-134.463
X102.597Y-119.222
X102.597Y-134.463
X105.137Y-119.222
X105.137Y-134.463
X107.677Y-119.222
X107.677Y-134.463
X110.218Y-119.222
X110.218Y-134.463
T6
X147.938Y-114.96
X147.938Y-120.04
X148.213Y-84.956
X148.213Y-87.496
X148.213Y-90.036
X181.77Y-116.46
X181.77Y-121.54
X181.843Y-85.46
X181.843Y-88.0
X181.843Y-90.54
T7
X82.5Y-124.5
X91.5Y-78.332
X126.5Y-95.5
X128.5Y-69.5
X134.0Y-134.0
X134.5Y-87.7
X157.0Y-86.5
T8
X79.267Y-83.332
X83.968Y-83.332
X84.667Y-93.517
X84.667Y-98.517
X88.667Y-83.332
X142.487Y-106.0
X142.487Y-129.5
X142.5Y-75.5
X142.5Y-99.0
X163.815Y-104.0
X168.815Y-104.0
X187.262Y-76.5
X187.262Y-100.0
X187.262Y-107.5
X187.262Y-131.0
T9
X69.167Y-70.332
X69.167Y-75.332
X69.167Y-83.332
X69.167Y-88.332
X74.417Y-147.832
X79.417Y-147.832
X163.25Y-141.532
X168.25Y-141.532
M30
